<svg xmlns="http://www.w3.org/2000/svg" xmlns:xlink="http://www.w3.org/1999/xlink" version="1.1" width="47.53611755371094" height="101.36589050292969" viewBox="-0.5000152587890625 -0.500030517578125 47.53611755371094 101.36589050292969"><g transform="translate(-221.485,-128.009)"><g data-paper-data="{&quot;isPaintingLayer&quot;:true}" fill="none" fill-rule="nonzero" stroke="none" stroke-width="1" stroke-linecap="butt" stroke-linejoin="miter" stroke-miterlimit="10" stroke-dasharray="" stroke-dashoffset="0" font-family="none" font-weight="none" font-size="none" text-anchor="none" style="mix-blend-mode: normal"><g data-paper-data="{&quot;origPos&quot;:null}" id="Ebene_1"><path d="M221.60779,164.70788l5.40261,2.24123c-0.06361,-1.09325 -0.12279,-2.0711 -0.179,-3.04304c-0.01923,-0.33729 -0.31658,-0.41274 -0.53109,-0.5592c-0.74856,-0.50594 -1.54593,-0.94827 -2.08146,-1.73825c0.9246,0.14794 1.64357,0.76039 2.44242,1.14206c0,-0.87134 0.01923,-1.71753 0,-2.56225c-0.06953,-2.7738 0.04734,-5.52984 0.98821,-8.17493c1.32107,-3.72206 3.73242,-6.50178 7.27696,-8.2844l0.49263,-0.24853c-1.06218,-0.96306 -2.11992,-1.89358 -3.13328,-2.85664c-0.94827,-0.88761 -1.91281,-1.77523 -2.67912,-2.85072c-0.24114,-0.3151 -0.3728,-0.69826 -0.37724,-1.09472c-0.01036,-2.09921 0.34025,-4.1851 1.03555,-6.16596c0.19232,-0.53997 0.62133,-0.88022 1.08585,-1.16573c1.26337,-0.7737 2.65397,-1.15982 4.11853,-1.32107c0.81069,-0.08876 1.50599,0.18196 2.1288,0.66571c1.45125,1.14798 2.73533,2.49124 3.81526,3.99427c0.4231,0.57547 0.48671,1.21751 0.49558,1.88914c0.03255,2.29744 -0.17752,4.58601 -0.43049,6.85978c-0.05474,0.50298 0,0.71157 0.57843,0.63317c1.42018,-0.179 2.8596,-0.17161 4.2783,0.01775c0.5163,0.06361 0.61245,-0.07397 0.55772,-0.58139c-0.27072,-2.57408 -0.5015,-5.14964 -0.42014,-7.74592c0.0074,-0.64352 0.26481,-1.26041 0.71749,-1.71901c1.30183,-1.37876 2.81226,-2.54597 4.47506,-3.45874c0.65536,-0.358 1.42314,-0.45268 2.14507,-0.26185c1.49711,0.33286 2.89658,1.00448 4.09486,1.96163c0.54144,0.43493 0.75891,1.01484 0.85211,1.66428c0.23818,1.81073 0.23374,3.64514 -0.01627,5.45439c-0.09912,0.79442 -0.59174,1.3403 -1.09325,1.87878c-1.4261,1.53853 -3.04896,2.86404 -4.71767,4.26499c0.48523,0.24557 0.92016,0.44381 1.34178,0.6805c4.7798,2.61846 7.10092,6.79025 7.62313,12.09227c0.2219,2.26342 0.11835,4.52979 0.01331,6.90268c0.90537,-0.44381 1.6628,-1.07697 2.62734,-1.26337c-0.53257,0.81661 -1.34769,1.28112 -2.12732,1.77523c-0.39351,0.24853 -0.59174,0.51334 -0.59174,1.00153c0,0.77962 -0.07397,1.5622 -0.12131,2.43058c2.15986,-0.63908 4.1422,-1.50007 6.32573,-2.2575c-0.32694,0.59174 -0.73968,0.79737 -1.15242,1.00744c-1.4764,0.7382 -3.01049,1.35657 -4.58601,1.85068c-0.64056,0.21155 -0.68642,0.52369 -0.43641,1.03555c0.22782,0.4083 0.43197,0.82992 0.61393,1.26189c0.17456,0.48819 0.42606,0.61689 0.94235,0.5089c0.86099,-0.18196 1.72345,-0.39943 2.73089,-0.40239c-0.45268,0.56659 -1.05182,0.60802 -1.57108,0.80329c-0.47783,0.179 -1.2397,0.0503 -1.40095,0.44381c-0.14794,0.36244 0.26924,0.94383 0.41718,1.43498c2.39804,7.96634 3.30932,16.05399 1.9705,24.3236c-0.30475,1.88174 -1.61842,3.25459 -3.43951,3.55046c-0.26776,0.02959 -0.49558,0.21155 -0.58287,0.46748c-1.03555,2.22939 -2.43946,4.16587 -4.57417,5.4825c-0.27368,0.16865 -0.3225,0.41422 -0.36392,0.68198c-0.65536,4.36263 -1.31219,8.72525 -1.96755,13.08788c-0.11983,0.7885 -0.01923,1.46752 0.69382,1.94683c1.77523,1.18349 1.90541,2.88327 1.47936,4.76797c-0.25001,1.11692 -0.2219,1.12875 -1.39355,1.12135c-2.71166,-0.01923 -5.42333,-0.04734 -8.13647,-0.06657c-0.98229,0 -0.98673,0 -1.02519,-0.96306c-0.17308,-4.31085 -0.34469,-8.62022 -0.51482,-12.92959c0,-0.12131 -0.01331,-0.24261 -0.02071,-0.36688c-0.27368,-0.0503 -0.25593,0.19232 -0.33138,0.31658c-0.56068,0.92608 -1.03555,1.91281 -1.68795,2.7738c-0.65388,0.86247 -1.01632,1.90985 -1.03555,2.99126c-0.10799,2.56077 -0.31214,5.1171 -0.45712,7.67639c-0.02367,0.43049 -0.16569,0.61837 -0.61393,0.61985c-3.03268,0 -6.06537,0.01479 -9.09657,0.04438c-0.44381,0 -0.62873,-0.1938 -0.68346,-0.59174c-0.05474,-0.39795 -0.17752,-0.55328 -0.67015,-0.43197c-3.44247,0.85359 -6.36124,-0.1938 -8.87615,-2.57112c-0.22782,-0.21451 -0.43345,-0.45564 -0.38907,-0.92164c0.85507,0.47487 1.62729,0.94679 2.47792,1.25597c2.35218,0.84915 4.77093,0.82104 6.88197,-0.34913c1.21751,-0.67459 2.23235,-2.04151 2.79599,-3.41436c0.36836,-0.89649 -0.03698,-1.99565 -0.16273,-2.99718c-0.42901,-3.42323 -0.88761,-6.84203 -1.30923,-10.26674c-0.07249,-0.59174 -0.28256,-0.95714 -0.81069,-1.27373c-2.70427,-1.61546 -4.22209,-4.1422 -5.19846,-7.03583c-0.11391,-0.36984 -0.35357,-0.68938 -0.67607,-0.90389c-1.08881,-0.7737 -1.92317,-1.72937 -2.17909,-3.12144c-1.47936,-8.09357 -0.78258,-16.05251 1.45569,-23.91382c0.16569,-0.58287 0.10947,-0.81661 -0.50742,-0.92904c-0.59914,-0.08136 -1.15538,-0.35209 -1.58735,-0.7737c0.76039,-0.08284 1.38616,0.11983 2.00897,0.24853c0.38759,0.07841 0.57103,0.02071 0.71601,-0.36688c0.23818,-0.64796 0.51925,-1.27817 0.84323,-1.88766c0.21599,-0.40682 0.0858,-0.52221 -0.287,-0.67015c-1.3329,-0.51482 -2.6303,-1.12135 -3.87888,-1.81665c-0.358,-0.19823 -0.68198,-0.4512 -0.9601,-0.75151z" fill="#151414"/><path d="M261.14954,177.43036c0.17013,3.01049 0.05917,6.01211 -0.60802,8.96343c-0.42162,1.86103 -0.97342,3.66585 -2.28265,5.14225c-0.6879,0.77518 -0.89501,1.72049 -0.86542,2.74865c0.06065,2.05779 0.44381,3.97503 2.12584,5.38486c0.16865,0.1435 0.34617,0.27516 0.53257,0.39499c0.88761,0.56807 0.87874,0.55624 0.4083,1.49119c-1.52522,3.04008 -3.99427,4.99431 -7.17341,6.00767c-5.85678,1.86695 -11.77125,2.02968 -17.67241,0.19675c-3.90994,-1.21455 -6.67634,-3.69839 -8.08173,-7.60834c-0.17456,-0.48671 -0.12427,-0.65536 0.4083,-0.77814c1.77523,-0.41274 2.95872,-1.53853 3.46614,-3.28269c0.64204,-2.24862 0.63021,-4.3789 -1.02224,-6.33017c-1.30923,-1.54593 -1.67759,-3.55046 -2.05187,-5.4825c-0.77962,-4.0135 -0.82252,-8.07581 -0.67163,-12.14849c0.02515,-0.645 0.40682,-0.48523 0.75003,-0.43197c1.93204,0.29587 3.88627,0.46896 5.81979,0.26185c1.81073,-0.21007 3.64514,0.07989 5.3035,0.83732c3.95432,1.73085 7.84947,1.18349 11.53899,-1.00005c0.30475,-0.18048 0.59174,-0.32546 0.96454,-0.26924c2.77084,0.41422 5.55203,0.36244 8.33174,0.12427c0.64352,-0.05474 0.80181,0.14794 0.79146,0.74708c-0.02811,1.67315 -0.01183,3.34927 -0.01183,5.0313z" fill="#db5f1e"/><path d="M252.68909,169.74805c-0.70417,0.74856 -1.40983,1.04443 -2.32407,0.824c-0.38315,-0.09172 -1.01928,-0.2796 -1.12579,0.12575c-0.1006,0.37724 0.58287,0.35948 0.91276,0.52961c0.03698,0.02367 0.07101,0.0503 0.10208,0.08136c-3.08446,2.09033 -7.75183,2.39064 -11.69432,0.2796c0.14794,-0.31067 0.50742,-0.24705 0.73968,-0.40682c0.1006,-0.06953 0.22634,-0.12722 0.20119,-0.27368c-0.02515,-0.14646 -0.16865,-0.15977 -0.28847,-0.15977c-0.2722,0 -0.56216,-0.04882 -0.81069,0.02959c-1.12283,0.35653 -1.85068,-0.31067 -2.71018,-0.99709c0.95271,0 1.79298,0.02811 2.63178,-0.01331c0.38463,-0.01775 1.05626,0.14794 1.07401,-0.29587c0.01479,-0.38759 -0.67607,-0.29587 -1.06514,-0.33581c-0.71009,-0.07545 -1.42462,-0.11095 -2.13767,-0.15533c-0.93495,-0.05769 -1.85216,-0.10651 -2.53414,-0.92312c-0.30623,-0.33138 -0.71749,-0.54736 -1.16425,-0.61097c-0.51186,-0.08728 -1.0104,-0.11835 -1.21159,-0.72784c-0.06065,-0.15237 -0.23226,-0.22634 -0.38315,-0.16717c-0.01775,0.0074 -0.0355,0.01627 -0.05178,0.02663c-0.19675,0.11835 -0.13758,0.28552 -0.06065,0.4512c0.13462,0.29587 0.29587,0.6021 0.01627,0.88761c-0.2796,0.28552 -0.6095,0.07693 -0.89797,0c-2.14359,-0.59174 -2.14211,-0.59174 -2.21904,-2.81078c-0.00888,-0.24409 0,-0.48967 0,-0.72489c0.25297,-0.14794 0.38611,0.05769 0.54292,0.14794c3.0815,1.65836 6.23993,3.15399 9.67648,3.96468c0.40978,0.09024 0.82992,0.12427 1.24858,0.09764c0.11835,0 0.26628,0 0.30623,-0.14794c0.05178,-0.19528 -0.11243,-0.25149 -0.24557,-0.29587c-0.29883,-0.11539 -0.60506,-0.21451 -0.91424,-0.29587c-3.60519,-0.86542 -6.9086,-2.45721 -10.14987,-4.1999c-0.2796,-0.14794 -0.57547,-0.28552 -0.59174,-0.68642c-0.07249,-2.97795 -0.34173,-5.97069 0.36392,-8.90869c1.45865,-6.06537 5.29462,-9.66908 11.41325,-10.86292c4.35967,-0.85063 8.6498,-0.59174 12.80088,0.98377c5.18959,1.9705 7.95303,5.91743 8.81697,11.29638c0.41718,2.59627 0.2722,5.20882 0.17752,7.82136c-0.01775,0.47931 -0.33433,0.61097 -0.65536,0.7885c-2.79007,1.54001 -5.81092,2.42615 -8.8939,3.13476c-0.62429,0.14794 -1.2471,0.29587 -1.86251,0.47044c-0.19675,0.05622 -0.53405,0.09616 -0.49558,0.35209c0.0503,0.3299 0.40534,0.21007 0.62133,0.19528c0.49115,-0.02959 0.97933,-0.09616 1.46013,-0.19971c3.1747,-0.73228 6.32721,-1.53409 9.19569,-3.15695c0.4586,-0.26037 0.51482,-0.08876 0.5163,0.34913c0,2.21904 0.01479,2.21904 -2.15986,2.78415c-0.21451,0.05622 -0.42753,0.11983 -0.645,0.16421c-0.25445,0.0503 -0.5592,0.24409 -0.74708,-0.04142c-0.14794,-0.22634 -0.08876,-0.51778 0.06805,-0.76927c0.09468,-0.14794 0.31806,-0.32694 0.0858,-0.50742c-0.23226,-0.18048 -0.44381,0 -0.55772,0.18048c-0.26185,0.42014 -0.64944,0.55032 -1.10508,0.6095c-0.44677,0.0503 -0.86394,0.25149 -1.18349,0.56955c-0.60506,0.61985 -1.35805,0.72045 -2.15838,0.76631c-0.95862,0.05326 -1.92317,0.13758 -2.86995,0.23374c-0.19232,0.01923 -0.52961,-0.01331 -0.5015,0.29587c0.01923,0.22634 0.30771,0.19232 0.49854,0.21451c0.94531,0.11539 1.88174,0.00888 2.9454,0.01923z" fill="#db5f1e"/><path d="M246.35004,211.60352c-0.02515,-1.99122 -0.01923,-1.93204 1.59179,-2.08294c2.3581,-0.2219 4.6585,-0.73968 6.84203,-1.68943c0.20267,-0.08876 0.41274,-0.16125 0.61393,-0.25297c0.38759,-0.17604 0.4231,0.03107 0.37576,0.33729c-0.46452,3.0312 -0.94383,6.06537 -1.38616,9.09509c-0.20563,1.40835 -0.34025,2.82705 -0.51038,4.23984c-0.04882,0.39647 0.10208,0.79146 0.40386,1.05478c0.44381,0.43345 0.78702,0.96306 1.26337,1.34178c0.84028,0.66719 0.76187,1.52374 0.64648,2.41283c-0.04734,0.3654 -0.09468,0.7308 -0.17161,1.09029c-0.03698,0.17604 -0.05622,0.43049 -0.34321,0.38759c-0.287,-0.0429 -0.33581,-0.29587 -0.27368,-0.5089c0.19823,-0.69234 0.05326,-1.36841 -0.04438,-2.04891c-0.03698,-0.25889 -0.0429,-0.64056 -0.38759,-0.60358c-0.31658,0.0355 -0.17604,0.40534 -0.18492,0.63021c-0.02219,0.56659 -0.01923,1.13467 -0.01923,1.70126c0,0.46156 0.0355,0.92608 -0.66275,0.86247c-0.69826,-0.06361 -0.48375,-0.52221 -0.42753,-0.92312c0.08284,-0.59174 -0.07545,-1.16869 -0.21599,-1.73972c-0.03698,-0.14794 -0.10503,-0.29587 -0.29587,-0.23818c-0.14794,0.04142 -0.14794,0.18048 -0.14794,0.29587c-0.01036,0.66571 -0.02219,1.33142 -0.01923,1.99713c0,0.35653 -0.13166,0.59174 -0.51334,0.55328c-1.62729,-0.14794 -3.25459,-0.05622 -4.88188,-0.06213c-0.52665,0 -0.65536,-0.18492 -0.67311,-0.68346c-0.11983,-3.14659 -0.20119,-6.29615 -0.33729,-9.44274c-0.09172,-2.0356 0.04438,-4.08451 -0.24114,-5.72364z" fill="#734413"/><path d="M238.45175,227.59094c-0.7885,0 -1.57847,-0.02367 -2.36697,0c-0.52073,0.01923 -0.71009,-0.19528 -0.6953,-0.69382c0.01627,-0.56659 0,-1.13467 -0.01479,-1.70126c0,-0.18344 0.05326,-0.44381 -0.21894,-0.46748c-0.21303,-0.01775 -0.24114,0.22338 -0.29587,0.37724c-0.19971,0.63612 -0.26037,1.30775 -0.18048,1.96903c0.02367,0.24557 0.14794,0.52813 -0.2722,0.50298c-0.30623,-0.01923 -0.70565,0.17604 -0.80033,-0.38019c-0.11243,-0.70417 -0.16421,-1.41722 -0.15533,-2.13028c0,-0.16569 0.03698,-0.38907 -0.19528,-0.41422c-0.23226,-0.02515 -0.24261,0.20415 -0.29587,0.36096c-0.20415,0.67755 -0.06953,1.37136 -0.09468,2.05779c0,0.14794 0.09024,0.40091 -0.14794,0.43197c-0.26776,0.0355 -0.25445,-0.22486 -0.29587,-0.41126c-0.3654,-1.3906 -0.14794,-2.61994 0.94827,-3.63478c0.23226,-0.21599 0.38019,-0.52665 0.62133,-0.72784c0.85211,-0.70565 0.89649,-1.63765 0.78702,-2.61994c-0.34173,-3.04748 -0.68494,-6.09495 -1.13467,-9.12764c-0.13166,-0.89797 -0.22338,-1.80186 -0.32694,-2.70427c-0.03994,-0.35209 -0.01183,-0.59174 0.46452,-0.38019c2.64953,1.14798 5.4322,1.68795 8.30807,1.77523c0.36244,0.01331 0.48967,0.11539 0.4586,0.53849c-0.14794,2.08294 -0.22486,4.17179 -0.3728,6.25472c-0.23818,3.33299 -0.43641,6.66747 -0.59174,10.0049c-0.05178,1.09916 -0.08728,1.09768 -1.21307,1.09768h-1.92317z" fill="#734413"/><path d="M229.91882,135.95508c0.14794,-1.73529 0.41126,-3.45282 1.01188,-5.10526c0.26924,-0.73968 0.95567,-0.96898 1.55333,-1.26929c0.90537,-0.45268 1.8995,-0.64648 2.89806,-0.80921c1.05922,-0.17308 1.77523,0.47044 2.47497,1.07697c1.003,0.8743 1.92464,1.83884 2.75161,2.88179c0.56807,0.71601 0.67015,1.51042 0.61097,2.40987c-0.10651,1.64209 -0.1864,3.28565 -0.34321,4.92478c-0.05326,0.56216 -0.11835,1.12283 -0.14794,1.68647c-0.02367,0.34173 -0.20859,0.44381 -0.51778,0.49558c-1.20716,0.22042 -2.42171,0.40978 -3.583,0.82992c-0.26776,0.0858 -0.56068,0.0074 -0.74856,-0.20267c-1.80925,-1.69978 -3.77976,-3.2324 -5.37451,-5.15704c-0.44677,-0.52517 -0.70269,-1.06958 -0.58583,-1.76192z" fill="#734413"/><path d="M258.17455,135.10001c0.42753,1.84476 -0.51038,3.38477 -2.0711,4.68956c-1.26189,1.05922 -2.4868,2.15986 -3.71763,3.25459c-0.17604,0.17604 -0.44529,0.22042 -0.66867,0.11095c-1.11248,-0.40239 -2.27081,-0.61393 -3.43359,-0.80921c-0.39943,-0.06657 -0.59174,-0.23226 -0.65092,-0.70713c-0.21303,-1.756 -0.33877,-3.51643 -0.4157,-5.28131c-0.02071,-0.46452 -0.07101,-0.92904 -0.1287,-1.3906c-0.14794,-1.23822 0.20267,-2.24123 1.18349,-3.07263c1.07993,-0.932 2.23383,-1.77227 3.45134,-2.51491c0.67459,-0.42162 1.50155,-0.51925 2.25602,-0.26776c1.10804,0.33581 2.15838,0.83436 3.11997,1.47936c0.93791,0.63021 0.9601,1.60067 1.0533,2.5445c0.06361,0.55476 0.02219,1.12431 0.02219,1.96459z" fill="#734413"/><path d="M261.42914,199.84706c0.85211,-0.92608 1.89358,-1.62729 2.05927,-3.03712c-0.55032,0.26185 -0.72045,0.76335 -1.08881,1.05922c-0.30475,0.24705 -0.5592,0.55624 -0.84915,0.82252c-0.99857,0.9172 -1.01484,0.89797 -1.96163,-0.06657c-0.32546,-0.33138 -0.29587,-0.51334 0.01923,-0.824c0.72489,-0.70565 1.37136,-1.47936 1.62729,-2.50011c0.03994,-0.16717 0.10356,-0.3299 -0.09468,-0.5518c-0.42014,0.57843 -0.80477,1.15982 -1.24414,1.69682c-0.287,0.35209 -0.58287,0.95271 -1.0104,0.86247c-0.46156,-0.09616 -0.38463,-0.78258 -0.50446,-1.21455c-0.22634,-0.81069 -0.21747,-1.65244 -0.20119,-2.49124c0.01331,-0.71749 0.38907,-1.28556 0.824,-1.77523c1.72789,-1.9424 2.18797,-4.35227 2.58592,-6.78877c0.59174,-3.61555 0.45712,-7.26217 0.42606,-10.90139c0,-0.68642 -0.09468,-1.37284 -0.12131,-2.05927c0,-0.1938 -0.12279,-0.49558 0.21007,-0.53849c0.29587,-0.03846 0.32398,0.23522 0.40091,0.44381c0.74116,2.00749 1.31959,4.06971 1.72937,6.1704c0.87134,4.42624 1.35509,8.89094 1.18349,13.40742c-0.06657,1.98974 -0.30919,3.9706 -0.72489,5.91743c-0.30623,1.36545 -1.86547,2.80782 -3.26494,2.36845z" fill="#734413"/><path d="M225.821,195.30248c-0.06657,0.95567 0.4512,1.49563 0.89945,2.05483c0.24409,0.30623 0.5518,0.56216 0.824,0.84619c0.09616,0.1006 0.27812,0.18936 0.20711,0.35061c-0.08432,0.19232 -0.27664,0.15977 -0.45268,0.11835c-1.40095,-0.32694 -2.31224,-1.22343 -2.68651,-2.56521c-0.56955,-2.03855 -0.81069,-4.1422 -0.88761,-6.25472c-0.23226,-5.58014 0.3654,-11.16471 1.77523,-16.56881c0.12427,-0.47487 0.29587,-0.93791 0.43345,-1.40983c0.09024,-0.29587 0.18788,-0.55476 0.59174,-0.50742c0.47044,0.05474 0.42606,0.38611 0.43493,0.70861c0.01627,0.5444 -0.10651,1.08141 -0.10651,1.61546c0,4.22948 0.09616,8.45305 1.15094,12.5849c0.38463,1.51338 0.90981,2.95872 1.96311,4.16587c1.47936,1.68647 1.12135,3.59928 0.65831,5.518c-0.09912,0.41274 -0.30623,0.44381 -0.60062,0.12722c-0.66423,-0.69382 -1.23526,-1.469 -1.70126,-2.30928c-0.06361,-0.12279 -0.10799,-0.31806 -0.29587,-0.25149c-0.18788,0.06657 -0.10356,0.23078 -0.07841,0.37872c0.18492,1.10656 0.90093,1.91429 1.6125,2.67912c0.52813,0.56955 0.17456,0.80921 -0.17456,1.17165c-0.38315,0.39795 -0.69234,0.51186 -1.18349,0.09912c-0.87578,-0.72784 -1.58439,-1.59327 -2.38325,-2.55189z" fill="#734413"/><path d="M236.13212,171.06912c-2.08146,0.29587 -4.04161,0.23374 -6.00175,0.08136c-0.61245,-0.04734 -1.21899,-0.16421 -1.83292,-0.20711c-0.42901,-0.03107 -0.62873,-0.18788 -0.57547,-0.63908c0.04882,-0.4157 0.05769,-0.83436 0.09172,-1.25154c0.08284,-0.98229 0.08432,-0.98229 1.05922,-0.66719c1.31367,0.42606 2.64361,0.86099 4.02089,0.9172c1.37728,0.05622 2.18797,0.92904 3.23831,1.76635z" fill="#db5e1e"/><path d="M252.60773,170.85017c0.88761,-0.82252 1.68351,-1.36693 2.81078,-1.43942c1.66872,-0.10503 3.30045,-0.51778 4.89372,-1.03555c0.5444,-0.17456 0.69382,-0.0355 0.65831,0.50446c-0.0429,0.63317 0.29587,1.40687 -0.05622,1.86399c-0.35209,0.45712 -1.15982,0.19971 -1.76192,0.23966c-2.12732,0.14498 -4.25759,0.17456 -6.54468,-0.13314z" fill="#da5e1e"/><path d="M233.00476,168.50243c-0.47339,0.14794 -0.8388,-0.03994 -1.21603,-0.1006c-0.12722,-0.02071 -0.24114,-0.07545 -0.19232,-0.23818c0.03107,-0.12575 0.15385,-0.20563 0.28108,-0.18344c0.4231,0.04586 0.81956,0.2293 1.12727,0.52221z" fill="#aa4c1b"/><path d="M226.9601,169.3575c0,0.39055 0,0.69382 0,0.99561c0,0.21007 -0.14794,0.29587 -0.34173,0.26481c-0.27072,-0.0429 -0.21007,-0.2219 -0.12279,-0.37428c0.14942,-0.26037 0.14202,-0.6021 0.46452,-0.88614z" fill="#6a3f13"/><path d="M255.63153,168.6267c0.28404,-0.31067 0.61245,-0.49706 1.11396,-0.28552c-0.34617,0.34617 -0.75003,0.22634 -1.11396,0.28552z" fill="#a54a1b"/><path d="M237.14252,163.20633c-2.62142,-0.02367 -4.85081,-1.91577 -5.30054,-4.49725c-0.08432,-0.466 -0.16569,-0.6524 -0.60506,-0.30771c-0.15237,0.13906 -0.38019,0.15385 -0.55032,0.03698c-0.2293,-0.14794 -0.18788,-0.37872 -0.14794,-0.59914c0.34469,-1.66724 0.73968,-3.31376 1.40539,-4.89372c0.40091,-0.99561 1.21455,-1.76931 2.22939,-2.11992c1.18497,-0.42458 2.42615,-0.67163 3.6836,-0.72932c0.74856,-0.06509 1.48675,0.19971 2.02228,0.72636c1.25597,1.21603 2.15099,2.68799 2.98239,4.20581c0.12279,0.22634 0.19823,0.59174 -0.06805,0.64796c-0.72341,0.16125 -0.4083,0.58435 -0.33286,0.97194c0.68198,3.44099 -1.86547,6.58018 -5.31829,6.55799z" fill="#141414"/><path d="M251.59733,150.21905c1.85216,0.20119 3.6836,0.50446 5.05497,1.93056c0.91868,0.95567 1.21159,2.24123 1.54593,3.47057c0.21599,0.88466 0.38611,1.77967 0.5089,2.68208c0.07693,0.46452 -0.11983,0.80477 -0.6095,0.51925c-0.62281,-0.36392 -0.56511,0.11391 -0.65388,0.43493c-0.80921,2.87883 -3.80047,4.5579 -6.6793,3.74869c-2.8167,-0.79146 -4.49429,-3.6762 -3.79159,-6.51657c0.08876,-0.36688 0.35209,-0.76779 -0.34765,-0.84028c-0.24409,-0.02515 -0.3151,-0.29587 -0.18788,-0.53701c0.88761,-1.6554 1.83292,-3.27086 3.4114,-4.39369c0.5089,-0.36244 1.12579,-0.53849 1.7486,-0.49854z" fill="#151414"/><path d="M244.14136,171.38274c-0.39351,-0.00444 -0.78554,-0.04586 -1.17165,-0.12279c-1.03555,-0.27812 -1.22491,-0.48375 -1.24562,-1.50599c-0.02219,-1.09768 0.22042,-1.47936 1.18349,-1.75304c0.8388,-0.23522 1.6983,-0.30771 2.55189,-0.06805c0.93347,0.26333 1.19532,0.66571 1.20568,1.76192c0.00888,0.97046 -0.179,1.22639 -1.12875,1.55185c-0.46008,0.15533 -0.92608,0.14942 -1.39503,0.1361z" fill="#141414"/><path d="M241.92381,154.96779c-3.60224,-0.15237 -7.18228,0.63169 -10.39101,2.27377c0.32694,-1.71605 0.76483,-3.24275 1.54297,-4.64962c0.2367,-0.42901 0.67755,-0.70713 1.1465,-0.89649c1.28112,-0.51778 2.65397,-0.77814 4.03569,-0.76483c0.46748,0 0.79737,0.2367 1.10064,0.52369c1.02963,0.9749 1.75896,2.15838 2.56521,3.51347z" fill="#db5f1e"/><path d="M235.35546,156.59656c-0.71305,1.43646 -0.50002,2.66284 0.51482,3.29009c1.03999,0.67163 2.42171,0.43937 3.18358,-0.53701c0.79294,-1.01928 0.59174,-2.16726 -0.68346,-3.40252c0.93347,-0.1361 1.8773,-0.1864 2.81966,-0.14794c0.25149,0 0.29587,0.22338 0.36836,0.40386c0.63612,1.5548 0.20563,3.60519 -1.08141,4.85525c-1.40243,1.36249 -3.08002,1.76044 -4.90999,1.08141c-1.79446,-0.66571 -2.79894,-2.01784 -3.02529,-3.93805c-0.04438,-0.37724 0.06657,-0.59174 0.4231,-0.73968c0.77518,-0.34469 1.57404,-0.63317 2.39064,-0.86542z" fill="#eaeaea"/><path d="M257.86093,157.80372c-3.26938,-1.96163 -6.74735,-2.77675 -10.5138,-2.78563c0.73968,-1.39651 1.5267,-2.56817 2.64065,-3.49572c0.44529,-0.39795 1.03111,-0.59914 1.62729,-0.5592c1.20716,0.06361 2.38916,0.3728 3.47205,0.90833c0.73524,0.35948 1.31367,0.9749 1.62729,1.73085c0.5947,1.33438 0.98081,2.75013 1.1465,4.20138z" fill="#db5f1e"/><path d="M250.98339,156.10837c-1.11396,1.02224 -1.35657,2.27525 -0.72636,3.26938c0.59174,0.92756 1.88618,1.33142 2.93209,0.92164c1.1465,-0.45268 1.41279,-1.35509 0.97342,-3.40252c0.87726,0.24705 1.65096,0.65092 2.43206,1.03555c0.28847,0.14794 0.287,0.37724 0.2367,0.62577c-0.36984,1.81665 -1.40835,3.09482 -3.17914,3.65401c-1.86103,0.59174 -3.53271,0.14794 -4.85229,-1.29888c-1.25302,-1.36989 -1.53261,-2.98682 -0.93495,-4.75022c0.06509,-0.19232 0.14794,-0.37724 0.39499,-0.36836c0.87578,0.03698 1.756,0.03698 2.7235,0.31362z" fill="#eaeaea"/></g></g></g></svg>