<svg version="1.1" viewBox="0.0 0.0 960.0 540.0" fill="none" stroke="none" stroke-linecap="square" stroke-miterlimit="10" xmlns:xlink="http://www.w3.org/1999/xlink" xmlns="http://www.w3.org/2000/svg"><clipPath id="g40b21f65cd_0_5.0"><path d="m0 0l960.0 0l0 540.0l-960.0 0l0 -540.0z" clip-rule="nonzero"/></clipPath><g clip-path="url(#g40b21f65cd_0_5.0)"><path fill="#ffffff" d="m0 0l960.0 0l0 540.0l-960.0 0z" fill-rule="evenodd"/><path fill="#000000" fill-opacity="0.0" d="m65.38058 40.95538l843.74805 0l0 448.09448l-843.74805 0z" fill-rule="evenodd"/><path fill="#000000" d="m80.30245 149.80263l0 -54.40625l35.203125 0l0 9.609375l-24.171875 0l0 12.71875l19.359375 0l0 9.4375l-19.359375 0l0 13.046875l24.171875 0l0 9.59375l-35.203125 0zm43.35121 0l0 -40.0l10.734383 0l0 40.0l-10.734383 0zm0 -45.125l0 -10.875l10.734383 0l0 10.875l-10.734383 0zm31.374367 45.125l-10.734375 0l0 -40.0l10.640625 0l0 2.234375q5.453125 -3.1875 10.0 -3.1875q8.0 0 11.046875 4.71875q3.046875 4.71875 3.046875 14.546875l0 21.6875l-10.734375 0l0 -21.359375q0 -5.125 -1.203125 -7.5625q-1.1875 -2.4375 -4.796875 -2.4375q-3.265625 0 -6.3125 1.125l-0.953125 0.3125l0 29.921875zm42.318085 -15.4375q0.078125 3.671875 1.953125 5.3125q1.875 1.640625 5.40625 1.640625q7.4375 0 13.28125 -0.46875l2.234375 -0.25l0.15625 7.921875q-9.203125 2.234375 -16.640625 2.234375q-9.03125 0 -13.125 -4.796875q-4.078125 -4.796875 -4.078125 -15.59375q0 -21.515625 17.6875 -21.515625q17.4375 0 17.4375 18.078125l-0.796875 7.4375l-23.515625 0zm13.75 -8.15625q0 -4.8125 -1.515625 -6.6875q-1.515625 -1.875 -5.328125 -1.875q-3.796875 0 -5.359375 1.96875q-1.546875 1.953125 -1.625 6.59375l13.828125 0zm36.8062 -30.8125l21.359375 0q8.484375 0 12.71875 3.40625q4.234375 3.40625 4.234375 11.0q0 4.5625 -1.359375 7.25q-1.359375 2.671875 -4.640625 4.75q3.609375 1.515625 5.328125 4.40625q1.71875 2.875 1.71875 8.0q0 7.90625 -4.640625 11.75q-4.640625 3.84375 -13.046875 3.84375l-21.671875 0l0 -54.40625zm21.125 31.6875l-10.09375 0l0 13.28125l10.09375 0q3.59375 0 5.3125 -1.4375q1.71875 -1.4375 1.71875 -5.28125q0 -6.5625 -7.03125 -6.5625zm-0.328125 -22.234375l-9.765625 0l0 12.953125l9.84375 0q6.25 0 6.25 -6.46875q0 -6.484375 -6.328125 -6.484375zm35.766815 29.515625q0.078125 3.671875 1.953125 5.3125q1.875 1.640625 5.40625 1.640625q7.4375 0 13.2812805 -0.46875l2.234375 -0.25l0.15625 7.921875q-9.2031555 2.234375 -16.640656 2.234375q-9.03125 0 -13.125 -4.796875q-4.078125 -4.796875 -4.078125 -15.59375q0 -21.515625 17.6875 -21.515625q17.43753 0 17.43753 18.078125l-0.796875 7.4375l-23.515656 0zm13.75 -8.15625q0 -4.8125 -1.515625 -6.6875q-1.515625 -1.875 -5.328125 -1.875q-3.796875 0 -5.359375 1.96875q-1.546875 1.953125 -1.625 6.59375l13.828125 0zm15.206207 -16.40625l10.5625 0l4.875 30.875l1.921875 0l6.078125 -30.078125l11.046875 0l6.078125 30.078125l1.921875 0l4.875 -30.875l10.5625 0l-7.609375 40.0l-16.796875 0l-4.5625 -24.484375l-4.5625 24.484375l-16.796875 0l-7.59375 -40.0zm73.6037 24.5625q0.078125 3.671875 1.953125 5.3125q1.875 1.640625 5.40625 1.640625q7.4375 0 13.28125 -0.46875l2.234375 -0.25l0.15625 7.921875q-9.203125 2.234375 -16.640625 2.234375q-9.03125 0 -13.125 -4.796875q-4.078125 -4.796875 -4.078125 -15.59375q0 -21.515625 17.6875 -21.515625q17.4375 0 17.4375 18.078125l-0.796875 7.4375l-23.515625 0zm13.75 -8.15625q0 -4.8125 -1.515625 -6.6875q-1.515625 -1.875 -5.328125 -1.875q-3.796875 0 -5.359375 1.96875q-1.546875 1.953125 -1.625 6.59375l13.828125 0zm54.487457 28.59375q0 6.84375 -5.28125 10.125q-5.28125 3.28125 -14.28125 3.28125q-9.0 0 -13.84375 -2.40625q-4.84375 -2.40625 -4.84375 -8.71875q0 -5.046875 5.765625 -9.515625q-2.953125 -2.0 -2.953125 -6.078125q0 -1.609375 2.390625 -5.28125l0.71875 -1.125q-5.4375 -3.921875 -5.4375 -11.5625q0 -7.640625 4.59375 -11.078125q4.609375 -3.4375 12.203125 -3.4375q3.453125 0 6.8125 0.796875l1.265625 0.234375l12.890625 -0.390625l0 8.5625l-6.0 -0.484375q1.75 2.71875 1.75 5.4375q0 8.0 -4.078125 11.046875q-4.078125 3.03125 -12.796875 3.03125q-1.84375 0 -3.28125 -0.3125q-0.796875 2.078125 -0.796875 3.40625q0 1.3125 1.359375 1.796875q1.359375 0.46875 6.40625 0.546875q10.078125 0.078125 13.75 2.6875q3.6875 2.59375 3.6875 9.4375zm-27.6875 1.15625q0 3.4375 8.4375 3.4375q8.453125 0 8.453125 -4.0q0 -2.15625 -1.453125 -2.765625q-1.4375 -0.59375 -6.078125 -0.671875l-7.1875 -0.5625q-2.171875 2.171875 -2.171875 4.5625zm0.640625 -32.75q0 5.875 6.125 5.875q6.125 0 6.125 -5.875q0 -5.890625 -6.125 -5.890625q-6.125 0 -6.125 5.890625zm57.12619 -13.40625l10.7187195 0l0 40.0l-10.6405945 0l0 -2.234375q-5.765625 3.1875 -10.0 3.1875q-8.328125 0 -11.203125 -4.59375q-2.875 -4.59375 -2.875 -15.40625l0 -20.953125l10.71875 0l0 21.125q0 5.921875 0.953125 8.078125q0.96875 2.15625 4.640625 2.15625q3.53125 0 6.640625 -1.125l1.046875 -0.3125l0 -29.921875zm31.36496 40.0l-10.734375 0l0 -40.0l10.640625 0l0 2.234375q5.453125 -3.1875 10.0 -3.1875q8.0 0 11.046875 4.71875q3.046875 4.71875 3.046875 14.546875l0 21.6875l-10.734375 0l0 -21.359375q0 -5.125 -1.203125 -7.5625q-1.1875 -2.4375 -4.796875 -2.4375q-3.265625 0 -6.3125 1.125l-0.953125 0.3125l0 29.921875zm69.755554 5.0q0 6.84375 -5.28125 10.125q-5.28125 3.28125 -14.28125 3.28125q-9.0 0 -13.84375 -2.40625q-4.84375 -2.40625 -4.84375 -8.71875q0 -5.046875 5.765625 -9.515625q-2.953125 -2.0 -2.953125 -6.078125q0 -1.609375 2.390625 -5.28125l0.71875 -1.125q-5.4375 -3.921875 -5.4375 -11.5625q0 -7.640625 4.59375 -11.078125q4.609375 -3.4375 12.203125 -3.4375q3.453125 0 6.8125 0.796875l1.265625 0.234375l12.890625 -0.390625l0 8.5625l-6.0 -0.484375q1.75 2.71875 1.75 5.4375q0 8.0 -4.078125 11.046875q-4.078125 3.03125 -12.796875 3.03125q-1.84375 0 -3.28125 -0.3125q-0.796875 2.078125 -0.796875 3.40625q0 1.3125 1.359375 1.796875q1.359375 0.46875 6.40625 0.546875q10.078125 0.078125 13.75 2.6875q3.6875 2.59375 3.6875 9.4375zm-27.6875 1.15625q0 3.4375 8.4375 3.4375q8.453125 0 8.453125 -4.0q0 -2.15625 -1.453125 -2.765625q-1.4375 -0.59375 -6.078125 -0.671875l-7.1875 -0.5625q-2.171875 2.171875 -2.171875 4.5625zm0.640625 -32.75q0 5.875 6.125 5.875q6.125 0 6.125 -5.875q0 -5.890625 -6.125 -5.890625q-6.125 0 -6.125 5.890625zm70.4762 -14.359375q8.40625 0 12.28125 4.59375q3.890625 4.59375 3.890625 16.4375q0 11.84375 -4.484375 16.359375q-4.484375 4.515625 -15.4375 4.515625q-3.4375 0 -12.5625 -0.796875l-3.046875 -0.3125l0 -55.84375l10.734375 0l0 17.203125q5.109375 -2.15625 8.625 -2.15625zm-3.75 32.3125q5.359375 0 7.1875 -2.59375q1.84375 -2.609375 1.84375 -9.328125q0 -10.796875 -6.71875 -10.796875q-3.1875 0 -6.078125 0.796875l-1.109375 0.25l0 21.359375q3.671875 0.3125 4.875 0.3125zm36.723083 -6.796875q0.078125 3.671875 1.953125 5.3125q1.875 1.640625 5.40625 1.640625q7.4375 0 13.28125 -0.46875l2.234375 -0.25l0.15625 7.921875q-9.203125 2.234375 -16.640625 2.234375q-9.03125 0 -13.125 -4.796875q-4.078125 -4.796875 -4.078125 -15.59375q0 -21.515625 17.6875 -21.515625q17.4375 0 17.4375 18.078125l-0.796875 7.4375l-23.515625 0zm13.75 -8.15625q0 -4.8125 -1.515625 -6.6875q-1.515625 -1.875 -5.328125 -1.875q-3.796875 0 -5.359375 1.96875q-1.546875 1.953125 -1.625 6.59375l13.828125 0zm46.971863 -6.40625q-9.921875 -1.28125 -13.890625 -1.28125q-3.953125 0 -5.125 0.71875q-1.15625 0.71875 -1.15625 2.28125q0 1.5625 1.5625 2.171875q1.5625 0.59375 8.0 1.75q6.4375 1.15625 9.15625 3.796875q2.71875 2.640625 2.71875 8.5625q0 12.953125 -16.078125 12.953125q-5.28125 0 -12.796875 -1.4375l-2.5625 -0.46875l0.328125 -8.96875q9.921875 1.28125 13.796875 1.28125q3.875 0 5.265625 -0.75q1.40625 -0.765625 1.40625 -2.28125q0 -1.53125 -1.484375 -2.25q-1.46875 -0.71875 -7.671875 -1.75q-6.203125 -1.046875 -9.25 -3.53125q-3.03125 -2.484375 -3.03125 -8.84375q0 -6.359375 4.3125 -9.59375q4.328125 -3.234375 11.125 -3.234375q4.734375 0 12.890625 1.515625l2.640625 0.484375l-0.15625 8.875zm31.197449 -0.875l-9.84375 0l0 16.390625q0 2.40625 0.109375 3.40625q0.125 1.0 0.890625 1.71875q0.765625 0.71875 2.359375 0.71875l6.078125 -0.15625l0.484375 8.5625q-5.359375 1.1875 -8.15625 1.1875q-7.203125 0 -9.84375 -3.234375q-2.640625 -3.234375 -2.640625 -11.953125l0 -16.640625l-4.71875 0l0 -9.125l4.71875 0l0 -11.125l10.71875 0l0 11.125l9.84375 0l0 9.125zm15.76062 15.4375q0.078125 3.671875 1.953125 5.3125q1.875 1.640625 5.40625 1.640625q7.4375 0 13.28125 -0.46875l2.234375 -0.25l0.15625 7.921875q-9.203125 2.234375 -16.640625 2.234375q-9.03125 0 -13.125 -4.796875q-4.078125 -4.796875 -4.078125 -15.59375q0 -21.515625 17.6875 -21.515625q17.4375 0 17.4375 18.078125l-0.796875 7.4375l-23.515625 0zm13.75 -8.15625q0 -4.8125 -1.515625 -6.6875q-1.515625 -1.875 -5.328125 -1.875q-3.796875 0 -5.359375 1.96875q-1.546875 1.953125 -1.625 6.59375l13.828125 0zm28.971863 23.59375l-10.734375 0l0 -56.0l10.734375 0l0 17.921875q5.515625 -2.875 9.90625 -2.875q8.0 0 11.046875 4.71875q3.046875 4.71875 3.046875 14.546875l0 21.6875l-10.734375 0l0 -21.4375q0 -5.046875 -1.203125 -7.484375q-1.1875 -2.4375 -4.796875 -2.4375q-3.109375 0 -6.234375 0.953125l-1.03125 0.328125l0 30.078125zm55.67749 -30.875l-9.84375 0l0 16.390625q0 2.40625 0.109375 3.40625q0.125 1.0 0.890625 1.71875q0.765625 0.71875 2.359375 0.71875l6.078125 -0.15625l0.484375 8.5625q-5.359375 1.1875 -8.15625 1.1875q-7.203125 0 -9.84375 -3.234375q-2.640625 -3.234375 -2.640625 -11.953125l0 -16.640625l-4.71875 0l0 -9.125l4.71875 0l0 -11.125l10.71875 0l0 11.125l9.84375 0l0 9.125z" fill-rule="nonzero"/><path fill="#000000" d="m109.97433 218.28699l0 16.640625q0.171875 1.921875 0.640625 2.6875q0.484375 0.75 2.0 1.0625l-0.3125 8.078125q-4.078125 0 -6.53125 -0.5625q-2.4375 -0.546875 -4.90625 -2.234375q-5.765625 2.796875 -11.765625 2.796875q-12.40625 0 -12.40625 -13.109375q0 -6.40625 3.4375 -9.078125q3.453125 -2.6875 10.5625 -3.171875l8.5625 -0.640625l0 -2.46875q0 -2.484375 -1.125 -3.40625q-1.109375 -0.921875 -3.59375 -0.921875l-15.03125 0.640625l-0.328125 -7.4375q8.5625 -2.3125 16.28125 -2.3125q7.71875 0 11.109375 3.203125q3.40625 3.1875 3.40625 10.234375zm-18.0 10.5625q-4.46875 0.390625 -4.46875 4.796875q0 4.390625 3.921875 4.390625q3.03125 0 6.640625 -0.953125l1.1875 -0.328125l0 -8.546875l-7.28125 0.640625zm51.848717 -23.046875l10.71875 0l0 40.0l-10.640625 0l0 -2.234375q-5.765625 3.1875 -10.0 3.1875q-8.328133 0 -11.203133 -4.59375q-2.875 -4.59375 -2.875 -15.40625l0 -20.953125l10.718758 0l0 21.125q0 5.921875 0.953125 8.078125q0.96875 2.15625 4.640625 2.15625q3.53125 0 6.640625 -1.125l1.046875 -0.3125l0 -29.921875zm49.36496 10.0q-9.921875 -1.28125 -13.890625 -1.28125q-3.953125 0 -5.125 0.71875q-1.15625 0.71875 -1.15625 2.28125q0 1.5625 1.5625 2.171875q1.5625 0.59375 8.0 1.75q6.4375 1.15625 9.15625 3.796875q2.71875 2.640625 2.71875 8.5625q0 12.953125 -16.078125 12.953125q-5.28125 0 -12.796875 -1.4375l-2.5625 -0.46875l0.328125 -8.96875q9.921875 1.28125 13.796875 1.28125q3.875 0 5.265625 -0.75q1.40625 -0.765625 1.40625 -2.28125q0 -1.53125 -1.484375 -2.25q-1.46875 -0.71875 -7.671875 -1.75q-6.203125 -1.046875 -9.25 -3.53125q-3.03125 -2.484375 -3.03125 -8.84375q0 -6.359375 4.3125 -9.59375q4.328125 -3.234375 11.125 -3.234375q4.734375 0 12.890625 1.515625l2.640625 0.484375l-0.15625 8.875zm35.43808 14.5625q0.078125 3.671875 1.953125 5.3125q1.875 1.640625 5.40625 1.640625q7.4375 0 13.28125 -0.46875l2.234375 -0.25l0.15625 7.921875q-9.203125 2.234375 -16.640625 2.234375q-9.03125 0 -13.125 -4.796875q-4.078125 -4.796875 -4.078125 -15.59375q0 -21.515625 17.6875 -21.515625q17.4375 0 17.4375 18.078125l-0.796875 7.4375l-23.515625 0zm13.75 -8.15625q0 -4.8125 -1.515625 -6.6875q-1.515625 -1.875 -5.328125 -1.875q-3.796875 0 -5.359375 1.96875q-1.546875 1.953125 -1.625 6.59375l13.828125 0zm18.237442 23.59375l0 -40.0l10.734375 0l0 40.0l-10.734375 0zm0 -45.125l0 -10.875l10.734375 0l0 10.875l-10.734375 0zm31.37436 45.125l-10.734375 0l0 -40.0l10.640625 0l0 2.234375q5.453125 -3.1875 10.0 -3.1875q8.0 0 11.046875 4.71875q3.046875 4.71875 3.046875 14.546875l0 21.6875l-10.734375 0l0 -21.359375q0 -5.125 -1.203125 -7.5625q-1.1875 -2.4375 -4.796875 -2.4375q-3.265625 0 -6.3125 1.125l-0.953125 0.3125l0 29.921875zm31.83374 -30.40625l0 -9.59375l29.671875 0l0 9.59375l-16.796875 20.8125l16.796875 0l0 9.59375l-29.671875 0l0 -9.59375l16.796875 -20.8125l-16.796875 0zm46.80432 14.96875q0.078125 3.671875 1.953125 5.3125q1.875 1.640625 5.40625 1.640625q7.4375 0 13.28125 -0.46875l2.234375 -0.25l0.15625 7.921875q-9.203125 2.234375 -16.640625 2.234375q-9.03125 0 -13.125 -4.796875q-4.078125 -4.796875 -4.078125 -15.59375q0 -21.515625 17.6875 -21.515625q17.4375 0 17.4375 18.078125l-0.796875 7.4375l-23.515625 0zm13.75 -8.15625q0 -4.8125 -1.515625 -6.6875q-1.515625 -1.875 -5.328125 -1.875q-3.796875 0 -5.359375 1.96875q-1.546875 1.953125 -1.625 6.59375l13.828125 0zm18.721832 23.59375l0 -56.0l10.71875 0l0 56.0l-10.71875 0zm31.849976 0l-10.734375 0l0 -40.0l10.640625 0l0 2.234375q5.453125 -3.1875 10.0 -3.1875q8.0 0 11.046875 4.71875q3.046875 4.71875 3.046875 14.546875l0 21.6875l-10.734375 0l0 -21.359375q0 -5.125 -1.203125 -7.5625q-1.1875 -2.4375 -4.796875 -2.4375q-3.265625 0 -6.3125 1.125l-0.953125 0.3125l0 29.921875zm42.318085 -15.4375q0.078125 3.671875 1.953125 5.3125q1.875 1.640625 5.40625 1.640625q7.4375 0 13.28125 -0.46875l2.234375 -0.25l0.15625 7.921875q-9.203125 2.234375 -16.640625 2.234375q-9.03125 0 -13.125 -4.796875q-4.078125 -4.796875 -4.078125 -15.59375q0 -21.515625 17.6875 -21.515625q17.4375 0 17.4375 18.078125l-0.796875 7.4375l-23.515625 0zm13.75 -8.15625q0 -4.8125 -1.515625 -6.6875q-1.515625 -1.875 -5.328125 -1.875q-3.796875 0 -5.359375 1.96875q-1.546875 1.953125 -1.625 6.59375l13.828125 0zm28.971832 23.59375l-10.734375 0l0 -40.0l10.640625 0l0 2.234375q5.453125 -3.1875 10.0 -3.1875q8.0 0 11.046875 4.71875q3.046875 4.71875 3.046875 14.546875l0 21.6875l-10.734375 0l0 -21.359375q0 -5.125 -1.203125 -7.5625q-1.1875 -2.4375 -4.796875 -2.4375q-3.265625 0 -6.3125 1.125l-0.953125 0.3125l0 29.921875zm52.07428 -54.40625l21.359375 0q8.484375 0 12.71875 3.40625q4.234375 3.40625 4.234375 11.0q0 4.5625 -1.359375 7.25q-1.359375 2.671875 -4.640625 4.75q3.609375 1.515625 5.328125 4.40625q1.71875 2.875 1.71875 8.0q0 7.90625 -4.640625 11.75q-4.640625 3.84375 -13.046875 3.84375l-21.671875 0l0 -54.40625zm21.125 31.6875l-10.09375 0l0 13.28125l10.09375 0q3.59375 0 5.3125 -1.4375q1.71875 -1.4375 1.71875 -5.28125q0 -6.5625 -7.03125 -6.5625zm-0.328125 -22.234375l-9.765625 0l0 12.953125l9.84375 0q6.25 0 6.25 -6.46875q0 -6.484375 -6.328125 -6.484375zm26.954346 44.953125l0 -40.0l10.734375 0l0 40.0l-10.734375 0zm0 -45.125l0 -10.875l10.734375 0l0 10.875l-10.734375 0zm21.12439 45.125l0 -56.0l10.71875 0l0 56.0l-10.71875 0zm55.1156 -56.0l0 56.0l-10.640625 0l0 -1.6875q-5.59375 2.640625 -9.671875 2.640625q-8.71875 0 -12.15625 -5.03125q-3.4375 -5.046875 -3.4375 -15.953125q0 -10.921875 4.109375 -15.921875q4.125 -5.0 12.4375 -5.0q2.5625 0 7.125 0.796875l1.515625 0.3125l0 -16.15625l10.71875 0zm-11.828125 46.40625l1.109375 -0.25l0 -21.03125q-4.390625 -0.8125 -7.828125 -0.8125q-6.484375 0 -6.484375 11.53125q0 6.234375 1.4375 8.875q1.4375 2.640625 4.75 2.640625q3.328125 0 7.015625 -0.953125zm30.560547 -5.84375q0.078125 3.671875 1.953125 5.3125q1.875 1.640625 5.40625 1.640625q7.4375 0 13.28125 -0.46875l2.234375 -0.25l0.15625 7.921875q-9.203125 2.234375 -16.640625 2.234375q-9.03125 0 -13.125 -4.796875q-4.078125 -4.796875 -4.078125 -15.59375q0 -21.515625 17.6875 -21.515625q17.4375 0 17.4375 18.078125l-0.796875 7.4375l-23.515625 0zm13.75 -8.15625q0 -4.8125 -1.515625 -6.6875q-1.515625 -1.875 -5.328125 -1.875q-3.796875 0 -5.359375 1.96875q-1.546875 1.953125 -1.625 6.59375l13.828125 0zm18.237427 23.59375l0 -40.0l10.640625 0l0 4.234375q6.71875 -4.0 12.8125 -5.1875l0 10.796875q-6.484375 1.359375 -11.125 2.796875l-1.59375 0.5625l0 26.796875l-10.734375 0zm40.494385 0l-10.734375 0l0 -40.0l10.640625 0l0 2.234375q5.453125 -3.1875 10.0 -3.1875q8.0 0 11.046875 4.71875q3.046875 4.71875 3.046875 14.546875l0 21.6875l-10.734375 0l0 -21.359375q0 -5.125 -1.203125 -7.5625q-1.1875 -2.4375 -4.796875 -2.4375q-3.265625 0 -6.3125 1.125l-0.953125 0.3125l0 29.921875zm33.036865 0l0 -13.28125l11.515625 0l0 13.28125l-11.515625 0z" fill-rule="nonzero"/><path fill="#000000" d="m98.61495 341.8026l-18.3125 0l0 -54.40625l18.3125 0q7.046875 0 11.609375 1.484375q4.5625 1.484375 7.078125 4.890625q2.515625 3.390625 3.46875 8.0q0.96875 4.59375 0.96875 11.953125q0 7.359375 -0.890625 12.203125q-0.875 4.828125 -3.3125 8.640625q-2.4375 3.796875 -7.078125 5.515625q-4.640625 1.71875 -11.84375 1.71875zm11.609375 -21.59375q0.15625 -2.5625 0.15625 -7.078125q0 -4.53125 -0.328125 -7.25q-0.3125 -2.71875 -1.515625 -4.953125q-1.203125 -2.25 -3.5625 -3.078125q-2.359375 -0.84375 -6.359375 -0.84375l-7.28125 0l0 35.203125l7.28125 0q6.0 0 8.71875 -3.046875q2.328125 -2.484375 2.890625 -8.953125zm20.14933 21.59375l0 -40.0l10.734375 0l0 40.0l-10.734375 0zm0 -45.125l0 -10.875l10.734375 0l0 10.875l-10.734375 0zm29.452484 29.6875q0.078125 3.671875 1.953125 5.3125q1.875 1.640625 5.40625 1.640625q7.4375 0 13.28125 -0.46875l2.234375 -0.25l0.15625 7.921875q-9.203125 2.234375 -16.640625 2.234375q-9.03125 0 -13.125 -4.796875q-4.078125 -4.796875 -4.078125 -15.59375q0 -21.515625 17.6875 -21.515625q17.4375 0 17.4375 18.078125l-0.796875 7.4375l-23.515625 0zm13.75 -8.15625q0 -4.8125 -1.515625 -6.6875q-1.515625 -1.875 -5.328125 -1.875q-3.796875 0 -5.359375 1.96875q-1.546875 1.953125 -1.625 6.59375l13.828125 0zm48.478073 -7.28125l0 30.875l-10.71875 0l0 -30.875l-4.3125 0l0 -9.125l4.3125 0l0 -1.765625q0 -8.640625 2.5625 -11.90625q2.5625 -3.28125 9.125 -3.28125q2.875 0 7.4375 0.796875l1.6875 0.234375l-0.171875 8.71875q-3.515625 -0.15625 -5.921875 -0.15625q-2.390625 0 -3.203125 1.28125q-0.796875 1.28125 -0.796875 4.390625l0 1.6875l9.6875 0l0 9.125l-9.6875 0zm15.919342 30.875l0 -40.0l10.734375 0l0 40.0l-10.734375 0zm0 -45.125l0 -10.875l10.734375 0l0 10.875l-10.734375 0zm31.374344 45.125l-10.734375 0l0 -40.0l10.640625 0l0 2.234375q5.453125 -3.1875 10.0 -3.1875q8.0 0 11.046875 4.71875q3.046875 4.71875 3.046875 14.546875l0 21.6875l-10.734375 0l0 -21.359375q0 -5.125 -1.203125 -7.5625q-1.1875 -2.4375 -4.796875 -2.4375q-3.265625 0 -6.3125 1.125l-0.953125 0.3125l0 29.921875zm67.505585 -56.0l0 56.0l-10.640625 0l0 -1.6875q-5.59375 2.640625 -9.671875 2.640625q-8.71875 0 -12.15625 -5.03125q-3.4375 -5.046875 -3.4375 -15.953125q0 -10.921875 4.109375 -15.921875q4.125 -5.0 12.4375 -5.0q2.5625 0 7.125 0.796875l1.515625 0.3125l0 -16.15625l10.71875 0zm-11.828125 46.40625l1.109375 -0.25l0 -21.03125q-4.390625 -0.8125 -7.828125 -0.8125q-6.484375 0 -6.484375 11.53125q0 6.234375 1.4375 8.875q1.4375 2.640625 4.75 2.640625q3.328125 0 7.015625 -0.953125zm30.560608 -5.84375q0.078125 3.671875 1.953125 5.3125q1.875 1.640625 5.40625 1.640625q7.4375 0 13.28125 -0.46875l2.234375 -0.25l0.15625 7.921875q-9.203125 2.234375 -16.640625 2.234375q-9.03125 0 -13.125 -4.796875q-4.078125 -4.796875 -4.078125 -15.59375q0 -21.515625 17.6875 -21.515625q17.4375 0 17.4375 18.078125l-0.796875 7.4375l-23.515625 0zm13.75 -8.15625q0 -4.8125 -1.515625 -6.6875q-1.515625 -1.875 -5.328125 -1.875q-3.796875 0 -5.359375 1.96875q-1.546875 1.953125 -1.625 6.59375l13.828125 0zm46.971832 -6.40625q-9.921875 -1.28125 -13.890625 -1.28125q-3.953125 0 -5.125 0.71875q-1.15625 0.71875 -1.15625 2.28125q0 1.5625 1.5625 2.171875q1.5625 0.59375 8.0 1.75q6.4375 1.15625 9.15625 3.796875q2.71875 2.640625 2.71875 8.5625q0 12.953125 -16.078125 12.953125q-5.28125 0 -12.796875 -1.4375l-2.5625 -0.46875l0.328125 -8.96875q9.921875 1.28125 13.796875 1.28125q3.875 0 5.265625 -0.75q1.40625 -0.765625 1.40625 -2.28125q0 -1.53125 -1.484375 -2.25q-1.46875 -0.71875 -7.671875 -1.75q-6.203125 -1.046875 -9.25 -3.53125q-3.03125 -2.484375 -3.03125 -8.84375q0 -6.359375 4.3125 -9.59375q4.328125 -3.234375 11.125 -3.234375q4.734375 0 12.890625 1.515625l2.640625 0.484375l-0.15625 8.875zm31.19748 -0.875l-9.84375 0l0 16.390625q0 2.40625 0.109375 3.40625q0.125 1.0 0.890625 1.71875q0.765625 0.71875 2.359375 0.71875l6.078125 -0.15625l0.484375 8.5625q-5.359375 1.1875 -8.15625 1.1875q-7.203125 0 -9.84375 -3.234375q-2.640625 -3.234375 -2.640625 -11.953125l0 -16.640625l-4.71875 0l0 -9.125l4.71875 0l0 -11.125l10.71875 0l0 11.125l9.84375 0l0 9.125zm58.548096 -25.125l0 56.0l-10.640625 0l0 -1.6875q-5.59375 2.640625 -9.671875 2.640625q-8.71875 0 -12.15625 -5.03125q-3.4375 -5.046875 -3.4375 -15.953125q0 -10.921875 4.109375 -15.921875q4.125 -5.0 12.4375 -5.0q2.5625 0 7.125 0.796875l1.515625 0.3125l0 -16.15625l10.71875 0zm-11.828125 46.40625l1.109375 -0.25l0 -21.03125q-4.390625 -0.8125 -7.828125 -0.8125q-6.484375 0 -6.484375 11.53125q0 6.234375 1.4375 8.875q1.4375 2.640625 4.75 2.640625q3.328125 0 7.015625 -0.953125zm45.357452 -30.40625l10.71875 0l0 40.0l-10.640625 0l0 -2.234375q-5.765625 3.1875 -10.0 3.1875q-8.328125 0 -11.203125 -4.59375q-2.875 -4.59375 -2.875 -15.40625l0 -20.953125l10.71875 0l0 21.125q0 5.921875 0.953125 8.078125q0.96875 2.15625 4.640625 2.15625q3.53125 0 6.640625 -1.125l1.046875 -0.3125l0 -29.921875zm61.839905 0l10.71875 0l0 40.0l-10.640625 0l0 -2.234375q-5.765625 3.1875 -10.0 3.1875q-8.328125 0 -11.203125 -4.59375q-2.875 -4.59375 -2.875 -15.40625l0 -20.953125l10.71875 0l0 21.125q0 5.921875 0.953125 8.078125q0.96875 2.15625 4.640625 2.15625q3.53125 0 6.640625 -1.125l1.046875 -0.3125l0 -29.921875zm31.36493 40.0l-10.734375 0l0 -40.0l10.640625 0l0 2.234375q5.453125 -3.1875 10.0 -3.1875q8.0 0 11.046875 4.71875q3.046875 4.71875 3.046875 14.546875l0 21.6875l-10.734375 0l0 -21.359375q0 -5.125 -1.203125 -7.5625q-1.1875 -2.4375 -4.796875 -2.4375q-3.265625 0 -6.3125 1.125l-0.953125 0.3125l0 29.921875zm55.67749 -30.875l-9.84375 0l0 16.390625q0 2.40625 0.109375 3.40625q0.125 1.0 0.890625 1.71875q0.765625 0.71875 2.359375 0.71875l6.078125 -0.15625l0.484375 8.5625q-5.359375 1.1875 -8.15625 1.1875q-7.203125 0 -9.84375 -3.234375q-2.640625 -3.234375 -2.640625 -11.953125l0 -16.640625l-4.71875 0l0 -9.125l4.71875 0l0 -11.125l10.71875 0l0 11.125l9.84375 0l0 9.125zm15.76062 15.4375q0.078125 3.671875 1.953125 5.3125q1.875 1.640625 5.40625 1.640625q7.4375 0 13.28125 -0.46875l2.234375 -0.25l0.15625 7.921875q-9.203125 2.234375 -16.640625 2.234375q-9.03125 0 -13.125 -4.796875q-4.078125 -4.796875 -4.078125 -15.59375q0 -21.515625 17.6875 -21.515625q17.4375 0 17.4375 18.078125l-0.796875 7.4375l-23.515625 0zm13.75 -8.15625q0 -4.8125 -1.515625 -6.6875q-1.515625 -1.875 -5.328125 -1.875q-3.796875 0 -5.359375 1.96875q-1.546875 1.953125 -1.625 6.59375l13.828125 0zm18.237427 23.59375l0 -40.0l10.640625 0l0 4.234375q6.71875 -4.0 12.8125 -5.1875l0 10.796875q-6.484375 1.359375 -11.125 2.796875l-1.59375 0.5625l0 26.796875l-10.734375 0z" fill-rule="nonzero"/><path fill="#000000" d="m92.22433 383.4901l-3.84375 19.75l-11.203125 0l6.796875 -19.75l8.25 0zm19.829361 54.3125l-11.03125 0l0 -54.40625l11.03125 0l0 23.921875l7.359375 -0.796875l8.968758 -23.125l12.5625 0l-11.84375 27.28125l12.15625 27.125l-12.71875 0l-9.125008 -21.6875l-7.359375 0.8125l0 20.875zm37.596214 -35.46875q4.25 -5.484375 14.171875 -5.484375q9.921875 0 14.15625 5.484375q4.25 5.46875 4.25 15.390625q0 21.03125 -18.40625 21.03125q-18.40625 0 -18.40625 -21.03125q0 -9.921875 4.234375 -15.390625zm8.296875 24.4375q1.640625 2.875 5.875 2.875q4.234375 0 5.875 -2.875q1.640625 -2.890625 1.640625 -9.046875q0 -6.15625 -1.640625 -8.953125q-1.640625 -2.8125 -5.875 -2.8125q-4.234375 0 -5.875 2.8125q-1.640625 2.796875 -1.640625 8.953125q0 6.15625 1.640625 9.046875zm60.841217 -18.96875q-9.921875 -1.28125 -13.890625 -1.28125q-3.953125 0 -5.125 0.71875q-1.15625 0.71875 -1.15625 2.28125q0 1.5625 1.5625 2.171875q1.5625 0.59375 8.0 1.75q6.4375 1.15625 9.15625 3.796875q2.71875 2.640625 2.71875 8.5625q0 12.953125 -16.078125 12.953125q-5.28125 0 -12.796875 -1.4375l-2.5625 -0.46875l0.328125 -8.96875q9.921875 1.28125 13.796875 1.28125q3.875 0 5.265625 -0.75q1.40625 -0.765625 1.40625 -2.28125q0 -1.53125 -1.484375 -2.25q-1.46875 -0.71875 -7.671875 -1.75q-6.203125 -1.046875 -9.25 -3.53125q-3.03125 -2.484375 -3.03125 -8.84375q0 -6.359375 4.3125 -9.59375q4.328125 -3.234375 11.125 -3.234375q4.734375 0 12.890625 1.515625l2.640625 0.484375l-0.15625 8.875zm31.197464 -0.875l-9.84375 0l0 16.390625q0 2.40625 0.109375 3.40625q0.125 1.0 0.890625 1.71875q0.765625 0.71875 2.359375 0.71875l6.078125 -0.15625l0.484375 8.5625q-5.359375 1.1875 -8.15625 1.1875q-7.203125 0 -9.84375 -3.234375q-2.640625 -3.234375 -2.640625 -11.953125l0 -16.640625l-4.71875 0l0 -9.125l4.71875 0l0 -11.125l10.71875 0l0 11.125l9.84375 0l0 9.125zm41.27623 -9.125l0 40.0l-10.640625 0l0 -2.234375l-1.59375 0.796875q-1.53125 0.796875 -4.015625 1.59375q-2.46875 0.796875 -4.390625 0.796875q-8.328125 0 -11.203125 -4.59375q-2.875 -4.59375 -2.875 -15.40625q0 0 0 -20.953125l10.71875 0l0 21.125q0 5.921875 0.953125 8.078125q0.96875 2.15625 4.796875 2.15625q3.84375 0 7.53125 -1.4375l0 -29.921875l10.71875 0zm-30.796875 -7.6875l0 -10.546875l10.234375 0l0 10.546875l-10.234375 0zm17.28125 0l0 -10.546875l10.234375 0l0 10.546875l-10.234375 0zm34.161835 47.6875l-10.734375 0l0 -40.0l10.640625 0l0 2.234375q5.53125 -3.1875 9.453125 -3.1875q6.46875 0 10.0 3.75q7.359375 -3.75 13.4375 -3.75q7.921875 0 11.0 4.59375q3.078125 4.59375 3.078125 14.671875l0 21.6875l-10.71875 0l0 -21.359375q0 -5.125 -1.125 -7.5625q-1.125 -2.4375 -4.484375 -2.4375q-2.546875 0 -6.234375 1.125l-1.203125 0.390625q0.328125 6.0 0.328125 9.125l0 20.71875l-10.71875 0l0 -20.5625q0 -5.921875 -1.046875 -8.359375q-1.046875 -2.4375 -4.5625 -2.4375q-3.109375 0 -6.15625 1.125l-0.953125 0.3125l0 29.921875zm65.19806 -15.4375q0.078125 3.671875 1.953125 5.3125q1.875 1.640625 5.40625 1.640625q7.4375 0 13.28125 -0.46875l2.234375 -0.25l0.15625 7.921875q-9.203125 2.234375 -16.640625 2.234375q-9.03125 0 -13.125 -4.796875q-4.078125 -4.796875 -4.078125 -15.59375q0 -21.515625 17.6875 -21.515625q17.4375 0 17.4375 18.078125l-0.796875 7.4375l-23.515625 0zm13.75 -8.15625q0 -4.8125 -1.515625 -6.6875q-1.515625 -1.875 -5.328125 -1.875q-3.796875 0 -5.359375 1.96875q-1.546875 1.953125 -1.625 6.59375l13.828125 0zm16.565582 -11.046875l3.765625 -19.765625l11.265625 0l-6.796875 19.765625l-8.234375 0zm21.523102 11.515625l0 -13.28125l11.515625 0l0 13.28125l-11.515625 0zm0 23.125l0 -13.28125l11.515625 0l0 13.28125l-11.515625 0z" fill-rule="nonzero"/></g></svg>