<svg xmlns="http://www.w3.org/2000/svg" xmlns:xlink="http://www.w3.org/1999/xlink" version="1.1" width="56.300018310546875" height="120.038330078125" viewBox="-0.5 -0.5 56.300018310546875 120.038330078125"><g transform="translate(-212.4,-139.08105)"><g data-paper-data="{&quot;isPaintingLayer&quot;:true}" fill="none" fill-rule="nonzero" stroke="none" stroke-width="1" stroke-linecap="butt" stroke-linejoin="miter" stroke-miterlimit="10" stroke-dasharray="" stroke-dashoffset="0" font-family="none" font-weight="none" font-size="none" text-anchor="none" style="mix-blend-mode: normal"><g data-paper-data="{&quot;origPos&quot;:null}" id="zwinkert-1"><path d="M212.5,182.8l6.4,2.7c-0.1,-1.3 -0.1,-2.5 -0.2,-3.6c0,-0.4 -0.4,-0.5 -0.6,-0.7c-0.9,-0.5 -1.8,-1.2 -2.5,-2.1c1,0.3 2,0.8 2.9,1.3c0,-1 0,-2 0,-3c-0.2,-3.3 0.2,-6.6 1.2,-9.7c1.4,-4.3 4.6,-7.8 8.6,-9.8l0.6,-0.3c-1.3,-1.1 -2.5,-2.2 -3.7,-3.4c-1.2,-1 -2.2,-2.2 -3.2,-3.4c-0.3,-0.4 -0.4,-0.8 -0.4,-1.3c0,-2.5 0.4,-5 1.3,-7.4c0.3,-0.6 0.7,-1.1 1.3,-1.4c1.5,-0.9 3.2,-1.4 4.9,-1.6c0.9,-0.1 1.8,0.2 2.5,0.8c1.7,1.4 3.2,3 4.5,4.7c0.4,0.7 0.6,1.5 0.6,2.2c0,2.7 -0.2,5.4 -0.5,8.1c-0.1,0.6 0,0.8 0.7,0.8c1.7,-0.2 3.4,-0.2 5.1,0c0.6,0.1 0.7,-0.1 0.7,-0.7c-0.4,-3.1 -0.5,-6.1 -0.5,-9.2c0,-0.7 0.3,-1.5 0.8,-2c1.5,-1.6 3.3,-3 5.3,-4.1c0.8,-0.4 1.7,-0.5 2.5,-0.3c1.8,0.4 3.4,1.2 4.9,2.3c0.6,0.5 0.9,1.2 1,2c0.3,2.1 0.3,4.3 0,6.5c-0.2,0.9 -0.6,1.6 -1.3,2.2c-1.8,1.8 -3.6,3.5 -5.6,5.1c0.6,0.3 1.1,0.5 1.6,0.8c5.7,3.1 8.4,8.1 9,14.3c0.2,2.7 0.2,5.5 0,8.2c1,-0.6 2,-1.1 3.1,-1.5c-0.7,0.9 -1.5,1.6 -2.5,2.1c-0.4,0.2 -0.7,0.7 -0.7,1.2c0,0.9 -0.1,1.9 -0.1,2.9c2.6,-0.8 4.9,-1.8 7.5,-2.7c-0.3,0.5 -0.8,1 -1.4,1.2c-1.8,0.9 -3.6,1.6 -5.4,2.2c-0.8,0.2 -0.8,0.6 -0.5,1.2c0.3,0.5 0.5,1 0.7,1.5c0.2,0.6 0.5,0.7 1.1,0.6c1.1,-0.3 2.2,-0.4 3.2,-0.5c-0.5,0.5 -1.2,0.9 -1.9,1c-0.6,0.2 -1.5,0.1 -1.7,0.5c-0.2,0.4 0.3,1.1 0.5,1.7c3,9.3 3.8,19.2 2.3,28.9c-0.3,2.2 -1.9,3.9 -4.1,4.2c-0.3,0 -0.6,0.3 -0.7,0.6c-1.1,2.6 -3,4.9 -5.3,6.5c-0.3,0.2 -0.4,0.5 -0.4,0.8l-2.3,15.5c-0.2,0.9 0.1,1.8 0.8,2.3c2.1,1.4 2.3,3.4 1.8,5.6c-0.3,1.3 -0.3,1.3 -1.7,1.3l-9.7,-0.1c-1.2,0 -1.2,0 -1.2,-1.1c-0.2,-5.1 -0.4,-10.2 -0.6,-15.3c0,-0.1 0,-0.3 0,-0.4c-0.3,-0.1 -0.3,0.2 -0.4,0.4c-0.6,1.1 -1.3,2.2 -2,3.3c-0.8,1 -1.2,2.3 -1.3,3.5c-0.1,3 -0.4,6.1 -0.5,9.1c0,0.5 -0.2,0.7 -0.7,0.7c-3.6,0 -7.2,0 -10.8,0.1c-0.4,0.1 -0.7,-0.2 -0.8,-0.6v-0.1c-0.1,-0.5 -0.2,-0.7 -0.8,-0.5c-4.1,1 -7.5,-0.2 -10.5,-3.1c-0.3,-0.3 -0.5,-0.7 -0.5,-1.1c0.9,0.6 1.9,1.1 2.9,1.5c2.7,1.1 5.6,0.9 8.2,-0.4c1.5,-1 2.7,-2.4 3.3,-4.1c0.4,-1.1 0,-2.4 -0.2,-3.6c-0.5,-4.1 -1.1,-8.1 -1.6,-12.2c0,-0.6 -0.4,-1.2 -1,-1.5c-3.2,-1.9 -5,-4.9 -6.2,-8.3c-0.1,-0.4 -0.4,-0.8 -0.8,-1.1c-1.3,-0.8 -2.2,-2.2 -2.5,-3.7c-1.6,-9.5 -1,-19.2 1.7,-28.4c0.2,-0.7 0.1,-1 -0.6,-1.1c-0.7,-0.1 -1.4,-0.4 -1.9,-0.9c0.8,0 1.6,0.1 2.4,0.3c0.5,0.1 0.7,0 0.8,-0.4c0.3,-0.8 0.6,-1.5 1,-2.2c0.2,-0.5 0.1,-0.6 -0.3,-0.8c-1.6,-0.6 -3.1,-1.3 -4.6,-2.1c-0.4,-0.2 -0.8,-0.5 -1.1,-0.9z" fill="#151414"/><path d="M259.5,197.9c0.3,3.6 0,7.1 -0.7,10.6c-0.4,2.2 -1.3,4.3 -2.7,6.1c-0.7,0.9 -1.1,2.1 -1,3.3c0.1,2.4 0.5,4.7 2.5,6.4c0.2,0.2 0.4,0.3 0.6,0.5c1,0.7 1,0.7 0.5,1.8c-1.7,3.5 -4.8,6 -8.5,7.1c-6.8,2.3 -14.1,2.4 -21,0.2c-4.5,-1.2 -8.1,-4.6 -9.6,-9c-0.2,-0.6 -0.2,-0.8 0.5,-0.9c2,-0.4 3.6,-1.9 4.1,-3.9c0.8,-2.7 0.8,-5.2 -1.2,-7.5c-1.6,-1.8 -2,-4.2 -2.4,-6.5c-0.8,-4.8 -1.1,-9.6 -0.8,-14.4c0,-0.8 0.5,-0.6 0.9,-0.5c2.3,0.4 4.6,0.5 6.9,0.3c2.2,-0.2 4.3,0.1 6.3,1c4.7,2 9.3,1.4 13.7,-1.2c0.3,-0.2 0.7,-0.4 1.2,-0.3c3.3,0.4 6.6,0.5 9.9,0.2c0.8,-0.1 0.9,0.2 0.9,0.9c-0.2,1.8 -0.1,3.8 -0.1,5.8z" fill="#db5f1e"/><path d="M249.4,188.8c-0.6,0.9 -1.7,1.2 -2.8,1c-0.4,-0.1 -1.2,-0.3 -1.3,0.1c-0.1,0.4 0.7,0.4 1.1,0.6l0.1,0.1c-4.2,2.6 -9.5,2.7 -13.9,0.3c0.2,-0.4 0.6,-0.3 0.9,-0.5c0.1,-0.1 0.3,-0.2 0.2,-0.3c-0.1,-0.1 -0.2,-0.2 -0.3,-0.2c-0.3,0 -0.7,0 -1,0c-1.3,0.4 -2.2,-0.4 -3.2,-1.2c1.1,0 2.1,0 3.1,0c0.4,0 1.2,0.2 1.3,-0.3c0.1,-0.5 -0.8,-0.3 -1.3,-0.4c-0.8,-0.1 -1.7,-0.1 -2.5,-0.2c-1.1,0.1 -2.2,-0.3 -3,-1.1c-0.3,-0.4 -0.8,-0.6 -1.3,-0.7c-0.6,-0.1 -1.2,-0.2 -1.4,-0.9c-0.1,-0.2 -0.3,-0.3 -0.4,-0.2h-0.1c-0.2,0.1 -0.2,0.3 -0.1,0.5c0.2,0.3 0.3,0.7 0,1c-0.3,0.3 -0.7,0.1 -1.1,0c-2.5,-0.7 -2.5,-0.7 -2.6,-3.3c0,-0.3 0,-0.6 0,-0.9c0.3,-0.2 0.4,0.1 0.6,0.2c3.6,2.1 7.5,3.7 11.5,4.7c0.5,0.1 1,0.1 1.5,0.1c0.1,0 0.3,0 0.4,-0.2c0.1,-0.2 -0.1,-0.3 -0.3,-0.3c-0.4,-0.1 -0.7,-0.3 -1.1,-0.3c-4.2,-1.1 -8.2,-2.8 -12,-5c-0.3,-0.2 -0.7,-0.3 -0.7,-0.8c-0.1,-3.5 -0.4,-7.1 0.4,-10.6c1.7,-7.2 6.3,-11.5 13.5,-12.9c5.1,-1.1 10.3,-0.7 15.2,1.2c6.2,2.3 9.4,7 10.5,13.4c0.4,3.1 0.4,6.2 0.2,9.3c0,0.6 -0.4,0.7 -0.8,0.9c-3.3,1.7 -6.9,3 -10.6,3.7c-0.7,0.2 -1.5,0.4 -2.2,0.6c-0.2,0.1 -0.6,0.1 -0.6,0.4c0,0.3 0.5,0.2 0.7,0.2c0.6,0 1.2,-0.1 1.7,-0.2c3.8,-0.7 7.5,-2 10.9,-3.8c0.6,-0.3 0.6,-0.1 0.6,0.4c0,2.6 0,2.6 -2.6,3.3c-0.2,0.1 -0.5,0.1 -0.8,0.2c-0.3,0.1 -0.7,0.3 -0.9,0c-0.2,-0.3 -0.1,-0.6 0.1,-0.9c0.1,-0.2 0.4,-0.4 0.1,-0.6c-0.3,-0.2 -0.5,0 -0.7,0.2c-0.3,0.4 -0.8,0.7 -1.3,0.7c-0.5,0.1 -1,0.3 -1.4,0.7c-0.7,0.6 -1.6,1 -2.6,0.9c-1.1,0.1 -2.3,0.2 -3.4,0.3c-0.2,0 -0.6,0 -0.6,0.3c0,0.3 0.4,0.2 0.6,0.2c1.4,0.3 2.6,0.3 3.7,0.3z" fill="#db5f1e"/><path d="M241.9,238.4c0,-2.4 0,-2.3 1.9,-2.5c2.8,-0.2 5.5,-0.9 8.1,-2c0.2,-0.1 0.5,-0.2 0.7,-0.3c0.5,-0.2 0.5,0 0.4,0.4c-0.6,3.6 -1.1,7.2 -1.7,10.8c-0.2,1.7 -0.4,3.4 -0.6,5c-0.1,0.5 0.1,0.9 0.5,1.3c0.5,0.5 0.9,1.1 1.5,1.6c1,0.8 0.9,1.8 0.8,2.9c-0.1,0.4 -0.1,0.9 -0.2,1.3c0,0.2 -0.1,0.5 -0.4,0.5c-0.3,0 -0.4,-0.4 -0.3,-0.6c0.2,-0.8 0.2,-1.6 0,-2.4c0,-0.3 0,-0.8 -0.5,-0.7c-0.5,0.1 -0.2,0.5 -0.2,0.8c0,0.7 0,1.4 0,2c0,0.6 0.1,1.1 -0.8,1c-0.9,-0.1 -0.6,-0.6 -0.5,-1.1c0,-0.7 0,-1.4 -0.3,-2.1c0,-0.2 -0.1,-0.4 -0.3,-0.3c-0.2,0.1 -0.2,0.2 -0.2,0.4c0,0.8 0,1.6 0,2.4c0,0.4 -0.2,0.7 -0.6,0.7c-1.9,-0.2 -3.9,-0.1 -5.8,-0.1c-0.6,0 -0.8,-0.2 -0.8,-0.8c-0.1,-3.7 -0.2,-7.5 -0.4,-11.2c0.1,-2.5 -0.1,-4.7 -0.3,-7z" fill="#734413"/><path d="M232.5,257.4c-0.9,0 -1.9,0 -2.8,0c-0.6,0 -0.8,-0.2 -0.8,-0.8c0,-0.6 0,-1.4 0,-2c0,-0.2 0.1,-0.5 -0.3,-0.6c-0.4,-0.1 -0.3,0.3 -0.3,0.4c-0.2,0.8 -0.3,1.6 -0.2,2.3c0,0.3 0.2,0.6 -0.3,0.6c-0.5,0 -0.8,0.2 -1,-0.4c-0.1,-0.8 -0.2,-1.7 -0.2,-2.5c0,-0.2 0,-0.5 -0.2,-0.5c-0.2,0 -0.3,0.2 -0.3,0.4c-0.1,0.8 -0.2,1.6 -0.1,2.4c0,0.2 0.1,0.5 -0.2,0.5c-0.3,0 -0.3,-0.3 -0.4,-0.5c-0.5,-1.6 0,-3.3 1.2,-4.3c0.3,-0.2 0.4,-0.6 0.7,-0.9c0.9,-0.8 1.2,-2 0.9,-3.1c-0.4,-3.6 -0.8,-7.2 -1.3,-10.8c-0.2,-1.1 -0.3,-2.1 -0.4,-3.2c-0.1,-0.4 0,-0.7 0.6,-0.4c3.1,1.3 6.5,2 9.9,2.1c0.4,0 0.6,0.1 0.5,0.6c-0.2,2.5 -0.3,4.9 -0.4,7.4c-0.3,3.9 -0.5,7.9 -0.7,11.9c-0.1,1.3 -0.1,1.3 -1.4,1.3z" fill="#734413"/><path d="M222.4,148.7c0.1,-2.1 0.5,-4.1 1.2,-6.1c0.3,-0.9 1.1,-1.2 1.8,-1.5c1.1,-0.5 2.3,-0.8 3.4,-1c1.2,-0.2 2.1,0.6 2.9,1.3c1.2,1 2.3,2.2 3.3,3.4c0.6,0.8 0.9,1.8 0.7,2.9c-0.1,2 -0.2,3.9 -0.4,5.8c-0.1,0.7 -0.1,1.3 -0.2,2c0,0.4 -0.2,0.5 -0.6,0.6c-1.4,0.2 -2.9,0.5 -4.2,1c-0.3,0.1 -0.7,0 -0.9,-0.2c-2.3,-1.9 -4.4,-3.9 -6.4,-6.1c-0.5,-0.6 -0.7,-1.4 -0.6,-2.1z" fill="#734413"/><path d="M255.9,147.6c0.5,2.2 -0.6,4 -2.5,5.6c-1.5,1.3 -3,2.6 -4.4,3.9c-0.2,0.2 -0.5,0.3 -0.8,0.1c-1.3,-0.4 -2.7,-0.8 -4.1,-1c-0.5,-0.1 -0.7,-0.3 -0.8,-0.8c-0.3,-2.1 -0.4,-4.2 -0.5,-6.3c0,-0.5 -0.1,-1.1 -0.2,-1.7c-0.2,-1.4 0.3,-2.8 1.4,-3.7c1.3,-1.1 2.6,-2.1 4.1,-3c0.8,-0.5 1.8,-0.6 2.7,-0.3c1.3,0.4 2.6,1 3.7,1.8c1.1,0.8 1.1,1.9 1.2,3c0.3,0.8 0.3,1.6 0.2,2.4z" fill="#734413"/><path d="M259.8,224.5c1,-1.1 2.2,-1.9 2.4,-3.6c-0.7,0.3 -0.9,0.9 -1.3,1.2c-0.4,0.3 -0.7,0.7 -1,1c-1.2,1.1 -1.2,1.1 -2.3,-0.1c-0.4,-0.4 -0.3,-0.6 0,-1c0.9,-0.8 1.6,-1.8 1.9,-3c0.1,-0.2 0.1,-0.5 -0.1,-0.7c-0.5,0.7 -1,1.4 -1.5,2c-0.3,0.4 -0.7,1.1 -1.2,1c-0.5,-0.1 -0.4,-0.9 -0.6,-1.4c-0.2,-1 -0.3,-2 -0.2,-3c0.1,-0.8 0.4,-1.6 1,-2.1c2.1,-2.3 2.6,-5.2 3.1,-8.1c0.5,-4.3 0.7,-8.5 0.5,-12.8c0,-0.8 -0.1,-1.6 -0.1,-2.4c0,-0.2 -0.2,-0.6 0.2,-0.6c0.4,0 0.4,0.3 0.5,0.5c0.9,2.4 1.6,4.8 2.1,7.3c1.1,5.2 1.5,10.6 1.4,15.9c-0.1,2.4 -0.4,4.7 -0.9,7c-0.4,1.7 -2.2,3.4 -3.9,2.9z" fill="#734413"/><path d="M217.5,219.1c0,0.9 0.4,1.8 1.1,2.4c0.3,0.4 0.7,0.7 1,1c0.1,0.1 0.3,0.2 0.2,0.4c-0.1,0.2 -0.3,0.2 -0.5,0.1c-1.5,-0.3 -2.8,-1.5 -3.2,-3c-0.7,-2.4 -1,-5 -1,-7.5c-0.3,-6.6 0.4,-13.3 2.1,-19.7c0.2,-0.6 0.3,-1.1 0.5,-1.7c0.1,-0.3 0.2,-0.7 0.7,-0.6c0.5,0.1 0.5,0.5 0.5,0.8c0,0.7 -0.1,1.3 -0.1,1.9c0,5 0.1,10 1.4,14.9c0.4,1.8 1.2,3.5 2.3,5c1.8,2 1.3,4.3 0.8,6.6c-0.1,0.5 -0.4,0.5 -0.7,0.2c-0.8,-0.8 -1.5,-1.7 -2,-2.7c-0.1,-0.2 -0.1,-0.4 -0.3,-0.3c-0.2,0.1 -0.1,0.3 -0.1,0.4c0.3,1.2 1,2.3 1.9,3.1c0.6,0.7 0.2,1 -0.2,1.4c-0.4,0.4 -0.8,0.6 -1.4,0.1c-1.2,-0.7 -2.1,-1.7 -3,-2.8z" fill="#734413"/><path d="M229.8,190.3c-2.4,0.3 -4.8,0.3 -7.1,0.1c-0.7,0 -1.4,-0.2 -2.2,-0.2c-0.5,0 -0.8,-0.2 -0.7,-0.8c0.1,-0.6 0.1,-1 0.1,-1.5c0.1,-1.2 0.1,-1.2 1.2,-0.8c1.5,0.6 3.1,0.9 4.8,1.1c1.7,0.1 2.6,1.1 3.9,2.1z" fill="#db5e1e"/><path d="M249.3,190.1c0.9,-1 2.1,-1.6 3.3,-1.7c2,-0.2 4,-0.6 5.8,-1.2c0.6,-0.2 0.8,0 0.8,0.6c0,0.6 0.3,1.7 -0.1,2.2c-0.4,0.5 -1.4,0.2 -2.1,0.3c-2.5,0.2 -5.1,0.1 -7.7,-0.2z" fill="#da5e1e"/><path d="M226.1,187.3c-0.5,0.1 -1,0 -1.4,-0.1c-0.2,0 -0.3,-0.1 -0.2,-0.3c0,-0.2 0.2,-0.2 0.3,-0.2c0.4,0 0.9,0.2 1.3,0.6z" fill="#aa4c1b"/><path d="M218.9,188.3v1.2c0,0.2 -0.2,0.3 -0.4,0.3c-0.2,0 -0.2,-0.3 -0.2,-0.4c0,-0.1 0.2,-0.8 0.6,-1.1z" fill="#6a3f13"/><path d="M252.9,187.4c0.3,-0.4 0.9,-0.6 1.3,-0.3c-0.4,0.4 -0.9,0.3 -1.3,0.3z" fill="#a54a1b"/><path d="M231,181c-3.1,0 -5.8,-2.3 -6.3,-5.3c-0.1,-0.6 -0.2,-0.8 -0.7,-0.4c-0.2,0.2 -0.5,0.2 -0.7,0c-0.3,-0.2 -0.2,-0.4 -0.2,-0.7c0.4,-2 0.9,-3.9 1.7,-5.8c0.5,-1.2 1.4,-2.1 2.6,-2.5c1.4,-0.5 2.9,-0.8 4.4,-0.9c0.9,-0.1 1.8,0.2 2.4,0.9c1.4,1.5 2.6,3.2 3.5,5c0.1,0.3 0.2,0.7 -0.1,0.8c-0.8,0.2 -0.5,0.7 -0.4,1.2c0.8,3.5 -1.4,6.9 -4.9,7.7c-0.4,0 -0.8,0 -1.3,0z" fill="#141414"/><path d="M248.1,165.6c2.2,0.2 4.4,0.6 6,2.3c1,1.2 1.6,2.6 1.8,4.1c0.3,1 0.5,2.1 0.6,3.2c0.1,0.6 -0.1,1 -0.7,0.6c-0.7,-0.4 -0.7,0.1 -0.8,0.5c-1,3.4 -4.6,5.4 -8,4.4c-3.3,-1 -5.2,-4.3 -4.5,-7.6c0.1,-0.4 0.4,-0.9 -0.4,-1c-0.3,0 -0.4,-0.3 -0.2,-0.6c0.9,-2 2.3,-3.8 4,-5.2c0.7,-0.6 1.5,-0.8 2.2,-0.7z" fill="#151414"/><path d="M239.3,190.7c-0.5,0 -0.9,0 -1.4,-0.1c-1.2,-0.3 -1.4,-0.6 -1.5,-1.8c-0.1,-1.2 0.3,-1.8 1.4,-2.1c1,-0.3 2,-0.3 3,-0.1c1.1,0.3 1.4,0.8 1.4,2.1c0,1.3 -0.2,1.5 -1.3,1.8c-0.5,0.2 -1.1,0.3 -1.6,0.2z" fill="#141414"/><path d="M236.6,171.2c-4.3,-0.2 -8.5,0.8 -12.3,2.7c0.3,-1.9 0.9,-3.8 1.8,-5.5c0.3,-0.5 0.8,-0.9 1.4,-1.1c1.5,-0.6 3.1,-0.9 4.8,-0.9c0.5,0 1,0.2 1.3,0.6c1.2,1.3 2.2,2.7 3,4.2z" fill="#db5f1e"/><path d="M228.8,173.2c-0.8,1.7 -0.6,3.2 0.6,3.9c1.2,0.8 2.9,0.5 3.8,-0.6c0.9,-1.2 0.7,-2.6 -0.8,-4c1.1,-0.2 2.2,-0.2 3.3,-0.2c0.3,0 0.3,0.3 0.4,0.5c0.7,2 0.2,4.3 -1.3,5.8c-1.5,1.6 -3.8,2.1 -5.8,1.3c-2,-0.7 -3.5,-2.6 -3.6,-4.7c-0.1,-0.4 0.1,-0.8 0.5,-0.9c1,-0.5 2,-0.9 2.9,-1.1z" fill="#eaeaea"/><path d="M255.6,174.6c-3.8,-2.2 -8.1,-3.4 -12.5,-3.3c0.8,-1.6 1.8,-3 3.1,-4.1c0.5,-0.5 1.2,-0.7 1.9,-0.7c1.4,0.1 2.8,0.5 4.1,1.1c0.9,0.4 1.5,1.1 1.9,2c0.8,1.6 1.3,3.3 1.5,5z" fill="#db5f1e"/><path d="M247.4,172.6c-1.3,1.2 -1.6,2.7 -0.9,3.9c0.8,1.1 2.2,1.6 3.5,1.1c1.4,-0.5 1.7,-1.6 1.2,-4c1,0.3 2,0.7 2.9,1.2c0.3,0.2 0.3,0.4 0.3,0.8c-0.3,2.1 -1.8,3.7 -3.8,4.3c-2.1,0.8 -4.4,0.1 -5.8,-1.5c-1.5,-1.5 -1.9,-3.8 -1.1,-5.8c0.1,-0.2 0.2,-0.4 0.5,-0.4c1.1,0 2.1,0.1 3.2,0.4z" fill="#eaeaea"/></g><path d="" fill="#000000" opacity="0"/></g></g></svg>