<svg xmlns="http://www.w3.org/2000/svg" width="24" height="23.4" viewBox="0 0 24 23.4"><title>Vollbild schließen</title><g id="Ebene_2" data-name="Ebene 2"><g id="Ebene_2-2" data-name="Ebene 2"><polygon points="18.76 6.43 23.28 1.75 21.47 0 16.87 4.75 14.59 2.73 13.79 10.18 20.76 8.2 18.76 6.43" fill="#8e8e8e"/><polygon points="6.45 5.28 1.81 0.48 0 2.23 4.78 7.17 3.11 9.06 10.55 9.86 8.57 2.89 6.45 5.28" fill="#8e8e8e"/><polygon points="4.46 17.71 0.65 21.65 2.46 23.4 6.35 19.38 9.08 21.8 9.88 14.35 2.91 16.33 4.46 17.71" fill="#8e8e8e"/><polygon points="24 21.17 19.48 16.5 21.41 14.31 13.97 13.51 15.95 20.48 17.8 18.39 22.19 22.92 24 21.17" fill="#8e8e8e"/></g></g></svg>