<?xml version="1.0" encoding="UTF-8" standalone="no"?>
<svg
   xmlns:dc="http://purl.org/dc/elements/1.1/"
   xmlns:cc="http://creativecommons.org/ns#"
   xmlns:rdf="http://www.w3.org/1999/02/22-rdf-syntax-ns#"
   xmlns:svg="http://www.w3.org/2000/svg"
   xmlns="http://www.w3.org/2000/svg"
   viewBox="0 0 49 48"
   height="48"
   width="49"
   id="svg403"
   version="1.1">
  <metadata
     id="metadata409">
    <rdf:RDF>
      <cc:Work
         rdf:about="">
        <dc:format>image/svg+xml</dc:format>
        <dc:type
           rdf:resource="http://purl.org/dc/dcmitype/StillImage" />
        <dc:title></dc:title>
      </cc:Work>
    </rdf:RDF>
  </metadata>
  <defs
     id="defs407" />
  <path
     id="path413"
     d="m 2.5795099,40.446419 c 0.374478,-3.932395 0.849058,-7.339083 1.054622,-7.570419 0.205565,-0.231335 1.541499,0.668665 2.968743,2 l 2.594989,2.42061 3.7667091,-4.227205 c 3.733494,-4.18993 3.782692,-4.209546 5.579125,-2.224509 1.766548,1.952013 1.719414,2.097938 -1.862456,5.766105 -3.310203,3.389955 -3.521934,3.916346 -2.13368,5.304599 1.388253,1.388254 0.837127,1.746574 -5.5538651,3.610909 l -7.095056,2.069719 z M 44.999997,46.147067 C 43.625,45.939618 40.548061,45.517413 38.162358,45.208833 c -4.19652,-0.542801 -4.281393,-0.62321 -2.6087,-2.471515 1.657209,-1.831195 1.55712,-2.096867 -2.412357,-6.403241 -4.588355,-4.977778 -4.839972,-5.712732 -2.593953,-7.576762 1.311976,-1.088844 2.22036,-0.623672 5.971787,3.058075 4.338129,4.257551 4.464006,4.306452 6.452653,2.506752 1.115519,-1.009529 2.028209,-1.651831 2.028209,-1.427337 0,0.224493 0.86824,3.444238 1.92942,7.154987 1.06118,3.71075 1.62368,6.685536 1.25,6.610636 -0.37368,-0.0749 -1.80442,-0.305913 -3.17942,-0.513361 z M 29.672697,18.987438 C 28.135081,17.288392 28.307183,16.911549 32.5,12.79661 36.698648,8.6759487 36.866726,8.3068257 35.321755,6.5996517 34.4182,5.6012347 33.863669,4.6082481 34.089464,4.3930143 34.629028,3.8786869 45.091597,0.79661013 46.297997,0.79661013 c 0.86988,0 0.0413,12.94263287 -0.8905,13.91053587 -0.21738,0.225795 -1.34262,-0.446833 -2.500527,-1.494727 -2.094144,-1.895174 -2.126498,-1.880139 -6.110197,2.839464 -2.202697,2.6096 -4.33833,4.744727 -4.745851,4.744727 -0.407521,0 -1.477722,-0.814128 -2.378225,-1.809172 z M 13.030553,15.327741 c -4.2147661,-4.294534 -4.4396601,-4.392061 -5.7649121,-2.5 -0.758477,1.082878 -1.744233,1.968869 -2.190569,1.968869 -0.977779,0 -4.45476495,-11.9536406 -3.697309,-12.7110962 C 2.1460319,1.3172445 15,2.8182228 15,3.6762041 c 0,0.3962233 -0.542813,1.263219 -1.206251,1.9266576 -0.941668,0.941668 -0.167038,2.261329 3.531591,6.0164223 4.568253,4.637993 4.671253,4.870435 2.877511,6.493749 -1.023183,0.925967 -2.068705,1.683577 -2.323384,1.683577 -0.254678,0 -2.436689,-2.010991 -4.848914,-4.468869 z"
     style="fill:#d75f26" />
</svg>
