<?xml version="1.0" standalone="no"?><!-- Generator: Gravit.io --><svg xmlns="http://www.w3.org/2000/svg" xmlns:xlink="http://www.w3.org/1999/xlink" style="isolation:isolate" viewBox="0 0 24 22.98" width="24" height="22.98"><g><path d=" M 24 20.16 L 17 14.39 C 19.675 10.347 18.774 4.925 14.937 1.963 C 11.099 -0.998 5.626 -0.495 2.393 3.118 C -0.84 6.73 -0.736 12.225 2.631 15.712 C 5.999 19.199 11.487 19.495 15.21 16.39 L 21.82 23 L 24 20.16 Z  M 9.12 15.68 C 5.497 15.68 2.56 12.743 2.56 9.12 C 2.56 5.497 5.497 2.56 9.12 2.56 C 12.743 2.56 15.68 5.497 15.68 9.12 C 15.68 10.86 14.989 12.528 13.759 13.759 C 12.528 14.989 10.86 15.68 9.12 15.68 L 9.12 15.68 Z " fill="#5B84BF"/><rect x="5.49" y="8.23" width="7.55" height="2.06" transform="matrix(1,0,0,1,0,0)" fill="#5B84BF"/><rect x="5.345" y="8.09" width="7.55" height="2.06" transform="matrix(0,-1,1,0,0,18.24)" fill="#5B84BF"/></g></svg>