<?xml version="1.0" encoding="UTF-8" standalone="no"?>
<!-- Created with Inkscape (http://www.inkscape.org/) -->

<svg
   xmlns:dc="http://purl.org/dc/elements/1.1/"
   xmlns:cc="http://creativecommons.org/ns#"
   xmlns:rdf="http://www.w3.org/1999/02/22-rdf-syntax-ns#"
   xmlns:svg="http://www.w3.org/2000/svg"
   xmlns="http://www.w3.org/2000/svg"
   xmlns:sodipodi="http://sodipodi.sourceforge.net/DTD/sodipodi-0.dtd"
   xmlns:inkscape="http://www.inkscape.org/namespaces/inkscape"
   width="72.999741mm"
   height="73.098656mm"
   viewBox="0 0 72.999741 73.098655"
   version="1.1"
   id="svg2387"
   inkscape:version="0.92.4 (unknown)"
   sodipodi:docname="buttonBorder.svg">
  <defs
     id="defs2381">
    <clipPath
       clipPathUnits="userSpaceOnUse"
       id="clipPath1040">
      <path
         d="M 0,0 H 596 V 842 H 0 Z"
         id="path1038"
         inkscape:connector-curvature="0" />
    </clipPath>
  </defs>
  <sodipodi:namedview
     id="base"
     pagecolor="#ffffff"
     bordercolor="#666666"
     borderopacity="1.0"
     inkscape:pageopacity="0.0"
     inkscape:pageshadow="2"
     inkscape:zoom="1.4142136"
     inkscape:cx="131.70627"
     inkscape:cy="179.62774"
     inkscape:document-units="mm"
     inkscape:current-layer="layer1"
     showgrid="false"
     fit-margin-top="0"
     fit-margin-left="0"
     fit-margin-right="0"
     fit-margin-bottom="0"
     inkscape:window-width="1920"
     inkscape:window-height="1016"
     inkscape:window-x="0"
     inkscape:window-y="27"
     inkscape:window-maximized="1">
    <inkscape:grid
       type="xygrid"
       id="grid3083"
       originx="4.4577109"
       originy="7.3515659" />
  </sodipodi:namedview>
  <metadata
     id="metadata2384">
    <rdf:RDF>
      <cc:Work
         rdf:about="">
        <dc:format>image/svg+xml</dc:format>
        <dc:type
           rdf:resource="http://purl.org/dc/dcmitype/StillImage" />
        <dc:title></dc:title>
      </cc:Work>
    </rdf:RDF>
  </metadata>
  <g
     inkscape:label="Layer 1"
     inkscape:groupmode="layer"
     id="layer1"
     transform="translate(-52.220603,-96.711535)">
    <g
       id="g1183">
      <path
         inkscape:connector-curvature="0"
         id="rect3081"
         d="m 52.221803,96.711535 c -6.73e-4,0 -0.0012,6.06e-4 -0.0012,0.0012 v 72.996835 c 0,6.5e-4 6.05e-4,10e-4 0.0012,10e-4 h 72.997537 c 6.5e-4,0 10e-4,-6.6e-4 10e-4,-10e-4 V 96.712809 c 0,-6.68e-4 -6.5e-4,-0.0012 -10e-4,-0.0012 z m 36.493014,6.659155 c 16.476003,0 29.833803,13.36049 29.833803,29.84117 0,16.47894 -13.3578,29.83928 -29.833803,29.83928 -16.477313,0 -29.835722,-13.36034 -29.835722,-29.83928 0,-16.48068 13.358409,-29.84117 29.835722,-29.84117 z"
         style="fill:#ffffff;fill-rule:evenodd;stroke-width:0.19463544" />
      <g
         transform="matrix(0.43517226,0,0,0.436484,17.756353,31.349305)"
         id="g1042">
        <path
           d="m 163.00796,293.32928 c -33.843,0 -59.56466,-25.84413 -59.56466,-59.68413 0,-33.844 25.85914,-59.7281 59.70214,-59.7281 33.84,0 59.75343,25.87017 59.75343,59.71417 0,33.84 -26.05091,59.69806 -59.89091,59.69806 M 163.105,150.406 c -45.945,0 -83.191,37.246 -83.191,83.192 0,45.941 37.246,83.187 83.191,83.187 45.942,0 83.188,-37.246 83.188,-83.187 0,-45.946 -37.246,-83.192 -83.188,-83.192"
           style="fill:#ffffff;fill-opacity:1;fill-rule:nonzero;stroke:none"
           id="path1044"
           inkscape:connector-curvature="0"
           sodipodi:nodetypes="csssccsssc" />
        <g
           id="g1046"
           transform="scale(1,-0.999995)">
          <path
             d="m 246.293,-233.599 c 0,-45.942 -37.246,-83.188 -83.188,-83.188 -45.945,0 -83.191,37.246 -83.191,83.188 0,45.946 37.246,83.192 83.191,83.192 45.942,0 83.188,-37.246 83.188,-83.192 z"
             style="fill:none;stroke:#00adef;stroke-width:0.86655402;stroke-linecap:butt;stroke-linejoin:miter;stroke-miterlimit:10;stroke-dasharray:none;stroke-opacity:1"
             id="path1048"
             inkscape:connector-curvature="0" />
        </g>
        <g
           id="g1050"
           transform="scale(1,-0.999995)" />
        <path
           d="m 167.6705,170.83562 h -0.625 v -0.93 h 0.59 c 0.39,0 0.554,0.156 0.554,0.469 0,0.285 -0.168,0.461 -0.519,0.461 m -4.02,1.402 h -0.348 v -2.269 h 0.317 c 0.762,0 1.105,0.335 1.105,1.109 0,0.762 -0.343,1.16 -1.074,1.16 m 4.895,-0.793 v -0.012 c 0.386,-0.136 0.808,-0.468 0.808,-1.14 0,-0.836 -0.597,-1.266 -1.656,-1.266 h -1.801 v 1.442 h -0.011 c -0.219,-0.872 -0.95,-1.442 -2.29,-1.442 h -2.535 l -0.386,1.695 c -0.082,0.348 -0.153,0.793 -0.153,0.793 h -0.011 c 0,0 -0.086,-0.492 -0.168,-0.843 l -0.332,-1.645 h -1.391 l -0.332,1.645 c -0.082,0.351 -0.168,0.843 -0.168,0.843 h -0.012 c 0,0 -0.07,-0.445 -0.148,-0.793 l -0.387,-1.695 h -1.262 l 1.11,4.152 h 1.269 l 0.629,-2.664 h 0.012 l 0.629,2.664 h 1.246 l 0.926,-3.449 h 0.011 v 3.449 h 1.414 c 1.36,0 2.11,-0.625 2.329,-1.515 h 0.011 v 1.515 h 1.149 v -1.468 h 0.086 c 0.132,0 0.461,-0.004 0.64,0.285 l 0.703,1.183 h 1.235 l -0.641,-1.078 c -0.211,-0.363 -0.387,-0.554 -0.523,-0.656 m 2.39,-0.844 c -0.504,0 -0.91,-0.41 -0.91,-0.91 0,-0.504 0.406,-0.914 0.91,-0.914 0.5,0 0.907,0.41 0.907,0.914 0,0.5 -0.407,0.91 -0.907,0.91 m 0,-1.98 c -0.59,0 -1.066,0.476 -1.066,1.07 0,0.59 0.476,1.067 1.066,1.067 0.586,0 1.063,-0.477 1.063,-1.067 0,-0.594 -0.477,-1.07 -1.063,-1.07 m -0.644,1.082 0.351,-0.129 v 0.805 l 0.719,-0.258 v -1.07 l -1.07,0.386 z"
           style="fill:#1d385e;fill-opacity:1;fill-rule:nonzero;stroke:none"
           id="path1054"
           inkscape:connector-curvature="0" />
      </g>
      <g
         transform="rotate(-0.33070278,-37.322685,130.24888)"
         id="g1124">
        <text
           transform="matrix(0.84761355,0.52936751,-0.52777942,0.85016423,0,0)"
           style="font-variant:normal;font-weight:normal;font-size:2.64366388px;font-family:'Titillium Web';-inkscape-font-specification:TitilliumWeb-Regular;writing-mode:lr-tb;fill:#1d385e;fill-opacity:1;fill-rule:nonzero;stroke:none;stroke-width:0.43582651"
           id="text1058"
           x="145.37465"
           y="94.628929">
          <tspan
             x="145.37465"
             y="94.628929"
             id="tspan1056"
             style="stroke-width:0.43582651">p</tspan>
        </text>
        <text
           transform="matrix(0.86852149,0.49409806,-0.4926158,0.87113502,0,0)"
           style="font-variant:normal;font-weight:normal;font-size:2.64367485px;font-family:'Titillium Web';-inkscape-font-specification:TitilliumWeb-Regular;writing-mode:lr-tb;fill:#1d385e;fill-opacity:1;fill-rule:nonzero;stroke:none;stroke-width:0.43582651"
           id="text1062"
           x="142.81325"
           y="100.55737">
          <tspan
             x="142.81325"
             y="100.55737"
             id="tspan1060"
             style="stroke-width:0.43582651">r</tspan>
        </text>
        <text
           transform="matrix(0.88768299,0.45856144,-0.45718583,0.89035412,0,0)"
           style="font-variant:normal;font-weight:normal;font-size:2.64366126px;font-family:'Titillium Web';-inkscape-font-specification:TitilliumWeb-Regular;writing-mode:lr-tb;fill:#1d385e;fill-opacity:1;fill-rule:nonzero;stroke:none;stroke-width:0.43582648"
           id="text1066"
           x="139.57494"
           y="106.27788">
          <tspan
             x="139.57494"
             y="106.27788"
             id="tspan1064"
             style="stroke-width:0.43582648">o</tspan>
        </text>
        <text
           transform="matrix(0.90924202,0.41389037,-0.41264866,0.91197797,0,0)"
           style="font-variant:normal;font-weight:normal;font-size:2.64368677px;font-family:'Titillium Web';-inkscape-font-specification:TitilliumWeb-Regular;writing-mode:lr-tb;fill:#1d385e;fill-opacity:1;fill-rule:nonzero;stroke:none;stroke-width:0.43582648"
           id="text1070"
           x="135.59264"
           y="113.13211">
          <tspan
             x="135.59264"
             y="113.13211"
             id="tspan1068"
             style="stroke-width:0.43582648">g</tspan>
        </text>
        <text
           transform="matrix(0.92538618,0.37617562,-0.3750471,0.92817079,0,0)"
           style="font-variant:normal;font-weight:normal;font-size:2.6436944px;font-family:'Titillium Web';-inkscape-font-specification:TitilliumWeb-Regular;writing-mode:lr-tb;fill:#1d385e;fill-opacity:1;fill-rule:nonzero;stroke:none;stroke-width:0.43582651"
           id="text1074"
           x="132.24809"
           y="118.64483">
          <tspan
             x="132.24809"
             y="118.64483"
             id="tspan1072"
             style="stroke-width:0.43582651">r</tspan>
        </text>
        <text
           transform="matrix(0.93990667,0.33802361,-0.33700959,0.94273488,0,0)"
           style="font-variant:normal;font-weight:normal;font-size:2.64365554px;font-family:'Titillium Web';-inkscape-font-specification:TitilliumWeb-Regular;writing-mode:lr-tb;fill:#1d385e;fill-opacity:1;fill-rule:nonzero;stroke:none;stroke-width:0.43582648"
           id="text1078"
           x="128.26904"
           y="123.9807">
          <tspan
             x="128.26904"
             y="123.9807"
             id="tspan1076"
             style="stroke-width:0.43582648">a</tspan>
        </text>
        <text
           transform="matrix(0.95964871,0.2766456,-0.27581553,0.96253643,0,0)"
           style="font-variant:normal;font-weight:normal;font-size:2.64365506px;font-family:'Titillium Web';-inkscape-font-specification:TitilliumWeb-Regular;writing-mode:lr-tb;fill:#1d385e;fill-opacity:1;fill-rule:nonzero;stroke:none;stroke-width:0.43582651"
           id="text1082"
           x="121.42027"
           y="132.08102">
          <tspan
             x="121.42027"
             y="132.08102"
             id="tspan1080"
             style="stroke-width:0.43582651">m</tspan>
        </text>
        <text
           transform="matrix(0.9787737,0.19808354,-0.19748922,0.9817189,0,0)"
           style="font-variant:normal;font-weight:normal;font-size:2.64366484px;font-family:'Titillium Web';-inkscape-font-specification:TitilliumWeb-Regular;writing-mode:lr-tb;fill:#1d385e;fill-opacity:1;fill-rule:nonzero;stroke:none;stroke-width:0.43582651"
           id="text1086"
           x="112.6591"
           y="141.62894">
          <tspan
             x="112.6591"
             y="141.62894"
             id="tspan1084"
             style="stroke-width:0.43582651">m</tspan>
        </text>
        <text
           transform="matrix(0.98762833,0.14737824,-0.146936,0.99060021,0,0)"
           style="font-variant:normal;font-weight:normal;font-size:2.64367414px;font-family:'Titillium Web';-inkscape-font-specification:TitilliumWeb-Regular;writing-mode:lr-tb;fill:#1d385e;fill-opacity:1;fill-rule:nonzero;stroke:none;stroke-width:0.43582651"
           id="text1090"
           x="107.50172"
           y="147.32486">
          <tspan
             x="107.50172"
             y="147.32486"
             id="tspan1088"
             style="stroke-width:0.43582651">i</tspan>
        </text>
        <text
           transform="matrix(0.99218917,0.11241102,-0.11207387,0.9951748,0,0)"
           style="font-variant:normal;font-weight:normal;font-size:2.64368415px;font-family:'Titillium Web';-inkscape-font-specification:TitilliumWeb-Regular;writing-mode:lr-tb;fill:#1d385e;fill-opacity:1;fill-rule:nonzero;stroke:none;stroke-width:0.43582651"
           id="text1094"
           x="102.86544"
           y="151.04597">
          <tspan
             x="102.86544"
             y="151.04597"
             id="tspan1092"
             style="stroke-width:0.43582651">e</tspan>
        </text>
        <text
           transform="matrix(0.99599626,0.07086306,-0.07065043,0.9989932,0,0)"
           style="font-variant:normal;font-weight:normal;font-size:2.64368796px;font-family:'Titillium Web';-inkscape-font-specification:TitilliumWeb-Regular;writing-mode:lr-tb;fill:#1d385e;fill-opacity:1;fill-rule:nonzero;stroke:none;stroke-width:0.43582651"
           id="text1098"
           x="97.869713"
           y="155.25189">
          <tspan
             x="97.869713"
             y="155.25189"
             id="tspan1096"
             style="stroke-width:0.43582651">r</tspan>
        </text>
        <text
           transform="matrix(0.99804551,0.03017392,-0.03008338,1.0010488,0,0)"
           style="font-variant:normal;font-weight:normal;font-size:2.64366245px;font-family:'Titillium Web';-inkscape-font-specification:TitilliumWeb-Regular;writing-mode:lr-tb;fill:#1d385e;fill-opacity:1;fill-rule:nonzero;stroke:none;stroke-width:0.43582651"
           id="text1102"
           x="92.410759"
           y="159.14583">
          <tspan
             x="92.410759"
             y="159.14583"
             id="tspan1100"
             style="stroke-width:0.43582651">e</tspan>
        </text>
        <text
           transform="matrix(0.99828692,-0.02063093,0.02056909,1.0012909,0,0)"
           style="font-variant:normal;font-weight:normal;font-size:2.64366531px;font-family:'Titillium Web';-inkscape-font-specification:TitilliumWeb-Regular;writing-mode:lr-tb;fill:#1d385e;fill-opacity:1;fill-rule:nonzero;stroke:none;stroke-width:0.43582651"
           id="text1106"
           x="85.610016"
           y="163.69707">
          <tspan
             x="85.610016"
             y="163.69707"
             id="tspan1104"
             style="stroke-width:0.43582651">n</tspan>
        </text>
        <text
           transform="matrix(0.9968648,-0.05727209,0.0571003,0.99986452,0,0)"
           style="font-variant:normal;font-weight:normal;font-size:2.64365411px;font-family:'Titillium Web';-inkscape-font-specification:TitilliumWeb-Regular;writing-mode:lr-tb;fill:#1d385e;fill-opacity:1;fill-rule:nonzero;stroke:none;stroke-width:0.43582651"
           id="text1110"
           x="81.019051"
           y="166.76654">
          <tspan
             x="81.019051"
             y="166.76654"
             id="tspan1108"
             style="stroke-width:0.43582651">.</tspan>
        </text>
        <text
           transform="matrix(0.99331891,-0.10188129,0.10157561,0.99630777,0,0)"
           style="font-variant:normal;font-weight:normal;font-size:2.64367652px;font-family:'Titillium Web';-inkscape-font-specification:TitilliumWeb-Regular;writing-mode:lr-tb;fill:#1d385e;fill-opacity:1;fill-rule:nonzero;stroke:none;stroke-width:0.43582648"
           id="text1114"
           x="74.033562"
           y="170.26038">
          <tspan
             x="74.033562"
             y="170.26038"
             id="tspan1112"
             style="stroke-width:0.43582648">w</tspan>
        </text>
        <text
           transform="matrix(0.98510948,-0.16346045,0.16297002,0.98807378,0,0)"
           style="font-variant:normal;font-weight:normal;font-size:2.64365816px;font-family:'Titillium Web';-inkscape-font-specification:TitilliumWeb-Regular;writing-mode:lr-tb;fill:#1d385e;fill-opacity:1;fill-rule:nonzero;stroke:none;stroke-width:0.43582651"
           id="text1118"
           x="65.409615"
           y="174.64075">
          <tspan
             x="65.409615"
             y="174.64075"
             id="tspan1116"
             style="stroke-width:0.43582651">d</tspan>
        </text>
        <text
           transform="matrix(0.97746527,-0.20447974,0.20386621,0.98040669,0,0)"
           style="font-variant:normal;font-weight:normal;font-size:2.64365387px;font-family:'Titillium Web';-inkscape-font-specification:TitilliumWeb-Regular;writing-mode:lr-tb;fill:#1d385e;fill-opacity:1;fill-rule:nonzero;stroke:none;stroke-width:0.43582654"
           id="text1122"
           x="59.517918"
           y="177.26796">
          <tspan
             x="59.517918"
             y="177.26796"
             id="tspan1120"
             style="stroke-width:0.43582654">r</tspan>
        </text>
        <text
           transform="matrix(0.96449245,-0.25914598,0.25836865,0.96739461,0,0)"
           style="font-variant:normal;font-weight:normal;font-size:2.64367199px;font-family:'Titillium Web';-inkscape-font-specification:TitilliumWeb-Regular;writing-mode:lr-tb;fill:#1d385e;fill-opacity:1;fill-rule:nonzero;stroke:none;stroke-width:0.43582648"
           id="text1126"
           x="50.463589"
           y="180.39832">
          <tspan
             x="50.463589"
             y="180.39832"
             id="tspan1124"
             style="stroke-width:0.43582648">m</tspan>
        </text>
        <text
           transform="matrix(0.9425584,-0.33051192,0.32952029,0.94539459,0,0)"
           style="font-variant:normal;font-weight:normal;font-size:2.64365983px;font-family:'Titillium Web';-inkscape-font-specification:TitilliumWeb-Regular;writing-mode:lr-tb;fill:#1d385e;fill-opacity:1;fill-rule:nonzero;stroke:none;stroke-width:0.43582648"
           id="text1130"
           x="39.173374"
           y="183.81909">
          <tspan
             x="39.173374"
             y="183.81909"
             id="tspan1128"
             style="stroke-width:0.43582648">a</tspan>
        </text>
        <text
           transform="matrix(0.930078,-0.36434894,0.3632558,0.93287674,0,0)"
           style="font-variant:normal;font-weight:normal;font-size:2.64365697px;font-family:'Titillium Web';-inkscape-font-specification:TitilliumWeb-Regular;writing-mode:lr-tb;fill:#1d385e;fill-opacity:1;fill-rule:nonzero;stroke:none;stroke-width:0.43582651"
           id="text1134"
           x="33.882072"
           y="185.16812">
          <tspan
             x="33.882072"
             y="185.16812"
             id="tspan1132"
             style="stroke-width:0.43582651">u</tspan>
        </text>
        <text
           transform="matrix(0.9119167,-0.40792759,0.40670365,0.91466069,0,0)"
           style="font-variant:normal;font-weight:normal;font-size:2.64366531px;font-family:'Titillium Web';-inkscape-font-specification:TitilliumWeb-Regular;writing-mode:lr-tb;fill:#1d385e;fill-opacity:1;fill-rule:nonzero;stroke:none;stroke-width:0.43582651"
           id="text1138"
           x="26.571201"
           y="186.62515">
          <tspan
             x="26.571201"
             y="186.62515"
             id="tspan1136"
             style="stroke-width:0.43582651">s</tspan>
        </text>
        <text
           transform="matrix(0.89820796,-0.43745723,0.43614488,0.90091082,0,0)"
           style="font-variant:normal;font-weight:normal;font-size:2.64366746px;font-family:'Titillium Web';-inkscape-font-specification:TitilliumWeb-Regular;writing-mode:lr-tb;fill:#1d385e;fill-opacity:1;fill-rule:nonzero;stroke:none;stroke-width:0.43582651"
           id="text1142"
           x="21.759567"
           y="187.42618">
          <tspan
             x="21.759567"
             y="187.42618"
             id="tspan1140"
             style="stroke-width:0.43582651">.</tspan>
        </text>
        <text
           transform="matrix(0.88229738,-0.46890143,0.46749472,0.88495226,0,0)"
           style="font-variant:normal;font-weight:normal;font-size:2.6436851px;font-family:'Titillium Web';-inkscape-font-specification:TitilliumWeb-Regular;writing-mode:lr-tb;fill:#1d385e;fill-opacity:1;fill-rule:nonzero;stroke:none;stroke-width:0.43582648"
           id="text1146"
           x="15.753151"
           y="188.10396">
          <tspan
             x="15.753151"
             y="188.10396"
             id="tspan1144"
             style="stroke-width:0.43582648">d</tspan>
        </text>
        <text
           transform="matrix(0.85818666,-0.51194315,0.51040726,0.86076903,0,0)"
           style="font-variant:normal;font-weight:normal;font-size:2.64365411px;font-family:'Titillium Web';-inkscape-font-specification:TitilliumWeb-Regular;writing-mode:lr-tb;fill:#1d385e;fill-opacity:1;fill-rule:nonzero;stroke:none;stroke-width:0.43582651"
           id="text1150"
           x="7.9217682"
           y="188.72131">
          <tspan
             x="7.9217682"
             y="188.72131"
             id="tspan1148"
             style="stroke-width:0.43582651">e</tspan>
        </text>
      </g>
      <path
         sodipodi:nodetypes="ccccc"
         inkscape:connector-curvature="0"
         id="path1152"
         style="fill:#ffffff;fill-opacity:1;fill-rule:nonzero;stroke:none;stroke-width:0.43582764"
         d="m 109.88537,153.40755 -41.222253,-0.0647 -5.540056,-8.04776 h 50.899919 z" />
    </g>
  </g>
</svg>
