<?xml version="1.0" encoding="UTF-8" standalone="no"?>
<svg
   xmlns:dc="http://purl.org/dc/elements/1.1/"
   xmlns:cc="http://creativecommons.org/ns#"
   xmlns:rdf="http://www.w3.org/1999/02/22-rdf-syntax-ns#"
   xmlns:svg="http://www.w3.org/2000/svg"
   xmlns="http://www.w3.org/2000/svg"
   id="svg2258"
   version="1.1"
   viewBox="0 0 48.541359 48.54147"
   height="48.54147mm"
   width="48.541359mm">
  <defs
     id="defs2252">
    <clipPath
       id="clipPath1040"
       clipPathUnits="userSpaceOnUse">
      <path
         id="path1038"
         d="M 0,0 H 596 V 842 H 0 Z" />
    </clipPath>
  </defs>
  <metadata
     id="metadata2255">
    <rdf:RDF>
      <cc:Work
         rdf:about="">
        <dc:format>image/svg+xml</dc:format>
        <dc:type
           rdf:resource="http://purl.org/dc/dcmitype/StillImage" />
        <dc:title></dc:title>
      </cc:Work>
    </rdf:RDF>
  </metadata>
  <g
     transform="translate(-92.145988,-101.12808)"
     id="layer1">
    <g
       id="g2208"
       transform="matrix(0.35277777,0,0,0.35277777,58.877378,42.991393)">
      <g
         id="g1034">
        <g
           clip-path="url(#clipPath1040)"
           id="g1036">
          <g
             id="g1042">
            <path
               id="path1044"
               style="fill:#ffffff;fill-opacity:1;fill-rule:nonzero;stroke:none"
               d="m 163.105,294.871 c -33.843,0 -61.277,-27.433 -61.277,-61.273 0,-33.844 27.434,-61.278 61.277,-61.278 33.84,0 61.274,27.434 61.274,61.278 0,33.84 -27.434,61.273 -61.274,61.273 m 0.66887,-129.97272 c -45.945,0 -69.367594,39.25262 -69.144636,67.80789 0.358694,45.9396 37.297266,69.74975 68.921686,69.3636 33.04484,-0.4035 69.36561,-27.8469 68.02685,-69.14064 -1.01787,-31.39576 -24.64888,-66.13571 -67.8039,-68.03085" />
            <g
               transform="scale(1,-0.999995)"
               id="g1046" />
            <g
               transform="scale(1,-0.999995)"
               id="g1050">
              <path
                 id="path1052"
                 style="fill:none;stroke:#ed2343;stroke-width:0.86655402;stroke-linecap:butt;stroke-linejoin:miter;stroke-miterlimit:10;stroke-dasharray:none;stroke-opacity:1"
                 d="m 231.469,-233.599 c 0,-37.754 -30.61,-68.364 -68.364,-68.364 -37.757,0 -68.367,30.61 -68.367,68.364 0,37.758 30.61,68.368 68.367,68.368 37.754,0 68.364,-30.61 68.364,-68.368 z" />
            </g>
            <path
               id="path1054"
               style="fill:#1d385e;fill-opacity:1;fill-rule:nonzero;stroke:none"
               d="m 167.68,169.055 h -0.625 v -0.93 h 0.59 c 0.39,0 0.554,0.156 0.554,0.469 0,0.285 -0.168,0.461 -0.519,0.461 m -4.02,1.402 h -0.348 v -2.269 h 0.317 c 0.762,0 1.105,0.335 1.105,1.109 0,0.762 -0.343,1.16 -1.074,1.16 m 4.895,-0.793 v -0.012 c 0.386,-0.136 0.808,-0.468 0.808,-1.14 0,-0.836 -0.597,-1.266 -1.656,-1.266 h -1.801 v 1.442 h -0.011 c -0.219,-0.872 -0.95,-1.442 -2.29,-1.442 h -2.535 l -0.386,1.695 c -0.082,0.348 -0.153,0.793 -0.153,0.793 h -0.011 c 0,0 -0.086,-0.492 -0.168,-0.843 l -0.332,-1.645 h -1.391 l -0.332,1.645 c -0.082,0.351 -0.168,0.843 -0.168,0.843 h -0.012 c 0,0 -0.07,-0.445 -0.148,-0.793 l -0.387,-1.695 h -1.262 l 1.11,4.152 h 1.269 l 0.629,-2.664 h 0.012 l 0.629,2.664 h 1.246 l 0.926,-3.449 h 0.011 v 3.449 h 1.414 c 1.36,0 2.11,-0.625 2.329,-1.515 h 0.011 v 1.515 h 1.149 v -1.468 h 0.086 c 0.132,0 0.461,-0.004 0.64,0.285 l 0.703,1.183 h 1.235 l -0.641,-1.078 c -0.211,-0.363 -0.387,-0.554 -0.523,-0.656 m 2.39,-0.844 c -0.504,0 -0.91,-0.41 -0.91,-0.91 0,-0.504 0.406,-0.914 0.91,-0.914 0.5,0 0.907,0.41 0.907,0.914 0,0.5 -0.407,0.91 -0.907,0.91 m 0,-1.98 c -0.59,0 -1.066,0.476 -1.066,1.07 0,0.59 0.476,1.067 1.066,1.067 0.586,0 1.063,-0.477 1.063,-1.067 0,-0.594 -0.477,-1.07 -1.063,-1.07 m -0.644,1.082 0.351,-0.129 v 0.805 l 0.719,-0.258 v -1.07 l -1.07,0.386 z" />
          </g>
        </g>
      </g>
      <path
         d="M 211.707,279.867 114.50616,280.31292 104.25,261.281 h 116.965 z"
         style="fill:#ffffff;fill-opacity:1;fill-rule:nonzero;stroke:none"
         id="path1152" />
    </g>
  </g>
</svg>
