<?xml version="1.0" encoding="UTF-8" standalone="no"?>
<!-- Generator: Adobe Illustrator 15.1.0, SVG Export Plug-In . SVG Version: 6.00 Build 0)  -->

<svg
   xmlns:dc="http://purl.org/dc/elements/1.1/"
   xmlns:cc="http://creativecommons.org/ns#"
   xmlns:rdf="http://www.w3.org/1999/02/22-rdf-syntax-ns#"
   xmlns:svg="http://www.w3.org/2000/svg"
   xmlns="http://www.w3.org/2000/svg"
   xmlns:sodipodi="http://sodipodi.sourceforge.net/DTD/sodipodi-0.dtd"
   xmlns:inkscape="http://www.inkscape.org/namespaces/inkscape"
   version="1.1"
   id="WDR_x5F_Logo"
   x="0px"
   y="0px"
   width="283.46399"
   height="82.378998"
   viewBox="0 0 283.46398 82.378994"
   enable-background="new 0 0 841.89 595.28"
   xml:space="preserve"
   sodipodi:docname="WDR_Logo_BLAU_RGB.svg"
   inkscape:version="0.92.3 (2405546, 2018-03-11)"><metadata
   id="metadata9"><rdf:RDF><cc:Work
       rdf:about=""><dc:format>image/svg+xml</dc:format><dc:type
         rdf:resource="http://purl.org/dc/dcmitype/StillImage" /><dc:title></dc:title></cc:Work></rdf:RDF></metadata><defs
   id="defs7" /><sodipodi:namedview
   pagecolor="#ffffff"
   bordercolor="#666666"
   borderopacity="1"
   objecttolerance="10"
   gridtolerance="10"
   guidetolerance="10"
   inkscape:pageopacity="0"
   inkscape:pageshadow="2"
   inkscape:window-width="1920"
   inkscape:window-height="1016"
   id="namedview5"
   showgrid="false"
   fit-margin-top="0"
   fit-margin-left="0"
   fit-margin-right="0"
   fit-margin-bottom="0"
   inkscape:zoom="0.74118945"
   inkscape:cx="84.447968"
   inkscape:cy="0.30998541"
   inkscape:window-x="0"
   inkscape:window-y="27"
   inkscape:window-maximized="1"
   inkscape:current-layer="WDR_x5F_Logo" />
<path
   d="m 252.626,19.587 6.403,-2.327 v 14.535 l 12.937,-4.653 V 7.804 l -19.34,6.977 z M 264.25,0 c -10.611,0 -19.215,8.647 -19.215,19.316 0,10.669 8.604,19.316 19.215,19.316 10.61,0 19.214,-8.647 19.214,-19.316 C 283.464,8.647 274.86,0 264.25,0 Z m 0,35.802 c -9.054,0 -16.396,-7.386 -16.396,-16.486 0,-9.101 7.342,-16.481 16.396,-16.481 9.051,0 16.396,7.381 16.396,16.481 0,9.101 -7.346,16.486 -16.396,16.486 z m -43.181,15.254 v -0.211 c 6.986,-2.479 14.644,-8.463 14.644,-20.631 0,-15.097 -10.814,-22.87 -29.966,-22.87 h -32.503 v 26.044 h -0.21 C 169.096,17.673 155.84,7.344 131.632,7.344 H 85.797 L 78.81,37.986 c -1.468,6.309 -2.705,14.312 -2.705,14.312 h -0.226 c 0,0 -1.575,-8.901 -3.042,-15.215 L 66.859,7.343 H 41.696 l -5.979,29.74 c -1.466,6.313 -3.042,15.215 -3.042,15.215 h -0.226 c 0,0 -1.236,-8.004 -2.704,-14.312 L 22.76,7.344 H 0 l 20.057,75.035 h 22.894 l 11.376,-48.11 h 0.226 L 65.93,82.379 H 88.458 L 105.15,20.082 h 0.226 v 62.297 h 25.583 c 24.549,0 38.092,-11.265 42.078,-27.361 h 0.208 v 27.361 h 20.724 V 55.867 h 1.584 c 2.361,0 8.311,-0.13 11.547,5.106 l 12.73,21.404 h 22.307 L 230.533,62.886 c -3.831,-6.533 -6.984,-10.028 -9.464,-11.83 z m -88.422,14.309 h -6.311 V 24.353 h 5.745 c 13.748,0 19.946,6.084 19.946,20.055 0.001,13.747 -6.197,20.957 -19.38,20.957 z M 205.295,40.013 H 193.967 V 23.228 h 10.653 c 7.097,0 10.025,2.816 10.025,8.445 10e-4,5.186 -3.039,8.34 -9.35,8.34 z"
   id="path2"
   inkscape:connector-curvature="0"
   style="fill:#00345f" />
</svg>