<svg xmlns="http://www.w3.org/2000/svg" width="94.12" height="213.57" viewBox="0 0 94.12 213.57"><title>pfeil-4</title><g id="Ebene_2" data-name="Ebene 2"><g id="Ebene_2-2" data-name="Ebene 2"><path d="M94.12,208.45q-44.64-21.07-66.55-48.63a100.42,100.42,0,0,1-16.44-29.06A95.67,95.67,0,0,1,5.67,98.39c0-22.81,7.38-48.12,22.33-75.88l9.7,5.75L38,0,13.38,13.84l9.74,5.78C7.79,48,0,74.28,0,98.39a101.5,101.5,0,0,0,5.79,34.27c5.8,16.28,15.94,31.18,30.29,44.64S69,202.84,91.7,213.57l2.42-5.12Z" fill="#619232"/></g></g></svg>