<svg xmlns="http://www.w3.org/2000/svg" width="94.12" height="213.57" viewBox="0 0 94.12 213.57"><title>pfeil-3</title><g id="Ebene_2" data-name="Ebene 2"><g id="Ebene_2-2" data-name="Ebene 2"><polygon points="2.42 213.57 2.42 213.57 2.42 213.57 2.42 213.57" fill="#619232"/><path d="M71,19.62l9.74-5.78L56.1,0l.33,28.26,9.69-5.75c15,27.88,22.34,53.28,22.33,76.17A95,95,0,0,1,83,131c-5.48,15.28-15.06,29.36-28.86,42.29S22.27,197.93,0,208.45l2.42,5.12q45.35-21.4,68.51-50.09a105.92,105.92,0,0,0,17.38-30.61,100.81,100.81,0,0,0,5.81-34.19Q94.12,62.43,71,19.62Z" fill="#619232"/></g></g></svg>