<svg xmlns="http://www.w3.org/2000/svg" width="80.51" height="62.04" viewBox="0 0 80.51 62.04"><title>pfeil-1</title><g id="Ebene_2" data-name="Ebene 2"><g id="Ebene_2-2" data-name="Ebene 2"><path d="M80.51,24.4,66.24,0,60.57,10A40.72,40.72,0,0,0,49.21,8.29a36.14,36.14,0,0,0-14.65,3.07C27.43,14.47,20.78,20,14.94,28.1S4,46.87,0,60.43L5.43,62h0c5.2-17.46,12.07-29.57,19.63-37.19a38.25,38.25,0,0,1,11.77-8.3A30.67,30.67,0,0,1,49.21,14,34.93,34.93,0,0,1,57.67,15l-5.43,9.52Z" fill="#619232"/></g></g></svg>