<?xml version="1.0" encoding="UTF-8" standalone="no"?>
<svg
   xmlns:dc="http://purl.org/dc/elements/1.1/"
   xmlns:cc="http://creativecommons.org/ns#"
   xmlns:rdf="http://www.w3.org/1999/02/22-rdf-syntax-ns#"
   xmlns:svg="http://www.w3.org/2000/svg"
   xmlns="http://www.w3.org/2000/svg"
   xmlns:sodipodi="http://sodipodi.sourceforge.net/DTD/sodipodi-0.dtd"
   xmlns:inkscape="http://www.inkscape.org/namespaces/inkscape"
   width="14.6"
   height="14.08"
   viewBox="0 0 14.6 14.08"
   version="1.1"
   id="svg10"
   sodipodi:docname="icon-6.svg"
   inkscape:version="0.92.3 (2405546, 2018-03-11)">
  <metadata
     id="metadata16">
    <rdf:RDF>
      <cc:Work
         rdf:about="">
        <dc:format>image/svg+xml</dc:format>
        <dc:type
           rdf:resource="http://purl.org/dc/dcmitype/StillImage" />
      </cc:Work>
    </rdf:RDF>
  </metadata>
  <defs
     id="defs14" />
  <sodipodi:namedview
     pagecolor="#ffffff"
     bordercolor="#666666"
     borderopacity="1"
     objecttolerance="10"
     gridtolerance="10"
     guidetolerance="10"
     inkscape:pageopacity="0"
     inkscape:pageshadow="2"
     inkscape:window-width="1920"
     inkscape:window-height="1016"
     id="namedview12"
     showgrid="false"
     inkscape:zoom="16.761364"
     inkscape:cx="7.6579663"
     inkscape:cy="7.04"
     inkscape:window-x="0"
     inkscape:window-y="27"
     inkscape:window-maximized="1"
     inkscape:current-layer="svg10" />
  <title
     id="title2">Element 125</title>
  <g
     id="Ebene_2"
     data-name="Ebene 2">
    <g
       id="Overlay">
      <path
         d="M0,6.82v3.7H2.47l3.08,3.09V3.74L2.47,6.82ZM8.33,8.67A2.76,2.76,0,0,0,6.78,6.19v5A2.76,2.76,0,0,0,8.33,8.67ZM6.78,3.26V4.53a4.32,4.32,0,0,1,0,8.28v1.27a5.55,5.55,0,0,0,0-10.82Z"
         fill="#fff"
         id="path4"
         style="fill:#9ebae2;fill-opacity:1" />
      <polygon
         points="14.6 1.69 12.91 1.69 12.91 0 11.64 0 11.64 1.69 9.95 1.69 9.95 2.96 11.64 2.96 11.64 4.65 12.91 4.65 12.91 2.96 14.6 2.96 14.6 1.69"
         fill="#fff"
         id="polygon6"
         style="fill:#9ebae2;fill-opacity:1" />
    </g>
  </g>
</svg>
