<?xml version="1.0" encoding="utf-8"?>
<!-- Generator: Adobe Illustrator 12.0.0, SVG Export Plug-In . SVG Version: 6.00 Build 51448)  -->
<!DOCTYPE svg PUBLIC "-//W3C//DTD SVG 1.1//EN" "http://www.w3.org/Graphics/SVG/1.1/DTD/svg11.dtd" [
	<!ENTITY ns_svg "http://www.w3.org/2000/svg">
	<!ENTITY ns_xlink "http://www.w3.org/1999/xlink">
]>
<svg  version="1.1" id="Ebene_1" xmlns="&ns_svg;" xmlns:xlink="&ns_xlink;" width="497.864" height="641.757"
	 viewBox="0 0 497.864 641.757" overflow="visible" enable-background="new 0 0 497.864 641.757" xml:space="preserve">
<g>
	<path fill-rule="evenodd" clip-rule="evenodd" fill="#A05F4B" d="M250.371,94.007c-9.929,0.737-17.229,4.104-25,7
		c-16.602-11.065-30.851-24.483-42-41c-1.561-19.894,4.473-32.194,9-46c29.506-26.793,52.415,8.612,63,31
		C256.354,63.99,252.837,78.473,250.371,94.007z"/>
	<path fill-rule="evenodd" clip-rule="evenodd" fill="#A05F4B" d="M339.371,102.007c-7.331-4.002-17.449-5.218-26-8
		c-3.865-16.174-6.662-37.49-4-57c12.516-20.096,44.096-45.607,65-18C387.628,61.392,359.752,83.781,339.371,102.007z"/>
	<path fill-rule="evenodd" clip-rule="evenodd" fill="#F07D00" d="M251.371,172.007c-22.344,0.323-36.823,8.51-51,17
		c-5.905-51.058,57.789-62.087,68-19c0,0.667,0,1.333,0,2C264.086,171.264,255.364,169.717,251.371,172.007z"/>
	<path fill-rule="evenodd" clip-rule="evenodd" fill="#F07D00" d="M363.371,185.007c-16.021-10.313-38.893-13.774-67-12
		c5.222-22.166,31.996-40.128,55-24C357.674,158.704,363.29,169.088,363.371,185.007z"/>
	<path fill-rule="evenodd" clip-rule="evenodd" fill="#1F1D17" d="M174.371,199.007c0,7.333,0,14.667,0,22
		C172.708,215.987,172.708,204.027,174.371,199.007z"/>
	<path fill-rule="evenodd" clip-rule="evenodd" fill="#3581B7" d="M45.371,256.007c5.463-7.164,11.377-18.939,24-13
		c4.816,8.544-6.005,13.368-5,18c4.506-3.966,13.279-8.533,22-5c1.797,10.464-9.699,7.635-12,14c3.975,2.359,13.496-0.829,14,5
		c-0.211,7.455-7.108,8.226-8,15c-2.688-1.979-6.52-2.814-9-5c-10.066,1.268-14.698,7.969-15,19c-16.371-2.038-19.931,8.735-25,18
		c-0.987-4.292-2.021-6.996-1-11c-5.271,4.081-5.845,14.414-13,14c-11.168-0.646-2.286-15.337,2-22c-4.081-2.378-7.805,4.168-15,2
		c-3.109-7.147,1.707-13.122,5-17c2.442,0.998,2.131,0.332,6,1c0.854-7.187-7.763-4.903-8-11c0.543-12.108,12.007-14.211,20-9
		C22.714,255.593,39.646,238.839,45.371,256.007z M27.371,301.007c21.774,2.364,41.064-15.797,36-37
		C43.964,260.238,21.125,279.11,27.371,301.007z"/>
	<path fill-rule="evenodd" clip-rule="evenodd" fill="#3581B7" d="M169.371,266.007c4.875-12.81,25.292-9.987,21,6
		c4.714-0.62,6.13-4.537,11-5c3.545,1.455,6.384,3.616,10,5c0,2.333,0,4.667,0,7c-1.959,1.708-4.131,3.202-6,5
		c4.096,5.238,17.334,1.333,14,14c-3.82,0.513-4.544,4.123-8,5c-3.709-0.625-5.855-2.811-9-4c-3.666,4.711,3.049,7.583,4,11
		c-3.688,16.553-19.72,2.278-22-6c-3.369,3.435,1.384,7.233,1,11c-5.757,5.067-16.022,6.599-23,2c-1.347-5.493,0.19-6.768,1-12
		c-4.644,0.689-2.938,7.729-6,10c-4.452,0.393-9.294,1.514-13-1c-0.925-6.075-2.974-11.026-7-14c0.746-3.921,4.304-5.029,7-7
		c11.354,8.507,52.46,13.792,50-6c-1.441-11.589-23.821-13.24-38-15c0.167-6.167-3.064-8.936-7-11
		C152.149,248.263,170.978,252.828,169.371,266.007z"/>
	<path fill-rule="evenodd" clip-rule="evenodd" fill="#F07D00" d="M203.371,259.007c-0.755,3.245-3.656,4.344-8,4
		c0.409-2.409-1.826-2.174-1-5C196.763,255.909,199.081,259.948,203.371,259.007z"/>
	<path fill-rule="evenodd" clip-rule="evenodd" fill="#F07D00" d="M385.371,279.007c-17.794-0.092-35.627,4.535-52,0
		c14.174-11.827,42.222-9.778,58-20c2.084,4.117-1.261,11.381,0,18C388.497,276.8,386.291,277.26,385.371,279.007z"/>
	<path fill-rule="evenodd" clip-rule="evenodd" fill="#A05F4B" d="M396.371,269.007c2.267,1.067,3.634,3.033,4,6
		c-1.419-0.086-2.832-0.165-3,1C394.465,275.988,395.007,270.355,396.371,269.007z"/>
	<path fill-rule="evenodd" clip-rule="evenodd" fill="#F07D00" d="M311.371,272.007c7.667,0,15.333,0,23,0c-0.56,1.44-1.56,2.44-3,3
		c-2.839-4.494-13.874-0.793-20-2C311.371,272.673,311.371,272.34,311.371,272.007z"/>
	<path fill-rule="evenodd" clip-rule="evenodd" fill="#F07D00" d="M215.371,275.007c12.968-2.301,14.5,6.833,24,8
		c-7.329,5.205-18.906,4.61-25-1C215.749,280.718,215.361,277.663,215.371,275.007z"/>
	<path fill-rule="evenodd" clip-rule="evenodd" fill="#A05F4B" d="M491.371,385.007c-9.02-3.313-14.795-9.872-21-16
		c-0.799,9.141,10.343,14.984,19,18c-2.612,3.721-4.323,8.344-9,10c-8.572-2.515-14.195-13.02-20-15
		c0.192,7.484,11.156,12.836,17,18c-16.071,7.252-20.604-4.479-28-14c-10.986-14.145-34.335-19.228-46-33
		c-5.651-21.683-10.574-44.093-9-73c3.469,0.802,3.844-1.489,7-1c10.198,19.447,23.809,36.786,46,54
		C463.022,345.147,500.974,355.207,491.371,385.007z"/>
	<path fill-rule="evenodd" clip-rule="evenodd" fill="#F07D00" d="M383.371,283.007c1.758-0.575,5.875,1.208,6-1
		c1.373,4.555-2.103,18.333,2,23c2.273,44.728,15.052,78.948,19,122c0.549,8.216-1.766,13.567-1,22
		c-6.947,51.719-38.395,78.938-94,82c-10.109-0.109-19.805,0.195-28,2c-70.466,0.466-113.18-26.82-118-92
		c0.573-9.573-1.758-16.242-1-26c1.932-30.735,10.749-54.585,9-89c3.037-3.963,8.929-5.071,12-9c5.697,11.017,22.993,3.757,21-10
		c8.808-1.525,12.188-8.478,15-16c7.158,1.946,12.407-4.032,19-4c7.39,0.036,14.844,6.434,23,8c23.412,4.496,45.104-0.581,58-12
		C341.396,286.545,367.16,285.62,383.371,283.007z"/>
	<path fill-rule="evenodd" clip-rule="evenodd" fill="#24772B" d="M153.371,320.007c-7.704,13.297-17.75,24.25-22,41
		c-4.757-7.377-6.95,7.379-7,14c-6.213-1.12-3.139-11.528-9-13c-0.028,4.38,5.774,11.546,6,19c-4.255-7.744-10.825-13.175-14-22
		c13.335-2.131,24.638-17.281,18-30c9.364,0.364,13.196-4.804,16-11C146.178,318.195,149.165,322.118,153.371,320.007z
		 M144.371,321.007c-7.193,5.474-10.017,15.316-14,24C137.407,339.376,139.177,328.479,144.371,321.007z"/>
	<path fill-rule="evenodd" clip-rule="evenodd" fill="#A05F4B" d="M173.371,325.007c0.674,21.008-2.734,37.932-5,56
		c-10.129,8.538-19.152,18.182-31,25c-1.113-7.554-3.504-13.829-8-18c0.489-32.178,15.385-49.948,30-68
		C163.454,322.258,166.915,325.13,173.371,325.007z"/>
	<path fill-rule="evenodd" clip-rule="evenodd" fill="#A05F4B" d="M118.371,402.007c4.089,3.043,10.061-0.572,12-3
		c3.48,4.366,5.744,15.425,2,21c-3.029,2.095-8.246-0.221-10,1c-1.373,6.64,10.546,4.345,11,1c-9.862,35.304-48.333-18.088-27-39
		c7.383,0.282,23.197,6.542,23,11C129.106,400.001,120.831,396.047,118.371,402.007z"/>
	<path fill-rule="evenodd" clip-rule="evenodd" fill="#A05F4B" d="M168.371,415.007c-0.758,9.758,1.573,16.427,1,26
		C168.142,433.891,165.928,422.466,168.371,415.007z"/>
	<path fill-rule="evenodd" clip-rule="evenodd" fill="#1F1D17" d="M410.371,427.007c2.426,6.113,0.102,16.086-1,22
		C408.605,440.574,410.92,435.223,410.371,427.007z"/>
	<path fill-rule="evenodd" clip-rule="evenodd" fill="#24772B" d="M139.371,453.007c-0.89,0.443-1.789,0.878-2,2
		c-3.719,0.386-1.851-4.816-5-5c-4.731,2.211,0.878,7.422,1,11c-1.419-0.086-2.832-0.165-3,1c-1.547-1.453-2.1-3.9-2-7
		c-2.552-1.229-4.865,2.559-8-1c-2.354,0.979-0.896,5.771-3,7c-3.601-3.819,0.55-16.623,3-21c4.869,0.798-0.208,11.541,3,14
		c4-1.667,1.135-10.198,2-15c2.826,0.826,2.591-1.409,5-1C132.463,443.914,137.331,447.047,139.371,453.007z"/>
	<path fill-rule="evenodd" clip-rule="evenodd" fill="#A05F4B" d="M374.246,639.132c-19,0-41.208-0.124-60.208-0.124
		c0.549-31.883-2.595-72.739-3.667-103.001c19.845-2.155,38.199-5.801,55-11c-0.49,31.261-5.419,59.961-5.625,94.625
		c12.625,3,12.125,5.75,13.375,9.5C373.121,629.465,374.246,638.799,374.246,639.132z"/>
	<path fill-rule="evenodd" clip-rule="evenodd" fill="#A05F4B" d="M282.871,638.174c-17.667,0-44.167-0.166-61.833-0.166
		c0.667-15.834,14.489-13.846,15.333-17.001c-0.901-32.1-4.335-61.665-8-91c16.346,3.987,33.315,7.352,54,7
		C282.881,566.907,283.218,605.67,282.871,638.174z"/>
	<path fill-rule="evenodd" clip-rule="evenodd" fill="#F07D00" d="M319.371,268.007c8.761,0.761,14.753-1.247,23-1
		C336.395,268.378,325.823,270.439,319.371,268.007z"/>
	<path fill-rule="evenodd" clip-rule="evenodd" fill="#1F1D17" d="M273.371,96.007c6.172-2.152,16.541,0.111,23,1
		C287.593,97.785,281.838,95.54,273.371,96.007z"/>
	<path fill-rule="evenodd" clip-rule="evenodd" fill="#F07D00" d="M200.371,195.007c4.861,4.479,9.655,17.672,18,22
		C209.014,213.03,205.41,203.301,200.371,195.007z"/>
	<path fill-rule="evenodd" clip-rule="evenodd" fill="#1F1D17" d="M200.371,195.007c-0.333,0-0.667,0-1,0
		c-9.318,1.698-0.308-29.979,2-38c5.515-6.485,11.143-12.857,18-18c9.993-1.834,22.396-3.279,32,0c8.725,10.942,21.405,17.929,23,36
		c-1.54,1.127-2.46,2.873-4,4c3.466,28.843-16.134,47.38-47,42c-0.789-2.211-3.498-2.502-5-4
		C210.026,212.679,205.232,199.486,200.371,195.007z M268.371,170.007c-10.211-43.087-73.905-32.058-68,19
		c14.177-8.49,28.656-16.677,51-17C257.301,170.143,271.052,175.879,268.371,170.007z M247.371,176.007
		c20.393,22.888-32.854,43.082-27,8c-5.441,2.893-12.841,3.826-15,10c6.094,35.241,72.24,28.865,60-18
		C259.371,176.007,253.371,176.007,247.371,176.007z"/>
	<path fill-rule="evenodd" clip-rule="evenodd" fill="#1F1D17" d="M369.371,194.007c-2.319,0.319-3.84-0.161-5-1
		c-2.244,11.094-12.83,19.163-17,25c-27.779,8.963-58.646-3.724-52-38c-0.318-3.952-3.095,0.741-4-2
		c1.042-30.462,40.901-54.808,64-33C366.986,155.973,367.51,174.413,369.371,194.007z M351.371,149.007
		c-23.004-16.128-49.778,1.834-55,24c28.107-1.774,50.979,1.688,67,12C363.29,169.088,357.674,158.704,351.371,149.007z
		 M316.371,177.007c-6.027-0.028-12.312-0.312-17,1c-10.501,47.788,57.444,48.954,61,13c-4.35-3.983-8.25-8.417-16-9
		C349.576,214.522,299.396,203.064,316.371,177.007z"/>
	<path fill-rule="evenodd" clip-rule="evenodd" fill="#F07D00" d="M251.371,172.007c3.993-2.29,12.715-0.743,17,0
		c0-0.667,0-1.333,0-2C271.052,175.879,257.301,170.143,251.371,172.007z"/>
	<path fill-rule="evenodd" clip-rule="evenodd" fill="#1F1D17" d="M392.371,237.007c1.029,4.386,3.341,18.657-2,20
		C394.613,253.69,391.08,240.324,392.371,237.007z"/>
	<path fill-rule="evenodd" clip-rule="evenodd" fill="#F07D00" d="M390.371,257.007c-13.271,2.396-23.917,7.416-38,9
		c6.999-7.074,17.037-7.243,25-9c0.127-3.46-5.207-1.46-6-4c0-2,0-4,0-6c8.868-1.465,13.587-7.08,21-10
		C391.08,240.324,394.613,253.69,390.371,257.007z"/>
	<path fill-rule="evenodd" clip-rule="evenodd" fill="#F07D00" d="M273.371,253.007c2.915-3.238,18.085-3.238,21,0
		C289.452,251.379,278.291,251.379,273.371,253.007z"/>
	<path fill-rule="evenodd" clip-rule="evenodd" fill="#1F1D17" d="M294.371,253.007c7.489,0.844,4.326,12.341,5,20
		c-4.604,7.932-24.983,8.006-32,2c-1.093-10.168-1.947-19.43,6-22C278.291,251.379,289.452,251.379,294.371,253.007z"/>
	<path fill-rule="evenodd" clip-rule="evenodd" fill="#F07D00" d="M391.371,259.007c4.385-0.262-0.515,11.631,1,18
		c-2.162,0.838-3.411,2.589-7,2c0.92-1.747,3.126-2.207,6-2C390.11,270.388,393.455,263.124,391.371,259.007z"/>
	<path fill-rule="evenodd" clip-rule="evenodd" fill="#F07D00" d="M207.371,263.007c4.84,1.16,7.557,4.443,10,8
		C212.698,269.68,208.659,267.719,207.371,263.007z"/>
	<path fill-rule="evenodd" clip-rule="evenodd" fill="#FAEC0E" d="M120.371,264.007c-2.659,13.189-14.235,13.223-28,11
		c-0.138-3.528-2.862-4.472-3-8C95.358,261.895,113.364,255.916,120.371,264.007z"/>
	<path fill-rule="evenodd" clip-rule="evenodd" fill="#E3211E" d="M75.371,291.007c2.488,1.512,1.384,6.616,4,8
		c-0.784-17.484,32.555-28.818,22-4c3.7-0.884,21.733-16.909,26-2c-0.404,5.262-6.876,4.457-10,7c6.745,3.588,18.99,1.677,23,8
		c1.675,19.38-19.157,17.228-30,14c1.521,5.479,8.356,5.644,13,8c7.111,22.928-27.997,34.644-29,9c4.874,23.599-22.818,46.339-24,11
		c-4.459,8.208-4.906,20.427-17,21c-0.027-0.973-1.224-0.776-2-1c-5.372-9.423,2.362-20.223,5-28c-7.398,4.156-12.473,15.225-23,13
		c-5.993-12.703,6.157-22.664,15-27c-4.257-1.409-9.827-1.507-12-5c0.284-4.049,1.716-6.951,2-11c5.223-4.823,15.558-6.813,21-1
		C58.461,300.459,60.3,285.102,75.371,291.007z M64.371,340.007c22.063-1.72,35.885-16.623,38-35
		C80.736,294.653,52.595,320.227,64.371,340.007z"/>
	<path fill-rule="evenodd" clip-rule="evenodd" fill="#1F1D17" d="M383.371,283.007c1.373-1.96,6.127-0.54,8-2
		c-1.402,7.099-1.402,16.901,0,24c-4.103-4.667-0.627-18.445-2-23C389.246,284.215,385.129,282.432,383.371,283.007z"/>
	<path fill-rule="evenodd" clip-rule="evenodd" fill="#F07D00" d="M287.371,533.007c8.195-1.805,17.891-2.109,28-2
		C306.922,532.558,297.072,532.708,287.371,533.007z"/>
	<path fill-rule="evenodd" clip-rule="evenodd" fill="#1F1D17" d="M102.371,305.007c-2.115,18.377-15.937,33.28-38,35
		C52.595,320.227,80.736,294.653,102.371,305.007z M99.371,307.007c-20.077-3.519-37.713,8.771-35,28
		C82.172,336.362,97.747,321.847,99.371,307.007z"/>
	<path fill-rule="evenodd" clip-rule="evenodd" fill="#1F1D17" d="M215.205,638.008c1.667-17,15.237-16.931,17.167-21.001
		c-1.275-30.391-4.444-58.89-8-87c-43.113-17.294-67.665-64.53-60-127c0.534-4.35,2.095-8.859,3-14c-9.328,3.677-19.5,15.163-29,22
		c3.012,9.121-1.003,18.676-5,24c2.537,6.13,6.42,10.913,11,15c-1.271,6.062-6.918,7.748-7,15c-4.096-0.43-6.407,0.927-9,2
		c-4.028,0.695-1.692-4.975-4-6c-5.785,2.095-3.72,8.08-13,5c0.453-6.027,3.014-18.211,4-27c-19.615-11.193-24.593-53.102-4-67
		c-3.861-7.806-9.827-13.506-15-20c0.871,15.179-22.566,32.122-27,10c-4.766,16.854-31.372,15.21-21-8
		c-5.483,1.688-10.603,7.359-18,4c-5.596-10.575,1.515-22.227,8-27c-6.319-1.661-6.461-8.929-11-9c-3.632-0.057-13.018,14.754-19,3
		c-0.502-6.169,0.458-10.876,3-14c-2.455-1.879-7.819-0.848-10-3c-3.905-8.053,1.193-17.773,7-22c-9.056-9.48-0.403-29.377,15-23
		c0.265-12.402,13.498-25.821,23-14c4.549-6.451,8.948-13.052,22-11c3.017,3.316,6.211,6.456,5,14c1.289-1.378,4.344-0.99,7-1
		c3.587-10.954,13.896-9.074,15-22c12.19,0.675,12.094-18.463,25-18c2.663,0.096,6.884,5.96,9,6c4.923,0.092,8.367-10.386,18-8
		c4.017,0.995,8.645,4.932,7,13c5.594-0.406,8.578-3.422,15-3c0.744-56.009,12.023-96.427,50-116c-13.886-12.78-28.474-24.859-39-41
		c-0.705-20.774,0.567-42.08,12-52c7.876-6.834,24.681-12.348,34-9c14.955,5.373,24.276,30.259,33,43c0.355,17.688-1.337,33.33-4,48
		c15.449,0.116,37.174-2.169,53,2c-1.973-18.389-5.754-39.079-3-59c13.541-21.248,48.662-50.139,72-18
		c3.021,13.151,5.144,28.485,3,44c-11.021,14.979-21.854,30.146-36,42c42.772,19.104,53.613,64.059,53,126
		c6.203-1.463,7.754-7.579,15-8c-3.918,5.416-10.754,7.913-15,13c0,6.333,0,12.667,0,19c12.03-2.303,18.245-10.422,30-13
		c-7.279,8.721-21.545,10.456-30,18c0.421,6.912,3.842,10.825,6,16c6.446,0.447,8.47-3.531,15-3c-1.093,5.24-9.554,3.113-12,7
		c15.338,34.995,47.05,53.616,79,72c6.51,9.667,14.579,19.24,12,33c-4.828,25.759-47.54,33.118-53,4
		c-13.964-8.703-27.307-18.027-40-28c17.757,53.937,16.833,142.857-35,164c-0.637,32.363-4.893,61.107-7,92
		c2.371,5.963,13.084,0.083,16.75,24.25c-1.667,0-3.208-0.125-4.875-0.125c0-0.333-1.25-9.042-1.25-9.375
		c-2.5-7.875-7.125-8.5-13.75-10.25c0.206-34.664,5.635-63.239,6.125-94.5c-16.801,5.199-35.155,8.845-55,11
		c1.758,49.621,3.5,40.5,4.333,103c-1,0-3.333,0.834-4.333,0.834c-1.705-27.625-0.81-76.651-6-103.834
		c-7.604,17.73-7.617,43.05-18,58c-0.792,12.424,1.372,34.227-0.5,45.001c-1,0-2.167-0.167-3.167-0.167
		c0.347-32.504,0.176-71.934-0.333-101.834c-20.685,0.352-37.654-3.013-54-7c3.665,29.335,7.099,58.9,8,91
		c-0.844,3.155-14.5,1.501-15.333,17.001C219.038,638.008,217.205,638.008,215.205,638.008z M255.371,45.007
		c-10.585-22.388-33.494-57.793-63-31c-4.527,13.806-10.561,26.106-9,46c11.149,16.517,25.398,29.935,42,41
		c7.771-2.896,15.071-6.263,25-7C252.837,78.473,256.354,63.99,255.371,45.007z M374.371,19.007c-20.904-27.607-52.484-2.096-65,18
		c-2.662,19.51,0.135,40.826,4,57c8.551,2.782,18.669,3.998,26,8C359.752,83.781,387.628,61.392,374.371,19.007z M273.371,96.007
		c-65.274,2.059-95.665,39.002-99,103c-1.664,5.02-1.664,16.98,0,22c5.953,0.816,5.549,9.523,4,15c2.492,0.841,5.357,1.309,9,1
		c1.137,5.196,4.615,8.051,5,14c6.213,2.347,12.878,6.665,18,2c6.357,11.674,37.091,3.812,48,5c0.055,1.278,1.282,1.385,1,3
		c-11.176,6.826-35.794-0.6-45,2c8.654,12.066,34.121,5.83,45,6c-2.286,7.047-13.873,4.794-22,6c4.683,10.709,16.432,1.782,23,2
		c0.457,5.124-5.191,4.142-5,9c17.123,7.24,48.233,6.954,62-3c-1.229-4.438-11.092-0.242-10-7c6.113-4.604,17.116,6.377,24-1
		c1.44-0.56,2.44-1.56,3-3c-7.667,0-15.333,0-23,0c-1.862-0.138-3.342-0.658-4-2c0.657-4.338,8.657-3.248,12-2
		c6.452,2.433,17.023,0.371,23-1c7.572-6.094,17.316-10.017,25-16c-16.28,0.748-38.317,14.98-58,9c0-0.667,0-1.333,0-2
		c32.477-4.19,63.238-10.095,83-27c4.537-77.328-21.912-131.997-96-134C289.912,96.118,279.543,93.854,273.371,96.007z
		 M130.371,225.007c-3.464-3.536-4.992-9.008-11-10c-5.476,1.858-8.457,6.209-12,10c-0.025,3.375,5.255,4.451,2,8
		c-4.846-3.543-13.826-0.981-14,6c1.821,2.846,5.494,3.839,8,6c2.257-4.62,7.344-9.896,14-7c8.114-15.856,49.624-11.061,45,10
		c4.54,1.46,6.173,5.827,10,8c3.374-4.962,11.473-2.124,15-5c2.588-13.255-14.615-6.718-19-13c0.853-3.146,5.811-2.189,7-5
		c0.58-3.247-0.681-4.652-1-7c-7.409-5.228-17.354,0.248-23,3c-2.552-3.282,1.167-6.976,0-12
		C143.557,208.87,132.39,216.142,130.371,225.007z M159.371,245.007c2.136-11.977-30.356-15.282-38-8c0.611,3.723,1.895,6.772,5,8
		C134.125,233.969,156.369,261.84,159.371,245.007z M392.371,237.007c-7.413,2.92-12.132,8.535-21,10c0,2,0,4,0,6
		c0.793,2.54,6.127,0.54,6,4c-7.963,1.757-18.001,1.926-25,9c14.083-1.584,24.729-6.604,38-9
		C395.712,255.664,393.4,241.393,392.371,237.007z M27.371,269.007c-7.993-5.211-19.457-3.108-20,9c0.237,6.097,8.854,3.813,8,11
		c-3.869-0.668-3.558-0.002-6-1c-3.293,3.878-8.109,9.853-5,17c7.195,2.168,10.919-4.378,15-2c-4.286,6.663-13.168,21.354-2,22
		c7.155,0.414,7.729-9.919,13-14c-1.021,4.004,0.013,6.708,1,11c5.069-9.265,8.629-20.038,25-18c0.302-11.031,4.934-17.732,15-19
		c2.48,2.186,6.312,3.021,9,5c0.892-6.774,7.789-7.545,8-15c-0.504-5.829-10.025-2.641-14-5c2.301-6.365,13.797-3.536,12-14
		c-8.721-3.533-17.494,1.034-22,5c-1.005-4.632,9.816-9.456,5-18c-12.623-5.939-18.537,5.836-24,13
		C39.646,238.839,22.714,255.593,27.371,269.007z M152.371,269.007c-4.268-6.558-13.573-0.469-18-4c1.502-5.498,8.796-5.204,8-13
		c-0.779-0.221-1.163-0.837-1-2c-8.223-5.791-16.615,1.71-21,6c-2.868-4.413,2.248-7.553,0-12c-8.667-6.485-14.778,2.825-18,8
		c-1.398-6.06-14.881-10.998-17-2c5.708,1.326,4.458,8.984,5,13c5.863-6.46,29.336-12.274,33-2c4.923,13.807-13.292,14.376-16,24
		c9.564-5.544,29.082-3.359,23,12c5.126-0.208,4.844-5.823,6-10c-1.241-3.759-7.122-2.878-7-8
		C137.089,279.926,154.395,286.679,152.371,269.007z M149.371,261.007c3.936,2.064,7.167,4.833,7,11c14.179,1.76,36.559,3.411,38,15
		c2.46,19.792-38.646,14.507-50,6c-2.696,1.971-6.254,3.079-7,7c4.026,2.974,6.075,7.925,7,14c3.706,2.514,8.548,1.393,13,1
		c3.062-2.271,1.356-9.311,6-10c-0.81,5.232-2.347,6.507-1,12c6.978,4.599,17.243,3.067,23-2c0.384-3.767-4.369-7.565-1-11
		c2.28,8.278,18.313,22.553,22,6c-0.951-3.417-7.666-6.289-4-11c3.145,1.189,5.291,3.375,9,4c3.456-0.877,4.18-4.487,8-5
		c3.334-12.667-9.904-8.762-14-14c1.869-1.798,4.041-3.292,6-5c0-2.333,0-4.667,0-7c-3.616-1.384-6.455-3.545-10-5
		c-4.87,0.463-6.286,4.38-11,5c4.292-15.987-16.125-18.81-21-6C170.978,252.828,152.149,248.263,149.371,261.007z M194.371,258.007
		c-0.826,2.826,1.409,2.591,1,5c4.344,0.344,7.245-0.755,8-4C199.081,259.948,196.763,255.909,194.371,258.007z M391.371,259.007
		c-15.778,10.222-43.826,8.173-58,20c16.373,4.535,34.206-0.092,52,0c3.589,0.589,4.838-1.162,7-2
		C390.856,270.638,395.756,258.745,391.371,259.007z M89.371,267.007c0.138,3.528,2.862,4.472,3,8c13.765,2.223,25.341,2.189,28-11
		C113.364,255.916,95.358,261.895,89.371,267.007z M217.371,271.007c-2.443-3.557-5.16-6.84-10-8
		C208.659,267.719,212.698,269.68,217.371,271.007z M397.371,276.007c0.168-1.165,1.581-1.086,3-1c-0.366-2.967-1.733-4.933-4-6
		C395.007,270.355,394.465,275.988,397.371,276.007z M214.371,282.007c6.094,5.61,17.671,6.205,25,1c-9.5-1.167-11.032-10.301-24-8
		C215.361,277.663,215.749,280.718,214.371,282.007z M145.371,287.007c9.663,8.023,35.094,13.503,46,3
		C183.624,277.672,154.667,270.646,145.371,287.007z M59.371,311.007c-5.442-5.813-15.777-3.823-21,1c-0.284,4.049-1.716,6.951-2,11
		c2.173,3.493,7.743,3.591,12,5c-8.843,4.336-20.993,14.297-15,27c10.527,2.225,15.602-8.844,23-13c-2.638,7.777-10.372,18.577-5,28
		c0.776,0.224,1.973,0.027,2,1c12.094-0.573,12.541-12.792,17-21c1.182,35.339,28.874,12.599,24-11c1.003,25.644,36.111,13.928,29-9
		c-4.644-2.356-11.479-2.521-13-8c10.843,3.228,31.675,5.38,30-14c-4.01-6.323-16.255-4.412-23-8c3.124-2.543,9.596-1.738,10-7
		c-4.267-14.909-22.3,1.116-26,2c10.555-24.818-22.784-13.484-22,4c-2.616-1.384-1.512-6.488-4-8
		C60.3,285.102,58.461,300.459,59.371,311.007z M447.371,333.007c-22.191-17.214-35.802-34.553-46-54c-3.156-0.489-3.531,1.802-7,1
		c-1.574,28.907,3.349,51.317,9,73c11.665,13.772,35.014,18.855,46,33c7.396,9.521,11.929,21.252,28,14
		c-5.844-5.164-16.808-10.516-17-18c5.805,1.98,11.428,12.485,20,15c4.677-1.656,6.388-6.279,9-10c-8.657-3.016-19.799-8.859-19-18
		c6.205,6.128,11.98,12.687,21,16C500.974,355.207,463.022,345.147,447.371,333.007z M391.371,305.007
		c-1.402-7.099-1.402-16.901,0-24c-1.873,1.46-6.627,0.04-8,2c-16.211,2.613-41.976,3.538-58,0c-12.896,11.419-34.588,16.496-58,12
		c-8.156-1.566-15.61-7.964-23-8c-6.593-0.032-11.842,5.946-19,4c-2.812,7.522-6.192,14.475-15,16c1.993,13.757-15.303,21.017-21,10
		c-3.071,3.929-8.963,5.037-12,9c1.749,34.415-7.068,58.265-9,89c-2.443,7.459-0.229,18.884,1,26c4.82,65.18,47.534,92.466,118,92
		c9.701-0.299,19.551-0.449,28-2c55.605-3.062,87.053-30.281,94-82c1.102-5.914,3.426-15.887,1-22
		C406.423,383.955,393.645,349.734,391.371,305.007z M141.371,318.007c-2.804,6.196-6.636,11.364-16,11
		c6.638,12.719-4.665,27.869-18,30c3.175,8.825,9.745,14.256,14,22c-0.226-7.454-6.028-14.62-6-19c5.861,1.472,2.787,11.88,9,13
		c0.05-6.621,2.243-21.377,7-14c4.25-16.75,14.296-27.703,22-41C149.165,322.118,146.178,318.195,141.371,318.007z M159.371,320.007
		c-14.615,18.052-29.511,35.822-30,68c4.496,4.171,6.887,10.446,8,18c11.848-6.818,20.871-16.462,31-25
		c2.266-18.068,5.674-34.992,5-56C166.915,325.13,163.454,322.258,159.371,320.007z M129.371,394.007
		c0.197-4.458-15.617-10.718-23-11c-21.333,20.912,17.138,74.304,27,39c-0.454,3.345-12.373,5.64-11-1c1.754-1.221,6.971,1.095,10-1
		c3.744-5.575,1.48-16.634-2-21c-1.939,2.428-7.911,6.043-12,3C120.831,396.047,129.106,400.001,129.371,394.007z M130.371,438.007
		c-2.409-0.409-2.174,1.826-5,1c-0.865,4.802,2,13.333-2,15c-3.208-2.459,1.869-13.202-3-14c-2.45,4.377-6.601,17.181-3,21
		c2.104-1.229,0.646-6.021,3-7c3.135,3.559,5.448-0.229,8,1c-0.1,3.1,0.453,5.547,2,7c0.168-1.165,1.581-1.086,3-1
		c-0.122-3.578-5.731-8.789-1-11c3.149,0.184,1.281,5.386,5,5c0.211-1.122,1.11-1.557,2-2
		C137.331,447.047,132.463,443.914,130.371,438.007z"/>
	<path fill-rule="evenodd" clip-rule="evenodd" fill="#FFFFFF" d="M344.371,182.007c7.75,0.583,11.65,5.017,16,9
		c-3.556,35.954-71.501,34.788-61-13c4.688-1.312,10.973-1.028,17-1C299.396,203.064,349.576,214.522,344.371,182.007z"/>
	<path fill-rule="evenodd" clip-rule="evenodd" fill="#1F1D17" d="M63.371,264.007c5.064,21.203-14.226,39.364-36,37
		C21.125,279.11,43.964,260.238,63.371,264.007z M62.371,267.007c-17.667-1.061-35.404,11.016-33,30
		C49.364,296.586,62.774,284.519,62.371,267.007z"/>
	<path fill-rule="evenodd" clip-rule="evenodd" fill="#FAEC0E" d="M29.371,297.007c-2.404-18.984,15.333-31.061,33-30
		C62.774,284.519,49.364,296.586,29.371,297.007z"/>
	<path fill-rule="evenodd" clip-rule="evenodd" fill="#FFFFFF" d="M129.371,279.007c-0.122,5.122,5.759,4.241,7,8
		c-1.156,4.177-0.874,9.792-6,10c6.082-15.359-13.436-17.544-23-12c2.708-9.624,20.923-10.193,16-24c-3.664-10.274-27.137-4.46-33,2
		c-0.542-4.016,0.708-11.674-5-13c2.119-8.998,15.602-4.06,17,2c3.222-5.175,9.333-14.485,18-8c2.248,4.447-2.868,7.587,0,12
		c4.385-4.29,12.777-11.791,21-6c-0.163,1.163,0.221,1.779,1,2c0.796,7.796-6.498,7.502-8,13c4.427,3.531,13.732-2.558,18,4
		C154.395,286.679,137.089,279.926,129.371,279.007z"/>
	<path fill-rule="evenodd" clip-rule="evenodd" fill="#FAEC0E" d="M191.371,290.007c-10.906,10.503-36.337,5.023-46-3
		C154.667,270.646,183.624,277.672,191.371,290.007z"/>
	<path fill-rule="evenodd" clip-rule="evenodd" fill="#FAEC0E" d="M64.371,335.007c-2.713-19.229,14.923-31.519,35-28
		C97.747,321.847,82.172,336.362,64.371,335.007z"/>
	<path fill-rule="evenodd" clip-rule="evenodd" fill="#1F1D17" d="M130.371,345.007c3.983-8.684,6.807-18.526,14-24
		C139.177,328.479,137.407,339.376,130.371,345.007z"/>
	<path fill-rule="evenodd" clip-rule="evenodd" fill="#FAEC0E" d="M126.371,245.007c-3.105-1.228-4.389-4.277-5-8
		c7.644-7.282,40.136-3.977,38,8C156.369,261.84,134.125,233.969,126.371,245.007z"/>
	<path fill-rule="evenodd" clip-rule="evenodd" fill="#FFFFFF" d="M265.371,176.007c12.24,46.865-53.906,53.241-60,18
		c2.159-6.174,9.559-7.107,15-10c-5.854,35.082,47.393,14.888,27-8C253.371,176.007,259.371,176.007,265.371,176.007z"/>
	<path fill-rule="evenodd" clip-rule="evenodd" fill="#E3211E" d="M151.371,217.007c1.167,5.024-2.552,8.718,0,12
		c5.646-2.752,15.591-8.228,23-3c0.319,2.348,1.58,3.753,1,7c-1.189,2.811-6.147,1.854-7,5c4.385,6.282,21.588-0.255,19,13
		c-3.527,2.876-11.626,0.038-15,5c-3.827-2.173-5.46-6.54-10-8c4.624-21.061-36.886-25.856-45-10c-6.656-2.896-11.743,2.38-14,7
		c-2.506-2.161-6.179-3.154-8-6c0.174-6.981,9.154-9.543,14-6c3.255-3.549-2.025-4.625-2-8c3.543-3.791,6.524-8.142,12-10
		c6.008,0.992,7.536,6.464,11,10C132.39,216.142,143.557,208.87,151.371,217.007z"/>
	<path fill-rule="evenodd" clip-rule="evenodd" fill="#F07D00" d="M174.371,199.007c3.335-63.998,33.726-100.941,99-103
		c8.467-0.467,14.222,1.778,23,1c74.088,2.003,100.537,56.672,96,134c-19.762,16.905-50.523,22.81-83,27c0,0.667,0,1.333,0,2
		c19.683,5.98,41.72-8.252,58-9c-7.684,5.983-17.428,9.906-25,16c-8.247-0.247-14.239,1.761-23,1c-3.343-1.248-11.343-2.338-12,2
		c0.658,1.342,2.138,1.862,4,2c0,0.333,0,0.667,0,1c6.126,1.207,17.161-2.494,20,2c-6.884,7.377-17.887-3.604-24,1
		c-1.092,6.758,8.771,2.563,10,7c-13.767,9.954-44.877,10.24-62,3c-0.191-4.858,5.457-3.876,5-9c-6.568-0.218-18.317,8.709-23-2
		c8.127-1.206,19.714,1.047,22-6c-10.879-0.17-36.346,6.066-45-6c9.206-2.6,33.824,4.826,45-2c0.282-1.615-0.945-1.722-1-3
		c-10.909-1.188-41.643,6.674-48-5c-5.122,4.665-11.787,0.347-18-2c-0.385-5.949-3.863-8.804-5-14c-3.643,0.309-6.508-0.159-9-1
		c1.549-5.477,1.953-14.184-4-15C174.371,213.673,174.371,206.34,174.371,199.007z M218.371,217.007
		c1.502,1.498,4.667,1.542,7,2.875c30.866,5.38,47.75-12.125,45-40.875c1.54-1.127,2.46-2.873,4-4
		c-1.595-18.071-14.275-25.058-23-36c-9.604-3.279-22.007-1.834-32,0c-6.857,5.143-12.485,11.515-18,18
		c-2.308,8.021-11.318,39.698-2,38c0.333,0,0.667,0,1,0C205.41,203.301,209.014,213.03,218.371,217.007z M355.371,145.007
		c-23.099-21.808-62.958,2.538-64,33c0.905,2.741,3.682-1.952,4,2c-6.646,34.276,24.221,46.963,52,38
		c4.17-5.837,14.756-13.906,17-25c1.16,0.839,2.681,1.319,5,1C367.51,174.413,366.986,155.973,355.371,145.007z M294.371,253.007
		c-2.915-3.238-18.085-3.238-21,0c-7.947,2.57-7.093,11.832-6,22c7.017,6.006,27.396,5.932,32-2
		C298.697,265.348,301.86,253.851,294.371,253.007z"/>
	<polygon fill-rule="evenodd" clip-rule="evenodd" fill="#1F1D17" points="215.205,638.008 214.871,640.674 285.371,640.84 
		286.121,637.841 	"/>
	<polygon fill-rule="evenodd" clip-rule="evenodd" fill="#1F1D17" points="310.246,638.632 310.621,641.132 379.246,641.757 
		378.996,638.507 	"/>
</g>
</svg>
