<?xml version="1.0" encoding="utf-8"?>
<!-- Generator: Adobe Illustrator 12.0.0, SVG Export Plug-In . SVG Version: 6.00 Build 51448)  -->
<!DOCTYPE svg PUBLIC "-//W3C//DTD SVG 1.1//EN" "http://www.w3.org/Graphics/SVG/1.1/DTD/svg11.dtd" [
	<!ENTITY ns_svg "http://www.w3.org/2000/svg">
	<!ENTITY ns_xlink "http://www.w3.org/1999/xlink">
]>
<svg  version="1.1" id="Ebene_1" xmlns="&ns_svg;" xmlns:xlink="&ns_xlink;" width="408.783" height="598.712"
	 viewBox="0 0 408.783 598.712" overflow="visible" enable-background="new 0 0 408.783 598.712" xml:space="preserve">
<path fill-rule="evenodd" clip-rule="evenodd" fill="#221A13" d="M172.783,2c9.127,0.706,15.769,3.898,21,8.5
	c-0.931-6.903-8.783-6.884-13-10.5L172.783,2z"/>
<path fill-rule="evenodd" clip-rule="evenodd" fill="#221A13" d="M198.283,27c-8.697-4.99-22.731-13.254-39-14
	C174.51,9.484,191.801,16.783,198.283,27z"/>
<path fill-rule="evenodd" clip-rule="evenodd" fill="#70472C" d="M337.783,58.5c-9.345-0.413-21.802-5.962-33.5-2.5
	c-18.249,13.417-33.815,29.519-48.5,46.5c-5.335-2.665-9.399-6.601-14.5-9.5c2.544-9.107,6.299-18.243,10.5-27
	c3.108-6.48,9.3-21.321,15-24.5c11.968-6.673,38.599-11.216,52.5-11C326.435,38.284,339.661,44.981,337.783,58.5z"/>
<path fill-rule="evenodd" clip-rule="evenodd" fill="#70472C" d="M181.283,78c8.419,9.346,22.08-1.688,22-12
	c4.856,5.712,1.759,17.549-3,22c-4.438,4.15-10.261,1.043-14.5,4.5c1.684,5.576,12.823,2.005,15,1c-0.019,3.228-2.238,4.036-4,4.5
	c-25.199,6.627-28.983-29.198-25.5-48.5c-6.676,4.267-5.712,18.472-6,27.5c-10.673-0.33-24.021-1.708-31.5,2.5
	c-0.958,2.457,1.662,1.338,1.5,3c-10.661,3.197-23.846,1.625-33.5-1.5c-7.761-35.852,11.752-54.687,48.5-50.5
	c20.522,2.338,48.769,13.33,50,27.5C201.474,71.699,192.373,79.185,181.283,78z"/>
<path fill-rule="evenodd" clip-rule="evenodd" fill="#70472C" d="M342.783,132c-22.845-1.489-41.455-7.212-67-6
	c-4.39-7.277-9.479-13.854-15.5-19.5c12.462-19.205,29.06-34.273,48-47c16.39,1.022,44.214,5.22,52,13.5
	c6.269,6.667,8.889,19.973,9.5,33.5C362.215,116.432,352.752,124.469,342.783,132z"/>
<path fill-rule="evenodd" clip-rule="evenodd" fill="#70472C" d="M98.283,244c-11.656,0.489-17.937-4.396-25.5-8
	c6.422,16.805-1.754,28.381-7,42c-9.099,23.621-17.893,50.374-21,79c-8.399,77.367,32.542,121.254,109.5,123
	c0.641-5.359,0.297-11.703,4.5-13.5c2.768-22.197,36.316-44.374,60-28c5.007,3.462,7.048,9.605,11.5,14.5
	c0.083,2.917-0.872,4.794-0.5,8c27.708-12.412,41.636-45.636,38-84.5c-5.406,1.26-8.913,4.42-14.5,5.5
	c4.058,21.179-11.815,36.231-32.5,34c-12.495-1.349-22.027-15.756-24-28.5c-5.161-33.344,23.06-45.856,40.5-58.5
	c-4.681-9.098-16.078-13.38-19-23c-1.826-6.013-0.65-14.392,0-20c2.796-24.097,30.146-41.099,53-30.5
	c0.927-1.074,0.337-3.663,0.5-5.5c11.354-19.372,16.175-46.643,14-77c-3.378-47.16-34.923-77.339-75.5-85
	c-3.486,3.389-3.212,8.221-6,11.5c-11.182,13.149-35.187-3.523-36.5-15.5c-15.702-2.595-29.139,4.78-43.5,5.5
	c-16.603,0.831-36.477-6.093-54.5-8c-18.381-1.945-34.324-4.94-53-5c5.766,9.429,0.666,23.486-12,18.5
	c-0.625,21.995,7.388,38.694,14.5,56.5c5.346,13.384,11.408,26.314,18.5,38c14.795,24.379,43.511,60.639,80,44.5
	c0.626-5.041,0.474-10.86,6.5-10.5c-3.497,9.262,2.239,15.339,6,21.5c-4.82,1.417-7.917-3.032-10.5-5.5
	c-4.967,2.366-9.634,5.033-17.5,4.5c5.852-1.481,12.651-2.015,16.5-5.5c4.253,1.247,5.122,5.877,10.5,6
	c-4.063-5.743-9.986-10.138-6-20c-3.697-0.525-4.29,6.372-5,10.5c-6.604,4.039-19.493,5.673-30,3
	c-25.489-6.484-40.918-31.523-54.5-54c-6.676-11.048-12.8-24.489-17.5-37c-6.382-16.991-13.145-31.357-12.5-53
	c12.816,5.016,18.072-8.896,11.5-19c33.176,2.62,69.148,7.124,100,12.5c16.634,2.898,33.703-6.625,53-5
	c3.433,13.098,17.962,25.492,34.5,17.5c2.775-4.059,4.212-9.454,7-13.5c58.922,9.025,91.033,71.594,73.5,139.5
	c-2.626,10.169-10.226,18.538-10.5,30.5c-2.736,1.839-2.898-2.601-6-2c10.874,30.338,40.747,48.962,35.5,90.5
	c-1.966,1.729-2.229,4.523-4,6.5c-15.405,17.192-43.688,22.204-64.5,34c3.938,2.589,8.437-2.431,14-1.5
	c2.343,6.817-0.399,14.58-4,18.5c-2.28-1.802,3.101-8.987-1.5-10.5c-4.409,8.757-5.145,21.188-21,18.5
	c2.073-2.538,10.796-12.877,4-18c-2.366,5.634-2.783,13.217-9,15c-11.283-4.724-18.143-21.936-14-37.5
	c3.192-11.993,17.035-23.346,27-30c7.005-4.679,16.757-7.871,18.5-15.5c-1.774-1.741-3.235,1.072-5.5,0.5
	c-8.319-7.347-14.97-16.363-23-24c0.616,12.728,12.813,18.18,19,27c-13.897,13.083-38.423,22.443-41,47.5
	c-1.948,18.944,7.798,32.43,21,39c23.403,0.903,36.508-8.492,34.5-33c5.308-1.859,9.988-4.346,15-6.5
	c6.087,40.091-10.558,76.529-39,87c-0.677-3.349,1.099-7.45-0.5-11c-4.455,8.884-4.629,19.979-6,30.5
	c-4.218,32.359-7.651,70.058-6.5,109c-8.21,3.818-23.4,5.331-33.5,4c-1.649-5.37,0.427-13.865,0-18c-6.519-0.816-4.399,11.24-5,18
	c-1.699,0.802-6.301,0.802-8,0c-3.477-3.878,0.12-15.107-2-19c-6.507,2.282-1.895,14.37-4,19c-4.432-3.903-7.398-11.934-8-18
	c3.86-5.974,10.455-9.212,15-14.5c-7.452-27.562-10.96-60.55-11.5-93.5c-3.434,1.733-3.631,6.702-3.5,12
	c-82.775,0.723-123.148-53.281-109.5-133c3.028-17.686,6.261-33.408,11-48.5c4.639-14.772,12.956-27.82,17-42.5
	c1.812-6.575-1.777-15.08-2-21.5C80.177,238.439,87.563,242.887,98.283,244z"/>
<path fill-rule="evenodd" clip-rule="evenodd" fill="#E67816" d="M98.283,244c1.144,0.318,3.016,0.991,4,0
	c7.866,0.533,12.533-2.134,17.5-4.5c2.583,2.468,5.68,6.917,10.5,5.5c-3.761-6.161-9.497-12.238-6-21.5
	c-6.026-0.36-5.874,5.459-6.5,10.5c-36.489,16.139-65.205-20.121-80-44.5c-7.092-11.686-13.154-24.616-18.5-38
	c-7.112-17.806-15.125-34.505-14.5-56.5c12.666,4.986,17.766-9.071,12-18.5c18.676,0.06,34.619,3.055,53,5
	c18.023,1.907,37.897,8.831,54.5,8c14.361-0.72,27.798-8.095,43.5-5.5c1.313,11.977,25.318,28.649,36.5,15.5
	c2.788-3.279,2.514-8.111,6-11.5c40.577,7.661,72.122,37.84,75.5,85c2.175,30.357-2.646,57.628-14,77
	c-0.163,1.837,0.427,4.426-0.5,5.5c-22.854-10.599-50.204,6.403-53,30.5c-0.65,5.608-1.826,13.987,0,20
	c2.922,9.62,14.319,13.902,19,23c-17.44,12.644-45.661,25.156-40.5,58.5c1.973,12.744,11.505,27.151,24,28.5
	c20.685,2.231,36.558-12.821,32.5-34c5.587-1.08,9.094-4.24,14.5-5.5c3.636,38.864-10.292,72.088-38,84.5
	c-0.372-3.206,0.583-5.083,0.5-8c-4.452-4.895-6.493-11.038-11.5-14.5c-23.684-16.374-57.232,5.803-60,28
	c-4.203,1.797-3.859,8.141-4.5,13.5c-76.958-1.746-117.899-45.633-109.5-123c3.107-28.626,11.901-55.379,21-79
	c5.246-13.619,13.422-25.195,7-42C80.347,239.604,86.627,244.489,98.283,244z M97.783,103c-22.046,2.521-44.603-5.911-61.5-11.5
	c-0.502-0.002-0.595,0.405-1,0.5c-0.027,0.639-0.641,0.692-0.5,1.5c12.308,6.624,33.025,15.285,53,14.5
	c11.808-0.464,25.229-2.197,31-8.5C111.323,98.475,105.246,102.146,97.783,103z M119.783,132c-40.142,5.49-65.979-19.166-91-32
	c-0.502-0.002-0.595,0.405-1,0.5c-0.39,0.11-0.581,0.418-0.5,1c6.474,7.945,18.135,14.808,30,21
	c11.376,5.937,25.185,11.638,38.5,13.5c12.121,1.694,30.531,2.693,35.5-6C126.899,127.881,123.813,131.449,119.783,132z
	 M232.283,144c1.009-9.608-6.347-21.857-11.5-28.5c-9.722-12.533-28.518-10.455-47-11.5c-0.501-0.002-0.595,0.405-1,0.5
	c-1.548,2.799,1.471,3.784,1,7c-36.401,11.154-24.486,72.363,19.5,64c3.196-0.608,5.758-2.453,9.5-3.5c0.959,1.707,0.581,4.752,3,5
	C213.067,168.992,230.95,156.704,232.283,144z M94.283,164c-31.258-8.778-57.42-34.246-73.5-58c-1.914,6.296,2.43,12.634,6,17
	c16.967,20.748,46.403,41.805,76.5,45.5C102.005,163.376,97.564,164.921,94.283,164z"/>
<path fill-rule="evenodd" clip-rule="evenodd" fill="#E67816" d="M118.783,99.5c-5.771,6.303-19.192,8.036-31,8.5
	c-19.975,0.785-40.692-7.876-53-14.5c-0.141-0.808,0.473-0.861,0.5-1.5c0.405-0.095,0.498-0.502,1-0.5
	c16.897,5.589,39.454,14.021,61.5,11.5C105.246,102.146,111.323,98.475,118.783,99.5z M117.783,100c-25.891,9.7-59.723,0.078-82-6.5
	C54.763,104.365,94.317,113.004,117.783,100z"/>
<path fill-rule="evenodd" clip-rule="evenodd" fill="#221A13" d="M35.783,93.5c22.277,6.578,56.109,16.2,82,6.5
	C94.317,113.004,54.763,104.365,35.783,93.5z"/>
<path fill-rule="evenodd" clip-rule="evenodd" fill="#E67816" d="M131.283,130c-4.969,8.693-23.379,7.694-35.5,6
	c-13.315-1.862-27.124-7.563-38.5-13.5c-11.865-6.192-23.526-13.055-30-21c-0.081-0.582,0.11-0.89,0.5-1
	c0.405-0.095,0.498-0.502,1-0.5c25.021,12.834,50.858,37.49,91,32C123.813,131.449,126.899,127.881,131.283,130z M92.783,134.5
	c11.083,2.128,31.896,3.408,37.5-4c-39.373,11.343-75.752-13.289-100.5-29c-0.5,0-1,0-1.5,0
	C40.031,113.474,68.643,129.864,92.783,134.5z"/>
<path fill-rule="evenodd" clip-rule="evenodd" fill="#221A13" d="M28.283,101.5c0.5,0,1,0,1.5,0
	c24.748,15.711,61.127,40.343,100.5,29c-5.604,7.408-26.417,6.128-37.5,4C68.643,129.864,40.031,113.474,28.283,101.5z"/>
<path fill-rule="evenodd" clip-rule="evenodd" fill="#E67816" d="M205.783,177c-2.419-0.248-2.041-3.293-3-5
	c-3.742,1.047-6.304,2.892-9.5,3.5c-43.986,8.363-55.901-52.846-19.5-64c0.471-3.216-2.548-4.201-1-7c0.405-0.095,0.499-0.502,1-0.5
	c18.482,1.045,37.278-1.033,47,11.5c5.153,6.643,12.509,18.892,11.5,28.5C230.95,156.704,213.067,168.992,205.783,177z M231.283,144
	c1.025-8.625-6.823-23.096-12.5-29.5c-8.625-9.729-27.427-8.402-44-10c-0.501-0.002-0.595,0.405-1,0.5
	c-2.578,2.297,2.275,2.992,1.5,6.5c-31.954,8.418-27.576,59.182,4.5,63.5c9.426,1.269,16.409-1.519,23.5-4
	c1.459,1.541,0.722,5.278,3.5,5.5C212.29,166.724,229.772,156.71,231.283,144z"/>
<path fill-rule="evenodd" clip-rule="evenodd" fill="#221A13" d="M206.783,176.5c-2.778-0.222-2.041-3.959-3.5-5.5
	c-7.091,2.481-14.074,5.269-23.5,4c-32.076-4.318-36.454-55.082-4.5-63.5c0.775-3.508-4.078-4.203-1.5-6.5
	c0.405-0.095,0.499-0.502,1-0.5c16.573,1.598,35.375,0.271,44,10c5.677,6.404,13.525,20.875,12.5,29.5
	C229.772,156.71,212.29,166.724,206.783,176.5z M207.283,169.5c8.927-7.074,16.024-15.977,21.5-26.5
	c-5.613-25.219-17.409-35.989-48.5-35C190.881,124.91,202.933,144.678,207.283,169.5z M179.283,170.5
	c8.469,2.412,18.173-0.217,23.5-4c-3.119-14.048-6.476-27.857-14.5-37c-3.328,12.448-26.263,12.204-27-2.5
	c-14.001,14.807-0.374,41.008,17.5,43.5C178.95,170.5,179.117,170.5,179.283,170.5z"/>
<path fill-rule="evenodd" clip-rule="evenodd" fill="#221A13" d="M101.783,168c-18.318-2.515-34.035-11.249-48.5-22.5
	c-13.27-10.321-27.55-20.967-32.5-37.5c6.679,8.152,14.305,20.021,23.5,28C60.224,149.831,80.518,160.048,101.783,168z"/>
<path fill-rule="evenodd" clip-rule="evenodd" fill="#E67816" d="M180.283,108c31.091-0.989,42.887,9.781,48.5,35
	c-5.476,10.523-12.573,19.426-21.5,26.5C202.933,144.678,190.881,124.91,180.283,108z M207.283,168c5.94-7.13,18.062-13.972,20-23.5
	c1.814-8.919-9.039-26.281-14-30c-6.813-5.108-23.311-4.184-31.5-5C193.119,126.164,203.578,143.705,207.283,168z"/>
<path fill-rule="evenodd" clip-rule="evenodd" fill="#E67816" d="M181.783,109.5c8.189,0.816,24.687-0.108,31.5,5
	c4.961,3.719,15.814,21.081,14,30c-1.938,9.528-14.06,16.37-20,23.5C203.578,143.705,193.119,126.164,181.783,109.5z"/>
<path fill-rule="evenodd" clip-rule="evenodd" fill="#FFFFFF" d="M178.783,170c-15.676-3.569-29.097-24.179-18.5-41.5
	c2.233,14.05,24.109,14.143,29,2.5c5.513,10.32,9.934,21.732,12.5,35c-4.498,2.669-9.673,4.66-17,4.5
	C183.764,169.353,180.631,170.319,178.783,170z"/>
<path fill-rule="evenodd" clip-rule="evenodd" fill="#70472C" d="M95.783,474c15.401,6.265,34.281,9.052,53,12
	c0.63,21.388,1.987,52.954,3,76c0.129,2.93,0.928,5.488,0.5,8c-0.845,4.957-3.385,10.009-1,16c-8.343,2.36-22.602,1.349-31.5,1.5
	c-1.604-5.288,0.58-13.262-0.5-18c-6.409,1.235-4.1,11.623-4,18c-2.791,1.67-6.364,0.767-9,0c-2.342-5.158-0.753-13.384-1-18.5
	c-5.782,0.552-4.407,8.259-5,14c-2.174-4.14-6.962-8.89-6-13.5c1.177-5.64,11.73-8.129,14-13
	C101.117,532.331,94.469,504.983,95.783,474z"/>
<path fill-rule="evenodd" clip-rule="evenodd" fill="#E67816" d="M384.283,500c2.124-2.542,4.458-4.876,7-7
	C389.159,495.542,386.825,497.875,384.283,500z"/>
<path fill-rule="evenodd" clip-rule="evenodd" fill="#221A13" d="M159.283,13c16.269,0.746,30.303,9.01,39,14
	C191.801,16.783,174.51,9.484,159.283,13z"/>
<path fill-rule="evenodd" clip-rule="evenodd" fill="#E67816" d="M103.283,168.5c-30.097-3.695-59.533-24.752-76.5-45.5
	c-3.57-4.366-7.914-10.704-6-17c16.08,23.754,42.242,49.222,73.5,58C97.564,164.921,102.005,163.376,103.283,168.5z M44.283,136
	c-9.195-7.979-16.821-19.848-23.5-28c4.95,16.533,19.23,27.179,32.5,37.5c14.465,11.251,30.182,19.985,48.5,22.5
	C80.518,160.048,60.224,149.831,44.283,136z"/>
<path fill-rule="evenodd" clip-rule="evenodd" fill="#FFFFFF" d="M184.783,170.5c7.327,0.16,12.502-1.831,17-4.5
	c-2.566-13.268-6.987-24.68-12.5-35c-4.891,11.643-26.767,11.55-29-2.5c-10.597,17.321,2.824,37.931,18.5,41.5
	c0,0.166,0,0.333,0,0.5c-17.874-2.492-31.501-28.693-17.5-43.5c0.737,14.704,23.672,14.948,27,2.5
	c8.024,9.143,11.381,22.952,14.5,37c-5.327,3.783-15.031,6.412-23.5,4C181.116,170.5,182.95,170.5,184.783,170.5z"/>
<path fill-rule="evenodd" clip-rule="evenodd" fill="#221A13" d="M142.283,25.5c38.685,2.981,67.438,15.895,68,57
	c8.685,2.815,17.568,5.432,26,8.5c4.133-8.368,8.325-17.651,13-27.5c3.7-7.798,9.423-20.242,16-25
	c8.064-5.835,33.366-10.552,44-11.5c20.896-1.864,25.558,16.314,33.5,27c-0.776,2.224-1.411,4.589-2,7
	c23.044,2.997,35.353,24.028,31,49.5c-10.05,5.971-18.153,24.006-30,25.5c-18.626,2.349-41.321-11.667-63.5-5.5
	c11.101,21.656,14.065,54.31,10,85c-2.024,15.279-11.046,27.147-12.5,39.5c-1.812,15.396,9.102,24.27,16,36
	c5.12,8.707,11.295,19.526,14,28c10.088,31.602-16.422,44.471-34,54.5c4.604,39.548-9.301,68.951-30,86.5
	c16.438,36.152,48.011,69.938,101.5,64c33.77-3.75,50.074-33.12,65.5-55c-18.048,36.834-44.067,71.336-101,63.5
	c-38.433-5.29-62.807-29.026-82-53c-6.627,33.206-6.841,72.825-6.5,113c-13.228,7.793-40.063,6.68-59.5,5
	c-2.307-2.193-2.536-6.464-5.5-8c-16.559,2.477-38.453,3.743-55,0.5c-1.385-6.607-10.721-12.432-9-21.5
	c1.136-5.986,12.941-8.71,13.5-15c0.382-4.303-4.163-13.232-5.5-19c-4.596-19.826-6.561-40.321-6.5-64
	c-32.063-18.952-56.606-49.42-52-102c2.932-33.471,11.304-65.307,21.5-91c3.18-8.014,9.599-16.739,10.5-23.5
	c1.069-8.016-4.272-17.017-4-24c-22.178-17.285-38.355-43.901-50.5-73c-7.686-18.416-15.354-37.743-17-57.5
	c-0.985-11.828,0.578-21.459,5-27c-3.527-6.692-4.496-24.915,2-29c-3.341,4.727-4.789,30.475,3,29c3.354-0.635,5.592-14.585,8-19
	c5.39-9.881,14.197-18.229,23.5-18.5c-15.201,5.5-24.41,19.544-26.5,36.5c2.5,0,5,0,7.5,0c7.023-8.311,12.173-21.159,27-20
	c-11.653,2.535-20.081,10.89-23,20.5c23.252,2.917,48.004,6.992,70.5,9c-4.925-34.702,10.708-55.857,44-55.5
	C141.616,25.5,141.95,25.5,142.283,25.5z M102.283,244c-0.984,0.991-2.856,0.318-4,0c-10.721-1.113-18.106-5.561-26.5-9
	c0.223,6.42,3.812,14.925,2,21.5c-4.044,14.68-12.361,27.728-17,42.5c-4.739,15.092-7.972,30.814-11,48.5
	c-13.648,79.719,26.725,133.723,109.5,133c-0.131-5.298,0.066-10.267,3.5-12c0.54,32.95,4.048,65.938,11.5,93.5
	c-4.545,5.288-11.14,8.526-15,14.5c0.602,6.066,3.568,14.097,8,18c2.105-4.63-2.507-16.718,4-19c2.12,3.893-1.477,15.122,2,19
	c1.699,0.802,6.301,0.802,8,0c0.601-6.76-1.519-18.816,5-18c0.427,4.135-1.649,12.63,0,18c10.1,1.331,25.29-0.182,33.5-4
	c-1.151-38.942,2.282-76.641,6.5-109c1.371-10.521,1.545-21.616,6-30.5c1.599,3.55-0.177,7.651,0.5,11
	c28.442-10.471,45.087-46.909,39-87c-5.012,2.154-9.692,4.641-15,6.5c2.008,24.508-11.097,33.903-34.5,33
	c-13.202-6.57-22.948-20.056-21-39c2.577-25.057,27.103-34.417,41-47.5c-6.187-8.82-18.384-14.272-19-27
	c8.03,7.637,14.681,16.653,23,24c2.265,0.572,3.726-2.241,5.5-0.5c-1.743,7.629-11.495,10.821-18.5,15.5
	c-9.965,6.654-23.808,18.007-27,30c-4.143,15.564,2.717,32.776,14,37.5c6.217-1.783,6.634-9.366,9-15c6.796,5.123-1.927,15.462-4,18
	c15.855,2.688,16.591-9.743,21-18.5c4.601,1.513-0.78,8.698,1.5,10.5c3.601-3.92,6.343-11.683,4-18.5
	c-5.563-0.931-10.063,4.089-14,1.5c20.812-11.796,49.095-16.808,64.5-34c1.771-1.977,2.034-4.771,4-6.5
	c5.247-41.538-24.626-60.162-35.5-90.5c3.102-0.601,3.264,3.839,6,2c0.274-11.962,7.874-20.331,10.5-30.5
	c17.533-67.906-14.578-130.475-73.5-139.5c-2.788,4.046-4.225,9.441-7,13.5c-16.538,7.992-31.067-4.402-34.5-17.5
	c-19.297-1.625-36.366,7.898-53,5c-30.852-5.376-66.824-9.88-100-12.5c6.572,10.104,1.316,24.016-11.5,19
	c-0.645,21.643,6.118,36.009,12.5,53c4.7,12.511,10.824,25.952,17.5,37c13.582,22.477,29.011,47.516,54.5,54
	c10.507,2.673,23.396,1.039,30-3c0.71-4.128,1.303-11.025,5-10.5c-3.986,9.862,1.938,14.257,6,20c-5.378-0.123-6.247-4.753-10.5-6
	C114.935,241.985,108.135,242.519,102.283,244z M319.283,30.5c-13.901-0.216-40.532,4.327-52.5,11c-5.7,3.179-11.892,18.02-15,24.5
	c-4.201,8.757-7.956,17.893-10.5,27c5.101,2.899,9.165,6.835,14.5,9.5c14.685-16.981,30.251-33.083,48.5-46.5
	c11.698-3.462,24.155,2.087,33.5,2.5C339.661,44.981,326.435,38.284,319.283,30.5z M200.283,58c-1.231-14.17-29.478-25.162-50-27.5
	c-36.748-4.187-56.261,14.648-48.5,50.5c9.654,3.125,22.839,4.697,33.5,1.5c0.162-1.662-2.458-0.543-1.5-3
	c7.479-4.208,20.827-2.83,31.5-2.5c0.288-9.028-0.676-23.233,6-27.5c-3.483,19.302,0.301,55.127,25.5,48.5
	c1.762-0.464,3.981-1.272,4-4.5c-2.177,1.005-13.316,4.576-15-1c4.239-3.457,10.063-0.35,14.5-4.5c4.759-4.451,7.856-16.288,3-22
	c0.08,10.312-13.581,21.346-22,12C192.373,79.185,201.474,71.699,200.283,58z M369.783,106.5c-0.611-13.527-3.231-26.833-9.5-33.5
	c-7.786-8.28-35.61-12.478-52-13.5c-18.94,12.727-35.538,27.795-48,47c6.021,5.646,11.11,12.223,15.5,19.5
	c25.545-1.212,44.155,4.511,67,6C352.752,124.469,362.215,116.432,369.783,106.5z M108.283,556.5c-2.27,4.871-12.823,7.36-14,13
	c-0.962,4.61,3.826,9.36,6,13.5c0.593-5.741-0.782-13.448,5-14c0.247,5.116-1.342,13.342,1,18.5c2.636,0.767,6.209,1.67,9,0
	c-0.1-6.377-2.409-16.765,4-18c1.08,4.738-1.104,12.712,0.5,18c8.898-0.151,23.157,0.86,31.5-1.5c-2.385-5.991,0.155-11.043,1-16
	c0.428-2.512-0.371-5.07-0.5-8c-1.013-23.046-2.37-54.612-3-76c-18.719-2.948-37.599-5.735-53-12
	C94.469,504.983,101.117,532.331,108.283,556.5z M154.783,529.5c0,0.167,0,0.333,0,0.5c-0.233,13.4,0.924,25.409,2,37.5
	c4.029-1.138,7.007-3.326,8.5-7c-5.488-21.846-6.465-52.535-11.5-76.5C152.952,498.382,152.673,516.406,154.783,529.5z"/>
</svg>
