<svg xmlns="http://www.w3.org/2000/svg" viewBox="0 0 40.18 44.84"><defs><style>.cls-1{fill:#5b84bf;}.cls-2{fill:#9ebae2;}</style></defs><title>Element 12</title><g id="Ebene_2" data-name="Ebene 2"><g id="Ebene_2-2" data-name="Ebene 2"><polygon class="cls-1" points="34.33 16.1 34.33 10.25 40.18 10.25 40.18 5.85 34.33 5.85 34.33 0 29.94 0 29.94 5.85 24.08 5.85 24.08 10.25 29.94 10.25 29.94 16.1 34.33 16.1"/><path class="cls-2" d="M29.94,18.56H27.48V12.71H21.62V9.13A18.44,18.44,0,0,0,18,8.77a18.07,18.07,0,1,0,16,9.79Z"/><path class="cls-1" d="M33.66,35.78l-6-7.34-7.46,7.75-9-13.77L1.41,33.8a18,18,0,0,0,32.25,2Z"/></g></g></svg>