<?xml version="1.0" encoding="UTF-8" standalone="no"?>
<svg
   xmlns:dc="http://purl.org/dc/elements/1.1/"
   xmlns:cc="http://creativecommons.org/ns#"
   xmlns:rdf="http://www.w3.org/1999/02/22-rdf-syntax-ns#"
   xmlns:svg="http://www.w3.org/2000/svg"
   xmlns="http://www.w3.org/2000/svg"
   xmlns:sodipodi="http://sodipodi.sourceforge.net/DTD/sodipodi-0.dtd"
   xmlns:inkscape="http://www.inkscape.org/namespaces/inkscape"
   width="11.71"
   height="11.8"
   viewBox="0 0 11.71 11.8"
   version="1.1"
   id="svg8"
   sodipodi:docname="icon--paint.svg"
   inkscape:version="0.92.3 (2405546, 2018-03-11)">
  <metadata
     id="metadata14">
    <rdf:RDF>
      <cc:Work
         rdf:about="">
        <dc:format>image/svg+xml</dc:format>
        <dc:type
           rdf:resource="http://purl.org/dc/dcmitype/StillImage" />
      </cc:Work>
    </rdf:RDF>
  </metadata>
  <defs
     id="defs12" />
  <sodipodi:namedview
     pagecolor="#ffffff"
     bordercolor="#666666"
     borderopacity="1"
     objecttolerance="10"
     gridtolerance="10"
     guidetolerance="10"
     inkscape:pageopacity="0"
     inkscape:pageshadow="2"
     inkscape:window-width="1920"
     inkscape:window-height="1016"
     id="namedview10"
     showgrid="false"
     inkscape:zoom="20"
     inkscape:cx="-3.8450001"
     inkscape:cy="5.7000002"
     inkscape:window-x="0"
     inkscape:window-y="27"
     inkscape:window-maximized="1"
     inkscape:current-layer="svg8" />
  <title
     id="title2">Element 124</title>
  <g
     id="Ebene_2"
     data-name="Ebene 2">
    <g
       id="Overlay">
      <path
         d="M5.88,9.37a2.07,2.07,0,0,1-.42,1.56,2.17,2.17,0,0,1-1.2.78l-.08,0H4.07a4.34,4.34,0,0,1-.61.06A3.88,3.88,0,0,1,.29,10c-.17-.28-.43-.8-.2-1.13a.48.48,0,0,1,.54-.18c1.06.22,1.44-.25,1.5-.34a2.09,2.09,0,0,1,3.75,1Zm4.81-6a18.33,18.33,0,0,1-2.07,3.3A4.82,4.82,0,0,1,7,8.14a.29.29,0,0,1-.18,0l-.14,0a.47.47,0,0,1-.24-.22,2,2,0,0,0-.58-.77A2.35,2.35,0,0,0,5,6.75a.36.36,0,0,1-.26-.19.42.42,0,0,1-.06-.31A5.56,5.56,0,0,1,5.77,4.36,26.58,26.58,0,0,1,10.46.47c.37-.27.71-.64,1.09-.39S11.64,1.41,10.69,3.36Z"
         fill="#fff"
         fill-rule="evenodd"
         id="path4"
         style="fill:#5b84bf;fill-opacity:1" />
    </g>
  </g>
</svg>
