<svg xmlns="http://www.w3.org/2000/svg" viewBox="0 0 44.62 44.84"><defs><style>.cls-1{fill:#9ebae2;}.cls-2{fill:#5b84bf;}.cls-3{fill:#ebebeb;}</style></defs><title>Element 10</title><g id="Ebene_2" data-name="Ebene 2"><g id="Ebene_2-2" data-name="Ebene 2"><path class="cls-1" d="M33.22,18.56H30.76V12.71H24.9V9.13a18.44,18.44,0,0,0-3.59-.36,18.07,18.07,0,1,0,16,9.79Z"/><path class="cls-2" d="M24.05,34.23a11.2,11.2,0,0,1,.48,2.12.5.5,0,0,1-.2.47,3.93,3.93,0,0,1-1.32.75l-1.5.2a3.14,3.14,0,0,1-1.39-.46,1.15,1.15,0,0,1-.58-.85,7.18,7.18,0,0,1,0-2.12l.61-.26a6.44,6.44,0,0,1,1.8-.23,6.53,6.53,0,0,1,1.74.25l.34.13"/><path class="cls-2" d="M41.53,27.87l.58.24L39.5,29.74l-2.74,1.42c-.92.43-1.86.81-2.82,1.15a22.35,22.35,0,0,1-3,.83l-3.13.54-.42-.24.24-.35,3-.57a27.94,27.94,0,0,0,2.89-.78c1-.31,1.91-.67,2.84-1.07A27.84,27.84,0,0,0,39,29.38c.87-.48,1.71-1,2.54-1.51m-2.48,5.94-2.74.64-2.82.47-2.91.31-2.92.15-.33,0L27.16,35l.26-.17,3.64-.25,3.5-.43L38,33.46l3.31-1q1.6-.6,3.18-1.26l.09.08-.78.61-1.14.7-.91.41-2.74.82m1.5,2.72,3.17-.94.26.26-2.45,1-2.64.7-2.73.36-2.9.12-2.83-.1-1.09-.17-1.41-.36L26.84,37,27,36.6l3.26.64,3.47.23,3.49-.28,3.32-.66M4.2,29l-1-.86.15-.41,2.32,1.63A20.27,20.27,0,0,0,8,30.73c.81.39,1.64.74,2.5,1.06l2.64.84,2.74.7.18.24v.26l-1.49-.1-1.34-.32-2.41-.84-2.32-.94a24.61,24.61,0,0,1-2.26-1.22L4.2,29m9.16,6.22,2.65.05.33,0-.09.33-.24.17-3.4,0L9.3,35.41a28.42,28.42,0,0,1-3.25-.89A24.35,24.35,0,0,1,3,33.22L.09,31.65,0,31.33l.5-.09c.78.47,1.57.91,2.39,1.34a18.43,18.43,0,0,0,2.41,1,25.06,25.06,0,0,0,2.55.79l2.76.56,2.75.26M7,38.33a24,24,0,0,1-3.24-.8c-1-.32-2-.66-3-1l-.17-.35L.7,35.9l2.1.82A16.54,16.54,0,0,0,5,37.33l2.25.41L9.54,38,12,38.1l1.4-.3L15,37.25c.42-.18.84-.37,1.26-.6l.35.17v.42a26.49,26.49,0,0,1-3.14,1,13.69,13.69,0,0,1-3.18.38L7,38.33"/><path class="cls-2" d="M11.4,16.82a32.7,32.7,0,0,0-1.91,6,.7.7,0,0,0,0,.71c.18.14.31.08.5,0s.25.63.4,1a5.72,5.72,0,0,0,4,3.77,4.88,4.88,0,0,0,2,0A5.18,5.18,0,0,0,20,25a7.06,7.06,0,0,0,.25-3.28c.19-.26.57.18.72-.22a.59.59,0,0,0-.06-.6,36.74,36.74,0,0,0-2.6-5.07A2.71,2.71,0,0,0,16.07,15c-2,.19-3.57.3-4.67,1.83"/><path class="cls-2" d="M33.7,18.56H30.76V15.44A20.08,20.08,0,0,0,28.67,15c-.92,0-2-.07-2.53.9A58.26,58.26,0,0,0,22.44,21c0,.23.08.49.26.56a2.43,2.43,0,0,1,.66,0c-.26,2.35.33,4.78,2.31,6.16A5.35,5.35,0,0,0,33.54,24c.22.07.47.26.73,0a1.43,1.43,0,0,0,.09-.77A34.87,34.87,0,0,0,33.7,18.56Z"/><path class="cls-1" d="M12,17.49A6,6,0,0,0,11.43,19c-.21.71-.91,2.95-.91,3.29.22.11.51-.23.77-.3a12.24,12.24,0,0,1,6.14-1.36,16.81,16.81,0,0,1,2.5.09A16.91,16.91,0,0,0,18.64,18c-.42-.76-.78-1.72-1.65-2-1.65-.14-4.08.44-4.52.9s-.49.68-.49.68"/><path class="cls-1" d="M30.76,18.56V16.4a14.41,14.41,0,0,0-1.91-.46,8.77,8.77,0,0,0-1.1-.08L27.2,16a15.62,15.62,0,0,0-1.51,1.83,22.67,22.67,0,0,1-1.31,1.94,8.07,8.07,0,0,1-.43.82,13.73,13.73,0,0,1,6.23.52c.85.37,2.44,1.16,3.25,1.61a28.73,28.73,0,0,0-.64-4.17Z"/><path class="cls-3" d="M17.26,21.48a2.68,2.68,0,0,1-.79,3.68,2.81,2.81,0,0,1-2.22.13,2.84,2.84,0,0,1-1.46-2.05c0-.34-.07-.67.11-1a8.8,8.8,0,0,0-1.9.82,4.94,4.94,0,0,0,1.72,3.5,3.66,3.66,0,0,0,2.23.83,4.11,4.11,0,0,0,4-2.17,5.68,5.68,0,0,0,.59-3.13c-.09-.29,0-.64-.43-.6a12,12,0,0,0-1.84,0"/><path class="cls-3" d="M24.24,21.49a5.07,5.07,0,0,0,.25,3.36c1.16,2.51,3.36,3.32,5.68,2.24a4.83,4.83,0,0,0,2.6-3.69l-2-1a2.68,2.68,0,0,1-1.37,3,2.44,2.44,0,0,1-2.75-.44,3.08,3.08,0,0,1-.49-3.07l.35-.44-2.27.07"/><polygon class="cls-2" points="37.61 16.1 37.61 10.25 43.46 10.25 43.46 5.85 37.61 5.85 37.61 0 33.22 0 33.22 5.85 27.36 5.85 27.36 10.25 33.22 10.25 33.22 16.1 37.61 16.1"/></g></g></svg>