<svg version="1.1" width="321" height="219" viewBox="-1 -1 321 219" xmlns="http://www.w3.org/2000/svg" xmlns:xlink="http://www.w3.org/1999/xlink">
  <!-- Exported by Scratch - http://scratch.mit.edu/ -->
  <g id="ID0.6059102094732225" transform="matrix(0.501017689704895, 0, 0, 0.501017689704895, 0, 0.25)">
    <path id="ID0.58052844600752" fill="#DBC33F" d="M 147.604 1.262 C 148.017 0.864 150.070 0.864 150.484 1.262 C 149.843 1.262 149.204 1.262 148.564 1.262 C 148.244 1.262 147.923 1.262 147.604 1.262 Z "/>
    <path id="ID0.17649846198037267" fill="#575195" d="M 148.564 1.262 C 149.204 1.262 149.843 1.262 150.484 1.262 C 150.833 1.393 151.724 0.982 151.683 1.502 C 150.717 1.348 149.131 1.814 148.564 1.262 Z "/>
    <path id="ID0.6049958970397711" fill="#575195" d="M 206.404 27.902 C 203.374 24.785 197.177 26.731 192.723 25.982 C 190.304 25.575 189.725 23.332 187.923 22.862 C 192.795 20.227 186.451 16.493 181.683 17.582 C 176.980 14.206 172.079 11.027 167.763 7.262 C 172.913 4.637 184.222 1.532 189.364 5.822 C 190.900 7.104 192.405 9.159 194.164 10.862 C 198.692 15.248 204.108 21.866 206.404 27.902 Z "/>
    <path id="ID0.6503120036795735" fill="#575195" d="M 177.364 19.742 C 174.839 22.224 171.595 27.398 173.524 31.982 C 176.760 32.286 176.501 29.122 177.364 27.182 C 178.296 25.086 179.534 23.699 181.204 22.622 C 183.345 24.158 185.862 25.834 188.884 28.622 C 190.490 30.105 194.006 35.391 195.605 35.342 C 198.753 35.245 196.359 31.617 195.844 29.822 C 202.177 29.365 208.575 32.386 214.084 35.102 C 218.471 37.265 222.415 39.593 225.605 42.782 C 231.732 48.909 236.793 57.336 241.924 64.862 C 246.802 72.016 252.093 79.858 258.724 86.462 C 265.113 92.824 271.808 100.593 283.204 100.382 C 293.024 100.200 296.820 92.440 299.284 84.302 C 302.906 83.844 304.887 81.745 306.004 78.782 C 303.653 75.997 301.631 79.689 299.044 79.982 C 290.862 80.910 288.270 66.813 294.244 63.182 C 296.984 61.517 303.893 61.296 307.204 63.422 C 313.551 67.497 316.323 77.185 315.603 87.902 C 314.556 103.517 307.534 115.393 297.364 123.902 C 288.051 131.695 273.378 138.510 258.723 139.262 C 250 139.709 240.202 139.269 233.043 136.862 C 230.572 136.032 228.280 134.426 226.083 133.262 C 223.874 132.092 222.201 131.009 219.604 129.182 C 219.415 126.378 221.226 122.290 219.124 120.542 C 214.796 120.054 216.225 125.322 215.284 128.222 C 212.931 128.959 207.009 129.148 208.804 132.062 C 209.910 133.859 214.189 131.666 216.724 131.822 C 220.627 134.719 224.516 137.631 229.445 139.503 C 226.074 144.455 219.924 148.700 216.245 154.143 C 212.264 152.321 209.840 146.530 204.485 147.664 C 204.025 150.240 206.721 151.662 208.325 152.943 C 213.427 157.020 218.523 161.591 222.724 166.624 C 220.820 168.159 218.990 169.769 217.684 171.903 C 215.083 170.634 211.185 169.544 208.325 170.464 C 201.409 172.688 203.478 184.319 206.405 189.424 C 197.859 192.559 190.346 196.726 183.605 201.664 C 178.951 192.728 172.853 184.237 166.325 176.704 C 164.793 174.935 162.539 171.891 159.605 173.103 C 158.627 175.836 162.802 176.341 162.245 178.624 C 160.175 178.999 156.875 178.999 154.805 178.624 C 152.132 168.576 147.139 160.247 140.645 153.424 C 138.923 151.614 137.077 148.591 133.925 148.863 C 132.334 152.738 136.657 154.521 138.486 156.544 C 140.579 160.050 143.492 162.737 145.206 166.624 C 141.508 166.766 140.327 169.425 138.486 171.424 C 135.327 169.248 131.406 167.611 127.685 169.024 C 121.393 171.416 121.944 181.728 124.326 187.984 C 115.475 190.013 107.996 193.414 100.566 196.864 C 98.556 188.742 94.395 179.640 91.206 172.144 C 89.695 168.593 87.802 162.391 82.806 164.944 C 82.746 168.058 87.197 168.702 87.366 172.384 C 78.559 170.024 74.185 162.770 70.326 154.384 C 67.946 149.212 64.912 143.062 64.326 137.823 C 63.844 133.515 64.657 128.583 65.046 124.143 C 65.782 115.738 67.272 107.648 69.126 99.903 C 70.082 95.911 70.760 91.773 72.006 88.623 C 73.099 85.861 75.305 83.070 77.046 80.463 C 80.627 75.101 84.488 70.496 88.806 65.823 C 90.870 63.589 92.510 60.479 95.286 59.583 C 95.188 66.981 97.892 73.739 99.846 79.983 C 101.748 86.062 104.745 92.306 108.486 96.543 C 113.322 102.020 119.936 104.326 127.686 106.623 C 138.235 109.749 147.709 111.600 159.607 110.463 C 169.557 109.512 174.451 105.927 179.287 99.423 C 182.536 95.053 186.097 90.680 189.127 86.223 C 190.189 84.662 190.779 83.157 191.767 81.423 C 192.633 79.903 194.226 78.476 194.887 77.103 C 196.119 74.545 197.545 71.079 196.327 68.223 C 192.948 68.765 192.329 72.066 191.527 75.183 C 186.942 83.214 181.987 90.046 175.926 96.783 C 173.985 98.941 172.274 101.737 170.166 103.263 C 165.757 106.457 157.229 107.528 149.766 107.103 C 136.314 106.338 119.930 102.217 112.327 94.863 C 108.642 91.300 104.440 83.612 102.487 77.823 C 99.712 69.601 98.549 60.926 97.927 49.983 C 97.762 47.082 97.840 43.700 98.167 40.623 C 98.470 37.778 98.635 34.385 99.367 32.463 C 100.524 29.422 105.112 25.464 108.247 22.863 C 115.073 17.198 123.208 13.253 132.007 9.903 C 137.959 7.637 143.578 4.185 151.687 5.343 C 153.422 5.591 155.447 6.488 157.208 7.023 C 165.456 9.533 170.760 15.415 177.364 19.742 Z M 222.963 83.342 C 227.366 84.860 233.009 84.511 235.683 80.702 C 237.498 78.117 237.789 74.307 237.364 70.382 C 236.592 63.268 231.397 54.866 226.084 53.342 C 224.490 52.884 221.434 53.223 220.804 53.342 C 206.267 56.085 213.103 79.943 222.963 83.342 Z "/>
    <path id="ID0.861384644638747" fill="#575195" d="M 94.324 40.622 C 94.470 40.048 94.023 38.881 94.564 38.702 C 94.564 42.542 94.564 46.382 94.564 50.222 C 94.010 49.496 94.480 47.747 94.324 46.622 C 94.324 44.622 94.324 42.622 94.324 40.622 Z "/>
    <path id="ID0.8970221909694374" fill="#DBC33F" d="M 94.324 40.622 C 94.324 42.622 94.324 44.622 94.324 46.622 C 93.924 45.178 93.924 42.066 94.324 40.622 Z "/>
    <path id="ID0.31248810794204473" fill="#575195" d="M 287.284 68.942 C 287.304 68.562 287.169 68.026 287.524 67.982 C 287.524 69.582 287.524 71.182 287.524 72.782 C 287.198 72.708 287.325 72.181 287.284 71.822 C 287.284 70.862 287.284 69.902 287.284 68.942 Z "/>
    <path id="ID0.7754663722589612" fill="#DBC33F" d="M 287.284 68.942 C 287.284 69.902 287.284 70.862 287.284 71.822 C 286.885 71.408 286.885 69.356 287.284 68.942 Z "/>
    <path id="ID0.061409869231283665" fill="#575195" d="M 226.083 79.982 C 227.043 79.982 228.003 79.982 228.963 79.982 C 228.549 80.380 226.498 80.380 226.083 79.982 Z "/>
    <path id="ID0.9412209489382803" fill="#575195" d="M 44.884 111.663 C 46.324 111.663 47.764 111.663 49.204 111.663 C 48.317 112.061 45.771 112.061 44.884 111.663 Z "/>
    <path id="ID0.44500921620056033" fill="#575195" d="M 46.563 115.502 C 45.755 115.350 44.334 115.811 43.923 115.262 C 46.563 115.262 49.203 115.262 51.843 115.262 C 51.354 115.813 49.850 115.349 48.963 115.502 C 48.164 115.502 47.364 115.502 46.563 115.502 Z "/>
    <path id="ID0.7952257231809199" fill="#DBC33F" d="M 46.563 115.502 C 47.363 115.502 48.163 115.502 48.963 115.502 C 48.705 115.900 46.822 115.900 46.563 115.502 Z "/>
    <path id="ID0.8890339247882366" fill="#575195" d="M 61.204 131.583 C 61.357 130.696 60.893 129.192 61.444 128.703 C 61.291 129.589 61.754 131.093 61.204 131.583 Z "/>
    <path id="ID0.3657169775106013" fill="#575195" d="M 32.404 136.142 C 32.004 134.619 32.004 131.425 32.404 129.902 C 32.404 131.982 32.404 134.062 32.404 136.142 Z "/>
    <path id="ID0.6819188613444567" fill="#575195" d="M 35.284 130.862 C 35.284 131.663 35.284 132.463 35.284 133.262 C 34.886 133.003 34.886 131.121 35.284 130.862 Z "/>
    <path id="ID0.7357274773530662" fill="#575195" d="M 50.164 131.583 C 50.164 133.183 50.164 134.783 50.164 136.383 C 49.765 135.336 49.765 132.628 50.164 131.583 Z "/>
    <path id="ID0.9911418962292373" fill="#DBC33F" d="M 47.284 132.062 C 47.132 132.871 47.593 134.291 47.044 134.703 C 47.196 133.894 46.734 132.473 47.284 132.062 Z "/>
    <path id="ID0.8831251454539597" fill="#575195" d="M 61.204 140.703 C 60.805 138.780 60.805 135.185 61.204 133.263 C 61.204 135.743 61.204 138.222 61.204 140.703 Z "/>
    <path id="ID0.16954291425645351" fill="#575195" d="M 35.284 133.502 C 35.833 133.912 35.372 135.334 35.524 136.142 C 34.975 135.732 35.436 134.310 35.284 133.502 Z "/>
    <path id="ID0.7699565854854882" fill="#575195" d="M 235.444 141.663 C 235.780 141.265 237.748 141.265 238.084 141.663 C 237.204 141.663 236.324 141.663 235.444 141.663 Z "/>
    <path id="ID0.07285599177703261" fill="#575195" d="M 251.524 143.102 C 250.636 142.949 249.132 143.413 248.643 142.862 C 249.610 143.016 251.196 142.550 251.763 143.102 C 251.683 143.102 251.604 143.102 251.524 143.102 Z "/>
    <path id="ID0.303033038508147" fill="#575195" d="M 254.164 143.102 C 254.890 142.548 256.640 143.018 257.764 142.862 C 257.197 143.415 255.611 142.948 254.644 143.102 C 254.484 143.102 254.324 143.102 254.164 143.102 Z "/>
    <path id="ID0.2361023249104619" fill="#DBC33F" d="M 251.524 143.102 C 251.604 143.102 251.683 143.102 251.763 143.102 C 252.563 143.102 253.364 143.102 254.163 143.102 C 254.323 143.102 254.483 143.102 254.642 143.102 C 254.151 143.500 252.016 143.500 251.524 143.102 Z "/>
    <path id="ID0.9044940518215299" fill="#DBC33F" d="M 229.204 185.583 C 228.244 185.583 227.284 185.583 226.324 185.583 C 226.116 181.611 220.543 178.420 221.524 173.343 C 221.785 171.989 223.529 169.889 225.124 170.223 C 226.550 170.522 229.430 176.423 230.164 177.663 C 231.900 180.595 233.483 182.948 234.244 185.343 C 233.419 185.238 232.898 185.438 232.324 185.583 C 231.284 185.583 230.244 185.583 229.204 185.583 Z "/>
    <path id="ID0.8266863645985723" fill="#DBC33F" d="M 148.564 186.062 C 146.864 186.242 145.792 185.794 144.484 185.583 C 144.900 181.092 139.625 176.493 142.084 172.383 C 143.097 170.691 146.347 170.070 148.084 171.423 C 150.793 173.532 151.898 182.417 153.364 186.303 C 152.964 186.303 152.564 186.303 152.164 186.303 C 151.437 185.749 149.688 186.217 148.564 186.062 Z "/>
    <path id="ID0.481569258030504" fill="#DBC33F" d="M 132.963 186.062 C 131.027 185.966 129.584 186.363 128.163 186.782 C 125.997 182.702 124.696 173.467 130.323 172.623 C 137.780 171.504 140.036 180.070 140.642 185.822 C 140.243 185.822 139.842 185.822 139.443 185.822 C 137.362 185.981 134.646 185.504 132.963 186.062 Z "/>
    <path id="ID0.24573099752888083" fill="#DBC33F" d="M 222.244 186.062 C 217.681 186.139 214.694 187.792 210.004 187.742 C 207.551 184.492 205.361 173.548 211.444 173.822 C 217.042 174.075 220.918 180.913 222.244 186.062 Z "/>
    <path id="ID0.7354143150150776" fill="#575195" d="M 101.764 204.782 C 101.507 207.006 100.457 208.436 99.844 210.303 C 91.304 207.243 84.064 202.882 78.484 196.863 C 80.921 190.020 84.581 184.400 86.164 176.704 C 87.752 177.115 88.834 178.033 90.244 178.624 C 91.133 182.222 92.977 185.962 94.564 190.624 C 96.489 196.277 95.917 203.299 101.764 204.782 Z "/>
    <path id="ID0.29235964408144355" fill="#575195" d="M 176.643 197.102 C 174.089 199.988 172.803 204.142 171.604 208.382 C 164.759 206.506 158.950 203.596 154.083 199.741 C 153.776 197.434 154.890 196.549 154.803 194.462 C 158.695 192.883 158.304 186.104 156.243 182.702 C 158.332 181.813 162.693 182.658 165.363 181.742 C 169.419 186.567 173.737 191.129 176.643 197.102 Z "/>
    <path id="ID0.5257096942514181" fill="#575195" d="M 229.204 185.583 C 230.244 185.583 231.284 185.583 232.324 185.583 C 231.832 185.980 229.696 185.980 229.204 185.583 Z "/>
    <path id="ID0.7709397957660258" fill="#575195" d="M 132.963 186.062 C 134.646 185.504 137.361 185.981 139.443 185.822 C 137.761 186.380 135.045 185.904 132.963 186.062 Z "/>
    <path id="ID0.7930399398319423" fill="#575195" d="M 148.564 186.062 C 149.688 186.217 151.437 185.749 152.164 186.302 C 151.039 186.147 149.290 186.616 148.564 186.062 Z "/>
    <path id="ID0.24592408258467913" fill="#575195" d="M 236.404 189.663 C 233.995 195.434 227.307 199.843 220.324 202.383 C 210.285 206.034 198.265 209.171 186.484 205.742 C 190.514 199.657 198.853 196.341 206.883 193.263 C 213.304 190.802 220.855 189.401 228.003 188.943 C 230.639 188.773 234.098 188.684 236.404 189.663 Z "/>
    <path id="ID0.6205032602883875" fill="#575195" d="M 153.124 190.623 C 143.208 200.310 121.739 204.766 103.204 200.942 C 107.493 196.461 115.487 194.230 122.884 192.062 C 130.466 189.840 143.430 187.743 153.124 190.623 Z "/>
    <path id="ID0.03642361471429467" fill="#DBC33F" d="M 190.564 211.022 C 190.514 211.773 190.725 212.784 190.324 213.182 C 185.654 213.366 179.514 211.952 175.444 210.062 C 175.490 206.974 176.216 202.525 179.044 201.422 C 180.896 205.245 181.846 209.427 186.484 210.302 C 187.745 210.541 189.586 209.814 190.564 211.022 Z "/>
    <path id="ID0.4130667638964951" fill="#DBC33F" d="M 120.244 213.182 C 120.084 213.182 119.924 213.182 119.764 213.182 C 118.866 210.982 120.951 207.665 121.684 205.502 C 124.875 205.960 127.697 205.078 130.804 204.781 C 130.736 207.053 130.311 210.992 129.124 212.941 C 127.152 212.809 125.868 213.365 123.844 213.181 C 122.644 213.182 121.443 213.182 120.244 213.182 Z "/>
    <path id="ID0.016335110180079937" fill="#DBC33F" d="M 117.124 205.742 C 116.858 208.677 116.202 211.220 114.964 213.182 C 111.013 212.813 107.462 212.044 103.684 211.502 C 103.802 208.980 105.250 207.788 105.844 205.741 C 109.675 205.282 113.060 205.825 117.124 205.742 Z "/>
    <path id="ID0.5478088124655187" fill="#DBC33F" d="M 198.963 210.782 C 200.746 210.886 201.933 210.392 203.524 210.303 C 204.060 213.479 201.104 213.163 198.484 213.183 C 197.675 213.335 196.255 212.873 195.843 213.423 C 195.251 213.454 194.687 213.459 194.404 213.183 C 193.841 212.550 194.364 211.546 194.404 210.783 C 194.964 210.783 195.524 210.783 196.084 210.783 C 196.498 211.180 198.549 211.180 198.963 210.782 Z "/>
    <path id="ID0.24085688032209873" fill="#575195" d="M 196.083 210.782 C 197.043 210.782 198.003 210.782 198.963 210.782 C 198.549 211.180 196.498 211.180 196.083 210.782 Z "/>
    <path id="ID0.9145987532101572" fill="#575195" d="M 207.124 210.782 C 206.972 211.591 207.434 213.011 206.884 213.423 C 207.036 212.614 206.575 211.193 207.124 210.782 Z "/>
    <path id="ID0.16282953787595034" fill="#575195" d="M 120.244 213.182 C 121.444 213.182 122.644 213.182 123.844 213.182 C 123.194 213.581 120.893 213.581 120.244 213.182 Z "/>
    <path id="ID0.23483813274651766" fill="#575195" d="M 195.843 213.422 C 196.254 212.872 197.675 213.334 198.484 213.182 C 198.073 213.731 196.652 213.270 195.843 213.422 Z "/>
    <path id="ID0.7456827252171934" fill="#575195" d="M 117.844 216.782 C 117.508 217.180 115.540 217.180 115.204 216.782 C 116.083 216.782 116.963 216.782 117.844 216.782 Z "/>
    <path id="ID0.09425202198326588" fill="#575195" d="M 124.083 216.782 C 123.591 217.180 121.455 217.180 120.963 216.782 C 122.003 216.782 123.043 216.782 124.083 216.782 Z "/>
    <path id="ID0.28191593708470464" fill="#575195" d="M 198.723 217.022 C 196.642 216.864 193.925 217.340 192.244 216.782 C 194.325 216.941 197.042 216.464 198.723 217.022 Z "/>
    <path id="ID0.07562388386577368" fill="#575195" d="M 161.284 4.622 C 162.246 4.933 163.369 5.398 164.164 4.622 C 163.753 5.727 161.853 5.316 161.284 4.622 Z "/>
    <path id="ID0.7757023172453046" fill="#575195" d="M 98.884 26.462 C 100.303 24.842 101.823 23.322 103.444 21.902 C 102.024 23.522 100.504 25.042 98.884 26.462 Z "/>
    <path id="ID0.2452681688591838" fill="#DBC33F" d="M 88.804 59.342 C 89.663 58.281 90.623 57.321 91.684 56.462 C 90.824 57.522 89.864 58.482 88.804 59.342 Z "/>
    <path id="ID0.6971617452800274" fill="#575195" d="M 20.164 98.942 C 21.704 100.282 23.144 101.722 24.484 103.262 C 22.943 101.922 21.503 100.482 20.164 98.942 Z "/>
    <path id="ID0.6445579947903752" fill="#575195" d="M 1.924 90.542 C 1.524 90.542 1.124 90.542 0.724 90.542 C 0.569 90.118 -0.460 89.351 0.244 88.862 C 0.129 89.617 0.586 89.800 0.724 90.302 C 1.072 90.434 1.964 90.022 1.924 90.542 Z "/>
    <path id="ID0.36794501217082143" fill="#575195" d="M 79.204 202.623 C 77.830 201.276 76.166 200.221 74.884 198.782 C 76.399 199.986 78.027 201.080 79.204 202.623 Z "/>
    <path id="ID0.3019938957877457" fill="#575195" d="M 148.803 198.302 C 148.874 197.632 151.350 196.810 150.484 198.062 C 150.388 196.939 149.295 198.294 148.803 198.302 Z "/>
    <path id="ID0.05332130752503872" fill="#575195" d="M 153.124 204.062 C 151.970 203.376 151.046 202.460 150.244 201.422 C 151.221 202.285 152.214 203.131 153.124 204.062 Z "/>
    <path id="ID0.9612792315892875" fill="#DBC33F" d="M 222.484 160.623 C 221.423 159.763 220.463 158.803 219.604 157.743 C 220.664 158.602 221.624 159.562 222.484 160.623 Z "/>
    <path id="ID0.5925046391785145" fill="#575195" d="M 282.484 137.102 C 283.204 136.382 284.338 136.077 285.364 135.663 C 284.539 136.278 283.578 136.756 282.484 137.102 Z "/>
    <path id="ID0.4646451766602695" fill="#DBC33F" d="M 302.404 124.142 C 303.424 122.922 304.544 121.802 305.763 120.783 C 304.744 122.002 303.624 123.123 302.404 124.142 Z "/>
    <path id="ID0.6355223706923425" fill="#DBC33F" d="M 313.444 63.902 C 312.464 63.122 311.584 62.242 310.803 61.262 C 311.784 62.042 312.664 62.922 313.444 63.902 Z "/>
    <path id="ID0.22479699784889817" fill="#575195" d="M 260.164 82.622 C 262.264 84.522 264.264 86.522 266.164 88.622 C 264.063 86.722 262.063 84.722 260.164 82.622 Z "/>
    <path id="ID0.8843145607970655" fill="#575195" d="M 228.003 40.622 C 229.133 41.572 230.263 42.523 230.883 43.982 C 230.009 42.777 228.960 41.745 228.003 40.622 Z "/>
    <path id="ID0.017334839794784784" fill="#575195" d="M 223.444 36.542 C 224.771 37.614 226.282 38.503 227.284 39.902 C 226.083 38.703 224.534 37.852 223.444 36.542 Z "/>
    <path id="ID0.9803268881514668" fill="#575195" d="M 198.244 9.182 C 199.385 10.122 200.425 11.162 201.364 12.302 C 200.223 11.363 199.183 10.323 198.244 9.182 Z "/>
    <path id="ID0.07201585499569774" fill="#575195" d="M 195.843 6.542 C 196.743 7.241 197.544 8.042 198.243 8.942 C 197.343 8.243 196.543 7.443 195.843 6.542 Z "/>
    <path id="ID0.7526150210760534" fill="#575195" d="M 318.963 88.622 C 318.951 89.891 318.856 91.075 318.484 91.982 C 318.496 90.714 318.590 89.529 318.963 88.622 Z "/>
    <path id="ID0.29089867835864425" fill="#575195" d="M 318.003 95.342 C 317.989 96.448 317.892 97.471 317.524 98.222 C 317.538 97.116 317.634 96.093 318.003 95.342 Z "/>
    <path id="ID0.03350999066606164" fill="#575195" d="M 262.083 142.623 C 262.791 142.211 263.814 142.114 264.963 142.143 C 264.212 142.511 263.106 142.524 262.083 142.623 Z "/>
    <path id="ID0.07644989481195807" fill="#575195" d="M 189.843 216.782 C 188.697 216.568 187.194 216.713 186.243 216.303 C 187.626 216.279 188.998 216.268 189.843 216.782 Z "/>
    <path id="ID0.7952273059636354" fill="#575195" d="M 182.643 215.822 C 181.736 215.610 180.582 215.643 180.003 215.102 C 180.911 215.315 182.064 215.282 182.643 215.822 Z "/>
    <path id="ID0.638543285895139" fill="#575195" d="M 133.683 210.782 C 133.561 211.621 133.576 212.595 133.204 213.182 C 133.170 212.189 133.270 211.329 133.683 210.782 Z "/>
    <path id="ID0.4977163621224463" fill="#575195" d="M 126.484 216.782 C 127.307 216.166 129.460 216.879 130.324 216.303 C 129.753 217.172 127.774 216.632 126.484 216.782 Z "/>
    <path id="ID0.31632310152053833" fill="#575195" d="M 81.844 174.302 C 83.104 174.493 82.231 176.734 82.084 177.662 C 81.802 176.209 82.750 174.989 81.844 174.302 Z "/>
    <path id="ID0.8034718376584351" fill="#575195" d="M 57.364 114.783 C 58.014 114.393 59.135 114.473 60.004 114.303 C 59.418 114.756 58.439 114.818 57.364 114.783 Z "/>
    <path id="ID0.7498517818748951" fill="#575195" d="M 0.244 88.622 C 0.527 87.620 2.426 86.973 3.604 87.662 C 1.967 87.466 0.918 87.857 0.244 88.622 Z "/>
    <path id="ID0.7586542554199696" fill="#575195" d="M 8.884 83.822 C 9.511 84.315 9.247 85.699 9.604 86.462 C 8.923 86.023 9.166 84.660 8.884 83.822 Z "/>
    <path id="ID0.5808463012799621" fill="#575195" d="M 12.003 79.742 C 12.417 80.288 12.517 81.149 12.483 82.142 C 12.112 81.554 12.125 80.580 12.003 79.742 Z "/>
    <path id="ID0.8389096767641604" fill="#575195" d="M 49.924 111.663 C 50.635 111.254 51.900 111.398 52.804 111.183 C 52.180 111.678 51.073 111.691 49.924 111.663 Z "/>
    <path id="ID0.17268537729978561" fill="#575195" d="M 174.963 0.782 C 175.549 0.328 176.527 0.267 177.604 0.302 C 176.953 0.691 175.833 0.611 174.963 0.782 Z "/>
    <path id="ID0.06331206718459725" fill="#575195" d="M 98.884 7.262 C 99.561 6.654 100.961 5.507 102.004 6.062 C 100.538 6.037 99.965 6.903 98.884 7.262 Z "/>
    <path id="ID0.10875650634989142" fill="#DBC33F" d="M 92.164 16.622 C 92.944 15.642 93.824 14.762 94.804 13.982 C 94.024 14.963 93.144 15.843 92.164 16.622 Z "/>
    <path id="ID0.19265629816800356" fill="#242327" d="M 220.803 53.342 C 221.433 53.223 224.490 52.884 226.083 53.342 C 231.396 54.866 236.591 63.268 237.363 70.382 C 237.789 74.307 237.498 78.116 235.682 80.702 C 233.008 84.511 227.366 84.860 222.962 83.342 C 213.103 79.943 206.267 56.085 220.803 53.342 Z M 228.963 79.982 C 238.184 78.115 231.777 60.559 226.564 57.902 C 221.419 55.280 215.856 59.229 216.484 64.862 C 224.009 60.456 226.884 74.309 219.604 74.942 C 220.615 77.771 222.716 79.509 226.083 79.982 C 226.498 80.380 228.549 80.380 228.963 79.982 Z "/>
    <path id="ID0.08780940715223551" fill="#242327" d="M 32.404 129.902 C 32.224 127.636 32.920 125.533 35.284 126.543 C 35.899 127.729 35.309 129.541 35.284 130.862 C 34.887 131.121 34.887 133.004 35.284 133.262 C 35.284 133.342 35.284 133.422 35.284 133.502 C 35.436 134.310 34.975 135.731 35.524 136.142 C 35.970 140.897 38.769 143.297 40.084 147.182 C 34.888 148.107 33.199 141.089 32.404 136.142 C 32.404 134.062 32.404 131.982 32.404 129.902 Z "/>
    <path id="ID0.7489289534278214" fill="#242327" d="M 47.284 132.062 C 47.444 130.462 47.348 128.606 48.244 127.743 C 50.801 127.491 50.828 129.693 50.164 131.583 C 49.765 132.629 49.765 135.337 50.164 136.383 C 50.164 136.463 50.164 136.543 50.164 136.623 C 50.146 137.841 50.107 139.080 50.644 139.743 C 50.959 143.278 53.073 146.260 53.284 149.102 C 47.825 148.938 47.944 140.298 47.044 134.703 C 47.593 134.292 47.132 132.871 47.284 132.062 Z "/>
    <path id="ID0.534900744445622" fill="#575195" d="M 50.164 136.623 C 50.592 137.394 50.387 138.800 50.644 139.743 C 50.106 139.080 50.146 137.840 50.164 136.623 Z "/>
    <path id="ID0.2902208506129682" fill="#242327" d="M 102.003 6.063 C 102.282 6.024 102.430 6.116 102.483 6.303 C 103.383 8.676 100.686 9.674 99.363 10.623 C 97.740 11.787 96.096 12.859 94.803 13.983 C 93.823 14.762 92.943 15.643 92.163 16.623 C 89.507 19.887 88.475 24.776 86.643 28.863 C 82.656 28.509 85.406 22.982 86.643 20.223 C 89.139 14.655 94.086 9.497 98.883 7.263 C 99.965 6.903 100.538 6.037 102.003 6.063 Z "/>
    <path id="ID0.2564794016070664" fill="#242327" d="M 177.604 0.302 C 186.207 -1.097 191.785 2.598 195.843 6.542 C 196.543 7.442 197.343 8.242 198.243 8.942 C 198.243 9.022 198.243 9.102 198.243 9.182 C 199.182 10.323 200.222 11.363 201.363 12.302 C 205.846 17.658 209.303 24.041 212.883 30.302 C 216.637 32.149 220.251 34.134 223.444 36.542 C 224.534 37.852 226.084 38.702 227.284 39.902 C 227.630 40.036 227.870 40.277 228.004 40.622 C 228.961 41.745 230.010 42.777 230.884 43.982 C 241.729 55.778 249.315 70.831 260.164 82.622 C 262.063 84.722 264.063 86.722 266.164 88.622 C 270.280 92.872 280.433 99.195 288.004 94.862 C 289.617 93.939 290.834 92.408 292.084 90.302 C 292.934 88.869 295.016 86.309 294.724 84.302 C 294.454 82.447 291.100 81.269 289.924 79.742 C 288.229 77.542 288.001 75.927 287.525 72.782 C 287.525 71.182 287.525 69.582 287.525 67.982 C 287.689 56.809 304.152 54.525 310.804 61.262 C 311.584 62.242 312.464 63.122 313.445 63.902 C 318.143 69.241 320.279 78.748 318.965 88.622 C 318.592 89.529 318.497 90.714 318.486 91.982 C 318.450 93.226 318.311 94.367 318.006 95.342 C 317.637 96.093 317.540 97.116 317.527 98.222 C 316.037 108.172 311.126 114.701 305.766 120.783 C 304.546 121.803 303.426 122.923 302.407 124.142 C 297.340 128.595 291.863 132.638 285.367 135.663 C 284.341 136.077 283.207 136.383 282.487 137.102 C 277.238 139.373 271.697 141.352 264.966 142.142 C 263.818 142.114 262.794 142.210 262.086 142.622 C 260.690 142.745 259.400 142.976 257.766 142.861 C 256.642 143.017 254.892 142.548 254.166 143.101 C 253.366 143.101 252.565 143.101 251.766 143.101 C 251.199 142.549 249.613 143.015 248.646 142.861 C 245.567 142.965 241.124 142.395 238.086 141.662 C 237.750 141.264 235.782 141.264 235.446 141.662 C 230.746 143.251 226.254 147.986 222.725 151.981 C 221.495 153.376 217.839 156.573 219.606 157.742 C 220.465 158.802 221.425 159.762 222.486 160.622 C 227.937 166.569 232.215 173.440 236.645 181.262 C 237.881 183.444 240.497 186.729 240.725 188.702 C 241.003 191.101 238.868 194.497 237.366 196.141 C 230.676 203.468 218.288 206.752 207.366 209.821 C 207.396 210.252 207.072 210.328 207.126 210.781 C 206.577 211.192 207.038 212.613 206.886 213.422 C 206.843 217.299 201.681 216.056 198.726 217.022 C 197.044 216.464 194.328 216.941 192.247 216.782 C 191.447 216.782 190.646 216.782 189.847 216.782 C 189.001 216.268 187.630 216.279 186.247 216.303 C 184.925 216.265 183.859 215.970 182.646 215.823 C 182.067 215.283 180.914 215.316 180.006 215.103 C 169.492 212.977 161.360 208.468 153.126 204.063 C 152.217 203.132 151.224 202.286 150.246 201.423 C 149.620 200.434 150.236 198.943 150.486 198.063 C 151.352 196.811 148.877 197.633 148.805 198.303 C 144.563 200.220 140.395 202.212 135.366 203.343 C 134.608 205.625 134.412 208.469 133.685 210.782 C 133.272 211.329 133.172 212.189 133.206 213.182 C 133.090 215.066 132.073 216.049 130.326 216.302 C 129.462 216.878 127.309 216.165 126.486 216.781 C 125.686 216.781 124.886 216.781 124.086 216.781 C 123.046 216.781 122.006 216.781 120.966 216.781 C 119.926 216.781 118.886 216.781 117.846 216.781 C 116.966 216.781 116.086 216.781 115.206 216.781 C 99.566 215.701 88.001 210.546 79.206 202.622 C 78.029 201.079 76.402 199.985 74.886 198.781 C 73.072 196.281 76.001 193.281 77.046 190.861 C 78.852 186.677 80.851 181.685 82.086 177.662 C 82.233 176.733 83.107 174.493 81.846 174.302 C 69.975 168.093 65.871 154.116 61.206 140.702 C 61.206 138.222 61.206 135.742 61.206 133.262 C 61.206 132.702 61.206 132.142 61.206 131.582 C 61.757 131.093 61.293 129.589 61.446 128.702 C 61.529 123.505 62.118 118.814 62.886 114.302 C 62.165 113.756 60.826 114.198 60.006 114.302 C 59.137 114.473 58.017 114.393 57.366 114.782 C 55.660 115.076 53.834 115.250 51.846 115.261 C 49.206 115.261 46.566 115.261 43.926 115.261 C 33.598 113.608 24.752 109.576 18.726 103.501 C 17.475 102.239 16.047 100.264 14.886 98.461 C 13.853 96.857 12.906 94.391 11.286 93.181 C 8.894 91.395 5.001 91.267 1.926 90.541 C 1.966 90.020 1.074 90.432 0.726 90.301 C 0.588 89.799 0.131 89.616 0.246 88.861 C 0.246 88.781 0.246 88.701 0.246 88.621 C 0.921 87.856 1.970 87.465 3.606 87.661 C 6.322 87.585 8.044 88.503 10.086 89.101 C 10.163 87.984 9.607 87.499 9.606 86.461 C 9.249 85.698 9.513 84.314 8.886 83.821 C 7.232 80.782 10.003 76.010 12.006 79.741 C 12.128 80.579 12.114 81.553 12.486 82.141 C 12.580 83.967 13.562 84.905 13.446 86.941 C 15.331 84.304 16.595 76.886 21.126 79.981 C 21.699 82.013 19.140 82.960 18.246 84.781 C 15.659 90.053 16.697 95.225 20.166 98.941 C 21.506 100.481 22.946 101.921 24.486 103.261 C 30.094 107.253 35.911 111.036 44.886 111.661 C 45.773 112.059 48.319 112.059 49.206 111.661 C 49.446 111.661 49.686 111.661 49.926 111.661 C 51.075 111.689 52.182 111.677 52.806 111.181 C 57.931 110.306 61.652 108.027 64.566 104.941 C 66.744 83.839 77.818 71.634 88.806 59.341 C 89.866 58.481 90.826 57.521 91.686 56.461 C 92.438 55.213 93.937 54.712 94.806 53.581 C 94.437 52.750 94.594 51.393 94.566 50.221 C 94.566 46.381 94.566 42.541 94.566 38.701 C 94.774 33.389 96.597 29.693 98.886 26.461 C 100.506 25.041 102.026 23.521 103.446 21.901 C 114.999 11.854 129.102 4.357 147.607 1.261 C 147.926 1.261 148.247 1.261 148.567 1.261 C 149.134 1.813 150.720 1.347 151.686 1.501 C 155.174 2.253 158.042 3.625 161.287 4.621 C 161.856 5.315 163.757 5.725 164.167 4.621 C 167.477 3.051 170.751 1.445 174.967 0.781 C 175.833 0.611 176.953 0.691 177.604 0.302 Z M 194.164 10.862 C 192.405 9.159 190.900 7.104 189.364 5.822 C 184.222 1.532 172.914 4.637 167.763 7.262 C 172.078 11.028 176.980 14.206 181.683 17.582 C 186.452 16.493 192.795 20.227 187.923 22.862 C 189.725 23.332 190.304 25.575 192.723 25.982 C 197.177 26.731 203.373 24.785 206.404 27.902 C 204.108 21.866 198.692 15.248 194.164 10.862 Z M 157.204 7.022 C 155.443 6.486 153.419 5.590 151.683 5.342 C 143.575 4.184 137.955 7.636 132.003 9.902 C 123.204 13.252 115.069 17.197 108.243 22.862 C 105.108 25.464 100.520 29.422 99.363 32.462 C 98.631 34.384 98.466 37.776 98.163 40.622 C 97.835 43.700 97.758 47.081 97.923 49.982 C 98.546 60.925 99.708 69.600 102.483 77.822 C 104.437 83.611 108.639 91.299 112.323 94.862 C 119.927 102.216 136.310 106.337 149.762 107.102 C 157.226 107.527 165.753 106.456 170.162 103.262 C 172.269 101.736 173.980 98.940 175.922 96.782 C 181.983 90.045 186.938 83.213 191.523 75.182 C 192.325 72.065 192.944 68.764 196.323 68.222 C 197.541 71.078 196.115 74.544 194.883 77.102 C 194.222 78.475 192.629 79.903 191.763 81.422 C 190.776 83.155 190.185 84.661 189.123 86.222 C 186.093 90.679 182.532 95.052 179.283 99.422 C 174.447 105.926 169.554 109.511 159.603 110.462 C 147.706 111.599 138.231 109.748 127.682 106.622 C 119.932 104.325 113.318 102.018 108.482 96.542 C 104.741 92.305 101.744 86.061 99.842 79.982 C 97.888 73.738 95.184 66.981 95.282 59.582 C 92.506 60.478 90.866 63.588 88.802 65.822 C 84.484 70.495 80.623 75.100 77.042 80.462 C 75.301 83.069 73.095 85.859 72.002 88.622 C 70.756 91.772 70.078 95.910 69.122 99.902 C 67.268 107.647 65.778 115.736 65.042 124.142 C 64.653 128.581 63.840 133.514 64.322 137.822 C 64.908 143.060 67.942 149.211 70.322 154.383 C 74.181 162.769 78.555 170.023 87.362 172.383 C 87.193 168.700 82.742 168.057 82.802 164.943 C 87.798 162.390 89.691 168.592 91.202 172.143 C 94.391 179.639 98.552 188.741 100.562 196.863 C 107.992 193.413 115.471 190.012 124.322 187.983 C 121.940 181.727 121.389 171.415 127.681 169.023 C 131.402 167.610 135.323 169.248 138.482 171.423 C 140.323 169.424 141.503 166.765 145.202 166.623 C 143.488 162.736 140.575 160.049 138.482 156.543 C 136.654 154.521 132.331 152.737 133.921 148.862 C 137.072 148.590 138.919 151.613 140.641 153.423 C 147.135 160.246 152.128 168.575 154.801 178.623 C 156.871 178.998 160.171 178.998 162.241 178.623 C 162.799 176.341 158.624 175.836 159.601 173.102 C 162.535 171.889 164.789 174.934 166.321 176.703 C 172.849 184.236 178.947 192.727 183.601 201.663 C 190.342 196.725 197.855 192.558 206.401 189.423 C 203.474 184.319 201.405 172.687 208.321 170.463 C 211.181 169.543 215.080 170.634 217.680 171.902 C 218.986 169.767 220.816 168.158 222.720 166.623 C 218.519 161.591 213.422 157.019 208.321 152.942 C 206.717 151.661 204.021 150.239 204.481 147.663 C 209.835 146.529 212.259 152.320 216.241 154.142 C 219.921 148.700 226.070 144.454 229.441 139.502 C 224.512 137.630 220.624 134.719 216.720 131.821 C 214.185 131.666 209.907 133.858 208.800 132.061 C 207.005 129.147 212.928 128.958 215.280 128.221 C 216.220 125.322 214.792 120.053 219.120 120.541 C 221.223 122.289 219.411 126.377 219.600 129.181 C 222.198 131.008 223.871 132.091 226.079 133.261 C 228.276 134.425 230.568 136.031 233.039 136.861 C 240.197 139.268 249.996 139.709 258.719 139.261 C 273.373 138.509 288.046 131.694 297.360 123.901 C 307.530 115.392 314.552 103.516 315.599 87.901 C 316.319 77.184 313.546 67.496 307.200 63.421 C 303.889 61.295 296.980 61.516 294.240 63.181 C 288.265 66.812 290.858 80.909 299.040 79.981 C 301.627 79.688 303.649 75.996 306 78.781 C 304.883 81.744 302.902 83.843 299.280 84.301 C 296.816 92.439 293.020 100.199 283.200 100.381 C 271.804 100.592 265.108 92.823 258.720 86.461 C 252.089 79.857 246.798 72.015 241.920 64.861 C 236.788 57.335 231.728 48.908 225.601 42.781 C 222.412 39.592 218.467 37.264 214.080 35.101 C 208.571 32.386 202.173 29.365 195.840 29.821 C 196.355 31.616 198.749 35.244 195.601 35.341 C 194.002 35.390 190.487 30.104 188.880 28.621 C 185.859 25.833 183.341 24.157 181.200 22.621 C 179.530 23.698 178.292 25.085 177.360 27.181 C 176.497 29.121 176.756 32.285 173.520 31.981 C 171.591 27.397 174.834 22.223 177.360 19.741 C 170.760 15.415 165.456 9.533 157.204 7.022 Z M 232.324 185.583 C 232.898 185.437 233.419 185.237 234.244 185.343 C 233.483 182.948 231.900 180.595 230.164 177.663 C 229.430 176.423 226.550 170.521 225.124 170.223 C 223.529 169.889 221.785 171.990 221.524 173.343 C 220.543 178.420 226.116 181.612 226.324 185.583 C 227.284 185.583 228.244 185.583 229.204 185.583 C 229.696 185.980 231.832 185.980 232.324 185.583 Z M 152.164 186.302 C 152.564 186.302 152.964 186.302 153.364 186.302 C 151.898 182.416 150.793 173.531 148.084 171.422 C 146.347 170.068 143.097 170.690 142.084 172.382 C 139.625 176.492 144.900 181.091 144.484 185.582 C 145.792 185.794 146.864 186.241 148.564 186.061 C 149.290 186.616 151.039 186.147 152.164 186.302 Z M 139.444 185.822 C 139.843 185.822 140.244 185.822 140.643 185.822 C 140.037 180.070 137.781 171.504 130.324 172.623 C 124.697 173.467 125.998 182.702 128.164 186.782 C 129.585 186.363 131.028 185.967 132.964 186.062 C 135.045 185.904 137.761 186.380 139.444 185.822 Z M 211.444 173.822 C 205.361 173.548 207.550 184.492 210.004 187.742 C 214.694 187.793 217.681 186.139 222.244 186.062 C 220.918 180.913 217.042 174.075 211.444 173.822 Z M 94.563 190.623 C 92.976 185.961 91.132 182.221 90.243 178.623 C 88.833 178.032 87.751 177.114 86.163 176.703 C 84.580 184.399 80.920 190.019 78.483 196.862 C 84.064 202.882 91.303 207.243 99.843 210.302 C 100.456 208.436 101.506 207.005 101.763 204.781 C 95.917 203.299 96.489 196.277 94.563 190.623 Z M 165.364 181.743 C 162.694 182.659 158.333 181.814 156.244 182.703 C 158.305 186.104 158.695 192.884 154.804 194.463 C 154.891 196.550 153.778 197.436 154.084 199.742 C 158.950 203.596 164.760 206.507 171.605 208.383 C 172.804 204.143 174.090 199.988 176.644 197.103 C 173.737 191.129 169.419 186.567 165.364 181.743 Z M 228.003 188.942 C 220.855 189.400 213.304 190.801 206.883 193.262 C 198.853 196.340 190.514 199.657 186.484 205.741 C 198.265 209.170 210.285 206.033 220.324 202.382 C 227.307 199.842 233.995 195.434 236.404 189.662 C 234.098 188.684 230.639 188.773 228.003 188.942 Z M 122.884 192.062 C 115.487 194.230 107.492 196.460 103.204 200.942 C 121.739 204.765 143.208 200.309 153.124 190.623 C 143.430 187.743 130.466 189.840 122.884 192.062 Z M 186.484 210.302 C 181.845 209.427 180.895 205.245 179.044 201.422 C 176.217 202.525 175.490 206.974 175.444 210.062 C 179.514 211.952 185.654 213.366 190.324 213.182 C 190.725 212.784 190.514 211.773 190.564 211.022 C 189.586 209.814 187.745 210.541 186.484 210.302 Z M 123.844 213.182 C 125.867 213.366 127.152 212.810 129.124 212.942 C 130.311 210.993 130.735 207.054 130.804 204.782 C 127.698 205.079 124.876 205.961 121.684 205.503 C 120.951 207.666 118.866 210.982 119.764 213.183 C 119.924 213.183 120.084 213.183 120.244 213.183 C 120.893 213.581 123.194 213.581 123.844 213.182 Z M 105.844 205.742 C 105.250 207.789 103.802 208.980 103.684 211.503 C 107.461 212.045 111.013 212.814 114.964 213.183 C 116.202 211.220 116.859 208.677 117.124 205.743 C 113.060 205.825 109.675 205.282 105.844 205.742 Z M 198.484 213.182 C 201.104 213.162 204.060 213.478 203.524 210.302 C 201.933 210.392 200.747 210.885 198.963 210.781 C 198.003 210.781 197.043 210.781 196.083 210.781 C 195.523 210.781 194.963 210.781 194.403 210.781 C 194.363 211.545 193.840 212.549 194.403 213.181 C 194.686 213.457 195.251 213.452 195.842 213.421 C 196.652 213.270 198.073 213.731 198.484 213.182 Z "/>
    <path id="ID0.6718802913092077" fill="#242327" d="M 261.124 150.783 C 262.368 150.378 262.948 151.432 264.244 151.743 C 267.840 152.603 273.061 151.556 276.004 150.543 C 276.967 150.211 278.641 150.521 278.644 151.982 C 278.652 155.426 258.957 158.494 261.124 150.783 Z "/>
    <path id="ID0.2814168934710324" fill="#FFFFFF" d="M 226.083 79.982 C 222.716 79.509 220.614 77.771 219.604 74.942 C 226.884 74.309 224.009 60.456 216.484 64.862 C 215.856 59.229 221.420 55.280 226.564 57.902 C 231.778 60.559 238.184 78.115 228.963 79.982 C 228.003 79.982 227.043 79.982 226.083 79.982 Z "/>
  </g>
</svg>