<svg xmlns="http://www.w3.org/2000/svg" width="73mm" height="73mm" viewBox="0 0 73 73"><path d="M.001 0L0 .001v72.997l.001.001H73V.001zm36.493 6.66c16.476 0 29.834 13.36 29.834 29.84S52.97 66.34 36.494 66.34c-16.477 0-29.836-13.36-29.836-29.84S20.017 6.66 36.494 6.66z" fill="#fff" fill-rule="evenodd" stroke-width=".195"/><path d="M36.472 62.671c-14.727 0-25.92-11.28-25.92-26.05 0-14.773 11.253-26.071 25.98-26.071 14.726 0 26.003 11.292 26.003 26.064 0 14.77-11.336 26.057-26.063 26.057M36.515.288C16.52.288.312 16.545.312 36.6c0 20.052 16.209 36.31 36.203 36.31 19.992 0 36.2-16.258 36.2-36.31 0-20.055-16.208-36.312-36.2-36.312" fill="#fff"/><path d="M246.293-233.599c0-45.942-37.246-83.188-83.188-83.188-45.945 0-83.191 37.246-83.191 83.188 0 45.946 37.246 83.192 83.191 83.192 45.942 0 83.188-37.246 83.188-83.192z" fill="none" stroke="#00adef" stroke-width=".867" stroke-miterlimit="10" transform="matrix(.43517 0 0 -.43648 -34.464 -65.362)"/><path d="M38.501 9.205h-.272v-.406h.257c.17 0 .241.068.241.205 0 .124-.073.2-.226.2m-1.75.613h-.15v-.99h.137c.332 0 .481.146.481.483 0 .333-.149.507-.467.507m2.13-.346v-.006a.5.5 0 0 0 .352-.497c0-.365-.26-.553-.72-.553h-.785v.63h-.004c-.096-.381-.414-.63-.997-.63h-1.103l-.168.74c-.036.152-.067.346-.067.346h-.005s-.037-.215-.073-.368l-.144-.718h-.605l-.145.718c-.036.153-.073.368-.073.368h-.005s-.03-.194-.065-.346l-.168-.74h-.55l.484 1.812h.552l.274-1.162h.005l.274 1.162h.542l.403-1.505h.005v1.505h.615c.592 0 .918-.272 1.014-.66h.004v.66h.5v-.64h.038c.057 0 .2-.002.278.124l.306.516h.538l-.28-.47a.943.943 0 0 0-.227-.286m1.04-.369a.397.397 0 1 1 0-.796.397.397 0 0 1 0 .796m0-.864a.464.464 0 0 0-.464.467.464.464 0 1 0 .927 0 .464.464 0 0 0-.463-.467m-.28.472l.153-.056v.351l.313-.112v-.467l-.466.168z" fill="#1d385e"/><path d="M21.068 60.657l.998-1.629.166.103-.05.081q.235.002.401.104.214.132.226.33.014.194-.178.508-.192.313-.391.38-.196.066-.459-.096-.137-.085-.236-.18l-.309.503zm1.398-1.205q-.068-.041-.16-.067-.09-.025-.15-.03l-.056-.004-.466.76q.145.124.228.175.182.112.318.053.138-.058.281-.293.144-.234.137-.375-.004-.14-.132-.219z" aria-label="p" font-weight="400" font-size="2.644" font-family="Titillium Web" fill="#1d385e" stroke-width=".436"/><path d="M22.605 60.898l.644-1.155.17.096-.087.157q.278-.026.523.054l-.098.176q-.107-.036-.234-.056-.126-.02-.198-.02l-.074-.003-.474.848z" aria-label="r" font-weight="400" font-size="2.644" font-family="Titillium Web" fill="#1d385e" stroke-width=".436"/><path d="M23.669 60.734q.163-.323.351-.409.189-.085.462.054.275.14.315.342.043.203-.121.526-.164.323-.346.415-.183.09-.47-.055-.287-.147-.321-.348-.034-.202.13-.525zm.182.09q-.13.257-.122.392.011.136.21.237.2.102.312.031.114-.072.245-.332t.112-.391q-.018-.134-.204-.229-.183-.093-.304-.03-.118.062-.249.321z" aria-label="o" font-weight="400" font-size="2.644" font-family="Titillium Web" fill="#1d385e" stroke-width=".436"/><path d="M24.933 62.78q-.289-.13-.369-.262-.079-.128.014-.336.044-.1.115-.143.07-.04.209-.071-.047-.077.007-.197.018-.041.128-.126l.039-.029q-.152-.172-.028-.45.184-.413.635-.211.115.052.204.12l.032.023.361.15-.068.155-.227-.107q.044.116-.029.278-.1.227-.255.268-.15.04-.392-.068-.065-.03-.114-.063-.09.087-.104.118-.034.075.003.115.039.037.27.141.231.104.3.222.07.118-.024.328-.172.384-.707.144zm-.17-.533q-.057.129-.009.208.05.083.24.169.193.086.299.07.108-.016.164-.141.054-.124.01-.187t-.22-.142l-.255-.129q-.105.022-.153.053-.046.032-.076.1zm.466-1q-.064.143-.028.231.038.09.185.156.147.065.237.033t.153-.175q.064-.145.029-.233-.036-.089-.183-.155t-.24-.032q-.09.032-.153.175z" aria-label="g" font-weight="400" font-size="2.644" font-family="Titillium Web" fill="#1d385e" stroke-width=".436"/><path d="M26.008 62.565l.489-1.23.181.073-.066.167q.272-.062.526-.015l-.075.187q-.11-.022-.24-.025-.127-.002-.198.006l-.074.008-.359.902z" aria-label="r" font-weight="400" font-size="2.644" font-family="Titillium Web" fill="#1d385e" stroke-width=".436"/><path d="M28.093 62.359l-.224.64q-.025.094.105.16l-.059.145q-.197-.07-.261-.205-.26.021-.483-.058-.172-.06-.228-.19-.055-.129.009-.311.064-.183.186-.235.123-.055.326-.005l.404.1.038-.107q.045-.128.01-.202-.036-.074-.13-.108-.2-.07-.423-.12l-.08-.02.043-.145q.293.041.504.116.212.075.273.206.062.131-.01.339zm-.946.239q-.08.23.109.296.17.06.354.06h.064l.145-.411-.381-.096q-.116-.03-.185.008-.069.038-.106.142z" aria-label="a" font-weight="400" font-size="2.644" font-family="Titillium Web" fill="#1d385e" stroke-width=".436"/><path d="M28.418 63.439l-.19-.054.356-1.274.188.053-.025.089q.223-.061.404-.01.236.066.293.223.099-.027.241-.028.147-.003.248.026.254.071.302.233.051.16-.048.515l-.189.673-.19-.054.187-.668q.074-.265.05-.376-.022-.114-.188-.16-.083-.024-.18-.024-.095-.002-.15.007l-.054.01q.01.093-.072.381l-.185.663-.191-.054.184-.657q.078-.276.054-.387-.02-.113-.188-.16-.082-.023-.175-.022-.09 0-.143.01l-.05.01zM30.635 64.028l-.194-.038.254-1.3.191.038-.017.091q.217-.078.4-.042.242.047.312.198.095-.035.237-.047.146-.015.25.005.259.051.32.209.063.155-.008.516l-.133.686-.195-.038.133-.68q.053-.27.02-.38-.032-.111-.2-.144-.085-.017-.181-.009-.095.006-.15.02l-.053.013q.017.093-.04.386l-.132.676-.195-.038.131-.67q.055-.281.023-.39-.03-.111-.2-.145-.084-.016-.177-.008-.09.007-.141.021l-.049.015z" aria-label="m" font-weight="400" font-size="2.644" font-family="Titillium Web" fill="#1d385e" stroke-width=".436"/><path d="M32.672 64.395l.187-1.31.196.028-.187 1.31zm.229-1.607l.032-.228.196.028-.032.228z" aria-label="i" font-weight="400" font-size="2.644" font-family="Titillium Web" fill="#1d385e" stroke-width=".436"/><path d="M34.192 64.414h.077l-.011.157q-.304.01-.517-.013-.283-.03-.384-.207-.1-.178-.063-.526.074-.692.623-.633.265.028.38.192.115.162.081.48l-.026.15-.866-.094q-.024.219.044.333.067.113.261.134.197.021.401.027zm-.01-.578q.026-.243-.042-.351-.065-.108-.241-.127-.173-.019-.274.077-.097.096-.125.327z" aria-label="e" font-weight="400" font-size="2.644" font-family="Titillium Web" fill="#1d385e" stroke-width=".436"/><path d="M34.66 64.617l.085-1.321.195.012-.011.18q.24-.144.495-.177l-.013.2q-.112.014-.236.051-.121.038-.187.068l-.068.03-.063.97z" aria-label="r" font-weight="400" font-size="2.644" font-family="Titillium Web" fill="#1d385e" stroke-width=".436"/><path d="M36.495 64.531l.077-.006.001.157q-.302.035-.516.03-.285-.008-.4-.175-.114-.17-.106-.519.017-.696.569-.682.266.006.395.16.128.152.12.472l-.014.15-.87-.02q-.006.219.07.327.077.108.272.112.198.005.402-.006zm-.057-.576q.005-.243-.071-.346-.074-.102-.251-.106-.174-.005-.267.099-.09.104-.098.337z" aria-label="e" font-weight="400" font-size="2.644" font-family="Titillium Web" fill="#1d385e" stroke-width=".436"/><path d="M37.18 64.692l-.198.005-.035-1.323.195-.006.003.093q.21-.125.406-.13.263-.007.357.134.096.14.106.505l.018.7-.195.004-.018-.693q-.008-.275-.066-.375-.055-.101-.232-.097-.085.003-.179.032-.092.026-.141.05l-.05.026z" aria-label="n" font-weight="400" font-size="2.644" font-family="Titillium Web" fill="#1d385e" stroke-width=".436"/><path d="M38.425 64.644l-.019-.301.216-.014.02.301z" aria-label="." font-weight="400" font-size="2.644" font-family="Titillium Web" fill="#1d385e" stroke-width=".436"/><path d="M38.734 63.312l.197-.021.388 1.116.042-.004.192-1.153.205-.022.432 1.085.045-.005.139-1.173.197-.022-.17 1.35-.329.036-.389-1-.167 1.06-.328.036z" aria-label="w" font-weight="400" font-size="2.644" font-family="Titillium Web" fill="#1d385e" stroke-width=".436"/><path d="M41.723 62.325l.32 1.873-.193.034-.015-.09q-.18.15-.376.184-.104.018-.186.005-.083-.013-.162-.07-.164-.116-.23-.494-.064-.381.032-.57.099-.191.39-.241.15-.026.326-.021l-.099-.577zm-.485 1.77q.05.042.1.053.05.01.123-.003.075-.013.162-.052.09-.042.137-.074l.048-.033-.15-.884q-.173-.003-.316.022-.197.034-.254.175-.056.138-.01.405.051.302.16.391z" aria-label="d" font-weight="400" font-size="2.644" font-family="Titillium Web" fill="#1d385e" stroke-width=".436"/><path d="M42.46 64.113l-.277-1.295.19-.04.038.175q.192-.203.429-.306l.042.197q-.104.044-.213.113-.107.07-.162.116l-.057.048.203.95z" aria-label="r" font-weight="400" font-size="2.644" font-family="Titillium Web" fill="#1d385e" stroke-width=".436"/><path d="M43.612 63.859l-.19.052-.35-1.277.189-.051.024.089q.16-.167.34-.217.237-.065.367.04.07-.075.192-.15.124-.078.226-.106.254-.07.379.044.126.111.223.466l.184.674-.191.053-.183-.67q-.072-.265-.15-.348-.078-.085-.243-.04-.084.023-.167.073-.082.048-.124.084l-.043.036q.057.075.135.364l.182.664-.191.052-.18-.658q-.075-.276-.153-.36-.075-.086-.244-.04-.081.023-.16.072-.078.046-.118.082l-.037.035z" aria-label="m" font-weight="400" font-size="2.644" font-family="Titillium Web" fill="#1d385e" stroke-width=".436"/><path d="M46.197 62.096l.226.639q.04.09.184.058l.045.15q-.197.07-.332.006-.188.18-.412.26-.172.06-.296-.005t-.188-.247q-.065-.182-.003-.3.06-.12.25-.21l.377-.177-.038-.107q-.045-.127-.119-.163-.074-.035-.169-.001-.199.07-.404.172l-.074.035-.058-.14q.254-.152.465-.228.212-.075.34-.012.132.063.206.27zm-.585.783q.081.229.27.162.17-.06.313-.177l.05-.04-.146-.412-.356.167q-.108.05-.138.122-.03.073.007.177z" aria-label="a" font-weight="400" font-size="2.644" font-family="Titillium Web" fill="#1d385e" stroke-width=".436"/><path d="M47.182 61.29l.184-.072.488 1.23-.184.073-.035-.086q-.14.184-.319.256-.25.1-.385.002-.133-.098-.272-.45l-.254-.642.184-.074.253.64q.106.268.189.34.083.073.247.008.08-.032.155-.088.074-.058.11-.097l.035-.04z" aria-label="u" font-weight="400" font-size="2.644" font-family="Titillium Web" fill="#1d385e" stroke-width=".436"/><path d="M48.148 61.036q-.262.119-.18.302.039.084.115.093.076.007.307-.052.23-.06.35-.034.12.027.203.213.084.186.003.327-.079.14-.307.244-.15.068-.366.126l-.078.02-.061-.16q.293-.084.432-.147.14-.064.192-.14.054-.08.007-.183-.048-.106-.127-.114-.08-.01-.307.052-.226.062-.345.038-.118-.025-.198-.201-.08-.176.005-.316.087-.141.272-.226.147-.066.384-.133l.072-.018.065.156q-.284.083-.438.153z" aria-label="s" font-weight="400" font-size="2.644" font-family="Titillium Web" fill="#1d385e" stroke-width=".436"/><path d="M49.393 61.745l-.133-.27.194-.097.133.271z" aria-label="." font-weight="400" font-size="2.644" font-family="Titillium Web" fill="#1d385e" stroke-width=".436"/><g aria-label="d" style="-inkscape-font-specification:TitilliumWeb-Regular" font-weight="400" font-size="2.644" font-family="Titillium Web" fill="#1d385e" stroke-width=".436"><path d="M49.943 59.315l.897 1.675-.172.092-.042-.079q-.124.2-.299.293-.093.05-.175.065-.082.014-.175-.014-.193-.058-.374-.397-.183-.34-.151-.55.033-.213.293-.353.135-.073.302-.124l-.276-.515zm.101 1.833q.061.024.112.018.05-.006.116-.041.067-.036.137-.101.071-.069.107-.115l.035-.046-.424-.79q-.163.052-.291.12-.177.096-.186.248-.01.15.118.387.145.27.276.32z"/></g><g aria-label="e" style="-inkscape-font-specification:TitilliumWeb-Regular" font-weight="400" font-size="2.644" font-family="Titillium Web" fill="#1d385e" stroke-width=".436"><path d="M51.91 60.164l.061-.047.085.131q-.236.192-.42.303-.243.148-.43.069-.187-.082-.367-.381-.358-.597.114-.882.229-.138.42-.077.189.058.354.333l.068.135-.746.45q.113.189.235.238.123.05.29-.051.17-.102.336-.221zm-.357-.455q-.125-.21-.245-.254-.117-.047-.269.045-.15.09-.171.227-.02.136.097.337z"/></g><path d="M57.665 56.696l-41.222-.065-5.54-8.047h50.9z" fill="#fff" stroke-width=".436"/></svg>