<svg xmlns="http://www.w3.org/2000/svg" width="283.464" height="82.379"><path d="M252.626 19.587l6.403-2.327v14.535l12.937-4.653V7.804l-19.34 6.977zM264.25 0c-10.611 0-19.215 8.647-19.215 19.316 0 10.669 8.604 19.316 19.215 19.316 10.61 0 19.214-8.647 19.214-19.316C283.464 8.647 274.86 0 264.25 0zm0 35.802c-9.054 0-16.396-7.386-16.396-16.486 0-9.101 7.342-16.481 16.396-16.481 9.051 0 16.396 7.381 16.396 16.481 0 9.101-7.346 16.486-16.396 16.486zm-43.181 15.254v-.211c6.986-2.479 14.644-8.463 14.644-20.631 0-15.097-10.814-22.87-29.966-22.87h-32.503v26.044h-.21c-3.938-15.715-17.194-26.044-41.402-26.044H85.797L78.81 37.986c-1.468 6.309-2.705 14.312-2.705 14.312h-.226s-1.575-8.901-3.042-15.215l-5.978-29.74H41.696l-5.979 29.74c-1.466 6.313-3.042 15.215-3.042 15.215h-.226s-1.236-8.004-2.704-14.312L22.76 7.344H0l20.057 75.035h22.894l11.376-48.11h.226l11.377 48.11h22.528l16.692-62.297h.226v62.297h25.583c24.549 0 38.092-11.265 42.078-27.361h.208v27.361h20.724V55.867h1.584c2.361 0 8.311-.13 11.547 5.106l12.73 21.404h22.307l-11.604-19.491c-3.831-6.533-6.984-10.028-9.464-11.83zm-88.422 14.309h-6.311V24.353h5.745c13.748 0 19.946 6.084 19.946 20.055.001 13.747-6.197 20.957-19.38 20.957zm72.648-25.352h-11.328V23.228h10.653c7.097 0 10.025 2.816 10.025 8.445.001 5.186-3.039 8.34-9.35 8.34z" fill="#00345f"/></svg>