<?xml version="1.0" encoding="UTF-8" standalone="no"?>
<svg
   xmlns:dc="http://purl.org/dc/elements/1.1/"
   xmlns:cc="http://creativecommons.org/ns#"
   xmlns:rdf="http://www.w3.org/1999/02/22-rdf-syntax-ns#"
   xmlns:svg="http://www.w3.org/2000/svg"
   xmlns="http://www.w3.org/2000/svg"
   id="svg20"
   version="1.1"
   viewBox="0 0 39 36.18"
   height="36.18"
   width="39">
  <metadata
     id="metadata26">
    <rdf:RDF>
      <cc:Work
         rdf:about="">
        <dc:format>image/svg+xml</dc:format>
        <dc:type
           rdf:resource="http://purl.org/dc/dcmitype/StillImage" />
        <dc:title>Speichern</dc:title>
      </cc:Work>
    </rdf:RDF>
  </metadata>
  <defs
     id="defs24" />
  <g
     data-name="Ebene 2"
     id="Ebene_2">
    <g
       id="Overlay">
      <g
         id="g837">
        <path
           style="fill:#5b84bf;fill-opacity:1"
           fill="#4684a6"
           d="M36.83,31.1C35.09,37.24,10,37.84,3.74,32.74S.22,8.17,3.83,3.45,21.45.22,21.64.23A28,28,0,0,1,34.91,3.28C41.5,6.74,38.57,25,36.83,31.1Z"
           id="path4" />
        <path
           style="fill:#5b84bf;fill-opacity:1"
           fill="#4886aa"
           d="M1.07,17V12c1.43-.63.78-2,1.08-3,1.53-5.31,3.88-6,8.47-7.21,5.75-1.47,11,.39,16.54.39,5,0,9.52,3.32,9.78,6.62.14,1.83,1.16,3.41,1,5.23-3.16,0-7.06-2.31-8.54,2.87-.17.61-1.15.47-1.8.43C18.74,16.78,9.88,19.28,1.07,17Z"
           id="path6" />
        <path
           style="fill:#5b84bf;fill-opacity:1"
           fill="#4989ad"
           d="M1.07,17c8.81,2.29,17.67-.21,26.5.3.65,0,1.63.18,1.8-.43C30.85,11.68,34.75,14,37.91,14a93,93,0,0,1-1.58,12.43c-.46,2-.4,4.2-2.21,5.69a10.08,10.08,0,0,0-8.94-1.65c-2.28.55-4.95,1.33-6.79,0C13.17,26.66,7.76,27.88,2.24,29c-.26-.74-.08-1.74-1.17-2Z"
           id="path8" />
        <path
           style="fill:#5b84bf;fill-opacity:1"
           fill="#4684a6"
           d="M34.12,32.11c-1.39,2.26-4.42,1.11-6,2.88h-18c-2.78-1.77-6.46-2.37-7.83-6,5.52-1.12,10.93-2.34,16.15,1.45,1.84,1.34,4.51.56,6.79,0A10.08,10.08,0,0,1,34.12,32.11Z"
           id="path10" />
      </g>
      <polygon
         fill="#fff"
         id="polygon12"
         points="12.16 17.09 18.95 23.63 26.64 17.08 12.16 17.09" />
      <polygon
         fill="#fff"
         id="polygon14"
         points="21.9 6.26 16.9 6.95 16.9 17.68 21.41 17.68 21.9 6.26" />
      <polygon
         fill="#fff"
         id="polygon16"
         points="29.32 28.51 9.29 28.51 9.29 26.54 29.71 25.99 29.32 28.51" />
    </g>
  </g>
</svg>
