<svg xmlns="http://www.w3.org/2000/svg" width="55.69" height="51.66" viewBox="0 0 55.69 51.66"><g id="Ebene_2" data-name="Ebene 2"><g id="Overlay"><path d="M52.59,44.41C50.11,53.18,14.33,54,5.35,46.74s-5-35.08.12-41.82S30.63.32,30.9.33a39.89,39.89,0,0,1,19,4.35C59.25,9.63,55.07,35.66,52.59,44.41Z" fill="#dc6831"/><path d="M38.35,49.93h-21c-7.52-1.64-14.09-4.45-16-13v-6c1.79,1.31,4.1,1.35,5.95,2.21,4.68,2.15-3.3,1.7-1,3.74.35.31.47.87.79,1.24,2.06,2.37,3.9,5,7.24,5.81.53,1.41.46,3.59,3,2.6.58-.24,1.36-1.44,1.19-1.86-.9-2.28-2.76-.35-4.14-.73a5.7,5.7,0,0,0-.2-1.45C12.57,38.55,12,35.56,18,37.9c1.36.52,1.76-1.07,2.36-2h2c.37,3.53,3.47,2.74,5,2.26,5.85-1.85,11-1.22,15.91,2.51,1.63,1.24,3.29.4,4.23-1.18.82-1.36,2-2.36-.21-4.45-1.52-1.42-1.71-7.16-.48-8,3.12-2.12,1.62-3.48.38-5.1-1.84-2.4-3.81-1-5.65.19-3.8,2.51-7.62,3.38-12.24,1.8-2.08-.71-5.7-2.31-6.93,2h-2c-.81-1.56-1.45-2.41-3.71-1.46-2.1.88-5,.68-3.11-3.27a16.57,16.57,0,0,0,.81-3.28c1.36-.23,3,1.18,4.06-.38.51-.72-.18-1.64-1-1.91-2-.62-2.55.84-3,2.3-3.29.76-5.12,3.35-7.15,5.7-.63.73-1.28,1.46-.66,2.59,1.32,2.4,1.29,2.4-1.36,2.86-1.29.23-2.56.56-3.83.84v-12C3,16.37,2.73,14.08,3.26,12.15,5.23,5,8.78,1.92,16.13,2c5.17,0,10.31-.4,15.52-.19,9.72.39,18.57,1.65,22.7,12.15v19c-1.55,1.18-1.81,2.83-2.05,4.67-1,7.66-3.62,10.15-11.46,11.31C39.93,49,38.81,48.69,38.35,49.93Z" fill="#dc6831"/><path d="M1.35,29.93c1.27-.28,2.54-.61,3.83-.84,2.65-.46,2.68-.46,1.36-2.86-.62-1.13,0-1.86.66-2.59,2-2.35,3.86-4.94,7.15-5.7h0a16.57,16.57,0,0,1-.81,3.28c-1.89,3.95,1,4.15,3.11,3.27,2.26-.95,2.9-.1,3.71,1.46-.18.88-.93,2.15.62,2.24,1.16.07,1.18-1.31,1.36-2.24,1.23-4.29,4.85-2.69,6.93-2,4.62,1.58,8.44.71,12.24-1.8,1.84-1.23,3.81-2.59,5.65-.19,1.24,1.62,2.74,3-.38,5.1-1.23.84-1,6.58.48,8,2.22,2.09,1,3.09.21,4.45-.94,1.58-2.6,2.42-4.23,1.18-4.9-3.73-10.06-4.36-15.91-2.51-1.52.48-4.62,1.27-5-2.26-.18-.94-.2-2.31-1.36-2.24-1.55.09-.8,1.36-.62,2.24-.6.9-1,2.49-2.36,2-6.05-2.34-5.43.65-3.85,4.59a5.7,5.7,0,0,1,.2,1.45h0c-3.34-.77-5.18-3.44-7.24-5.81-.32-.37-.44-.93-.79-1.24-2.32-2,5.66-1.59,1-3.74-1.85-.86-4.16-.9-5.95-2.21Zm15.06-1.76.06-.38-.36.12Zm-.12,5.53-.07.38.36-.12Z" fill="#db642c"/><path d="M14.35,43.94c1.38.38,3.24-1.55,4.14.73.17.42-.61,1.62-1.19,1.86-2.49,1-2.42-1.19-3-2.6Z" fill="#db642c"/><path d="M14.35,17.94c.5-1.46,1.06-2.92,3-2.3.83.27,1.52,1.19,1,1.91-1.08,1.56-2.7.15-4.06.38Z" fill="#db642c"/><path d="M22.34,25.94c-.18.93-.2,2.31-1.36,2.24-1.55-.09-.8-1.36-.62-2.24Z" fill="#dc6a34"/><path d="M20.36,35.93c-.18-.88-.93-2.15.62-2.24,1.16-.07,1.18,1.3,1.36,2.24Z" fill="#dc6a34"/><polygon points="16.41 28.17 16.11 27.91 16.47 27.79 16.41 28.17" fill="#dc6a34"/><polygon points="16.29 33.7 16.58 33.96 16.22 34.08 16.29 33.7" fill="#dc6a34"/><polygon points="44.56 25.43 27.41 9.9 11.13 25.43 16.79 25.43 16.18 41.52 24.57 41.37 24.69 31.66 31.07 31.27 31.07 41.37 39.63 41.76 38.84 25.43 44.56 25.43" fill="#fff"/></g></g></svg>