<?xml version="1.0" encoding="UTF-8" standalone="no"?>
<svg
   xmlns:dc="http://purl.org/dc/elements/1.1/"
   xmlns:cc="http://creativecommons.org/ns#"
   xmlns:rdf="http://www.w3.org/1999/02/22-rdf-syntax-ns#"
   xmlns:svg="http://www.w3.org/2000/svg"
   xmlns="http://www.w3.org/2000/svg"
   xmlns:sodipodi="http://sodipodi.sourceforge.net/DTD/sodipodi-0.dtd"
   xmlns:inkscape="http://www.inkscape.org/namespaces/inkscape"
   version="1.1"
   id="Capa_1"
   x="0px"
   y="0px"
   width="350.82062"
   height="323.98169"
   viewBox="0 0 350.82062 323.98169"
   xml:space="preserve"
   sodipodi:docname="film.svg"
   inkscape:version="1.0.2 (e86c870879, 2021-01-15, custom)"><sodipodi:namedview
   pagecolor="#ffffff"
   bordercolor="#666666"
   borderopacity="1"
   objecttolerance="10"
   gridtolerance="10"
   guidetolerance="10"
   inkscape:pageopacity="0"
   inkscape:pageshadow="2"
   inkscape:window-width="1920"
   inkscape:window-height="1024"
   id="namedview22"
   showgrid="false"
   inkscape:zoom="1.3442512"
   inkscape:cx="192.9588"
   inkscape:cy="109.07517"
   inkscape:window-x="0"
   inkscape:window-y="28"
   inkscape:window-maximized="1"
   inkscape:current-layer="Capa_1" /><metadata
   id="metadata41"><rdf:RDF><cc:Work
       rdf:about=""><dc:format>image/svg+xml</dc:format><dc:type
         rdf:resource="http://purl.org/dc/dcmitype/StillImage" /><dc:title /></cc:Work></rdf:RDF></metadata><defs
   id="defs39" />
<g
   id="g4"
   transform="rotate(90,228.7608,148.80193)"
   style="fill:#ffffff">
	<path
   d="M 119.547,377.56273 V 334.102 h 53.683 l -0.0219,43.11754 H 310.80641 L 310.792,334.102 h 53.682 l -0.0333,43.11754 h 39.48683 c 0,0 0.0293,-241.23646 -10e-6,-350.382076 0,0 -30.09846,0.325392 -39.48683,0 L 364.474,69.92 h -53.682 l 0.0144,-43.082536 c 0,0 -100.83404,0.0029 -137.59829,0 L 173.23,69.92 H 119.547 V 26.837464 c 0,0 -25.105699,-0.21455 -39.588131,0 0,0 0.190319,241.460726 0.259476,350.725176 z M 310.793,122.192 h 53.682 v 53.684 h -53.682 z m 0,105.954 h 53.682 V 281.83 H 310.793 Z M 119.547,122.192 h 53.683 v 53.684 h -53.683 z m 0,105.954 h 53.683 v 53.684 h -53.683 z"
   id="path2"
   style="fill:#ffffff" />
</g>
<g
   id="g6"
   transform="translate(-26.45827,-79.959869)">
</g>
<g
   id="g8"
   transform="translate(-26.45827,-79.959869)">
</g>
<g
   id="g10"
   transform="translate(-26.45827,-79.959869)">
</g>
<g
   id="g12"
   transform="translate(-26.45827,-79.959869)">
</g>
<g
   id="g14"
   transform="translate(-26.45827,-79.959869)">
</g>
<g
   id="g16"
   transform="translate(-26.45827,-79.959869)">
</g>
<g
   id="g18"
   transform="translate(-26.45827,-79.959869)">
</g>
<g
   id="g20"
   transform="translate(-26.45827,-79.959869)">
</g>
<g
   id="g22"
   transform="translate(-26.45827,-79.959869)">
</g>
<g
   id="g24"
   transform="translate(-26.45827,-79.959869)">
</g>
<g
   id="g26"
   transform="translate(-26.45827,-79.959869)">
</g>
<g
   id="g28"
   transform="translate(-26.45827,-79.959869)">
</g>
<g
   id="g30"
   transform="translate(-26.45827,-79.959869)">
</g>
<g
   id="g32"
   transform="translate(-26.45827,-79.959869)">
</g>
<g
   id="g34"
   transform="translate(-26.45827,-79.959869)">
</g>
</svg>
