<?xml version="1.0" encoding="UTF-8" standalone="no"?>
<svg
   xmlns:dc="http://purl.org/dc/elements/1.1/"
   xmlns:cc="http://creativecommons.org/ns#"
   xmlns:rdf="http://www.w3.org/1999/02/22-rdf-syntax-ns#"
   xmlns:svg="http://www.w3.org/2000/svg"
   xmlns="http://www.w3.org/2000/svg"
   xmlns:sodipodi="http://sodipodi.sourceforge.net/DTD/sodipodi-0.dtd"
   xmlns:inkscape="http://www.inkscape.org/namespaces/inkscape"
   viewBox="0 0 15.71 22"
   version="1.1"
   id="svg12"
   sodipodi:docname="icon_sensing.svg"
   inkscape:version="0.92.3 (2405546, 2018-03-11)">
  <metadata
     id="metadata16">
    <rdf:RDF>
      <cc:Work
         rdf:about="">
        <dc:format>image/svg+xml</dc:format>
        <dc:type
           rdf:resource="http://purl.org/dc/dcmitype/StillImage" />
      </cc:Work>
    </rdf:RDF>
  </metadata>
  <sodipodi:namedview
     pagecolor="#ffffff"
     bordercolor="#666666"
     borderopacity="1"
     objecttolerance="10"
     gridtolerance="10"
     guidetolerance="10"
     inkscape:pageopacity="0"
     inkscape:pageshadow="2"
     inkscape:window-width="1920"
     inkscape:window-height="1016"
     id="namedview14"
     showgrid="false"
     inkscape:zoom="10.727273"
     inkscape:cx="8.4143221"
     inkscape:cy="11"
     inkscape:window-x="0"
     inkscape:window-y="27"
     inkscape:window-maximized="1"
     inkscape:current-layer="svg12" />
  <defs
     id="defs4">
    <style
       id="style2">.cls-1{fill:#6facc1;}</style>
  </defs>
  <title
     id="title6">Element 11</title>
  <g
     id="Ebene_2"
     data-name="Ebene 2"
     style="fill:#ffffff;fill-opacity:1">
    <g
       id="Ebene_2-2"
       data-name="Ebene 2"
       style="fill:#ffffff;fill-opacity:1">
      <path
         class="cls-1"
         d="M4.45,8.63V4.71a2.62,2.62,0,0,1,5.24,0V8.63a4.71,4.71,0,1,0-5.24,0Zm10.31,4.85L10,11.12A1.31,1.31,0,0,0,9.44,11h-.8V4.71a1.57,1.57,0,0,0-3.14,0V16l-3.59-.76a2.13,2.13,0,0,0-.25,0,1.17,1.17,0,0,0-.83.35L0,16.36l5.18,5.18A1.58,1.58,0,0,0,6.29,22H13.4a1.54,1.54,0,0,0,1.51-1.34l.78-5.52a1.83,1.83,0,0,0,0-.21A1.56,1.56,0,0,0,14.76,13.48Z"
         id="path8"
         style="fill:#ffffff;fill-opacity:1" />
    </g>
  </g>
</svg>
