<?xml version="1.0" encoding="UTF-8" standalone="no"?>
<svg
   xmlns:dc="http://purl.org/dc/elements/1.1/"
   xmlns:cc="http://creativecommons.org/ns#"
   xmlns:rdf="http://www.w3.org/1999/02/22-rdf-syntax-ns#"
   xmlns:svg="http://www.w3.org/2000/svg"
   xmlns="http://www.w3.org/2000/svg"
   xmlns:sodipodi="http://sodipodi.sourceforge.net/DTD/sodipodi-0.dtd"
   xmlns:inkscape="http://www.inkscape.org/namespaces/inkscape"
   version="1.1"
   id="Capa_1"
   x="0px"
   y="0px"
   width="350.72519"
   height="323.98169"
   viewBox="0 0 350.72519 323.98169"
   xml:space="preserve"
   sodipodi:docname="icon_film_schraeg.svg"
   inkscape:version="1.0.2 (e86c870879, 2021-01-15, custom)"><metadata
   id="metadata41"><rdf:RDF><cc:Work
       rdf:about=""><dc:format>image/svg+xml</dc:format><dc:type
         rdf:resource="http://purl.org/dc/dcmitype/StillImage" /><dc:title></dc:title></cc:Work></rdf:RDF></metadata><defs
   id="defs39" /><sodipodi:namedview
   pagecolor="#ffffff"
   bordercolor="#666666"
   borderopacity="1"
   objecttolerance="10"
   gridtolerance="10"
   guidetolerance="10"
   inkscape:pageopacity="0"
   inkscape:pageshadow="2"
   inkscape:window-width="1920"
   inkscape:window-height="1024"
   id="namedview37"
   showgrid="false"
   showguides="true"
   inkscape:guide-bbox="true"
   inkscape:zoom="1.3469553"
   inkscape:cx="72.96978"
   inkscape:cy="80.636243"
   inkscape:window-x="0"
   inkscape:window-y="28"
   inkscape:window-maximized="1"
   inkscape:current-layer="Capa_1"><sodipodi:guide
     position="0.34309674,2.4000478"
     orientation="1,0"
     id="guide866" /><sodipodi:guide
     position="43.46064,284.39356"
     orientation="0,-1"
     id="guide868" /><sodipodi:guide
     position="344.94403,323.98169"
     orientation="0,-1"
     id="guide870" /><sodipodi:guide
     position="350.72518,318.18301"
     orientation="1,0"
     id="guide872" /><sodipodi:guide
     position="345.00859,230.73244"
     orientation="0,-1"
     id="guide874" /><sodipodi:guide
     position="344.96014,93.134146"
     orientation="0,-1"
     id="guide876" /><sodipodi:guide
     position="345.00859,39.499881"
     orientation="0,-1"
     id="guide878" /><sodipodi:guide
     position="344.91169,0.013046324"
     orientation="0,-1"
     id="guide880" /></sodipodi:namedview>
<g
   id="g4"
   transform="rotate(90,228.76075,148.80189)"
   style="fill:#ffffff">
	<path
   d="M 119.547,375.49084 V 334.102 h 53.683 l -0.0219,38.8164 137.59831,-7.27489 -0.0144,-31.54151 h 53.682 l -0.0333,28.63623 39.48683,-1.96716 c 0,0 0.0293,-224.78799 0,-333.933606 0,0 -30.09846,1.046817 -39.48683,0.721425 L 364.474,69.92 h -53.682 l 0.0144,-41.457725 c 0,0 -100.83404,2.633551 -137.59829,2.630651 L 173.23,69.92 H 119.547 V 32.074872 c 0,0 -25.105699,0.329192 -39.588131,0.543742 0,0 0.190319,235.679576 0.259476,344.944026 z M 310.793,122.192 h 53.682 v 53.684 h -53.682 z m 0,105.954 h 53.682 V 281.83 H 310.793 Z M 119.547,122.192 h 53.683 v 53.684 h -53.683 z m 0,105.954 h 53.683 v 53.684 h -53.683 z"
   id="path2"
   sodipodi:nodetypes="ccccccccccccccccccccccccccccccccccccccccc"
   style="fill:#ffffff" />
</g>
<g
   id="g6"
   transform="translate(-26.45836,-79.959869)">
</g>
<g
   id="g8"
   transform="translate(-26.45836,-79.959869)">
</g>
<g
   id="g10"
   transform="translate(-26.45836,-79.959869)">
</g>
<g
   id="g12"
   transform="translate(-26.45836,-79.959869)">
</g>
<g
   id="g14"
   transform="translate(-26.45836,-79.959869)">
</g>
<g
   id="g16"
   transform="translate(-26.45836,-79.959869)">
</g>
<g
   id="g18"
   transform="translate(-26.45836,-79.959869)">
</g>
<g
   id="g20"
   transform="translate(-26.45836,-79.959869)">
</g>
<g
   id="g22"
   transform="translate(-26.45836,-79.959869)">
</g>
<g
   id="g24"
   transform="translate(-26.45836,-79.959869)">
</g>
<g
   id="g26"
   transform="translate(-26.45836,-79.959869)">
</g>
<g
   id="g28"
   transform="translate(-26.45836,-79.959869)">
</g>
<g
   id="g30"
   transform="translate(-26.45836,-79.959869)">
</g>
<g
   id="g32"
   transform="translate(-26.45836,-79.959869)">
</g>
<g
   id="g34"
   transform="translate(-26.45836,-79.959869)">
</g>
</svg>
