<?xml version="1.0" encoding="UTF-8" standalone="no"?>
<svg
   xmlns:dc="http://purl.org/dc/elements/1.1/"
   xmlns:cc="http://creativecommons.org/ns#"
   xmlns:rdf="http://www.w3.org/1999/02/22-rdf-syntax-ns#"
   xmlns:svg="http://www.w3.org/2000/svg"
   xmlns="http://www.w3.org/2000/svg"
   version="1.1"
   id="svg2"
   width="511.98276"
   height="511.45145"
   viewBox="0 0 511.98276 511.45145">
  <metadata
     id="metadata8">
    <rdf:RDF>
      <cc:Work
         rdf:about="">
        <dc:format>image/svg+xml</dc:format>
        <dc:type
           rdf:resource="http://purl.org/dc/dcmitype/StillImage" />
        <dc:title></dc:title>
      </cc:Work>
    </rdf:RDF>
  </metadata>
  <defs
     id="defs6" />
  <g
     id="g10"
     transform="translate(-0.09604288,-75.361344)">
    <path
       style="fill:#ffffff;fill-opacity:1"
       d="M 75.578803,585.75813 C 45.919983,581.48421 18.329003,563.65579 7.2130627,541.58235 3.2993427,533.8107 0.07339269,521.2885 0.09616269,513.95667 0.14306269,498.875 6.7545227,482.93445 18.045133,470.6812 c 28.55659,-30.99132 81.33406,-38.93862 121.940237,-18.36191 2.76482,1.40103 5.2669,2.54734 5.56019,2.54734 0.29328,0 0.53575,-73.2375 0.53882,-162.75 0.004,-114.5743 0.329,-163.93404 1.0982,-166.75 1.50073,-5.49403 4.96835,-9.78385 9.54722,-11.81091 4.80118,-2.12549 334.86885,-39.147827 340.349,-38.17556 5.35734,0.950478 10.51229,4.84754 12.87889,9.736213 l 2.1211,4.381705 -0.017,196.434272 c -0.019,218.90262 0.4752,203.66651 -7.0987,218.71594 -13.84387,27.5078 -46.89427,45.21834 -84.38389,45.21834 -19.99681,0 -36.98479,-4.41388 -54.11638,-14.06072 -9.29611,-5.23466 -23.18138,-18.5645 -28.14528,-27.01943 -14.84778,-25.28997 -10.73958,-54.82851 10.64577,-76.54462 29.39605,-29.8507 79.82586,-36.71357 120.16108,-16.35242 l 5.95481,3.00598 V 311.83571 204.776 l -3.25,0.5393 c -1.7875,0.29661 -66.475,7.52998 -143.75,16.07416 -77.275,8.54418 -141.50215,15.75287 -142.727,16.0193 l -2.22701,0.48443 -0.27712,143.23672 c -0.26418,136.54536 -0.36393,143.49365 -2.13543,148.73672 -6.90942,20.44965 -20.8087,35.68418 -41.97829,46.01096 -19.11727,9.32563 -42.078017,12.91781 -63.155147,9.88054 z"
       id="path837" />
  </g>
</svg>
