<svg xmlns="http://www.w3.org/2000/svg" xmlns:xlink="http://www.w3.org/1999/xlink" width="54" height="52" style="isolation:isolate" viewBox="20 20 54 52">
    <g filter="url(#c57PL0bdTzyeaqbld6SBua4ssTQOv3Wv)">
        <g>
            <path fill="rgb(98,149,51)" d=" M 67.528 58.867 C 65.668 66.867 33.808 69.087 25.528 62.867 C 17.248 56.647 19.618 31.517 23.908 25.247 C 28.198 18.977 46.148 20.077 46.398 20.077 C 52.258 19.688 58.123 20.771 63.458 23.227 C 72.048 27.297 69.378 50.887 67.528 58.867 Z "/>
            <path fill="rgb(102,155,53)" d=" M 43.488 20.357 L 44.068 20.357 C 45.814 20.751 47.634 20.668 49.338 20.117 L 49.918 20.117 C 51.248 20.887 52.798 19.737 54.118 20.577 C 54.408 22.847 52.828 22.647 51.788 22.577 C 54.048 21.497 55.328 25.287 57.898 24.417 C 58.12 24.265 58.363 24.144 58.618 24.057 C 60.438 24.197 59.618 25.747 60.018 26.657 C 59.946 27.169 59.812 27.669 59.618 28.147 C 59.408 29.507 59.618 31.347 57.238 29.967 C 55.938 29.207 55.758 30.647 55.098 31.147 C 53.158 31.597 53.288 28.827 51.588 28.897 C 50.868 28.277 53.258 27.737 51.528 26.897 C 50.328 26.277 50.018 26.897 49.528 27.497 C 48.848 28.267 50.348 28.327 50.058 29.007 C 50.029 29.296 49.894 29.564 49.678 29.757 C 48.838 30.086 47.914 30.128 47.048 29.877 C 45.818 29.667 44.258 30.317 43.618 28.567 C 43.698 27.467 44.558 27.957 45.088 27.767 C 44.618 28.067 43.538 26.767 43.578 28.437 C 43.678 29.437 44.448 30.607 42.948 31.247 C 42.028 31.357 41.948 30.587 41.688 30.037 C 41.218 29.887 41.758 28.487 40.598 29.177 C 39.997 29.398 39.349 29.457 38.718 29.347 C 38.462 29.279 38.221 29.164 38.008 29.007 C 37.863 28.79 37.809 28.524 37.858 28.267 C 38.688 27.317 38.998 25.887 40.438 25.497 C 41.379 25.363 42.332 25.343 43.278 25.437 C 45.138 25.607 46.728 25.437 47.138 23.307 C 46.403 23.129 45.632 23.167 44.918 23.417 L 44.348 23.537 C 44.348 23.737 44.528 23.597 44.598 23.537 C 45.118 23.537 45.598 23.537 45.598 24.247 C 44.108 25.927 42.598 25.957 41.088 24.247 C 40.903 22.554 41.892 20.952 43.488 20.357 Z "/>
            <path fill="rgb(98,148,51)" d=" M 68.788 35.617 L 69.208 44.957 C 68.668 45.499 67.907 45.761 67.148 45.667 C 66.442 45.518 65.717 45.477 64.998 45.547 C 62.488 47.187 59.868 46.207 57.278 45.897 C 56.068 44.617 57.448 44.557 58.098 44.307 C 58.913 44.075 59.746 43.907 60.588 43.807 C 61.888 43.507 61.228 42.757 61.078 42.097 C 61.178 40.887 60.398 40.777 59.488 40.837 C 56.728 40.307 56.778 40.347 58.368 38.287 C 59.298 37.087 61.368 36.627 60.808 34.357 C 60.688 33.837 61.918 33.437 62.678 33.247 C 62.945 33.21 63.217 33.227 63.478 33.297 C 64.898 34.887 67.128 34.587 68.788 35.617 Z "/>
            <path fill="rgb(103,156,54)" d=" M 43.488 20.357 L 41.308 23.957 C 40.748 24.777 39.758 24.957 38.798 25.687 C 39.468 25.367 39.868 25.407 40.218 25.767 C 39.218 26.337 39.718 28.297 37.988 28.207 C 37.348 29.107 36.718 30.017 35.378 29.477 C 35.12 29.416 34.866 29.339 34.618 29.247 C 32.618 28.247 30.848 29.717 28.948 29.817 C 28.238 29.767 27.538 29.697 27.328 28.817 C 29.658 26.437 32.518 25.817 35.788 26.327 C 34.708 25.517 33.788 24.447 32.308 24.967 C 31.458 25.267 30.578 26.277 29.688 25.217 C 28.798 24.157 29.358 23.037 30.068 22.037 C 30.835 21.316 32.02 21.282 32.828 21.957 C 33.598 20.957 34.948 21.357 35.888 20.747 L 43.488 20.357 Z "/>
            <path fill="rgb(93,141,48)" d=" M 66.868 45.077 L 69.208 44.957 L 69.268 46.127 L 68.658 46.727 C 67.258 48.727 64.658 49.897 64.238 52.627 C 63.798 53.897 62.968 53.967 61.928 53.357 C 60.508 52.517 59.168 51.467 57.368 51.627 C 56.467 51.954 55.549 52.231 54.618 52.457 C 54.127 52.484 53.647 52.299 53.301 51.95 C 52.955 51.6 52.776 51.118 52.808 50.627 C 52.808 49.297 53.948 49.577 54.718 49.447 C 56.058 49.237 57.058 48.077 58.478 48.127 C 59.048 48.187 59.478 48.657 60.048 48.677 C 60.448 48.677 60.938 48.567 60.918 48.177 C 60.918 47.467 60.218 47.867 59.828 47.777 C 56.99 47.371 54.101 47.493 51.308 48.137 C 49.738 48.137 48.148 48.257 46.938 46.967 C 47.018 45.677 48.088 45.367 48.998 44.897 C 50.878 45.367 52.858 44.707 54.728 45.337 C 55.448 45.517 56.228 45.087 56.928 45.527 C 58.448 45.527 59.928 45.147 61.468 45.767 C 63.008 46.387 63.868 44.937 65.088 44.567 C 65.344 45.163 65.41 45.823 65.278 46.457 C 65.278 46.657 64.988 46.817 65.198 47.057 C 65.272 46.806 65.376 46.564 65.508 46.337 C 65.752 45.737 66.25 45.275 66.868 45.077 Z "/>
            <path fill="rgb(99,150,51)" d=" M 66.618 27.517 C 68.008 28.957 67.538 31.147 68.678 32.687 L 68.678 33.277 C 66.988 34.667 65.168 33.277 63.418 33.517 L 62.828 33.517 C 61.958 32.427 61.138 31.237 59.428 31.677 C 57.758 31.447 57.538 32.167 58.268 33.487 C 56.978 35.047 55.858 34.177 54.738 33.257 C 54.564 33.064 54.434 32.836 54.358 32.587 C 54.268 31.887 54.998 31.587 55.098 30.937 C 55.548 28.307 56.098 28.147 58.768 29.877 C 59.358 29.267 58.038 28.377 59.058 27.877 C 59.827 27.812 60.587 27.671 61.328 27.457 C 63.078 27.807 64.848 26.807 66.618 27.517 Z "/>
            <path fill="rgb(101,154,53)" d=" M 63.418 33.517 C 65.098 31.787 66.948 33.947 68.678 33.277 L 68.788 35.617 C 66.518 36.137 64.618 35.787 63.418 33.517 Z "/>
            <path fill="rgb(100,151,52)" d=" M 30.068 22.067 C 30.468 23.067 29.348 24.067 30.228 25.337 C 31.928 23.397 33.848 24.287 35.778 24.837 C 36.588 25.067 37.308 25.317 37.038 26.347 C 36.838 27.137 36.168 28.117 35.488 27.657 C 32.418 25.587 30.118 28.367 27.488 28.707 C 27.358 30.197 30.378 30.887 28.328 32.797 C 29.468 33.197 30.628 32.257 31.438 33.337 C 31.657 33.914 31.39 34.562 30.828 34.817 C 30.299 35.08 29.702 35.174 29.118 35.087 C 27.908 34.557 26.738 34.987 25.438 35.307 C 26.438 35.227 27.278 34.677 28.198 34.887 C 29.048 37.657 28.918 37.887 26.198 37.547 C 25.518 37.501 24.836 37.6 24.198 37.837 C 23.858 37.947 23.368 37.687 23.198 38.227 C 23.187 38.449 23.16 38.67 23.118 38.887 C 23.178 39.257 21.908 39.997 23.418 39.957 C 23.624 40.606 23.513 41.314 23.118 41.867 C 22.398 43.267 21.988 44.937 20.168 45.427 C 19.898 42.077 20.141 38.705 20.888 35.427 C 21.888 35.017 20.568 34.097 21.278 33.627 C 22.048 26.477 24.458 23.317 30.068 22.067 Z "/>
            <path fill="rgb(98,149,51)" d=" M 54.878 64.867 C 51.258 65.967 47.508 65.867 43.778 65.937 C 43.128 65.667 42.338 65.757 42.348 64.547 C 42.348 62.257 41.018 60.977 38.738 60.707 C 38.469 60.663 38.224 60.525 38.048 60.317 C 38.288 57.597 38.528 57.447 41.558 58.527 C 40.358 58.177 39.658 57.637 38.778 57.657 C 38.368 56.877 38.108 56.107 38.948 55.417 C 41.688 55.657 44.348 54.067 47.118 55.037 C 47.35 55.209 47.522 55.451 47.608 55.727 C 47.503 56.427 47.083 57.039 46.468 57.387 C 46.083 57.606 45.636 57.69 45.198 57.627 C 45.198 57.627 44.888 57.117 44.918 57.707 C 44.918 58.077 44.918 57.567 45.118 57.917 C 45.628 58.617 46.508 58.787 47.118 59.327 C 47.748 60.187 46.948 61.057 47.118 61.917 C 47.318 62.307 47.678 62.587 47.898 62.917 C 47.955 63.107 47.955 63.308 47.898 63.497 C 49.094 63.622 50.303 63.513 51.458 63.177 C 51.755 63.123 52.056 63.093 52.358 63.087 C 53.448 63.387 55.238 62.587 54.878 64.867 Z "/>
            <path fill="rgb(100,151,53)" d=" M 34.308 65.337 C 26.478 64.957 22.318 61.447 21.088 54.197 C 22.964 53.617 24.974 53.638 26.838 54.257 C 27.315 54.683 27.489 55.354 27.278 55.957 C 27.028 56.787 26.118 56.377 25.668 56.757 C 27.108 57.387 29.008 56.647 30.128 58.277 C 29.498 59.517 28.838 60.717 27.608 60.577 C 29.608 60.277 32.378 59.347 33.478 62.857 C 33.808 63.587 34.628 63.767 35.148 64.277 C 35.488 64.607 35.848 64.987 35.348 65.417 C 35.019 65.612 34.603 65.58 34.308 65.337 Z "/>
            <path fill="rgb(100,151,53)" d=" M 38.868 60.407 C 39.488 59.547 40.548 59.627 40.748 60.347 C 41.228 62.097 44.968 62.347 42.948 65.217 C 43.211 65.472 43.488 65.713 43.778 65.937 C 41.447 66.257 39.078 66.165 36.778 65.667 C 36.158 65.117 36.548 64.467 36.588 63.847 C 36.588 62.257 35.088 62.347 34.188 61.847 C 32.958 61.147 31.708 60.517 30.518 59.747 C 30.236 59.18 30.273 58.507 30.615 57.974 C 30.958 57.441 31.555 57.127 32.188 57.147 C 33.12 57.097 33.972 56.603 34.478 55.817 C 35.132 55.603 35.847 55.703 36.418 56.087 C 37.138 56.647 38.098 56.807 38.738 57.477 L 42.558 58.057 C 41.808 60.307 37.808 56.347 38.288 60.427 C 37.921 60.858 37.3 60.967 36.808 60.687 C 36.408 60.427 36.098 60.037 35.618 59.747 C 35.878 60.097 36.238 60.207 36.488 60.457 C 36.935 60.828 37.481 61.061 38.058 61.127 C 38.438 61.187 38.648 61.917 39.058 61.407 C 39.128 61.347 38.678 60.817 38.868 60.407 Z "/>
            <path fill="rgb(98,149,51)" d=" M 51.908 63.957 L 51.328 63.957 C 51.028 63.707 50.548 63.617 50.518 63.107 C 50.778 61.787 51.938 61.577 52.918 61.107 C 53.318 60.797 53.918 61.167 54.278 60.627 C 54.117 60.547 53.963 60.454 53.818 60.347 C 53.201 59.431 52.292 58.75 51.238 58.417 C 51.046 58.289 50.905 58.098 50.838 57.877 C 49.888 56.877 47.478 58.477 47.448 55.877 L 47.448 55.877 C 48.448 54.377 50.028 54.497 51.508 54.307 C 52.35 54.063 53.258 54.222 53.968 54.737 C 55.188 56.697 57.618 55.957 59.178 57.087 C 59.422 57.208 59.648 57.363 59.848 57.547 C 59.97 57.79 59.988 58.071 59.898 58.327 C 59.008 59.397 58.618 60.217 60.538 60.627 C 61.608 60.857 63.128 60.497 63.538 62.147 C 63.116 62.626 62.506 62.896 61.868 62.887 C 59.438 63.197 57.058 63.967 54.558 63.167 C 53.596 62.9 52.566 63.207 51.908 63.957 Z "/>
            <path fill="rgb(93,141,48)" d=" M 20.208 47.187 L 20.148 46.027 C 20.406 45.752 20.77 45.599 21.148 45.607 C 22.013 45.687 22.886 45.599 23.718 45.347 C 25.388 45.347 27.088 45.007 28.658 45.857 C 29.343 46.231 30.182 46.172 30.808 45.707 C 31.647 45.475 32.546 45.708 33.168 46.317 C 33.538 46.767 33.878 47.227 33.518 47.847 C 31.467 48.649 29.208 48.744 27.098 48.117 C 29.488 49.237 29.488 49.237 27.458 51.827 C 24.778 54.477 22.698 54.697 20.818 52.527 C 19.698 48.957 22.888 50.167 24.508 49.307 C 22.978 48.557 21.098 48.797 20.208 47.187 Z "/>
            <path fill="rgb(99,149,52)" d=" M 67.928 53.407 C 67.588 56.117 67.988 59.087 65.288 60.977 C 64.678 61.337 64.288 60.977 63.948 60.557 C 63.948 59.357 62.848 59.357 62.178 58.897 C 62.068 57.187 60.308 58.697 59.828 57.697 L 59.828 57.697 C 59.478 56.867 60.238 56.537 60.568 56.017 C 61.508 54.417 63.068 55.017 64.438 54.897 C 64.778 54.787 65.128 55.257 65.378 54.977 C 65.628 54.697 65.238 54.467 65.098 54.207 C 64.648 53.207 64.748 52.407 65.928 52.207 C 66.808 52.097 67.998 51.767 67.928 53.407 Z "/>
            <path fill="rgb(96,146,50)" d=" M 21.218 45.957 L 20.148 46.007 L 20.148 45.407 C 21.068 44.227 21.408 42.607 22.808 41.787 L 23.138 42.007 C 23.608 42.487 23.838 43.167 24.668 43.647 C 24.608 42.857 23.978 42.287 24.198 41.647 C 25.333 40.268 27.237 39.793 28.888 40.477 C 29.183 40.765 29.423 41.104 29.598 41.477 C 29.788 41.98 29.788 42.535 29.598 43.037 C 29.487 43.255 29.308 43.431 29.088 43.537 C 28.458 43.707 28.608 44.057 28.888 44.447 C 28.983 44.921 29.013 45.406 28.978 45.887 L 28.828 46.227 L 23.538 45.877 C 22.758 45.527 22.008 46.097 21.218 45.957 Z "/>
            <path fill="rgb(98,148,51)" d=" M 63.688 52.247 C 63.978 50.527 67.178 46.977 68.688 46.737 C 68.885 48.326 68.742 49.938 68.268 51.467 C 67.008 53.437 65.128 51.527 63.688 52.247 Z "/>
            <path fill="rgb(102,154,53)" d=" M 59.828 57.697 L 63.078 57.017 L 62.218 58.757 C 62.078 59.107 61.598 59.257 61.688 59.757 C 62.268 59.967 62.868 59.837 63.428 60.027 C 63.667 60.128 63.881 60.278 64.058 60.467 L 65.288 61.017 C 64.907 61.652 64.261 62.082 63.528 62.187 C 62.528 61.897 61.578 61.577 60.598 61.307 C 59.618 61.037 58.468 61.667 58.168 60.047 C 57.868 58.427 59.268 58.447 59.828 57.697 Z "/>
            <path fill="rgb(101,153,53)" d=" M 63.688 52.247 C 64.288 51.847 64.618 50.607 65.688 51.557 C 66.568 52.347 67.408 52.047 68.238 51.467 C 68.434 52.128 68.32 52.841 67.928 53.407 C 67.342 52.588 66.209 52.388 65.378 52.957 L 66.128 54.447 C 65.728 55.137 64.898 54.697 64.398 55.117 C 64.288 55.667 64.138 56.507 63.398 55.837 C 62.108 54.597 61.628 55.837 60.918 56.447 C 60.706 56.567 60.45 56.585 60.223 56.496 C 59.996 56.407 59.822 56.22 59.748 55.987 C 59.388 55.127 60.098 54.807 60.628 54.417 C 61.158 54.027 62.008 54.417 62.928 54.217 C 61.928 54.307 61.658 53.907 61.708 53.217 C 61.778 53.097 61.858 52.987 61.928 52.877 C 62.728 53.197 63.618 53.777 63.688 52.247 Z "/>
            <path fill="rgb(103,155,55)" d=" M 51.908 63.957 C 51.948 63.427 52.224 62.942 52.66 62.636 C 53.095 62.33 53.645 62.235 54.158 62.377 C 56.708 63.707 59.388 61.757 61.858 62.927 C 59.699 64.099 57.31 64.782 54.858 64.927 C 54.358 63.097 52.938 64.127 51.908 63.957 Z "/>
            <path fill="rgb(98,149,51)" d=" M 20.208 47.187 C 21.478 47.187 22.328 48.567 23.968 47.937 C 25.208 47.457 24.688 49.627 25.968 49.937 C 24.138 50.937 21.068 48.727 20.968 52.467 C 21.085 52.562 21.145 52.711 21.124 52.861 C 21.104 53.01 21.007 53.138 20.868 53.197 C 19.968 51.257 20.268 49.207 20.208 47.187 Z "/>
            <path fill="rgb(98,149,51)" d=" M 20.888 53.167 C 20.888 52.927 20.958 52.677 20.988 52.437 C 23.428 54.437 25.308 52.507 27.328 51.557 L 27.708 51.677 C 28.458 52.207 29.308 52.677 29.328 53.737 C 29.179 53.952 28.96 54.108 28.708 54.177 C 28.068 54.087 27.538 54.657 26.878 54.507 C 24.948 54.407 22.968 55.157 21.088 54.197 L 20.888 53.167 Z "/>
            <path fill="rgb(103,155,53)" d=" M 37.268 63.957 L 36.768 65.627 C 35.937 65.852 35.05 65.733 34.308 65.297 C 35.088 65.137 35.438 64.927 34.458 64.427 C 33.748 64.067 32.588 64.257 32.538 62.997 C 34.428 61.797 35.968 62.307 37.268 63.957 Z "/>
            <path fill="rgb(107,158,60)" d=" M 21.238 33.657 C 21.128 34.897 22.518 34.047 22.808 34.767 C 22.388 35.707 21.518 35.287 20.808 35.457 C 20.648 34.823 20.809 34.151 21.238 33.657 Z "/>
            <path fill="rgb(98,148,51)" d=" M 29.218 41.517 L 28.618 40.957 C 28.949 40.845 29.198 40.568 29.273 40.227 C 29.349 39.885 29.241 39.529 28.988 39.287 C 29.401 38.341 30.368 37.76 31.398 37.837 C 31.608 37.837 31.918 38.077 31.998 37.637 C 31.698 37.077 30.928 36.717 31.338 35.907 C 31.828 35.433 32.43 35.089 33.088 34.907 C 33.948 34.667 34.768 34.357 35.628 34.157 C 36.545 34.013 37.47 33.922 38.398 33.887 C 40.088 33.837 41.768 33.687 43.458 33.737 C 45.268 34.487 47.458 33.297 49.178 34.827 C 49.648 35.237 50.228 34.597 50.178 33.937 C 50.128 33.277 49.698 32.697 49.568 32.047 C 49.527 31.78 49.548 31.506 49.628 31.247 C 50.208 30.587 51.058 30.127 51.238 29.147 C 51.305 29.037 51.379 28.93 51.458 28.827 C 53.778 27.697 53.798 30.377 55.068 30.997 C 55.998 31.897 55.268 32.047 54.538 32.197 C 54.138 32.497 53.648 32.737 53.808 33.367 C 54.438 34.247 56.078 34.147 56.038 35.677 C 55.578 36.627 55.548 37.747 54.958 38.677 C 54.307 38.981 53.544 38.912 52.958 38.497 C 52.448 38.227 51.958 37.657 51.368 37.957 C 49.618 38.957 47.538 38.597 45.618 38.957 C 43.848 40.357 40.078 40.347 38.278 39.067 C 37.338 38.407 38.358 37.327 37.588 36.717 C 37.378 36.597 37.158 36.317 36.918 36.457 C 36.678 36.597 36.918 36.897 36.918 37.127 C 37.308 38.297 38.388 39.377 37.338 40.707 C 36.128 41.657 34.628 40.787 33.338 41.327 C 32.548 41.687 31.714 41.939 30.858 42.077 C 30.259 42.112 29.671 41.911 29.218 41.517 Z "/>
            <path fill="rgb(101,153,53)" d=" M 66.618 27.517 C 64.718 28.157 62.818 28.747 60.848 27.777 C 60.148 27.717 59.928 27.137 59.618 26.657 C 58.698 26.177 59.928 24.487 58.348 24.377 L 58.288 25.507 C 56.918 24.507 54.548 25.817 53.808 23.577 C 53.388 22.327 52.598 22.897 52.038 23.147 C 50.038 24.037 50.128 22.647 49.708 21.287 C 51.388 21.287 52.968 23.287 54.138 21.027 C 58.948 21.877 64.068 22.207 66.618 27.517 Z "/>
            <path fill="rgb(98,149,51)" d=" M 38.278 34.657 L 35.358 34.787 C 35.085 34.216 35.032 33.565 35.208 32.957 C 35.403 32.793 35.631 32.673 35.878 32.607 C 36.512 32.527 37.073 32.158 37.398 31.607 C 37.603 31.43 37.836 31.288 38.088 31.187 C 39.458 30.977 40.808 30.477 42.208 30.937 C 44.068 30.467 43.048 28.997 43.208 27.937 C 43.276 27.845 43.383 27.791 43.498 27.791 C 43.612 27.791 43.72 27.845 43.788 27.937 C 44.488 30.027 46.168 28.607 47.358 28.937 C 48.128 30.097 47.358 30.757 46.568 31.377 C 46.241 31.556 45.87 31.639 45.498 31.617 C 46.328 31.767 47.028 31.127 47.758 31.617 C 48.138 31.897 48.328 32.217 48.048 32.677 C 45.828 34.677 42.978 32.897 40.608 33.947 C 39.798 33.957 38.868 33.737 38.278 34.657 Z "/>
            <path fill="rgb(100,151,52)" d=" M 35.088 28.957 C 36.248 29.507 37.018 28.457 37.988 28.237 L 37.988 28.817 C 38.118 29.487 37.498 29.927 37.478 30.537 C 37.558 30.947 37.868 31.347 37.538 31.767 L 37.538 31.767 C 36.338 32.847 34.738 31.827 33.478 32.567 C 33.197 32.643 32.909 32.69 32.618 32.707 C 29.058 32.917 29.058 32.907 29.228 29.217 C 31.158 28.807 33.038 27.137 35.068 28.957 C 34.888 29.577 34.268 29.697 33.648 30.137 C 34.348 29.757 34.938 29.597 35.088 28.957 Z "/>
            <path fill="rgb(98,149,51)" d=" M 40.218 25.787 L 38.858 25.517 C 39.188 24.217 40.188 24.007 41.308 23.977 Q 43.488 26.517 45.398 23.787 C 45.198 23.607 44.848 23.577 44.788 23.227 C 45.878 21.227 47.098 23.057 48.358 23.157 C 46.728 23.577 47.538 26.787 45.258 26.007 C 43.498 25.417 41.848 26.587 40.218 25.787 Z "/>
            <path fill="rgb(105,159,55)" d=" M 49.728 28.867 C 49.728 28.147 48.068 28.587 48.648 27.727 C 49.228 26.867 49.248 25.597 50.558 25.347 C 51.298 25.207 51.558 25.547 51.698 26.227 C 51.978 27.227 53.168 27.277 53.888 27.887 C 53.108 28.367 52.018 27.887 51.488 28.787 L 51.488 28.787 C 51.02 29.288 50.239 29.324 49.728 28.867 Z "/>
            <path fill="rgb(95,144,49)" d=" M 46.328 31.357 C 46.628 30.537 47.528 29.987 47.398 28.967 C 48.114 29.374 48.94 29.543 49.758 29.447 C 50.003 29.668 50.149 29.977 50.164 30.306 C 50.179 30.635 50.062 30.956 49.838 31.197 L 49.838 31.787 C 50.208 32.197 50.238 32.717 49.838 32.967 C 49.225 33.253 48.495 33.028 48.148 32.447 L 47.538 31.887 C 47.218 31.507 46.618 31.757 46.328 31.357 Z "/>
            <path fill="rgb(95,145,49)" d=" M 36.928 30.617 C 36.648 29.617 37.688 29.437 38.018 28.807 L 38.598 28.807 C 39.305 29.332 40.283 29.286 40.938 28.697 C 41.938 28.387 41.758 29.437 42.158 29.817 C 40.678 31.717 38.808 31.247 36.928 30.617 Z "/>
            <path fill="rgb(103,156,54)" d=" M 36.928 30.617 C 38.678 30.397 40.538 30.847 42.158 29.797 C 42.828 30.157 42.248 30.567 42.208 30.967 C 40.788 31.967 39.128 31.597 37.568 31.757 L 36.928 30.617 Z "/>
            <path fill="rgb(108,161,58)" d=" M 43.828 27.957 L 43.248 27.957 C 43.158 27.957 43.038 27.957 42.968 27.957 C 42.842 27.858 42.724 27.748 42.618 27.627 C 44.078 27.167 45.618 26.277 46.988 28.027 C 45.868 28.867 44.848 28.357 43.828 27.957 Z "/>
            <path fill="rgb(100,152,52)" d=" M 49.838 31.197 L 49.758 29.447 L 49.758 28.867 L 51.518 28.787 C 52.618 30.737 51.438 31.107 49.838 31.197 Z "/>
            <path fill="rgb(103,156,54)" d=" M 44.788 23.227 L 45.398 23.787 C 44.548 23.697 43.888 24.787 42.928 24.227 C 42.908 22.657 43.738 22.727 44.788 23.227 Z "/>
            <path fill="rgb(106,159,56)" d=" M 59.618 26.657 C 60.171 26.834 60.62 27.243 60.848 27.777 C 60.308 28.977 59.728 29.007 59.088 27.857 L 59.618 26.657 Z "/>
            <path fill="rgb(100,151,52)" d=" M 40.938 28.677 C 40.198 29.537 39.448 30.247 38.598 28.787 L 40.938 28.677 Z "/>
            <path fill="rgb(100,151,52)" d=" M 55.898 35.617 C 55.548 33.977 53.078 35.247 52.898 33.407 C 53.408 33.007 54.168 33.277 54.628 32.747 C 55.828 32.747 56.758 34.887 58.158 33.167 C 57.888 32.167 57.878 31.357 59.248 31.357 C 61.618 30.157 62.808 30.897 62.858 33.537 C 60.438 35.077 60.438 35.077 63.248 36.677 C 60.778 37.157 58.868 37.977 57.868 40.217 L 59.618 40.137 C 60.268 40.647 61.288 40.757 61.448 41.807 C 61.128 43.227 63.288 41.927 62.988 43.157 C 62.688 44.387 61.468 44.157 60.678 44.577 C 59.528 45.217 57.958 44.327 56.938 45.527 C 56.254 45.992 55.444 46.233 54.618 46.217 C 54.238 45.827 54.098 45.217 54.478 44.947 C 57.138 43.007 55.068 42.157 53.658 41.147 C 53.275 40.885 52.926 40.576 52.618 40.227 C 52.333 39.75 52.333 39.155 52.618 38.677 C 52.743 38.437 52.929 38.233 53.158 38.087 L 54.938 38.587 C 55.22 38.318 55.563 38.123 55.938 38.017 C 57.948 37.257 57.268 36.437 55.898 35.617 Z "/>
            <path fill="rgb(102,154,53)" d=" M 66.248 36.867 C 67.008 37.257 67.988 37.097 67.878 38.287 C 67.788 39.287 67.228 39.997 66.268 39.957 C 64.888 39.907 66.468 38.337 65.268 37.777 C 64.858 37.567 65.908 37.167 66.248 36.867 Z "/>
            <path fill="rgb(103,156,54)" d=" M 61.448 41.807 C 60.665 41.476 60.019 40.887 59.618 40.137 C 62.048 40.087 62.078 40.127 61.448 41.807 Z "/>
            <path fill="rgb(88,133,46)" d=" M 66.868 45.077 C 66.691 45.625 66.286 46.069 65.758 46.297 C 65.693 46.394 65.584 46.451 65.468 46.451 C 65.352 46.451 65.243 46.394 65.178 46.297 C 64.784 45.79 64.752 45.089 65.098 44.547 L 66.868 45.077 Z "/>
            <path fill="rgb(91,139,47)" d=" M 63.498 40.297 C 63.998 40.427 64.438 40.717 64.498 41.227 C 64.558 41.737 63.998 41.667 63.648 41.667 C 63.298 41.667 62.828 41.537 62.818 41.067 C 62.806 40.671 63.103 40.334 63.498 40.297 Z "/>
            <path fill="rgb(96,146,50)" d=" M 29.248 29.207 C 29.348 29.377 29.408 29.627 29.558 29.697 C 31.128 30.387 28.268 32.037 30.058 32.417 C 31.118 32.637 32.328 32.127 33.468 31.947 C 34.198 32.447 35.738 31.137 35.858 33.007 L 35.278 33.007 C 35.06 33.256 34.79 33.454 34.488 33.587 C 33.395 34.042 32.144 33.895 31.188 33.197 C 30.448 33.387 29.698 33.567 28.958 33.767 C 28.511 33.854 28.048 33.752 27.678 33.487 C 28.898 31.617 27.628 30.347 26.678 28.997 L 27.458 28.677 C 27.918 29.367 28.618 29.217 29.248 29.207 Z "/>
            <path fill="rgb(96,146,50)" d=" M 47.018 46.557 C 48.299 47.226 49.724 47.569 51.168 47.557 C 51.678 48.097 51.458 48.557 51.018 49.007 C 49.148 49.877 47.268 50.267 45.368 49.077 C 44.158 48.157 43.568 49.227 42.868 49.887 C 42.168 50.547 42.588 51.517 42.028 52.187 C 41.408 52.363 40.742 52.229 40.238 51.827 C 39.758 51.497 39.238 51.187 38.698 51.657 C 38.491 51.782 38.264 51.87 38.028 51.917 C 37.414 52.01 36.788 51.976 36.188 51.817 C 35.655 50.357 35.742 48.742 36.428 47.347 C 36.868 46.527 35.198 46.187 35.758 45.217 C 36.284 44.737 36.861 44.314 37.478 43.957 C 39.168 43.017 40.858 41.667 42.478 44.017 C 42.543 44.29 42.543 44.575 42.478 44.847 C 42.168 45.547 41.368 45.497 40.878 45.917 C 40.578 46.267 40.588 46.657 40.988 46.847 C 41.078 46.847 40.828 46.277 41.098 46.017 C 42.428 44.827 44.358 45.727 45.728 44.687 C 46.296 44.569 46.875 44.827 47.168 45.327 C 47.376 45.729 47.316 46.217 47.018 46.557 Z "/>
            <path fill="rgb(98,148,51)" d=" M 50.618 48.737 C 51.013 48.48 51.221 48.014 51.148 47.547 C 54.208 46.167 57.358 46.787 60.498 47.117 C 60.598 48.437 59.638 48.327 58.798 48.367 C 56.968 48.877 55.748 51.147 53.198 49.937 C 53.368 51.267 53.718 51.937 54.868 52.057 C 55.868 51.497 56.318 51.917 56.308 52.987 C 56.096 53.393 55.708 53.677 55.258 53.757 C 54.018 53.705 52.777 53.82 51.568 54.097 C 50.698 54.217 49.888 54.587 49.028 54.747 C 47.668 54.987 47.028 54.227 47.028 52.927 C 46.958 52.127 46.588 51.307 47.098 50.517 C 48.068 49.487 50.038 50.487 50.618 48.737 Z "/>
            <path fill="rgb(97,147,50)" d=" M 52.618 39.867 C 53.535 40.357 54.426 40.895 55.288 41.477 C 56.638 42.477 59.138 43.557 55.348 44.737 C 54.778 44.917 54.668 45.617 54.658 46.217 C 54.008 46.117 53.448 44.987 52.908 45.577 C 51.488 47.127 50.518 45.447 49.348 45.287 C 48.768 44.877 48.068 45.457 47.478 45.077 C 46.798 44.427 45.798 44.377 45.088 43.777 C 44.908 42.717 45.878 42.517 46.418 41.987 C 46.743 41.737 47.149 41.616 47.558 41.647 C 49.558 42.867 49.558 42.867 52.658 42.167 C 52.838 42.287 52.958 42.497 53.188 42.567 C 52.938 42.417 52.728 42.227 52.478 42.047 C 51.778 41.667 51.058 41.257 51.298 40.317 C 51.428 39.627 51.948 39.477 52.618 39.867 Z "/>
            <path fill="rgb(99,151,52)" d=" M 58.818 48.367 L 60.518 47.117 C 61.078 46.987 61.848 46.117 62.128 47.207 C 62.359 48.197 61.775 49.195 60.798 49.477 C 59.618 49.957 58.948 49.687 58.818 48.367 Z "/>
            <path fill="rgb(95,145,49)" d=" M 56.108 53.177 C 56.126 52.857 56 52.545 55.763 52.328 C 55.527 52.111 55.206 52.012 54.888 52.057 L 57.178 50.787 C 57.808 51.607 58.858 51.787 59.638 52.317 C 59.781 52.544 59.814 52.823 59.728 53.077 C 58.608 53.797 57.628 55.127 56.058 53.947 C 55.904 53.708 55.924 53.395 56.108 53.177 Z "/>
            <path fill="rgb(99,150,52)" d=" M 59.618 52.437 C 58.368 52.527 57.098 52.667 57.198 50.787 C 59.044 50.688 60.822 51.499 61.958 52.957 L 61.958 52.957 C 61.149 53.323 60.196 53.111 59.618 52.437 Z "/>
            <path fill="rgb(98,148,51)" d=" M 65.178 46.317 L 65.758 46.317 C 65.753 46.411 65.753 46.504 65.758 46.597 C 65.758 47.487 65.658 48.297 64.648 48.597 C 64.278 48.707 63.798 48.677 63.758 48.217 C 63.668 47.197 64.488 46.787 65.178 46.317 Z "/>
            <path fill="rgb(99,150,52)" d=" M 47.528 44.777 C 48.168 44.777 48.858 44.617 49.308 45.287 C 48.508 45.647 48.048 46.597 47.018 46.557 L 47.018 45.387 C 46.788 44.847 46.968 44.647 47.528 44.777 Z "/>
            <path fill="rgb(96,146,50)" d=" M 59.218 31.357 L 58.128 33.167 C 57.488 33.077 56.308 33.447 56.698 32.257 C 57.028 31.277 57.868 30.217 59.218 31.357 Z "/>
            <path fill="rgb(104,157,54)" d=" M 54.618 32.747 C 54.618 33.077 54.838 33.627 54.708 33.747 C 54.048 34.217 53.498 33.587 52.888 33.427 C 52.728 32.027 53.168 31.427 54.588 32.177 L 54.618 32.747 Z "/>
            <path fill="rgb(97,147,50)" d=" M 28.898 34.497 L 30.618 34.417 C 31.058 35.327 30.248 36.137 30.428 37.027 C 30.238 38.737 28.278 38.517 27.558 39.667 C 26.783 39.987 25.921 40.029 25.118 39.787 C 24.204 39.44 23.358 38.936 22.618 38.297 C 22.618 38.107 22.618 37.907 22.618 37.717 C 22.755 37.542 22.962 37.435 23.184 37.423 C 23.407 37.412 23.623 37.497 23.778 37.657 C 24.958 35.887 26.278 36.237 27.678 37.717 L 28.348 35.107 C 28.358 34.747 28.738 34.727 28.898 34.497 Z "/>
            <path fill="rgb(101,153,52)" d=" M 25.018 39.357 L 27.948 39.227 C 28.089 39.056 28.295 38.953 28.517 38.944 C 28.738 38.934 28.953 39.019 29.108 39.177 L 31.338 40.177 C 30.508 41.257 29.468 40.767 28.608 40.967 C 27.207 40.855 25.801 41.121 24.538 41.737 C 24.074 42.237 23.295 42.272 22.788 41.817 L 22.788 41.817 L 23.298 40.037 C 23.618 39.187 24.148 38.817 25.018 39.357 Z "/>
            <path fill="rgb(101,153,52)" d=" M 30.178 36.787 C 28.908 35.707 30.648 35.237 30.658 34.417 C 31.051 34.158 31.258 33.693 31.188 33.227 L 34.698 33.067 C 34.998 34.457 33.528 34.627 33.048 35.477 L 31.318 36.147 C 31.078 36.607 30.838 37.067 30.178 36.787 Z "/>
            <path fill="rgb(92,140,47)" d=" M 25.018 39.357 L 23.298 40.027 C 20.758 40.337 23.108 38.777 22.628 38.297 C 23.575 38.035 24.576 38.479 25.018 39.357 Z "/>
            <path fill="rgb(103,157,53)" d=" M 28.898 34.497 L 28.338 35.107 C 27.118 34.887 26.118 36.187 24.718 35.607 C 25.908 34.197 27.498 34.707 28.898 34.497 Z "/>
            <path fill="rgb(104,157,54)" d=" M 23.768 37.657 L 22.618 37.717 C 22.278 37.507 21.968 37.117 22.338 36.887 C 23.128 36.377 23.408 37.157 23.768 37.657 Z "/>
            <path fill="rgb(104,158,54)" d=" M 47.898 52.957 C 47.488 54.507 48.308 54.647 49.348 54.047 C 49.971 53.638 50.693 53.407 51.438 53.377 C 52.088 53.787 52.728 54.207 52.098 55.107 C 50.51 55.066 48.93 55.338 47.448 55.907 C 46.148 54.907 44.598 55.237 43.368 55.677 C 41.835 56.164 40.191 56.181 38.648 55.727 C 38.456 55.905 38.16 55.905 37.968 55.727 C 37.968 54.577 39.298 54.597 39.598 53.727 C 40.538 51.507 42.278 53.477 43.598 52.977 C 45.008 53.097 46.458 51.957 47.898 52.957 Z "/>
            <path fill="rgb(96,146,50)" d=" M 47.448 55.957 C 48.358 57.477 49.638 56.957 50.988 56.767 C 51.988 56.647 52.288 57.187 50.988 57.547 C 50.918 57.747 50.408 57.967 50.988 58.137 C 52.768 57.817 53.788 58.547 53.988 60.337 C 52.838 61.217 51.538 60.437 50.338 60.677 C 49.339 60.478 48.328 60.963 47.858 61.867 C 47.49 62.236 46.989 62.442 46.468 62.437 C 45.158 61.227 47.398 60.567 46.918 59.487 C 46.546 59.175 46.309 58.731 46.258 58.247 C 46.208 57.893 46.208 57.532 46.258 57.177 C 46.453 56.614 46.889 56.166 47.448 55.957 Z "/>
            <path fill="rgb(103,155,55)" d=" M 49.978 59.897 C 51.361 59.77 52.755 59.906 54.088 60.297 C 54.638 60.487 55.418 59.477 55.718 60.477 C 55.918 61.137 55.258 61.387 54.648 61.427 L 52.978 61.517 C 50.978 61.027 50.638 62.757 49.768 63.797 C 49.089 63.938 48.382 63.839 47.768 63.517 C 47.768 63.317 47.768 63.127 47.768 62.927 C 47.796 62.543 47.935 62.175 48.168 61.867 C 48.527 61.022 49.166 60.327 49.978 59.897 Z "/>
            <path fill="rgb(96,145,50)" d=" M 36.528 60.507 L 38.278 60.427 L 38.868 60.427 C 39.34 60.756 39.791 61.113 40.218 61.497 C 40.658 61.937 40.878 62.497 40.328 63.007 C 39.778 63.517 39.468 63.207 39.068 62.827 C 38.238 62.047 37.378 61.297 36.528 60.527 L 36.528 60.507 Z "/>
            <path fill="rgb(93,142,48)" d=" M 38.068 55.757 L 38.648 55.757 C 39.043 56.261 39.075 56.96 38.728 57.497 C 37.808 57.437 36.598 57.997 36.338 56.437 C 36.698 55.627 37.188 55.177 38.068 55.757 Z "/>
            <path fill="rgb(102,155,53)" d=" M 46.938 57.697 L 47.018 59.447 C 45.768 59.557 44.758 59.317 44.608 57.807 C 45.305 57.344 46.2 57.302 46.938 57.697 Z "/>
            <path fill="rgb(105,159,55)" d=" M 47.788 63.517 L 50.138 63.407 C 50.318 63.167 50.508 63.147 50.718 63.407 L 51.328 63.967 C 49.758 64.707 48.178 64.137 46.588 64.057 C 46.818 63.367 47.378 63.607 47.788 63.517 Z "/>
            <path fill="rgb(94,143,49)" d=" M 48.328 62.317 L 47.768 62.927 C 47.299 62.999 46.831 62.792 46.568 62.397 C 46.795 61.98 47.243 61.731 47.718 61.757 C 48.238 61.597 48.528 61.697 48.328 62.317 Z "/>
            <path fill="rgb(91,138,47)" d=" M 46.938 57.697 L 44.618 57.807 C 44.828 56.637 45.798 57.447 46.338 57.137 L 46.938 57.697 Z "/>
            <path fill="rgb(103,156,53)" d=" M 38.068 55.757 L 36.338 56.417 L 34.558 55.957 C 32.168 57.068 29.437 57.19 26.958 56.297 L 26.878 54.547 C 27.108 53.417 27.718 53.277 28.608 53.877 C 30.358 53.807 32.068 53.327 33.828 53.427 C 35.117 53.278 36.419 53.278 37.708 53.427 C 38.664 53.542 39.574 53.904 40.348 54.477 C 39.898 55.447 38.528 54.787 38.068 55.757 Z "/>
            <path fill="rgb(98,149,51)" d=" M 26.958 56.257 C 29.468 55.637 32.028 56.127 34.558 55.917 C 34.458 57.127 34.808 58.597 32.558 57.847 C 31.398 57.457 30.828 58.527 30.558 59.607 C 29.558 59.687 29.558 59.147 29.918 58.467 C 28.458 57.637 26.798 57.757 25.218 57.517 C 24.508 57.407 23.458 57.747 23.588 56.517 C 23.688 55.617 24.588 55.757 25.238 55.797 C 25.827 55.883 26.404 56.038 26.958 56.257 Z "/>
            <path fill="rgb(95,145,49)" d=" M 29.988 58.467 C 29.961 58.937 30.206 59.381 30.618 59.607 C 32.978 60.007 34.858 61.477 36.988 62.407 C 37.568 62.667 38.068 63.317 37.258 63.997 C 35.698 63.617 34.258 62.487 32.528 62.997 C 32.528 60.877 30.948 60.407 29.528 60.907 C 28.448 61.297 27.678 60.717 26.748 60.907 C 25.998 61.037 24.848 60.837 25.078 59.907 C 25.358 58.767 26.268 59.507 26.898 59.907 C 28.618 60.787 28.558 58.017 29.988 58.467 Z "/>
            <path fill="rgb(96,146,50)" d=" M 36.528 60.507 C 35.516 60.729 34.468 60.338 33.848 59.507 C 35.288 58.667 36.378 58.287 36.528 60.507 Z "/>
            <path fill="rgb(104,157,54)" d=" M 40.478 64.867 L 39.558 64.277 C 39.758 64.157 40.008 63.907 40.128 63.957 C 40.449 64.134 40.748 64.349 41.018 64.597 L 40.478 64.867 Z "/>
            <path fill="rgb(101,153,53)" d=" M 59.248 57.717 C 57.888 57.647 56.868 56.387 55.248 56.857 C 54.558 57.067 53.928 55.977 53.838 55.037 L 54.188 54.807 C 54.876 54.598 55.605 54.567 56.308 54.717 C 59.618 55.007 59.728 55.087 59.248 57.717 Z "/>
            <path fill="rgb(97,147,50)" d=" M 59.248 57.717 C 59.808 54.467 56.618 56.107 55.618 54.957 C 55.821 54.721 56.1 54.562 56.408 54.507 C 57.508 54.617 58.508 53.877 59.628 54.107 C 60.104 54.155 60.548 54.371 60.878 54.717 C 60.468 55.327 59.428 55.957 60.958 56.477 L 59.838 57.697 L 59.248 57.717 Z "/>
            <path fill="rgb(102,154,53)" d=" M 52.098 55.117 L 51.438 53.387 C 52.608 53.387 53.748 52.797 54.938 53.227 C 55.398 54.327 54.518 54.617 53.858 55.037 L 53.858 55.037 C 53.312 54.693 52.61 54.725 52.098 55.117 Z "/>
            <path fill="rgb(98,148,51)" d=" M 50.718 63.377 L 50.428 63.377 L 50.138 63.377 C 50.388 61.707 50.698 60.117 52.978 61.487 C 52.428 62.387 50.968 62.147 50.718 63.377 Z "/>
            <path fill="rgb(102,154,53)" d=" M 51.058 58.097 C 50.998 58.707 50.878 59.307 50.058 59.167 C 49.858 59.167 49.538 58.797 49.558 58.627 C 49.668 57.797 50.318 57.627 51.018 57.507 C 51.038 57.707 51.058 57.897 51.058 58.097 Z "/>
            <path fill="rgb(98,149,51)" d=" M 37.988 53.957 L 33.898 54.147 C 32.884 53.295 31.947 52.355 31.098 51.337 C 30.668 50.647 30.208 50.337 29.558 51.137 C 28.908 51.937 28.218 52.227 27.328 51.517 L 27.328 51.517 C 27.348 50.661 27.846 49.889 28.618 49.517 C 27.858 48.517 26.738 48.877 25.288 48.077 C 28.048 47.706 30.837 47.599 33.618 47.757 L 33.928 47.997 C 34.343 48.633 34.526 49.392 34.448 50.147 C 34.398 51.807 35.498 51.867 36.718 51.717 C 37.088 51.097 37.478 51.087 37.888 51.717 C 38.526 52.312 38.571 53.308 37.988 53.957 Z "/>
            <path fill="rgb(99,150,51)" d=" M 29.218 41.517 L 30.968 41.437 C 31.478 42.217 32.528 42.057 33.128 42.677 C 33.291 42.893 33.432 43.124 33.548 43.367 C 33.808 44.007 34.368 44.477 34.618 45.097 C 35.328 46.927 34.558 47.247 32.968 46.617 C 32.254 46.216 31.432 46.048 30.618 46.137 C 30.238 45.647 30.338 44.997 30.038 44.477 C 29.758 44.099 29.517 43.694 29.318 43.267 L 29.218 41.517 Z "/>
            <path fill="rgb(96,146,50)" d=" M 32.968 46.617 C 33.628 46.437 35.128 46.707 33.858 45.367 C 33.215 44.793 32.851 43.969 32.858 43.107 C 33.798 42.247 34.718 41.317 36.168 41.527 C 36.673 41.782 37.039 42.247 37.168 42.797 C 37.268 43.747 36.358 44.057 35.968 44.697 C 35.707 45.014 35.582 45.419 35.618 45.827 C 35.768 47.327 35.078 47.957 33.618 47.757 L 33.618 47.757 L 32.968 46.617 Z "/>
            <path fill="rgb(96,146,50)" d=" M 30.518 44.377 C 31.518 44.927 30.728 45.547 30.598 46.137 C 30.058 47.077 29.518 48.027 28.848 46.217 L 28.848 46.217 C 29.298 45.507 29.118 44.217 30.518 44.377 Z "/>
            <path fill="rgb(100,152,52)" d=" M 21.218 45.957 C 21.464 45.559 21.891 45.308 22.359 45.286 C 22.827 45.264 23.275 45.474 23.558 45.847 C 22.788 46.197 22.048 47.007 21.218 45.957 Z "/>
            <path fill="rgb(95,144,49)" d=" M 64.058 60.427 L 63.468 60.427 C 62.568 59.747 61.468 60.627 60.468 59.977 C 59.918 58.047 61.548 59.057 62.168 58.727 C 63.058 58.777 64.088 58.317 64.688 59.307 C 64.838 59.507 64.298 60.057 64.058 60.427 Z "/>
            <path fill="rgb(94,143,49)" d=" M 64.398 55.147 C 64.788 54.437 65.488 54.527 66.128 54.477 C 66.388 56.887 65.168 55.407 64.398 55.147 Z "/>
            <path fill="rgb(100,151,52)" d=" M 22.788 41.807 L 24.538 41.727 C 24.228 42.957 26.618 42.787 25.838 44.207 C 25.628 44.607 25.238 45.127 24.698 44.797 C 23.503 44.293 22.744 43.104 22.788 41.807 Z "/>
            <path fill="rgb(93,141,48)" d=" M 30.518 44.377 L 28.848 46.217 C 28.464 45.702 28.432 45.005 28.768 44.457 C 28.602 44.313 28.503 44.108 28.494 43.888 C 28.484 43.669 28.565 43.455 28.718 43.297 L 29.298 43.297 C 29.609 43.25 29.925 43.343 30.161 43.552 C 30.397 43.76 30.527 44.063 30.518 44.377 Z "/>
            <path fill="rgb(100,152,52)" d=" M 28.718 43.297 C 28.718 43.687 28.718 44.067 28.768 44.457 C 28.068 44.367 27.108 44.457 27.438 43.327 C 27.618 42.717 28.268 42.707 28.718 43.297 Z "/>
            <path fill="rgb(99,149,52)" d=" M 60.518 60.007 C 61.518 60.107 62.608 59.517 63.518 60.457 C 62.478 60.357 61.388 60.957 60.518 60.007 Z "/>
            <path fill="rgb(105,159,55)" d=" M 60.868 54.717 L 59.698 54.777 C 59.203 54.308 59.167 53.53 59.618 53.017 C 59.618 52.827 59.618 52.627 59.618 52.437 C 60.436 52.344 61.262 52.512 61.978 52.917 C 61.978 53.757 62.688 53.917 63.498 54.477 L 60.868 54.717 Z "/>
            <path fill="rgb(92,140,48)" d=" M 27.328 51.557 C 28.111 51.673 28.88 51.269 29.228 50.557 C 29.518 49.907 29.748 48.867 30.798 49.317 C 31.668 49.687 31.298 50.667 31.428 51.387 C 31.308 52.777 31.288 54.247 29.198 53.837 C 28.888 52.797 27.338 52.817 27.328 51.557 Z "/>
            <path fill="rgb(99,150,51)" d=" M 29.198 53.817 C 30.658 53.657 30.338 51.817 31.428 51.367 C 32.908 51.727 33.488 52.877 33.898 54.187 C 32.138 54.007 30.308 54.937 28.608 53.837 L 29.198 53.817 Z "/>
            <path fill="rgb(102,154,53)" d=" M 48.138 32.447 C 48.708 32.207 49.798 33.337 49.868 31.787 C 50.318 33.007 52.978 34.007 50.198 35.557 C 49.338 36.037 48.578 37.057 48.198 35.187 C 48.048 34.417 47.538 34.317 46.888 34.627 C 45.975 35.013 44.931 34.923 44.098 34.387 C 43.338 33.567 42.468 34.157 41.638 34.157 C 41.028 34.157 39.988 34.807 39.948 33.407 C 42.618 32.297 45.488 33.347 48.138 32.447 Z "/>
            <path fill="rgb(101,154,52)" d=" M 37.778 36.437 C 40.858 36.267 37.838 37.857 38.538 38.617 C 40.728 38.027 43.108 41.147 45.478 38.427 C 46.478 38.427 46.408 39.047 46.308 39.717 C 43.818 42.817 40.688 41.177 37.738 40.887 L 37.378 40.557 C 37.898 39.237 36.138 38.397 36.638 37.077 C 36.838 36.557 37.108 36.147 37.778 36.437 Z "/>
            <path fill="rgb(95,145,49)" d=" M 55.898 35.617 C 56.898 36.307 57.678 35.227 58.898 35.387 C 57.758 36.947 57.718 39.387 54.898 38.587 C 55.068 37.547 54.038 36.077 55.898 35.617 Z "/>
            <path fill="rgb(95,144,49)" d=" M 46.118 39.577 C 46.155 39.1 45.903 38.647 45.478 38.427 C 47.958 38.317 50.228 36.947 52.768 37.317 C 52.908 37.317 52.978 37.817 53.078 38.087 L 53.078 38.667 C 50.916 39.711 48.475 40.031 46.118 39.577 Z "/>
            <path fill="rgb(101,153,53)" d=" M 36.258 41.777 C 34.968 41.847 34.258 43.397 32.808 43.107 L 32.808 42.517 C 32.338 41.747 32.888 41.267 33.308 40.747 C 34.618 39.367 36.068 41.197 37.408 40.557 L 37.408 40.557 C 37.529 40.657 37.605 40.801 37.618 40.957 C 37.618 41.127 37.618 41.217 37.618 41.217 C 37.238 41.687 36.898 42.087 36.258 41.777 Z "/>
            <path fill="rgb(95,144,49)" d=" M 30.178 36.787 L 31.318 36.147 L 33.148 37.817 C 32.668 38.287 32.148 38.757 31.428 38.487 C 30.428 37.847 30.048 39.487 29.108 39.177 L 27.948 39.227 C 27.948 38.867 27.228 38.157 28.098 38.227 C 29.388 38.397 29.718 37.587 30.178 36.787 Z "/>
            <path fill="rgb(105,159,55)" d=" M 39.978 33.407 C 40.798 34.307 41.668 33.867 42.538 33.507 C 43.408 33.147 43.978 33.407 44.128 34.387 L 38.278 34.657 C 38.308 33.507 38.678 32.827 39.978 33.407 Z "/>
            <path fill="rgb(102,154,53)" d=" M 41.668 36.957 C 42.668 35.957 43.848 36.087 45.578 36.437 C 44.414 37.177 42.984 37.367 41.668 36.957 Z "/>
            <path fill="rgb(105,158,55)" d=" M 33.048 35.477 C 32.868 34.177 34.158 33.877 34.698 33.067 L 35.278 33.067 C 35.666 33.577 35.698 34.274 35.358 34.817 C 34.679 35.279 33.869 35.511 33.048 35.477 Z "/>
            <path fill="rgb(94,143,49)" d=" M 33.278 40.747 C 33.118 41.337 32.948 41.927 32.778 42.517 C 31.438 43.387 30.938 42.847 30.968 41.437 L 33.278 40.747 Z "/>
            <path fill="rgb(91,139,47)" d=" M 37.778 36.437 L 36.618 37.077 C 36.008 37.007 35.448 36.867 35.528 36.077 C 35.588 35.607 35.958 35.457 36.348 35.397 C 36.681 35.283 37.049 35.339 37.333 35.546 C 37.618 35.753 37.784 36.085 37.778 36.437 Z "/>
            <line x1="31.428" x2="33.148" y1="38.487" y2="37.817"/>
            <path fill="rgb(102,155,53)" d=" M 56.728 23.527 C 56.938 23.347 57.178 22.957 57.478 22.907 C 58.078 22.807 58.188 23.317 58.288 23.807 C 58.388 24.297 58.288 24.447 57.748 24.397 C 57.208 24.347 56.808 24.287 56.728 23.527 Z "/>
            <path fill="rgb(92,140,48)" d=" M 35.858 33.007 C 35.318 32.087 34.018 32.867 33.468 31.947 C 34.778 30.747 36.208 31.947 37.558 31.757 C 37.728 33.177 37.278 33.747 35.858 33.007 Z "/>
            <path fill="rgb(91,138,47)" d=" M 46.328 31.357 C 46.796 31.291 47.262 31.496 47.528 31.887 L 45.058 32.007 C 45.398 31.207 45.938 31.477 46.328 31.357 Z "/>
            <path fill="rgb(94,143,49)" d=" M 35.088 28.957 C 35.328 31.437 33.268 29.677 32.568 30.417 C 33.068 29.307 34.358 29.657 35.088 28.957 Z "/>
            <path fill="rgb(98,148,51)" d=" M 37.408 41.137 L 37.408 40.557 C 40.288 39.927 43.468 41.967 46.148 39.557 C 48.358 38.327 50.808 38.977 53.148 38.647 L 52.618 39.867 C 50.278 40.747 52.818 41.417 52.718 42.207 L 52.718 42.207 C 52.388 42.357 51.878 42.437 51.718 42.697 C 50.478 45.247 49.368 44.527 48.238 42.617 C 47.998 42.326 47.719 42.07 47.408 41.857 C 47.311 41.755 47.169 41.708 47.031 41.732 C 46.892 41.756 46.774 41.848 46.718 41.977 C 46.608 42.147 46.668 42.317 46.848 42.467 L 45.148 43.717 C 45.279 44.136 45.494 44.524 45.778 44.857 C 45.698 45.507 45.888 46.857 44.898 46.267 C 43.478 45.387 42.388 46.337 41.158 46.267 C 40.856 46.238 40.608 46.015 40.548 45.717 C 40.938 45.007 41.638 45.097 42.278 45.047 C 42.518 44.847 42.708 44.637 42.278 44.467 C 40.608 42.127 39.138 44.077 37.598 44.677 C 36.781 44.938 35.888 44.756 35.238 44.197 L 36.898 42.957 C 37.228 42.377 37.998 41.957 37.408 41.137 Z "/>
            <path fill="rgb(94,143,49)" d=" M 59.618 42.817 C 59.618 43.137 59.368 43.367 59.078 43.177 C 58.8 42.941 58.554 42.669 58.348 42.367 C 58.558 42.247 58.768 42.017 58.968 42.027 C 59.468 42.037 59.618 42.397 59.618 42.817 Z "/>
            <path fill="rgb(92,140,48)" d=" M 33.618 47.757 C 34.618 47.277 35.538 46.707 35.258 45.337 C 35.325 45.241 35.435 45.184 35.553 45.184 C 35.67 45.184 35.781 45.241 35.848 45.337 C 36.258 46.337 37.418 46.667 38.088 47.507 C 36.628 47.797 36.458 48.337 36.718 51.737 C 33.998 52.877 33.608 52.587 33.888 49.737 C 33.873 49.069 33.782 48.405 33.618 47.757 L 33.618 47.757 Z "/>
            <path fill="rgb(93,141,48)" d=" M 50.618 48.737 C 51.258 49.477 52.618 50.347 50.278 50.507 C 49.278 50.577 48.218 50.607 47.188 50.657 C 46.048 51.007 45.598 50.287 45.248 49.407 C 45.248 49.267 45.318 49.117 45.358 48.977 C 47.114 49.148 48.885 49.067 50.618 48.737 L 50.618 48.737 Z "/>
            <path fill="rgb(99,150,51)" d=" M 37.988 53.957 L 37.878 51.627 L 38.468 51.627 L 38.818 51.627 C 39.17 51.619 39.521 51.586 39.868 51.527 L 40.218 51.527 L 41.998 52.027 C 42.606 52.115 43.137 52.486 43.428 53.027 C 43.507 53.261 43.436 53.518 43.248 53.677 C 42.699 53.729 42.146 53.675 41.618 53.517 C 40.168 52.587 40.328 53.577 40.358 54.517 C 39.538 54.437 38.618 54.827 37.988 53.957 Z "/>
            <path fill="rgb(91,138,47)" d=" M 43.218 53.177 C 42.669 52.998 42.224 52.59 41.998 52.057 C 42.258 51.287 40.468 50.057 42.478 49.697 L 42.958 49.697 C 44.148 50.127 44.958 50.867 44.798 52.247 C 44.688 53.187 44.218 53.717 43.218 53.177 Z "/>
            <path fill="rgb(92,140,48)" d=" M 40.538 45.687 L 41.148 46.237 L 43.268 47.577 C 41.508 47.577 40.318 47.767 39.678 46.497 C 39.378 45.957 40.098 45.807 40.538 45.687 Z "/>
            <path fill="rgb(102,155,53)" d=" M 42.478 49.697 C 44.308 47.087 44.378 47.067 45.378 48.977 L 45.378 48.977 C 45.112 49.483 44.643 49.851 44.089 49.988 C 43.535 50.126 42.949 50.02 42.478 49.697 Z "/>
            <path fill="rgb(92,140,48)" d=" M 45.768 44.857 C 44.768 44.937 44.868 44.367 45.138 43.717 C 46.085 43.455 47.086 43.899 47.528 44.777 L 46.968 45.387 L 45.768 44.857 Z "/>
            <path fill="rgb(92,140,48)" d=" M 38.468 51.637 C 38.468 51.067 38.468 50.357 39.158 50.247 C 40.068 50.097 40.098 50.927 40.218 51.557 L 40.218 51.557 C 39.745 52.037 38.983 52.072 38.468 51.637 Z "/>
            <path fill="rgb(101,153,52)" d=" M 35.838 45.317 L 35.248 45.317 L 35.198 44.147 C 36.015 44.057 36.841 44.225 37.558 44.627 C 37.178 45.357 36.478 45.267 35.838 45.317 Z "/>
            <path fill="rgb(102,154,53)" d=" M 42.238 44.437 C 42.668 44.307 43.088 44.167 43.528 44.067 C 43.528 44.067 43.738 44.387 43.698 44.487 C 43.418 45.157 42.778 44.917 42.268 45.017 L 42.238 44.437 Z "/>
            <path fill="rgb(96,146,50)" d=" M 42.478 49.697 L 45.378 48.977 C 45.773 49.734 46.421 50.328 47.208 50.657 L 47.898 52.957 C 46.318 53.057 44.898 53.957 43.248 53.747 L 43.248 53.167 C 46.258 51.317 42.678 50.867 42.478 49.697 Z "/>
            <path fill="rgb(105,158,56)" d=" M 53.858 55.037 L 54.938 53.227 L 56.108 53.177 L 56.108 53.757 C 56.273 53.907 56.367 54.12 56.367 54.342 C 56.367 54.565 56.273 54.778 56.108 54.927 L 55.618 54.957 C 55.106 55.35 54.403 55.382 53.858 55.037 Z "/>
            <path fill="rgb(89,136,46)" d=" M 49.718 50.837 L 50.518 51.637 C 50.358 51.787 50.158 52.097 50.028 52.067 C 49.779 52.006 49.572 51.832 49.468 51.597 C 49.408 51.417 49.618 51.157 49.718 50.837 Z "/>
            <path fill="rgb(100,151,52)" d=" M 52.678 42.207 C 53.458 42.317 54.508 41.707 54.898 42.897 C 55.078 43.437 54.628 43.767 54.098 43.837 C 52.828 43.997 52.728 43.117 52.678 42.207 Z "/>
            <path fill="rgb(91,137,47)" d=" M 46.838 42.467 C 46.288 42.077 45.948 41.467 46.568 41.077 C 47.188 40.687 47.288 41.397 47.398 41.857 L 46.838 42.467 Z "/>
            <path fill="rgb(101,153,52)" d=" M 56.188 54.957 L 56.188 53.787 C 57.568 54.577 58.358 52.607 59.668 53.047 L 59.748 54.807 L 56.188 54.957 Z "/>
            <path fill="rgb(98,149,51)" d=" M 48.328 62.317 L 47.718 61.757 C 47.448 59.897 48.718 59.917 49.978 59.897 L 48.328 62.317 Z "/>
            <path fill="rgb(104,157,55)" d=" M 37.408 41.137 C 37.998 41.217 38.998 40.847 38.908 41.837 C 38.818 42.827 37.748 42.837 36.908 42.927 C 36.494 42.697 36.246 42.251 36.268 41.777 L 37.408 41.137 Z "/>
            <path fill="rgb(104,157,54)" d=" M 50.458 40.327 C 50.34 40.816 49.878 41.142 49.378 41.087 C 49.078 41.099 48.797 40.94 48.653 40.676 C 48.509 40.412 48.528 40.089 48.7 39.843 C 48.873 39.598 49.171 39.471 49.468 39.517 C 49.707 39.492 49.946 39.564 50.132 39.716 C 50.318 39.868 50.435 40.088 50.458 40.327 Z "/>
            <line x1="38.468" x2="40.218" y1="51.637" y2="51.557"/>
            <path fill="rgb(255,255,255)" d=" M 38.458 32.197 L 38.408 37.357 L 47.188 37.437 L 32.298 50.427 L 38.498 53.767 L 51.958 42.117 L 51.888 50.977 L 56.968 51.017 L 57.128 32.347 L 38.458 32.197 L 38.458 32.197 Z "/>
        </g>
    </g>
    <defs>
        <filter id="c57PL0bdTzyeaqbld6SBua4ssTQOv3Wv" width="93.426" height="90.452" x="0" y="0" filterUnits="userSpaceOnUse">
            <feGaussianBlur xmlns="http://www.w3.org/2000/svg" in="SourceGraphic" stdDeviation="1.7174436251356113"/>
            <feOffset xmlns="http://www.w3.org/2000/svg" dx="2" dy="2" result="pf_100_offsetBlur"/>
            <feFlood xmlns="http://www.w3.org/2000/svg" flood-color="#000000" flood-opacity="0.5"/>
            <feComposite xmlns="http://www.w3.org/2000/svg" in2="pf_100_offsetBlur" operator="in" result="pf_100_dropShadow"/>
            <feBlend xmlns="http://www.w3.org/2000/svg" in="SourceGraphic" in2="pf_100_dropShadow" mode="normal"/>
        </filter>
    </defs>
</svg>
