<svg xmlns="http://www.w3.org/2000/svg" xmlns:xlink="http://www.w3.org/1999/xlink" width="54" height="52" style="isolation:isolate" viewBox="20 20 54 52">
    <g filter="url(#QQ1c7gymmZIuTXXhHyCscsm2tH8KBz1Q)">
        <g>
            <path fill="rgb(219,104,48)" d=" M 67.64 59.102 C 65.8 67.152 34 69.452 25.66 63.232 C 17.32 57.012 19.68 31.652 24 25.322 C 28.32 18.992 46.2 20.082 46.44 20.082 C 52.303 19.679 58.174 20.759 63.51 23.222 C 72.09 27.302 69.48 51.072 67.64 59.102 Z "/>
            <path fill="rgb(217,96,39)" d=" M 53.27 65.482 L 47.43 65.772 C 46.76 65.322 45.94 65.422 45.21 65.152 C 44.968 65.05 44.734 64.93 44.51 64.792 C 42.71 63.552 41.39 64.372 40.19 65.792 C 39.61 65.872 39.03 65.872 38.44 65.902 C 35.679 66.144 32.897 65.941 30.2 65.302 C 29.12 64.972 28 64.772 27.33 63.602 C 28.141 62.008 29.942 61.181 31.68 61.602 C 36.29 62.362 40.79 60.862 45.35 61.262 C 46.307 61.257 47.261 61.348 48.2 61.532 C 49.086 61.749 50.022 61.624 50.82 61.182 C 52.13 61.182 53.25 60.272 54.58 60.312 C 56.17 60.862 58.29 60.502 58.84 62.812 C 58.815 63.438 58.519 64.022 58.03 64.412 C 56.59 65.412 54.77 64.772 53.27 65.482 Z "/>
            <path fill="rgb(218,98,41)" d=" M 67.34 29.772 L 68.7 33.172 L 68.7 34.342 C 68.3 35.742 68.37 37.702 65.92 36.682 C 65.288 36.484 64.773 36.021 64.51 35.412 C 64.51 34.892 64.96 34.862 65.3 34.782 C 65.3 34.782 65.11 34.782 65.08 34.782 C 64.38 34.782 63.76 34.232 63.08 34.582 C 62.642 34.837 62.124 34.915 61.63 34.802 C 61.175 34.428 60.561 34.311 60 34.492 C 58.79 34.492 57.27 35.222 56.88 33.222 C 57.1 32.662 57.74 32.712 58.12 32.372 C 57.846 32.355 57.582 32.269 57.35 32.122 C 56.862 31.813 56.661 31.201 56.87 30.662 C 57.407 30.199 58.038 29.858 58.72 29.662 C 59.522 29.438 60.348 29.307 61.18 29.272 C 63.02 28.972 64.85 29.552 66.69 29.272 C 66.933 29.402 67.153 29.571 67.34 29.772 Z "/>
            <path fill="rgb(216,95,38)" d=" M 22.42 57.612 C 21.49 56.11 20.992 54.38 20.98 52.612 C 20.4 51.452 21.09 50.052 20.32 48.912 L 20.24 47.162 C 21.71 47.372 23.43 44.582 24.69 47.522 C 24.98 48.202 24.78 49.112 25.69 49.522 C 26.78 49.422 25.95 48.632 26.15 48.212 C 26.525 47.195 27.571 46.59 28.64 46.772 C 29.91 47.132 29.33 48.382 29.15 49.262 C 28.797 50.584 27.924 51.705 26.73 52.372 C 25.82 52.492 25.82 53.882 24.73 53.802 C 24.22 53.872 23.58 53.802 23.8 54.672 C 24.196 55.195 24.469 55.8 24.6 56.442 C 24.47 57.882 23.73 58.282 22.42 57.612 Z "/>
            <path fill="rgb(218,97,40)" d=" M 68.92 37.842 L 69.06 40.772 C 68.747 41.149 68.28 41.362 67.79 41.352 C 68.24 41.532 68.79 41.522 69.11 41.942 L 69.11 42.522 C 68.57 43.072 69.11 43.872 68.67 44.452 C 67.47 45.082 66.6 44.172 65.67 43.782 C 64.74 43.392 63.61 42.642 62.42 43.352 C 61.638 43.813 60.81 44.192 59.95 44.482 C 59.561 44.592 59.149 44.592 58.76 44.482 C 58.386 44.323 58.083 44.031 57.91 43.662 C 57.826 43.126 58.014 42.583 58.41 42.212 C 59.003 41.731 59.537 41.18 60 40.572 C 61.67 39.912 61.81 37.082 64.27 37.572 C 64.42 37.932 64.59 38.262 64.96 37.702 C 65.179 37.572 65.414 37.471 65.66 37.402 C 66.759 37.075 67.947 37.235 68.92 37.842 Z "/>
            <path fill="rgb(216,95,38)" d=" M 20.1 44.252 L 20 43.082 C 20.169 42.894 20.357 42.724 20.56 42.572 C 21.006 42.308 21.493 42.119 22 42.012 C 22.391 41.96 22.79 42.004 23.16 42.142 C 26 41.752 27.52 43.382 28.6 45.692 C 27.6 47.692 25.89 46.382 24.52 46.692 C 23.95 46.382 23.26 46.242 22.89 45.642 C 22.53 44.002 20.81 45.162 20.1 44.252 Z "/>
            <path fill="rgb(208,91,35)" d=" M 23.07 45.282 L 24.29 46.392 C 24.46 46.535 24.563 46.742 24.575 46.964 C 24.586 47.186 24.505 47.403 24.35 47.562 C 23.88 47.782 22.57 44.462 22.82 47.932 C 22.887 48.238 22.716 48.545 22.421 48.649 C 22.126 48.753 21.8 48.622 21.66 48.342 C 21.25 47.822 21.09 47.112 20.24 47.162 L 20.18 46.002 C 21 45.252 21.87 44.562 23.07 45.282 Z "/>
            <path fill="rgb(219,101,45)" d=" M 68.92 37.842 L 64.84 38.032 C 64.5 37.032 65.07 36.542 65.92 36.232 C 67.92 37.122 68.1 35.412 68.75 34.342 L 68.92 37.842 Z "/>
            <path fill="rgb(217,96,39)" d=" M 23.07 45.282 L 20.18 46.002 L 20.1 44.252 C 21.152 43.828 22.328 43.828 23.38 44.252 C 24.54 44.772 23.79 45.092 23.07 45.282 Z "/>
            <path fill="rgb(211,92,36)" d=" M 69.11 41.932 C 67.745 42.2 66.342 41.711 65.44 40.652 L 69.06 40.762 L 69.11 41.932 Z "/>
            <path fill="rgb(217,96,39)" d=" M 45.68 65.842 L 42.18 66.012 C 41.989 65.791 41.989 65.464 42.18 65.242 C 42.967 64.595 44.029 64.392 45 64.702 L 45 64.702 C 45.38 65.012 46 65.162 45.68 65.842 Z "/>
            <path fill="rgb(220,104,50)" d=" M 42.12 65.442 C 42.15 65.631 42.17 65.822 42.18 66.012 L 38.68 66.172 C 38.676 65.998 38.631 65.827 38.55 65.672 L 40.41 65.412 C 40.897 64.965 41.649 64.978 42.12 65.442 Z "/>
            <path fill="rgb(219,110,58)" d=" M 20.32 48.912 C 21.41 49.992 20.94 51.352 20.98 52.612 C 20.795 52.638 20.609 52.566 20.49 52.422 L 20.32 48.912 Z "/>
            <path fill="rgb(208,91,34)" d=" M 45.68 65.842 L 45 64.702 C 45.926 64.692 46.812 65.082 47.43 65.772 L 45.68 65.842 Z "/>
            <path fill="rgb(220,108,54)" d=" M 68.53 44.302 C 68.67 43.682 68.53 42.962 69.14 42.512 L 69.28 45.432 L 69.05 45.532 L 68.82 45.452 L 68.5 45.292 C 68.308 44.987 68.32 44.596 68.53 44.302 Z "/>
            <path fill="rgb(219,100,43)" d=" M 21 35.412 C 21.017 34.185 21.293 32.976 21.81 31.862 C 23.49 31.662 21.5 30.452 22.31 30.002 L 22.4 28.952 C 23.2 29.127 24.036 28.941 24.687 28.444 C 25.337 27.947 25.737 27.19 25.78 26.372 C 26.44 25.912 27.01 26.192 27.57 26.592 C 28.19 27.212 29.08 27.382 29.77 27.892 C 29.88 28.832 30.93 29.012 31.31 29.742 C 31.352 30.002 31.299 30.269 31.16 30.492 C 30.35 31.592 29.16 31.022 28.1 31.242 C 28.541 31.177 28.992 31.208 29.42 31.332 C 31.03 33.732 28.54 34.622 27.67 36.122 C 26.39 36.572 24.86 37.792 24.62 35.122 C 24.84 34.812 24.52 35.202 24.75 34.892 C 24.856 34.747 24.973 34.61 25.1 34.482 C 25 34.566 24.91 34.66 24.83 34.762 C 23.909 35.929 22.255 36.209 21 35.412 Z "/>
            <path fill="rgb(220,105,51)" d=" M 48.85 20.582 L 49.98 20.582 C 50.505 21.19 51.214 21.608 52 21.772 C 53.15 22.082 54 23.032 55.28 23.122 C 55.43 20.642 57.43 22.742 58.28 21.922 C 58.905 21.842 59.533 22.039 60 22.462 C 60.42 22.562 59.2 23.562 60.49 23.282 C 61.06 23.152 61.56 23.612 61.2 24.372 C 60.783 24.751 60.215 24.917 59.66 24.822 C 58.9 24.652 58.92 25.112 58.85 25.582 C 56.18 26.162 53.49 25.842 50.85 25.832 C 49.93 25.432 48.92 26.082 47.99 25.632 C 47.653 25.379 47.487 24.958 47.56 24.542 C 48.56 23.672 46.56 23.852 47.05 23.152 C 47.4 22.262 48.63 21.992 48.66 20.862 L 48.85 20.582 Z "/>
            <path fill="rgb(217,96,38)" d=" M 21 35.412 L 24.92 34.662 L 24.92 34.662 C 24.99 37.662 26.92 35.172 27.92 35.662 L 28.28 35.742 C 28.91 36.122 29.46 36.622 30.1 37.002 C 30.402 37.239 30.542 37.628 30.46 38.002 C 30.167 38.487 29.663 38.806 29.1 38.862 C 26.88 39.042 24.67 38.572 22.44 39.092 C 20.67 39.512 20.53 38.322 20.91 36.962 L 21 35.412 Z "/>
            <path fill="rgb(220,104,50)" d=" M 34.07 21.272 C 36.58 20.332 39.21 20.592 41.8 20.512 C 42.54 20.892 43.34 20.512 44.09 20.712 C 44.7 21.512 44.54 22.462 44.63 23.372 C 44.429 24.331 43.911 25.194 43.16 25.822 C 42.684 26.122 42.105 26.212 41.56 26.072 C 40.26 25.562 39.13 24.542 37.56 25.302 C 36.72 25.692 36.39 24.992 36.51 24.162 C 36.726 23.673 37.119 23.284 37.61 23.072 C 37.94 22.922 38.47 22.852 38.53 22.542 C 38.64 21.892 38.05 22.242 37.77 22.182 C 37.036 22.101 36.299 22.313 35.72 22.772 C 34.66 22.822 34.22 22.212 34.07 21.272 Z "/>
            <path fill="rgb(219,101,45)" d=" M 20.87 37.042 C 21.04 37.962 20.87 39.042 22.52 38.492 C 24.684 37.742 27.04 37.763 29.19 38.552 C 29.387 38.729 29.484 38.99 29.45 39.252 C 29.329 39.778 29.086 40.268 28.74 40.682 C 28.17 41.272 27.31 41.792 26.74 41.182 C 25.61 39.952 24.31 40.572 23.07 40.482 C 22.806 40.491 22.541 40.474 22.28 40.432 C 21.624 40.322 21.018 40.015 20.54 39.552 C 20.311 38.705 20.43 37.802 20.87 37.042 Z "/>
            <path fill="rgb(220,106,52)" d=" M 27.47 26.942 L 25.69 26.442 L 25.38 26.262 C 25 25.772 24.63 25.332 25 24.692 C 26.047 23.504 27.45 22.687 29 22.362 C 29.581 22.845 30.265 23.188 31 23.362 C 31.519 23.533 31.957 23.889 32.23 24.362 C 32.47 25.362 32.07 25.932 31.06 25.612 C 29.62 25.152 28.72 25.912 27.81 26.792 L 27.47 26.942 Z "/>
            <path fill="rgb(218,103,48)" d=" M 58.25 21.912 C 56.16 23.152 54.09 24.532 51.81 22.282 C 51.41 21.982 50.91 21.752 51.04 21.112 C 51.83 20.482 52.72 21.262 53.53 20.932 C 55.159 20.873 56.779 21.209 58.25 21.912 Z "/>
            <path fill="rgb(219,101,46)" d=" M 32 24.382 L 30.81 23.852 C 30.65 22.222 32.24 22.202 33.03 21.432 L 34.03 21.272 C 34.74 21.562 35.03 22.562 36.03 22.442 C 37.23 21.792 37.79 22.232 37.83 23.522 L 36.69 24.162 C 36.518 24.361 36.262 24.465 36 24.442 C 34.961 23.918 33.724 23.967 32.73 24.572 C 32.47 24.645 32.191 24.572 32 24.382 Z "/>
            <path fill="rgb(219,104,48)" d=" M 25.69 26.442 C 27.3 27.642 25.69 28.442 25.19 29.132 C 24.3 30.522 23.31 29.442 22.39 28.952 L 23.56 26.552 C 23.822 26.246 24.199 26.061 24.601 26.04 C 25.004 26.019 25.398 26.165 25.69 26.442 Z "/>
            <path fill="rgb(219,101,45)" d=" M 67.34 29.772 L 67.06 29.772 L 66.78 29.772 C 66.14 29.122 65.15 29.422 64.45 28.912 C 64.285 28.725 64.195 28.482 64.2 28.232 C 64.27 27.232 63.2 26.732 62.93 25.892 C 62.845 25.629 62.845 25.346 62.93 25.082 C 63.28 24.612 63.67 24.272 64.31 24.542 C 66.043 25.752 67.153 27.667 67.34 29.772 Z "/>
            <path fill="rgb(219,101,45)" d=" M 33.05 21.432 C 32.69 22.582 31.49 22.972 30.83 23.852 C 29.68 24.012 29 23.662 29 22.362 C 30.266 21.76 31.648 21.443 33.05 21.432 Z "/>
            <path fill="rgb(222,113,63)" d=" M 64.33 24.532 L 63.06 25.252 C 62.14 25.674 61.131 25.87 60.12 25.822 C 59.612 25.711 59.193 25.355 59 24.872 C 59.45 23.572 60.57 24.522 61.3 24.172 C 61.53 23.682 62.1 23.882 62.43 23.602 C 63.31 23.312 63.83 23.902 64.33 24.532 Z "/>
            <path fill="rgb(221,110,58)" d=" M 44.16 20.932 C 43.36 20.842 42.49 21.212 41.8 20.512 C 44.143 20.236 46.513 20.259 48.85 20.582 L 48.77 20.782 C 47.26 21.672 45.74 22.232 44.16 20.932 Z "/>
            <path fill="rgb(218,101,45)" d=" M 62.38 23.602 C 62.134 23.983 61.702 24.201 61.25 24.172 C 60.43 23.172 59.17 23.962 58.25 23.622 C 58.52 22.472 59.66 23.142 60.06 22.462 C 61.06 22.282 61.58 23.232 62.38 23.602 Z "/>
            <path fill="rgb(217,96,39)" d=" M 20.54 39.552 C 21.16 39.552 21.81 39.402 22.24 40.052 C 22.124 40.847 21.967 41.634 21.77 42.412 C 21.519 42.874 20.993 43.115 20.48 43.002 C 20.48 42.002 20.43 41.052 20.41 40.082 C 20.407 39.898 20.452 39.715 20.54 39.552 L 20.54 39.552 Z "/>
            <path fill="rgb(221,108,55)" d=" M 22.3 30.002 C 22.3 31.542 24.3 30.472 24.48 31.952 C 23.59 32.462 22.68 31.572 21.8 31.862 C 21.657 31.198 21.844 30.506 22.3 30.002 Z "/>
            <path fill="rgb(221,108,55)" d=" M 25.69 26.442 L 23.56 26.552 C 23.767 25.762 24.287 25.091 25 24.692 L 25.69 26.442 Z "/>
            <path fill="rgb(220,105,51)" d=" M 53.53 20.932 C 52.85 22.172 51.94 20.932 51.17 21.142 C 50.67 21.322 50.43 21.202 50.56 20.642 C 51.554 20.39 52.604 20.493 53.53 20.932 Z "/>
            <path fill="rgb(215,94,37)" d=" M 50.56 20.642 L 51.17 21.142 C 51.38 21.522 51.59 21.902 51.81 22.282 C 50.52 22.472 49.91 21.922 49.98 20.622 L 50.56 20.642 Z "/>
            <path fill="rgb(212,92,35)" d=" M 27.34 63.242 C 26.631 63.198 25.982 62.829 25.58 62.242 C 25.19 60.302 26.22 59.712 27.86 60.042 C 28.93 60.252 29.92 60.732 30.65 59.492 C 31.51 58.052 32.56 57.352 34.11 58.612 C 33.96 60.902 35.68 59.712 36.64 60.002 C 38.31 60.502 37.59 59.242 37.73 58.622 C 38.82 57.312 39.93 57.342 41.02 58.622 C 41.393 59.144 41.911 59.543 42.51 59.772 C 43.45 59.872 44.09 59.022 44.98 58.992 C 45.828 58.877 46.617 59.45 46.77 60.292 C 46.68 61.082 45.85 61.222 45.49 61.772 C 42.28 62.052 39.07 62.422 35.85 62.582 C 33 62.702 30.09 61.912 27.34 63.242 Z "/>
            <path fill="rgb(217,97,39)" d=" M 61.53 62.862 C 60.444 63.573 59.187 63.978 57.89 64.032 L 58.41 62.902 C 59.67 61.662 57.41 60.802 58.04 59.662 C 58.087 59.515 58.209 59.405 58.36 59.372 C 58.23 59.372 58.12 59.452 58.02 59.642 C 57.454 60.441 56.368 60.667 55.53 60.162 C 54.8 59.732 54.38 60.092 53.87 60.472 C 52.753 60.862 51.525 60.32 51.06 59.232 C 50.98 58.532 51.43 58.232 51.97 58.002 C 52.733 57.893 53.472 57.66 54.16 57.312 C 54.456 57.094 54.798 56.947 55.16 56.882 C 55.44 56.882 55.82 56.882 55.91 57.102 C 56.55 58.532 56.51 57.102 56.74 56.902 C 57.59 55.832 59.24 55.722 59.85 54.352 C 60.022 54.154 60.233 53.994 60.47 53.882 C 60.734 53.847 61 53.927 61.2 54.102 C 62.46 55.302 61.51 56.532 61.2 57.752 C 61.12 59.472 60.75 61.192 61.53 62.862 Z "/>
            <path fill="rgb(208,91,36)" d=" M 58.24 59.402 C 57.68 60.602 61.24 61.602 58.41 62.902 C 57.65 60.902 55.51 61.682 54.21 60.762 C 54 60.642 53.93 60.512 53.99 60.382 C 54.05 60.252 54.12 60.182 54.19 60.182 C 53.66 59.012 54.31 58.612 55.11 59.272 C 56.24 60.212 57.2 59.602 58.24 59.402 Z "/>
            <path fill="rgb(213,93,36)" d=" M 42.12 65.442 L 40.41 65.442 C 40.22 64.312 40.79 63.382 41.79 63.442 C 42.79 63.502 44.52 62.982 45.04 64.752 C 44.16 65.276 43.141 65.517 42.12 65.442 Z "/>
            <path fill="rgb(206,90,35)" d=" M 45.49 61.772 C 45.441 61.456 45.538 61.134 45.754 60.897 C 45.969 60.66 46.28 60.534 46.6 60.552 C 47.23 59.742 47.95 59.252 48.99 59.862 C 49.7 60.862 49.36 61.602 48.43 62.212 L 45.49 61.772 Z "/>
            <path fill="rgb(207,90,35)" d=" M 54.19 60.182 C 54.19 60.372 54.19 60.572 54.19 60.762 C 53.12 61.372 52.08 62.182 50.72 61.512 C 50.499 60.917 50.381 60.288 50.37 59.652 C 50.51 59.252 50.71 58.972 51.19 59.152 C 52.16 59.632 53 60.482 54.19 60.182 Z "/>
            <path fill="rgb(212,93,36)" d=" M 50.66 59.772 C 51.048 60.282 51.08 60.979 50.74 61.522 C 50.33 62.952 49.26 62.182 48.43 62.212 C 48.837 61.497 49.005 60.67 48.91 59.852 L 49.12 59.592 C 49.421 59.414 49.775 59.346 50.12 59.402 C 50.331 59.473 50.518 59.601 50.66 59.772 Z "/>
            <path fill="rgb(217,97,39)" d=" M 67.8 52.512 L 67.87 53.682 C 66.658 54.342 65.3 54.685 63.92 54.682 C 63.43 53.842 62.81 53.592 61.98 54.272 C 61.607 54.4 61.193 54.307 60.91 54.032 L 60.91 54.032 C 59.13 54.032 57.37 53.572 55.58 53.682 C 55.16 53.737 54.733 53.717 54.32 53.622 C 54.037 53.534 53.786 53.363 53.6 53.132 C 53.385 52.738 53.334 52.274 53.46 51.842 C 53.793 51.183 54.436 50.735 55.17 50.652 C 55.736 50.551 56.28 50.355 56.78 50.072 C 58.13 49.312 59.21 47.462 61.05 49.752 C 61.66 50.522 63.56 50.132 64.36 50.202 C 63.73 50.312 63.18 49.812 63.2 48.662 C 63.41 48.079 63.849 47.607 64.415 47.354 C 64.981 47.101 65.625 47.09 66.2 47.322 C 67.014 47.446 67.844 47.422 68.65 47.252 C 68.897 48.695 68.535 50.176 67.65 51.342 C 65.78 51.572 63.92 52.092 62.17 51.792 C 63.278 51.978 64.411 51.954 65.51 51.722 C 66.5 51.612 67.3 51.562 67.8 52.512 Z "/>
            <path fill="rgb(213,95,39)" d=" M 61.53 62.862 C 59.29 61.462 60.93 59.302 60.53 57.542 C 61.19 57.252 61.42 57.772 61.71 58.162 C 62 58.552 62.19 59.162 62.9 59.072 C 63.22 58.942 63.52 58.782 63.82 58.632 C 65.02 58.222 64.54 57.432 64.24 56.692 C 64.46 53.762 66.24 55.062 67.62 55.482 C 67.67 59.662 65.33 61.872 61.53 62.862 Z "/>
            <path fill="rgb(215,95,38)" d=" M 68.68 47.232 C 67.96 47.612 68.28 50.552 66.33 48.062 C 65.72 47.292 64.4 47.882 63.58 48.622 C 62.41 48.742 62.52 47.872 62.44 47.152 C 63.57 46.472 62.82 44.462 64.54 44.152 C 66 44.152 67.44 44.252 68.54 45.452 C 68.633 45.506 68.747 45.506 68.84 45.452 L 68.68 47.232 Z "/>
            <path fill="rgb(209,92,36)" d=" M 67.59 55.482 C 66.99 56.892 64.59 53.952 64.59 56.762 C 65.15 57.962 64.4 58.582 63.59 59.152 L 63.03 59.762 C 62.74 59.715 62.496 59.517 62.39 59.242 C 62.358 58.982 62.195 58.756 61.958 58.642 C 61.721 58.529 61.443 58.544 61.22 58.682 C 61.252 58.212 61.006 57.765 60.59 57.542 C 61.09 56.412 61.8 55.302 61 54.012 L 62.17 53.952 C 62.8 53.952 63.33 54.382 63.95 54.452 C 65.26 54.082 66.41 52.802 67.95 53.682 C 68.109 54.306 67.977 54.968 67.59 55.482 Z "/>
            <path fill="rgb(221,108,55)" d=" M 67.8 52.512 C 65.92 51.802 63.89 52.432 61.97 51.852 C 63.97 52.012 65.68 50.342 67.71 51.322 L 67.8 52.512 Z "/>
            <path fill="rgb(217,96,39)" d=" M 31.37 60.092 C 30.56 60.972 29.63 61.812 28.44 60.952 C 26.65 59.662 26.12 60.832 25.58 62.202 C 24.117 61.289 23.047 59.863 22.58 58.202 C 22.93 57.802 23.44 57.922 23.88 57.832 C 25.88 57.392 25.2 56.622 24.14 55.832 C 23.591 55.653 23.146 55.245 22.92 54.712 C 23.51 54.332 23.51 53.152 24.62 53.472 C 25.73 53.792 25.24 51.952 26.31 52.222 C 26.76 51.952 27.08 52.222 27.31 52.512 C 27.74 53.892 28.85 53.652 29.84 53.512 C 29.17 53.322 28.2 53.932 27.71 52.922 C 27.43 52.062 27.98 51.592 28.42 50.922 C 29.55 49.222 30.23 47.362 28.29 45.652 C 27.75 44.832 25.89 45.212 26.34 43.392 C 26.47 42.872 26.12 42.702 25.01 43.052 C 24.07 43.352 23.18 43.942 22.87 42.402 C 22.222 41.777 22.174 40.756 22.76 40.072 C 24.09 39.182 25.63 40.142 27 39.582 C 26.32 42.352 27.9 40.492 28.62 40.372 L 29.03 40.372 C 29.72 40.672 30.79 41.152 30.44 41.822 C 29.44 43.822 30.86 44.452 31.96 45.362 C 32.96 45.882 31.78 47.702 33.42 47.862 C 33.93 48.282 34.52 48.642 34.42 49.432 C 34.146 49.796 33.74 50.036 33.29 50.102 C 33.29 50.202 32.68 50.032 33.19 50.382 C 33.5 50.582 33.09 50.312 33.48 50.382 C 34.33 50.602 35.22 50.762 35.29 51.902 C 35.14 52.542 34.38 52.572 34.12 53.092 C 33.808 53.408 33.642 53.839 33.66 54.282 C 33.837 54.877 33.812 55.513 33.59 56.092 C 33.285 56.543 32.784 56.821 32.24 56.842 C 31.14 56.892 29.57 55.212 29.12 56.842 C 28.945 58.037 28.199 59.071 27.12 59.612 C 27.712 59.283 28.382 59.117 29.06 59.132 C 29.915 59.187 30.728 59.525 31.37 60.092 Z "/>
            <path fill="rgb(205,89,35)" d=" M 24.15 55.772 C 25.61 55.492 26.15 56.562 27.07 57.972 L 22.59 58.182 L 22.42 57.632 C 23.7 57.642 24.36 57.112 24.15 55.772 Z "/>
            <path fill="rgb(217,96,38)" d=" M 65.92 36.232 L 64.84 38.032 L 64.84 38.032 C 64.66 38.302 64.47 38.322 64.26 38.032 C 62.1 38.032 62.02 40.602 60.26 41.142 C 59.68 41.722 58.81 41.682 58.18 42.142 C 57.82 42.952 55.99 42.142 56.37 43.762 C 55.709 44.324 54.968 44.783 54.17 45.122 L 52.03 45.332 C 50.74 44.662 49.24 44.942 47.9 44.462 C 47.649 44.381 47.412 44.259 47.2 44.102 C 46.84 43.692 46.54 43.272 46.96 42.722 C 47.457 42.342 48.055 42.116 48.68 42.072 C 48.869 42.06 49.057 42.106 49.22 42.202 C 49.39 41.802 48.9 41.812 48.82 41.562 C 48.397 40.654 48.027 39.723 47.71 38.772 C 48.15 37.192 49.71 37.602 50.71 37.142 C 51.01 37.022 51.36 37.302 51.61 36.972 C 51.24 36.881 50.939 36.611 50.81 36.252 C 50.563 35.609 50.563 34.896 50.81 34.252 C 52 33.072 53.64 32.722 55.02 31.882 C 55.291 31.837 55.569 31.837 55.84 31.882 C 56.4 32.172 57.23 32.242 56.97 33.222 C 57.45 35.032 59.17 33.292 59.97 34.222 C 60.39 34.692 61.12 34.362 61.55 34.842 C 63.04 36.672 62.94 37.152 60.91 37.532 C 60.152 37.689 59.383 37.786 58.61 37.822 C 61.81 38.052 61.81 38.052 63.31 34.542 C 63.99 34.282 64.38 34.632 64.69 35.172 L 65.92 36.232 Z "/>
            <path fill="rgb(217,97,39)" d=" M 56.89 30.772 L 57.53 31.912 C 57.039 32.35 56.309 32.383 55.78 31.992 L 55.78 31.992 C 54.17 31.842 53.01 33.142 51.24 33.072 C 49.459 33.15 47.771 32.274 46.81 30.772 C 47.3 29.502 49.37 30.642 49.59 28.952 C 49.673 28.711 49.844 28.511 50.07 28.392 C 50.41 28.232 50.93 27.982 51.13 28.162 C 52.81 29.722 53.45 27.812 54.48 27.212 C 54.73 27.172 54.987 27.204 55.22 27.302 C 55.76 27.602 56.41 27.522 56.97 27.792 C 57.49 28.262 57.72 28.792 57.11 29.332 C 56.45 29.772 56.75 30.292 56.89 30.772 Z "/>
            <path fill="rgb(219,100,43)" d=" M 63.5 34.592 C 62.74 38.812 61.56 39.142 58.05 38.592 C 57.52 38.512 56.84 38.962 56.8 38.062 C 56.76 37.162 57.45 37.272 58.02 37.162 C 58.828 36.886 59.668 36.714 60.52 36.652 C 63.93 36.972 61.81 35.602 61.17 34.652 C 61.235 34.556 61.344 34.498 61.46 34.498 C 61.576 34.498 61.685 34.556 61.75 34.652 L 62.89 34.012 C 63.5 33.772 63.61 34.072 63.5 34.592 Z "/>
            <path fill="rgb(220,105,50)" d=" M 64.39 28.702 C 65.39 28.602 66.29 28.702 66.78 29.762 C 65.07 30.602 63.26 29.492 61.53 30.002 C 61.303 29.785 61.185 29.476 61.21 29.162 C 61.274 28.855 61.467 28.589 61.74 28.432 C 62.591 27.95 63.654 28.058 64.39 28.702 Z "/>
            <path fill="rgb(220,103,48)" d=" M 56.89 30.772 C 56.34 30.442 55.38 30.442 55.4 29.632 C 55.42 28.822 56.29 29.142 56.81 29.022 C 57.1 29.252 57.49 29.232 57.81 29.392 C 58.145 29.548 58.427 29.798 58.62 30.112 C 58.22 30.852 57.53 30.772 56.89 30.772 Z "/>
            <path fill="rgb(220,108,54)" d=" M 58.62 30.152 C 58.152 30.214 57.689 30.01 57.42 29.622 C 57.667 28.887 58.354 28.389 59.13 28.382 C 60.032 28.331 60.907 28.7 61.5 29.382 L 61.5 29.962 L 58.62 30.152 Z "/>
            <path fill="rgb(220,103,48)" d=" M 55.78 32.032 L 57.53 31.952 C 57.99 31.952 58.84 31.802 58.81 32.222 C 58.75 33.282 57.72 33.032 57 33.142 L 55.78 32.032 Z "/>
            <path fill="rgb(219,102,46)" d=" M 61.75 34.672 L 61.17 34.672 C 60.55 34.992 59.99 35.182 59.98 34.142 C 60.48 33.942 60.54 33.032 61.21 33.222 C 61.88 33.412 61.65 34.162 61.75 34.672 Z "/>
            <path fill="rgb(213,93,36)" d=" M 63.5 34.592 L 62.89 34.032 C 64.14 32.412 64.78 34.802 65.89 34.482 L 65.89 34.482 C 65.666 34.899 65.222 35.148 64.75 35.122 L 63.5 34.592 Z "/>
            <path fill="rgb(210,92,35)" d=" M 65.63 31.912 C 65.126 32.181 64.601 32.409 64.06 32.592 C 63.95 32.592 63.57 32.242 63.59 32.072 C 63.589 31.879 63.67 31.693 63.813 31.562 C 63.956 31.431 64.147 31.366 64.34 31.382 C 64.788 31.512 65.22 31.69 65.63 31.912 L 65.63 31.912 Z "/>
            <path fill="rgb(213,93,36)" d=" M 65.84 34.482 C 65.84 34.032 65.84 33.482 66.55 33.572 C 66.7 33.572 66.94 34.032 66.9 34.232 C 66.75 34.992 66.23 34.522 65.84 34.482 Z "/>
            <path fill="rgb(212,93,36)" d=" M 26.93 52.702 L 26.32 52.142 C 27.66 50.772 29 49.422 28.69 46.832 C 28.18 47.892 25.6 47.012 27.35 49.342 C 27.77 49.902 26.6 50.232 26.16 50.632 C 25.72 51.032 25.16 50.732 24.7 50.272 C 23.93 49.432 24.25 48.492 24.35 47.562 L 24.29 46.392 C 25.41 44.892 27.22 47.042 28.35 45.612 C 29.11 45.552 29.96 45.422 29.83 46.612 C 29.66 48.182 30.92 49.982 29.26 51.282 C 28.75 51.692 28.06 51.812 28.1 52.642 C 27.957 52.813 27.75 52.916 27.528 52.927 C 27.306 52.939 27.089 52.857 26.93 52.702 Z "/>
            <path fill="rgb(220,103,48)" d=" M 24.63 53.392 C 24.04 53.772 23.84 54.692 22.93 54.632 C 22.47 52.822 23.29 52.772 24.63 53.392 Z "/>
            <path fill="rgb(212,93,35)" d=" M 54.05 44.972 C 54.414 44.063 55.365 43.533 56.33 43.702 C 56.549 43.455 56.858 43.307 57.188 43.292 C 57.518 43.277 57.84 43.396 58.08 43.622 L 58.69 44.172 C 59.02 44.702 57.88 45.412 58.9 45.862 C 58.997 46.103 58.997 46.372 58.9 46.612 C 58.701 46.789 58.465 46.918 58.21 46.992 C 57.129 47.04 56.066 46.703 55.21 46.042 C 54.735 45.796 54.334 45.426 54.05 44.972 Z "/>
            <path fill="rgb(206,90,35)" d=" M 68.52 45.492 C 67.29 44.802 65.72 45.422 64.52 44.492 C 64.15 43.902 64.52 43.492 64.92 43.172 C 65.15 43.047 65.435 43.087 65.62 43.272 L 68.49 44.272 C 68.53 44.702 68.52 45.092 68.52 45.492 Z "/>
            <path fill="rgb(206,90,35)" d=" M 58.77 45.922 C 57.901 45.956 57.104 45.445 56.77 44.642 C 57.31 43.992 58.31 45.262 58.72 44.172 L 59.89 44.172 C 60.89 44.172 62.07 44.092 61.89 45.692 C 61 46.842 59.85 46.192 58.77 45.922 Z "/>
            <path fill="rgb(212,93,36)" d=" M 61.69 45.772 C 61.74 44.492 60.3 44.842 59.86 44.102 L 62.14 42.822 C 62.82 42.532 63.25 42.882 63.6 43.412 C 63.728 43.99 63.586 44.593 63.214 45.053 C 62.842 45.512 62.281 45.777 61.69 45.772 Z "/>
            <path fill="rgb(219,100,43)" d=" M 58.08 43.622 L 56.33 43.702 C 55.6 41.922 57.19 42.252 58 41.872 C 58.6 41.612 58.72 41.872 58.61 42.422 L 58.08 43.622 Z "/>
            <path fill="rgb(219,101,45)" d=" M 63.33 43.372 L 62.14 42.842 C 63.48 41.542 64.57 42.402 65.66 43.262 L 65.09 43.262 C 64.62 43.748 63.857 43.795 63.33 43.372 Z "/>
            <path fill="rgb(211,92,35)" d=" M 58.61 42.422 L 58 41.872 C 58.57 40.982 59.5 41.292 60.3 41.172 C 60.075 41.917 59.388 42.425 58.61 42.422 Z "/>
            <path fill="rgb(210,91,35)" d=" M 63.18 41.212 C 62.745 41.712 62.012 41.822 61.45 41.472 C 61.94 40.772 62.59 41.282 63.18 41.212 Z "/>
            <path fill="rgb(211,92,35)" d=" M 64.25 38.062 L 64.83 38.062 C 64.83 38.572 65.07 39.192 64.44 39.522 C 64.34 39.582 64 39.422 64 39.392 C 64.06 38.932 64.16 38.502 64.25 38.062 Z "/>
            <path fill="rgb(210,92,35)" d=" M 22.82 40.032 C 22.82 40.802 22.89 41.582 22.93 42.362 L 21.77 42.412 C 20.58 41.362 21.32 40.692 22.24 40.052 L 22.82 40.032 Z "/>
            <path fill="rgb(217,96,38)" d=" M 30.32 37.912 L 29.71 37.362 C 28.97 36.952 29.09 35.592 27.88 35.692 L 27.88 35.692 C 27.79 34.072 30.18 33.382 29.44 31.522 C 32.76 30.352 36.21 30.662 39.63 30.682 C 40.768 31.788 41.607 33.165 42.07 34.682 C 41.07 35.162 40.98 36.252 40.46 37.072 C 40.214 37.413 39.888 37.688 39.51 37.872 C 39.113 38.041 38.679 38.106 38.25 38.062 C 37.527 38.012 36.929 37.483 36.79 36.772 C 36.785 36.683 36.785 36.592 36.79 36.502 C 36.785 36.406 36.785 36.309 36.79 36.212 C 35.58 36.962 34.37 37.692 33.19 36.212 C 32.96 36.482 33.19 36.792 33.09 37.082 C 32.974 37.68 32.539 38.165 31.958 38.345 C 31.376 38.525 30.743 38.37 30.31 37.942 L 30.32 37.912 Z "/>
            <path fill="rgb(220,104,50)" d=" M 39.94 31.032 C 36.457 31.46 32.947 31.624 29.44 31.522 L 26.68 31.662 C 28.25 30.382 29.88 30.912 31.13 30.272 C 33.36 29.482 35.8 30.192 38.02 29.272 C 39.058 29.272 40.094 29.353 41.12 29.512 C 41.85 29.602 42.89 29.782 42.8 30.652 C 42.71 31.522 41.73 31.562 40.94 31.482 C 40.566 31.446 40.215 31.288 39.94 31.032 Z "/>
            <path fill="rgb(218,97,39)" d=" M 38.13 29.942 C 35.903 30.849 33.432 30.966 31.13 30.272 C 31.13 30.082 31.13 29.892 31.13 29.692 C 31.283 29.48 31.485 29.308 31.72 29.192 C 31.961 29.09 32.213 29.013 32.47 28.962 C 33.835 28.549 35.283 28.484 36.68 28.772 C 36.946 28.792 37.21 28.832 37.47 28.892 C 37.729 28.973 37.97 29.102 38.18 29.272 C 38.321 29.48 38.3 29.758 38.13 29.942 Z "/>
            <path fill="rgb(220,105,50)" d=" M 29.85 28.002 C 28.93 27.932 27.73 28.492 27.47 26.942 L 27.47 26.942 C 28.02 25.942 28.84 25.142 30.01 25.612 C 31.18 26.082 30.63 26.992 30.19 27.752 L 29.85 28.002 Z "/>
            <path fill="rgb(220,106,52)" d=" M 31.69 29.662 L 31.11 29.662 C 30.98 28.882 27.4 30.662 29.85 27.972 L 29.85 27.972 C 30.23 27.422 30.67 26.682 31.4 27.272 C 32.046 27.902 32.167 28.897 31.69 29.662 Z "/>
            <path fill="rgb(216,95,37)" d=" M 24.91 34.662 C 24.99 33.512 25.66 33.312 26.8 33.662 C 26.52 34.752 25.64 34.612 24.91 34.662 Z "/>
            <path fill="rgb(219,99,43)" d=" M 38.13 29.942 C 38.13 29.752 38.13 29.562 38.13 29.362 C 38.26 28.732 39.13 28.512 39.03 27.762 C 39.091 27.525 39.237 27.319 39.44 27.182 C 40.005 26.969 40.511 26.627 40.92 26.182 C 41.065 25.987 41.249 25.823 41.46 25.702 L 43.21 25.622 L 43.41 25.962 C 43.53 26.332 43.3 25.892 43.48 26.232 C 43.95 27.082 43.69 28.362 44.97 28.722 C 43.89 28.382 44.34 27.502 44.29 26.802 C 44.241 26.33 44.385 25.857 44.69 25.492 C 45.2 24.772 44.13 23.152 46 23.292 C 46.656 23.478 47.269 23.794 47.8 24.222 L 47.85 25.392 C 48.27 26.042 49.04 25.802 49.6 26.072 C 51.24 26.852 50.96 27.822 49.77 28.812 L 49.77 28.812 C 48.86 29.372 48.46 30.812 46.99 30.382 C 46.91 30.382 46.75 30.322 46.72 30.382 C 46.52 30.652 46.9 30.582 46.93 30.722 C 49.5 32.262 52.1 33.382 54.98 31.372 C 55.05 31.322 55.5 31.812 55.77 32.052 C 54.24 32.712 53.13 34.342 51.18 34.052 C 50.452 34.516 49.589 34.72 48.73 34.632 C 47.38 34.632 45.92 35.142 44.84 33.862 L 44.67 33.712 C 44.793 33.826 44.907 33.95 45.01 34.082 C 45.12 36.802 43.58 35.962 42.17 35.412 L 41.88 35.082 C 41.82 33.462 39.37 33.002 39.93 31.082 L 42.69 30.952 C 41 29.772 39.45 30.462 38.13 29.942 Z "/>
            <path fill="rgb(220,105,50)" d=" M 49.78 28.772 C 50.34 27.452 50.73 26.162 48.49 26.592 C 46.49 26.962 47.94 25.822 47.86 25.352 C 48.65 25.592 49.39 24.672 50.2 25.242 C 51.35 26.882 53.01 25.522 54.38 25.942 C 54.83 26.312 55.21 26.702 54.97 27.352 C 54.004 27.794 53.416 28.793 53.5 29.852 C 53.5 30.262 53.21 30.852 52.61 30.712 C 52.3 30.642 51.81 30.202 51.85 30.022 C 52.43 27.492 50.43 29.262 49.78 28.772 Z "/>
            <path fill="rgb(219,99,42)" d=" M 54.34 26.252 C 54.058 26.211 53.775 26.185 53.49 26.172 C 52.32 26.172 53.4 28.872 51.66 27.872 C 50.96 27.472 51.43 25.762 50.2 25.282 L 59 24.872 L 60.19 25.392 C 60.28 25.492 60.36 25.602 60.44 25.702 C 60.39 25.959 60.257 26.191 60.06 26.362 C 59.41 26.752 58.87 27.362 58.06 27.362 C 57.82 26.682 57.4 26.482 56.75 26.902 C 56.1 26.632 55.432 26.409 54.75 26.232 L 54.34 26.252 Z "/>
            <path fill="rgb(217,96,38)" d=" M 44.16 20.932 L 48.77 20.772 C 50.65 23.222 48.05 22.542 47.17 23.072 C 46.531 23.065 45.896 23.181 45.3 23.412 C 44.941 23.554 44.532 23.476 44.25 23.212 C 43.681 22.571 43.643 21.617 44.16 20.932 Z "/>
            <path fill="rgb(220,104,50)" d=" M 45.41 23.162 C 45.96 22.392 46.55 22.362 47.17 23.082 C 47.11 23.612 48.37 23.412 47.81 24.222 L 46 23.772 C 45.84 23.512 45.46 23.512 45.41 23.162 Z "/>
            <path fill="rgb(220,104,49)" d=" M 30.32 37.912 L 31.49 37.862 C 31.91 38.172 32.49 38.422 32.19 39.112 C 31.892 39.392 31.515 39.574 31.11 39.632 C 30.837 39.662 30.563 39.662 30.29 39.632 C 29.874 39.607 29.485 39.416 29.21 39.102 L 29.21 38.522 L 30.32 37.912 Z "/>
            <path fill="rgb(212,92,35)" d=" M 27.88 35.692 C 29.66 34.962 29.34 36.552 29.71 37.362 C 28.57 37.392 28.34 36.422 27.88 35.692 Z "/>
            <path fill="rgb(219,100,44)" d=" M 41.44 25.692 L 41.44 26.282 C 40.76 26.842 39.44 26.332 39.16 27.552 L 39.16 27.552 C 38.45 28.022 38.24 28.952 37.5 29.392 L 36.91 29.392 C 35.507 28.32 33.536 28.413 32.24 29.612 L 31.66 29.612 C 30.66 29.502 32.24 26.522 29.83 27.942 C 29.56 27.272 30.71 26.472 29.83 26.012 C 28.95 25.552 28.15 26.402 27.4 26.892 C 27.93 24.842 29.05 23.962 31.15 24.982 C 31.86 25.332 31.91 24.832 31.95 24.332 L 32.54 24.332 C 33.67 23.612 34.85 23.882 36.04 24.162 L 36.62 24.162 C 36.69 24.522 36.84 25.162 37.22 24.842 C 39.05 23.532 40.29 24.282 41.44 25.692 Z "/>
            <path fill="rgb(218,97,40)" d=" M 37.83 23.522 C 37.531 22.793 36.783 22.352 36 22.442 C 35.9 22.042 35.53 21.222 36.16 21.442 C 37.38 21.772 38.53 21.232 40.11 21.372 C 39.31 22.322 39.48 23.772 37.83 23.522 Z "/>
            <path fill="rgb(221,109,57)" d=" M 45.41 23.162 L 46 23.772 C 45.5 23.942 44.71 23.952 45.38 24.772 C 45.56 25.002 46.28 24.772 46 25.332 C 45.9 25.532 45.3 25.482 44.93 25.542 C 44.458 26.033 43.685 26.068 43.17 25.622 L 43.17 25.622 C 43.04 24.622 43.94 24.052 44.23 23.232 L 45.41 23.162 Z "/>
            <path fill="rgb(219,100,43)" d=" M 40.85 22.982 C 40.867 22.747 40.991 22.532 41.185 22.398 C 41.379 22.264 41.624 22.225 41.85 22.292 C 42.36 22.362 42.8 22.642 42.85 23.172 C 42.9 23.702 42.33 23.872 41.85 23.872 C 41.593 23.919 41.328 23.845 41.133 23.671 C 40.938 23.497 40.834 23.243 40.85 22.982 Z "/>
            <path fill="rgb(216,96,38)" d=" M 29.21 39.132 L 30.38 39.082 C 30.49 40.422 29.93 40.832 28.68 40.332 L 28.68 40.332 C 28.613 39.864 28.819 39.399 29.21 39.132 Z "/>
            <path fill="rgb(221,111,60)" d=" M 36.11 24.192 C 34.997 24.647 33.762 24.707 32.61 24.362 C 33.68 22.372 34.89 23.212 36.11 24.192 Z "/>
            <path fill="rgb(220,105,50)" d=" M 63.09 25.842 C 63.54 26.582 65.73 26.352 64.37 28.112 L 64 28.042 C 63.233 27.755 62.767 26.974 62.88 26.162 C 62.944 26.052 63.015 25.945 63.09 25.842 Z "/>
            <path fill="rgb(213,94,36)" d=" M 64.39 28.702 L 61.48 28.842 C 59.92 28.202 61.29 27.692 61.66 27.552 C 62.602 27.327 63.595 27.533 64.37 28.112 L 64.37 28.112 L 64.39 28.702 Z "/>
            <path fill="rgb(220,105,50)" d=" M 60.17 25.972 L 60.17 25.392 C 61.17 25.252 62.08 24.482 63.09 25.252 L 63.09 25.842 L 63.09 25.842 C 62.319 26.683 61.013 26.741 60.17 25.972 Z "/>
            <path fill="rgb(215,95,37)" d=" M 32.38 56.532 L 33.52 55.892 C 34.76 54.332 36.59 55.262 38.09 54.822 C 38.764 54.926 39.372 55.284 39.79 55.822 C 40.79 57.012 42.51 57.392 43.25 58.892 C 43.283 59.594 43.018 60.277 42.52 60.772 C 41.95 60.422 41.02 60.172 40.89 59.702 C 40.33 57.602 39.02 58.282 37.74 58.702 L 37.41 58.602 C 36.46 58.672 35.5 58.712 34.55 58.742 C 34.45 58.791 34.346 58.831 34.24 58.862 C 33.03 58.752 31.45 57.862 31.37 60.172 C 30.54 60.244 29.71 60.047 29 59.612 C 29.37 57.772 31 57.262 32.38 56.532 Z "/>
            <path fill="rgb(217,96,38)" d=" M 50.66 59.772 L 50.07 59.772 C 49.67 59.372 49.27 59.272 48.91 59.772 L 48.91 59.772 L 46.6 60.472 C 46.307 59.751 45.575 59.308 44.8 59.382 C 44.672 59.281 44.598 59.126 44.6 58.962 C 44.6 58.792 44.6 58.712 44.67 58.712 C 45.143 58.317 45.681 58.006 46.26 57.792 C 46.71 57.572 46.8 57.062 47.09 56.712 C 47.602 56.364 48.235 56.241 48.84 56.372 C 49.055 56.412 49.266 56.473 49.47 56.552 C 49.97 56.692 50.23 56.502 50.25 55.972 C 50.25 55.232 50.03 54.242 51.14 54.152 C 51.618 54.076 52.107 54.203 52.487 54.503 C 52.867 54.803 53.104 55.249 53.14 55.732 C 53.148 56.146 53.104 56.559 53.01 56.962 C 52.936 57.517 52.691 58.034 52.31 58.442 C 51.837 58.412 51.39 58.663 51.17 59.082 L 50.66 59.772 Z "/>
            <path fill="rgb(218,96,39)" d=" M 37.74 58.622 C 38.05 58.978 38.385 59.312 38.74 59.622 C 39.13 59.922 39.61 60.162 39.26 60.742 C 38.91 61.322 38.5 61.202 38.01 60.992 C 37.174 60.5 36.174 60.37 35.24 60.632 C 34.51 60.902 33.66 62.042 32.99 61.012 C 32.32 59.982 34.22 59.772 34.24 58.772 L 34.24 58.772 C 35.34 58.261 36.598 58.203 37.74 58.612 L 37.74 58.622 Z "/>
            <path fill="rgb(218,97,40)" d=" M 44.77 58.872 L 44.77 59.452 C 44 59.822 43.54 60.772 42.52 60.772 C 42.52 60.132 42.35 59.442 43.02 58.992 C 43.231 58.737 43.538 58.58 43.869 58.557 C 44.2 58.534 44.526 58.648 44.77 58.872 Z "/>
            <path fill="rgb(215,94,37)" d=" M 55.6 53.092 C 57.416 52.542 59.385 52.883 60.91 54.012 L 60.36 54.622 C 59.36 55.622 56.9 54.622 56.97 57.122 C 56.47 58.942 55.79 56.982 55.21 57.202 C 54.74 56.822 54.09 56.652 53.81 56.042 C 53.28 54.372 54.48 53.772 55.6 53.092 Z "/>
            <path fill="rgb(206,90,35)" d=" M 57 57.122 C 55.74 55.732 56.37 54.922 57.89 54.592 C 58.721 54.497 59.559 54.497 60.39 54.592 C 60.06 56.582 58.15 56.362 57 57.122 Z "/>
            <path fill="rgb(215,94,37)" d=" M 52.35 58.512 L 52.27 56.772 C 53.68 55.772 54.15 56.832 54.66 57.772 C 54.09 58.702 53.16 58.392 52.35 58.512 Z "/>
            <path fill="rgb(206,90,35)" d=" M 54.66 57.772 C 53.66 57.912 53.48 56.152 52.27 56.772 L 52.82 56.162 C 52.958 55.982 53.167 55.87 53.394 55.857 C 53.621 55.843 53.842 55.929 54 56.092 C 54.317 56.044 54.638 56.14 54.875 56.356 C 55.112 56.572 55.239 56.883 55.22 57.202 L 54.66 57.772 Z "/>
            <path fill="rgb(212,93,35)" d=" M 58.24 59.402 L 58.43 58.092 C 58.65 58.192 59 58.242 59.07 58.402 C 59.42 59.222 58.77 59.272 58.24 59.402 Z "/>
            <path fill="rgb(217,97,39)" d=" M 48.91 59.842 C 48.82 59.452 48.31 58.922 49.06 58.752 C 49.81 58.582 49.99 59.192 50.06 59.752 L 48.91 59.842 Z "/>
            <path fill="rgb(216,95,37)" d=" M 55.25 45.512 L 58.25 46.512 C 58.55 47.452 57.81 47.692 57.25 47.942 C 56.69 48.192 55.83 47.822 57 48.802 C 57.91 49.572 56.92 50.272 56 50.502 C 55.8 50.612 55.54 50.052 55.35 50.502 C 55.501 50.553 55.62 50.672 55.671 50.823 C 55.722 50.974 55.7 51.14 55.61 51.272 C 54.97 51.272 54.28 51.272 53.89 51.942 C 53.673 52.226 53.298 52.339 52.96 52.222 C 52.815 52.176 52.723 52.034 52.74 51.882 Q 52.58 52.112 52.86 52.242 C 52.75 53.122 53.76 52.602 53.94 53.102 L 54.53 53.102 C 54.32 54.562 53.14 54.482 52.26 54.222 C 51.358 53.996 50.402 54.163 49.63 54.682 C 49 54.602 48.75 54.122 48.5 53.632 C 48.29 52.712 47.66 52.522 46.83 52.682 C 45.75 52.862 45.56 51.522 44.64 51.422 C 43.4 50.867 42.44 49.831 41.98 48.552 C 41.73 47.702 40.98 46.552 42.26 46.052 C 43.26 45.672 44.76 46.232 44.81 47.282 C 44.92 49.672 46.22 48.282 47.09 48.282 C 47.472 48.239 47.858 48.284 48.22 48.412 C 48.82 48.682 49.39 49.192 50.11 48.712 C 50.617 48.427 51.149 48.189 51.7 48.002 C 52.25 46.332 53.22 45.152 55.25 45.512 Z "/>
            <path fill="rgb(211,92,35)" d=" M 55.46 50.172 C 55.88 49.972 56.58 49.852 56.67 49.562 C 56.9 48.762 56.04 48.802 55.58 48.562 C 55.12 48.322 54.22 48.442 54.49 47.562 C 54.76 46.682 55.34 46.832 56.06 47.312 C 57.01 47.952 57.63 47.172 58.22 46.522 L 58.8 46.522 C 60.09 47.522 61.63 45.922 62.92 46.912 C 62.92 47.552 62.92 48.242 63.58 48.632 C 63.94 50.472 65.5 49.362 66.43 49.792 C 63.02 51.512 59.62 51.162 59.68 48.792 C 58.17 49.622 57.24 51.212 55.52 51.352 L 54.3 50.232 C 54.439 50.06 54.645 49.955 54.867 49.943 C 55.088 49.932 55.304 50.015 55.46 50.172 Z "/>
            <path fill="rgb(211,92,35)" d=" M 49.24 54.562 C 50.54 52.482 53.03 54.822 54.44 53.152 L 55.6 53.092 C 54.772 53.907 54.211 54.953 53.99 56.092 L 52.82 56.152 C 52.71 55.072 51.92 54.812 50.89 54.622 L 51.1 56.772 C 50.63 57.255 49.867 57.294 49.35 56.862 L 49.35 56.862 C 49.164 56.719 49.045 56.506 49.02 56.272 C 48.942 55.693 49.018 55.103 49.24 54.562 Z "/>
            <path fill="rgb(213,93,35)" d=" M 63.86 54.452 C 62.94 55.452 62.37 55.182 62.08 53.952 C 62.08 52.952 62.7 52.572 63.54 52.812 C 64.38 53.052 63.66 53.912 63.86 54.452 Z "/>
            <path fill="rgb(220,103,48)" d=" M 52.63 52.062 L 53.8 52.062 L 53.85 53.222 C 53.12 53.222 52.05 53.572 52.63 52.112 L 52.63 52.062 Z "/>
            <path fill="rgb(217,96,38)" d=" M 61.13 58.682 C 62 57.982 61.57 56.322 63.05 56.102 C 64.29 57.362 61.89 58.502 62.94 59.762 C 61.5 60.772 61.7 59.092 61.13 58.682 Z "/>
            <path fill="rgb(218,96,38)" d=" M 63.5 59.152 L 64.5 56.762 C 65.24 57.132 65.95 57.612 65.5 58.532 C 65.05 59.452 64.22 59.012 63.5 59.152 Z "/>
            <path fill="rgb(216,95,37)" d=" M 62.92 46.902 C 61.6 46.212 59.92 49.702 58.8 46.512 L 58.8 45.922 C 59.73 44.832 60.8 46.242 61.72 45.792 C 62.32 45.012 63.3 44.502 63.36 43.372 L 65.12 43.292 C 64.94 43.692 64.76 44.082 64.59 44.482 C 63.42 44.882 63.87 46.372 62.92 46.902 Z "/>
            <path fill="rgb(212,93,35)" d=" M 33.16 48.312 C 32.55 47.592 31.68 48.912 31.03 47.882 C 31.03 47.082 32.89 46.682 31.85 45.442 L 32.15 45.182 C 34.298 44.537 36.577 44.468 38.76 44.982 C 39.109 45.315 39.418 45.687 39.68 46.092 C 40.14 46.612 40.68 47.162 40.2 47.882 C 39.72 48.602 39.04 48.412 38.37 48.192 C 37.87 48.042 37.44 48.382 36.96 48.462 C 35.73 47.452 34.39 49.162 33.16 48.312 Z "/>
            <path fill="rgb(218,98,41)" d=" M 33.16 48.312 C 34.7 48.482 34.94 47.312 35.03 46.152 C 36.4 46.352 35.77 48.342 37.24 48.152 C 38.35 47.972 37.71 48.802 37.85 49.152 C 37.92 49.702 38.33 50.152 38.16 50.782 C 37.659 51.513 36.99 52.113 36.21 52.532 C 35.828 52.67 35.401 52.585 35.1 52.312 C 35.1 51.032 33.71 51.392 33.27 50.642 C 32.84 49.512 34.15 49.952 34.38 49.422 L 33.16 48.312 Z "/>
            <path fill="rgb(212,92,35)" d=" M 32.38 56.532 C 31.61 57.952 30.18 58.642 29.01 59.612 C 28.01 59.532 27.01 59.982 25.73 59.412 C 26.73 58.412 30.58 58.942 27.58 56.082 C 27.2 55.712 28.1 55.272 28.46 55.322 C 29.82 55.512 31.39 55.112 32.38 56.532 Z "/>
            <path fill="rgb(219,99,42)" d=" M 35.1 52.312 L 36.27 52.252 C 36.8 51.502 37.33 51.042 37.76 52.332 C 37.67 53.052 38.27 53.332 38.69 53.702 C 39.15 54.412 38.33 54.622 38.15 55.092 C 36.81 56.522 34.97 55.092 33.52 55.892 C 33.29 55.322 33.07 54.742 32.85 54.172 C 33.19 53.732 33.73 53.492 33.96 52.952 C 33.88 51.922 34.45 52.042 35.1 52.312 Z "/>
            <path fill="rgb(219,99,42)" d=" M 28.68 40.332 C 29.461 40.339 30.154 39.83 30.38 39.082 L 30.97 39.082 C 31.47 39.752 32.48 39.482 32.97 40.172 C 32.49 41.912 32.23 43.702 31.84 45.462 L 31.84 45.462 C 30.03 46.072 30.18 43.402 28.31 43.672 C 30.35 42.492 30.13 41.422 28.68 40.332 Z "/>
            <path fill="rgb(220,104,50)" d=" M 26.93 52.702 L 28.1 52.642 C 28.92 53.902 31 52.252 31.52 54.232 C 30.18 53.092 27.79 55.322 26.93 52.702 Z "/>
            <path fill="rgb(209,91,35)" d=" M 34.38 49.422 L 33.27 50.642 L 31.63 51.642 C 31.782 50.273 33.009 49.282 34.38 49.422 Z "/>
            <path fill="rgb(220,104,50)" d=" M 34 52.952 C 34.17 53.852 34.17 53.852 32.89 54.172 C 32.841 53.856 32.938 53.534 33.154 53.297 C 33.369 53.06 33.68 52.934 34 52.952 Z "/>
            <path fill="rgb(219,99,43)" d=" M 39.66 37.472 L 40.22 36.862 C 40.402 36.671 40.656 36.565 40.92 36.572 C 42.87 36.832 44.79 36.042 46.74 36.492 C 48.29 37.212 49.74 35.542 51.3 36.342 C 52.3 36.752 51.7 34.772 52.77 35.342 C 52.99 35.472 53.26 35.762 53.25 35.972 C 53.25 36.832 52.67 37.172 51.87 37.502 C 50.58 38.052 49.03 37.782 47.87 38.802 C 47.847 39.22 47.673 39.614 47.38 39.912 C 46.867 40.491 46.151 40.849 45.38 40.912 C 43.93 40.912 43.94 40.172 44.68 38.912 C 43.75 40.042 42.96 41.252 41.45 40.182 C 40.858 39.902 40.379 39.43 40.09 38.842 C 40.76 38.182 39.1 38.202 39.66 37.472 Z "/>
            <path fill="rgb(211,92,35)" d=" M 48.38 48.772 L 47.22 48.772 C 47.031 48.636 46.923 48.415 46.93 48.182 C 47.101 47.635 46.997 47.039 46.65 46.582 C 46.336 46.191 46.163 45.704 46.16 45.202 C 46.285 44.525 46.892 44.046 47.58 44.082 C 49.18 44.242 51 43.372 52.3 45.022 C 52.349 45.992 52.011 46.942 51.36 47.662 C 50.387 47.609 49.438 47.973 48.75 48.662 L 48.38 48.772 Z "/>
            <path fill="rgb(216,95,37)" d=" M 47.58 44.122 L 46.47 45.342 C 45.01 45.672 43.47 46.802 42.18 45.072 C 44.57 41.072 44.57 41.072 48.35 42.002 L 48.66 42.312 C 48.27 43.012 47.58 42.932 46.94 42.982 C 46.805 43.178 46.59 43.303 46.354 43.322 C 46.117 43.341 45.885 43.253 45.72 43.082 C 46.26 43.572 47.02 43.652 47.58 44.082 L 47.58 44.122 Z "/>
            <path fill="rgb(206,90,35)" d=" M 51.24 47.452 L 52.3 45.062 C 52.81 44.677 53.503 44.641 54.05 44.972 C 54.52 44.908 54.986 45.118 55.25 45.512 C 54.14 46.242 52.16 46.212 52.88 48.512 C 53.03 48.982 52.28 49.002 51.88 48.592 C 51.63 48.382 51.29 48.292 51.07 48.022 C 50.984 47.816 51.055 47.578 51.24 47.452 Z "/>
            <path fill="rgb(214,94,36)" d=" M 51.3 36.342 C 49.77 36.662 48.42 38.072 46.66 37.142 C 46.5 35.892 47.6 35.722 48.26 35.722 C 50.26 35.722 48.4 34.532 48.86 34.112 C 49.65 34.362 50.39 33.442 51.19 34.002 L 51.3 36.342 Z "/>
            <path fill="rgb(210,92,35)" d=" M 47.36 39.452 L 47.91 38.832 C 49.3 39.362 49.16 40.572 49.22 41.702 C 49.002 41.917 48.67 41.966 48.4 41.822 C 47.14 41.432 46.64 40.702 47.36 39.452 Z "/>
            <path fill="rgb(219,102,46)" d=" M 52.72 41.532 C 53.01 41.312 53.28 40.952 53.6 40.912 C 54.36 40.822 54.89 39.052 55.6 40.202 C 56.31 41.352 54.95 41.812 53.94 42.062 C 53.61 41.672 53 41.942 52.72 41.532 Z "/>
            <path fill="rgb(216,95,37)" d=" M 48.63 41.772 L 49.22 41.772 L 50.57 42.002 C 50.46 42.352 50.47 42.822 50.23 43.002 C 49.38 43.732 49.23 42.442 48.66 42.362 L 48.66 42.362 C 48.51 42.242 48.45 42.112 48.5 41.982 C 48.55 41.852 48.58 41.772 48.63 41.772 Z "/>
            <path fill="rgb(220,104,49)" d=" M 52.77 42.702 C 53.21 42.772 53.77 42.702 54.05 42.972 C 54.33 43.242 53.85 43.612 53.49 43.712 C 52.65 43.952 52.29 43.502 52.19 42.712 C 52.253 42.615 52.361 42.555 52.477 42.553 C 52.594 42.551 52.703 42.607 52.77 42.702 Z "/>
            <path fill="rgb(219,101,46)" d=" M 47.58 44.112 C 46.851 44.172 46.139 43.874 45.67 43.312 L 46.94 42.982 L 47.58 44.112 Z "/>
            <path fill="rgb(212,92,35)" d=" M 52.77 42.702 L 52.19 42.702 C 51.44 41.892 52.37 41.822 52.72 41.502 C 53.186 41.43 53.652 41.637 53.91 42.032 C 53.431 42.01 52.984 42.273 52.77 42.702 Z "/>
            <path fill="rgb(220,105,50)" d=" M 54.74 38.242 C 54.57 37.952 54.35 37.742 54.38 37.572 C 54.41 37.402 54.65 37.192 54.81 37.002 C 54.96 37.172 55.25 37.352 55.24 37.502 C 55.23 37.652 55 37.912 54.74 38.242 Z "/>
            <path fill="rgb(220,105,50)" d=" M 46.94 30.702 C 46.24 30.542 45.64 31.582 44.84 30.862 C 45.23 29.802 46 29.862 46.9 30.012 C 47.57 30.102 48.49 30.352 48.4 29.012 C 48.4 28.362 48.97 28.282 49.78 28.812 C 50.21 29.592 51.52 30.642 49.22 30.602 C 48.46 30.582 47.7 30.662 46.94 30.702 Z "/>
            <path fill="rgb(217,96,38)" d=" M 56.69 26.772 C 57.31 26.452 57.87 26.272 57.89 27.302 C 58.066 27.441 58.254 27.564 58.45 27.672 C 58.8 28.052 59.45 28.262 59.14 28.992 L 57.42 29.672 L 56.81 29.112 C 57.44 28.692 56.81 28.332 56.75 27.952 C 56.14 27.372 55.61 28.472 55 28.022 L 55 27.442 L 54.37 26.302 L 54.37 26.302 C 55.29 25.542 55.94 26.412 56.69 26.772 Z "/>
            <path fill="rgb(220,105,51)" d=" M 55 27.972 C 55.58 27.972 56.12 26.712 56.75 27.902 C 56.18 28.072 55.62 28.872 55 27.972 Z "/>
            <path fill="rgb(219,99,42)" d=" M 59.14 28.942 L 57.92 27.832 C 58.66 27.202 59.46 26.642 60.17 25.972 L 60.17 25.972 L 63.09 25.842 C 63.09 26.842 64 27.322 64.37 28.112 C 63.53 28.062 62.69 27.952 61.86 27.982 C 61.39 27.982 60.86 28.232 61.48 28.842 C 61.48 29.032 61.48 29.232 61.48 29.422 L 59.14 28.942 Z "/>
            <path fill="rgb(219,99,43)" d=" M 32.13 39.002 L 31.49 37.862 C 31.81 37.881 32.121 37.755 32.336 37.518 C 32.552 37.281 32.649 36.959 32.6 36.642 C 34.133 37.131 35.79 37.053 37.27 36.422 C 37.258 36.742 37.388 37.051 37.626 37.265 C 37.863 37.479 38.183 37.577 38.5 37.532 C 38.79 38.262 38.39 38.672 37.84 39.032 C 35.93 39.462 34 40.242 32.13 39.002 Z "/>
            <path fill="rgb(212,93,35)" d=" M 37.27 36.422 C 36.734 37.156 35.895 37.608 34.988 37.651 C 34.08 37.694 33.202 37.323 32.6 36.642 C 32.7 35.942 32.21 35.112 33.14 34.482 C 33.69 35.192 33.31 36.722 34.87 36.482 C 35.87 36.352 36.49 36.032 36.23 34.852 C 36.13 34.342 36.55 34.152 36.96 34.352 C 38 34.892 37.1 35.772 37.27 36.422 Z "/>
            <path fill="rgb(219,102,46)" d=" M 32 32.772 C 33.08 31.892 33.93 32.652 34.76 32.452 C 35.683 32.29 36.614 32.179 37.55 32.122 C 35.967 33.36 33.826 33.611 32 32.772 Z "/>
            <path fill="rgb(212,92,35)" d=" M 40.8 36.832 L 40.22 36.832 C 40.52 35.992 40.04 34.442 41.89 35.002 L 41.89 35.002 C 42.16 36.012 42.16 36.832 40.8 36.832 Z "/>
            <path fill="rgb(220,104,49)" d=" M 38 38.772 L 38.53 37.582 L 39.69 37.522 C 39.64 38.052 40.89 37.852 40.33 38.662 C 40.043 39.002 39.633 39.214 39.19 39.252 C 38.741 39.28 38.304 39.104 38 38.772 Z "/>
            <path fill="rgb(220,106,52)" d=" M 32.27 29.632 C 33.74 27.682 35.27 27.632 36.94 29.412 C 35.386 29.14 33.791 29.215 32.27 29.632 Z "/>
            <path fill="rgb(220,106,52)" d=" M 37.53 29.392 C 38.53 29.182 36.65 26.392 39.19 27.552 C 41.89 29.992 38.19 28.552 38.11 29.362 L 37.53 29.392 Z "/>
            <path fill="rgb(217,96,38)" d=" M 40.8 36.832 L 41.89 35.032 C 42.76 34.422 44.95 36.702 44.75 33.722 L 44.75 33.722 C 46.06 34.472 47.54 33.472 48.86 34.112 L 50.19 35.592 L 46.66 37.142 C 44.75 36.292 42.67 38.662 40.8 36.832 Z "/>
            <path fill="rgb(220,105,51)" d=" M 43.19 25.612 L 45 25.532 C 45.11 26.722 44.06 28.402 46.45 28.632 C 44.65 29.702 44.03 28.312 43.01 27.432 C 41.99 26.552 43.3 26.222 43.19 25.612 Z "/>
            <path fill="rgb(220,105,50)" d=" M 39.19 27.552 C 39.28 26.882 38.36 26.092 39.27 25.552 C 40.18 25.012 40.56 26.552 41.47 26.292 C 41.35 27.852 40.1 27.402 39.19 27.552 Z "/>
            <path fill="rgb(216,95,37)" d=" M 44.75 33.772 C 44.04 33.772 43.23 34.022 42.75 32.952 C 43.75 32.582 44.5 32.462 44.75 33.772 Z "/>
            <path fill="rgb(220,105,50)" d=" M 60.17 25.972 C 60.06 27.372 58.98 27.582 57.92 27.832 L 57.92 27.252 C 58.52 26.592 59.07 25.772 60.17 25.972 Z "/>
            <line x1="56.69" x2="54.33" y1="26.772" y2="26.302"/>
            <path fill="rgb(216,96,38)" d=" M 38 38.772 L 39.16 38.722 C 39.91 40.182 38.71 40.302 37.85 40.652 C 37.52 40.714 37.186 40.754 36.85 40.772 C 35.754 40.887 34.648 40.857 33.56 40.682 C 33.277 40.548 33.008 40.384 32.76 40.192 C 31.91 40.242 31.07 40.292 30.96 39.112 L 32.12 39.052 L 38 38.772 Z "/>
            <path fill="rgb(220,103,48)" d=" M 34.26 25.422 C 35.1 25.542 36.26 25.072 36.33 26.332 C 36.33 27.232 35.43 27.722 34.47 27.742 C 33.51 27.762 32.59 27.332 32.56 26.412 C 32.53 25.492 33.61 25.582 34.26 25.422 Z "/>
            <path fill="rgb(217,96,38)" d=" M 48.63 41.772 L 48.63 42.352 C 45.2 42.452 45.2 42.452 42.32 44.992 C 41.173 46.573 41.277 48.739 42.57 50.202 C 43.16 50.742 43.74 51.132 43.64 52.012 C 43.28 53.142 42.4 52.912 41.7 52.852 C 42.159 53.103 42.712 53.107 43.174 52.864 C 43.637 52.621 43.947 52.162 44 51.642 C 44.26 51.292 44.56 51.032 45 51.262 C 46.05 50.882 45.76 52.712 46.81 52.342 C 48.11 52.052 47.94 53.202 48.28 53.852 C 48.203 54.239 48.003 54.59 47.71 54.852 C 46.61 55.392 46.41 56.702 45.51 57.412 C 45.129 57.57 44.698 57.549 44.334 57.356 C 43.97 57.162 43.712 56.816 43.63 56.412 C 43.5 55.412 42.84 55.412 42.01 55.482 C 41.18 55.552 40.39 56.482 39.39 56.162 L 38.16 55.052 C 37.53 54.292 38.8 54.382 38.69 53.852 C 38.253 53.525 37.842 53.164 37.46 52.772 C 37.46 51.772 36.89 51.922 36.27 52.242 C 36.1 50.972 37.57 51.242 37.93 50.412 C 38.5 48.972 36.93 49.922 36.71 49.302 C 36.49 48.682 37.88 48.862 37.24 48.102 C 37.83 46.192 38.95 48.572 39.88 47.592 C 40.2 46.662 37.75 46.422 38.88 45.102 C 38.972 45.014 39.059 44.921 39.14 44.822 C 39.77 43.822 40.96 43.242 39.99 41.642 C 39.34 40.552 40.78 40.182 41.55 39.712 C 42.11 39.562 43.37 41.592 43.27 39.002 C 43.27 38.212 45.36 39.812 46.27 37.892 C 46.4 39.742 44.64 39.162 44.83 40.402 C 45.92 40.682 46.53 39.712 47.39 39.402 C 47.17 40.552 48 41.102 48.63 41.772 Z "/>
            <path fill="rgb(212,92,35)" d=" M 39.38 56.202 C 40.31 54.702 41.91 54.792 43.38 54.652 C 44.23 54.562 44.45 55.212 44.09 55.982 C 43.3 57.222 44.09 57.532 45.09 57.572 C 45.71 57.572 46.24 57.572 46.52 58.202 C 46.13 58.912 45.44 58.822 44.8 58.872 L 43 58.952 C 41.76 58.092 40.28 57.542 39.38 56.202 Z "/>
            <path fill="rgb(219,101,44)" d=" M 37.74 58.622 L 34.24 58.782 C 34.24 58.422 33.92 57.492 34.39 57.852 C 35.48 58.692 37 56.842 37.74 58.622 Z "/>
            <path fill="rgb(217,97,39)" d=" M 46.49 58.202 C 45.668 58.214 44.849 58.086 44.07 57.822 C 43.36 57.442 42.13 56.612 44.07 55.982 C 44.18 57.162 45.07 57.112 45.87 57.062 C 46.023 56.903 46.234 56.813 46.455 56.813 C 46.676 56.813 46.887 56.903 47.04 57.062 C 47.35 57.632 47.52 58.182 46.49 58.202 Z "/>
            <path fill="rgb(205,89,35)" d=" M 47 57.012 L 45.83 57.012 C 45.05 55.302 46.25 54.942 47.47 54.592 C 48.142 55.077 48.756 55.637 49.3 56.262 L 49.3 56.842 L 47 57.012 Z "/>
            <line x1="49.35" x2="51.1" y1="56.902" y2="56.772"/>
            <path fill="rgb(212,93,36)" d=" M 43.27 51.922 C 41.16 50.642 41.02 48.562 40.93 46.392 C 40.88 45.232 41.3 44.852 42.35 44.952 C 43.61 46.272 45.21 43.952 46.47 45.342 L 47.11 46.482 C 47.11 47.062 47.55 47.632 47.19 48.232 L 47.19 48.812 C 45.93 49.632 43.42 50.092 43.88 48.632 C 44.73 45.892 42.48 47.382 42.32 46.482 C 42.11 48.772 43.52 50.042 45 51.262 L 44.45 51.872 C 44.307 52.047 44.097 52.153 43.871 52.162 C 43.646 52.172 43.427 52.085 43.27 51.922 Z "/>
            <path fill="rgb(217,96,38)" d=" M 49.32 56.312 C 48.04 56.502 47.42 55.952 47.49 54.642 L 48.05 54.032 C 48.18 53.782 48.25 53.482 48.6 53.422 C 49.02 53.643 49.271 54.089 49.24 54.562 C 49.42 55.142 50.23 55.692 49.32 56.312 Z "/>
            <path fill="rgb(220,103,48)" d=" M 48.6 53.422 L 48.05 54.032 L 46.8 52.342 C 48.07 51.582 48.9 51.572 48.6 53.422 Z "/>
            <path fill="rgb(211,92,35)" d=" M 51.27 48.032 L 51.88 48.592 L 50.16 49.262 C 49.49 49.442 49.37 49.012 49.31 48.502 C 49.76 47.522 50.47 47.562 51.27 48.032 Z "/>
            <path fill="rgb(219,100,44)" d=" M 49.55 48.702 L 50.16 49.262 C 49.24 50.262 48.67 49.982 48.38 48.752 L 48.38 48.752 C 48.524 48.584 48.732 48.482 48.954 48.473 C 49.176 48.463 49.392 48.546 49.55 48.702 Z "/>
            <path fill="rgb(220,103,48)" d=" M 55.46 50.172 L 54.3 50.232 C 53.7 49.642 54.22 49.352 54.67 49.232 C 55.31 49.132 55.39 49.702 55.46 50.172 Z "/>
            <path fill="rgb(220,103,48)" d=" M 52.63 52.062 L 51.32 51.882 C 51.42 51.662 51.47 51.312 51.64 51.242 C 52.45 50.882 52.5 51.542 52.64 52.062 L 52.63 52.062 Z "/>
            <path fill="rgb(217,96,38)" d=" M 36.85 39.942 L 37.44 39.942 C 39.91 41.122 40.44 42.842 38.85 45.132 L 38.85 45.132 L 31.85 45.462 C 31.865 45.37 31.865 45.275 31.85 45.182 C 31.304 43.467 31.649 41.591 32.77 40.182 L 33.35 40.182 C 34.475 40.739 35.812 40.648 36.85 39.942 Z "/>
            <path fill="rgb(209,91,35)" d=" M 36.71 49.312 C 37.367 49.184 38.048 49.322 38.602 49.698 C 39.156 50.074 39.537 50.655 39.66 51.312 L 37.93 50.452 L 36.71 49.312 Z "/>
            <path fill="rgb(220,104,50)" d=" M 37.46 52.772 C 37.777 52.724 38.098 52.82 38.335 53.036 C 38.572 53.252 38.699 53.563 38.68 53.882 C 38.07 53.772 37.05 54.052 37.46 52.772 Z "/>
            <path fill="rgb(219,99,42)" d=" M 38.85 45.112 C 38.835 45.02 38.835 44.925 38.85 44.832 C 39.244 43.068 38.726 41.223 37.47 39.922 C 38.31 39.922 39.16 39.862 39.16 38.672 L 40.33 38.612 L 41.52 39.772 C 41.22 40.772 39.11 42.122 42.52 42.682 C 40.64 43.102 40.65 45.232 38.85 45.112 Z "/>
            <path fill="rgb(216,95,37)" d=" M 49.55 48.702 L 48.38 48.702 C 49.16 47.892 49.31 45.702 51.24 47.402 L 51.24 47.982 C 50.63 48.082 49.94 48.002 49.55 48.702 Z "/>
            <path fill="rgb(216,95,37)" d=" M 47.19 48.232 C 47.01 47.652 46.19 47.102 47.11 46.482 C 48.31 47.002 48.34 47.592 47.19 48.232 Z "/>
            <path fill="rgb(219,99,42)" d=" M 36.85 39.942 C 36.73 40.542 36.76 41.732 35.92 41.162 C 35.08 40.592 33.31 42.422 33.35 40.112 L 36.85 39.942 Z "/>
            <path fill="rgb(220,104,50)" d=" M 43.27 51.922 L 44.44 51.922 C 43.99 52.662 43.94 53.992 42.52 53.362 C 41.52 52.922 40.89 54.042 39.8 54.052 C 40.32 51.772 42.58 53.262 43.27 51.922 Z "/>
            <path fill="rgb(219,101,44)" d=" M 34 43.912 C 34.277 43.472 34.75 43.194 35.269 43.166 C 35.788 43.139 36.288 43.365 36.61 43.772 C 36.33 44.209 35.858 44.483 35.341 44.511 C 34.824 44.539 34.325 44.316 34 43.912 Z "/>
            <path fill="rgb(255,255,255)" d=" M 48.2 33.342 L 47.43 35.642 L 45.57 36.992 L 43.83 37.242 L 42.5 37.052 L 40.98 36.242 L 40.06 35.022 L 39.67 33.162 L 39.9 31.882 L 40.79 30.442 L 41.86 29.682 L 43.99 29.262 L 45.51 29.502 L 47.69 31.272 L 48.2 33.342 L 48.2 33.342 Z "/>
            <path fill="rgb(255,255,255)" d=" M 46.8 52.772 L 46.93 41.482 L 45.72 41.482 L 45.72 41.482 L 42.84 41.272 L 41.68 41.162 L 41.68 41.162 L 38.36 40.932 L 38.45 45.672 L 41.69 45.562 C 41.69 47.782 41.75 50.312 41.74 52.772 L 38.44 52.772 L 38.44 57.532 L 51.2 57.322 L 51.2 52.772 L 46.8 52.772 Z "/>
        </g>
    </g>
    <defs>
        <filter id="QQ1c7gymmZIuTXXhHyCscsm2tH8KBz1Q" width="93.504" height="90.786" x="0" y="0" filterUnits="userSpaceOnUse">
            <feGaussianBlur xmlns="http://www.w3.org/2000/svg" in="SourceGraphic" stdDeviation="1.7174436251356113"/>
            <feOffset xmlns="http://www.w3.org/2000/svg" dx="2" dy="2" result="pf_100_offsetBlur"/>
            <feFlood xmlns="http://www.w3.org/2000/svg" flood-color="#000000" flood-opacity="0.5"/>
            <feComposite xmlns="http://www.w3.org/2000/svg" in2="pf_100_offsetBlur" operator="in" result="pf_100_dropShadow"/>
            <feBlend xmlns="http://www.w3.org/2000/svg" in="SourceGraphic" in2="pf_100_dropShadow" mode="normal"/>
        </filter>
    </defs>
</svg>
