<svg xmlns="http://www.w3.org/2000/svg" xmlns:xlink="http://www.w3.org/1999/xlink" width="57" height="46" style="isolation:isolate" viewBox="20 18 57 46">
    <g filter="url(#4vfEKN9eB0FLj81sJ5gwUeRs9dsNMrcD)">
        <path fill="rgb(245,245,245)" d=" M 71.58 21.59 L 71.02 22.11 C 70.87 21.989 70.71 21.881 70.54 21.79 C 70.298 21.654 70.047 21.534 69.79 21.43 L 71.37 20 L 20 20 L 22.28 21.91 C 21.624 22.501 21.228 23.328 21.18 24.21 C 20.948 27.735 20.912 31.271 21.07 34.8 C 21.079 35.298 21.22 35.785 21.48 36.21 C 21.77 42.86 22.17 50.28 22.31 53.32 C 22.389 54.895 23.673 56.14 25.25 56.17 Q 47.54 57.47 69.87 57.21 C 70.942 57.185 71.912 56.569 72.39 55.61 C 72.49 55.42 71.58 21.59 71.58 21.59 Z "/>
        <path fill="rgb(102,102,102)" d=" M 56.94 35.51 C 58.33 34.34 60.27 32.21 61.69 31.05 C 65.19 28.05 68.06 24.62 71.05 22.13 C 70.907 21.999 70.749 21.885 70.58 21.79 C 70.295 21.63 69.997 21.493 69.69 21.38 C 62.42 26.65 48.91 36.9 45.82 38.87 L 45.82 38.87 C 41.69 36.6 27.37 25.69 22.29 21.92 C 21.793 22.353 21.444 22.929 21.29 23.57 C 23.48 25.5 25.82 27.86 28.29 29.96 C 30.46 31.81 32.6 34.36 34.78 36.11 L 22.31 53.21 L 22.31 53.21 C 22.338 54.387 23.084 55.427 24.19 55.83 L 38 38.62 C 40.072 40.047 42.233 41.339 44.47 42.49 C 45.024 42.827 45.645 43.038 46.29 43.11 C 47.149 43.179 48.003 42.93 48.69 42.41 C 50.55 41.23 51.83 39.71 53.83 38.11 L 70.04 57.21 C 71.045 57.129 71.936 56.531 72.39 55.63 L 56.94 35.51 Z "/>
    </g>
    <defs>
        <filter id="4vfEKN9eB0FLj81sJ5gwUeRs9dsNMrcD" width="80.398" height="65.253" x="8" y="8" filterUnits="userSpaceOnUse">
            <feGaussianBlur xmlns="http://www.w3.org/2000/svg" in="SourceGraphic" stdDeviation="1.7174436251356113"/>
            <feOffset xmlns="http://www.w3.org/2000/svg" dx="2" dy="2" result="pf_100_offsetBlur"/>
            <feFlood xmlns="http://www.w3.org/2000/svg" flood-color="#000000" flood-opacity="0.5"/>
            <feComposite xmlns="http://www.w3.org/2000/svg" in2="pf_100_offsetBlur" operator="in" result="pf_100_dropShadow"/>
            <feBlend xmlns="http://www.w3.org/2000/svg" in="SourceGraphic" in2="pf_100_dropShadow" mode="normal"/>
        </filter>
    </defs>
</svg>
