<svg xmlns="http://www.w3.org/2000/svg" width="40.5" height="30.88" viewBox="0 0 40.5 30.88"><title>lernen-icon</title><g id="Ebene_2" data-name="Ebene 2"><g id="Ebene_5" data-name="Ebene 5"><path d="M20.93,8.66v22.2a21.65,21.65,0,0,1,6.52-5.2,23.81,23.81,0,0,1,8.25-2.29l-.59-22.2S31,.2,25.47,3.87A13.07,13.07,0,0,0,20.93,8.66Z" fill="#fff"/><path d="M37.58,5.24V25.15A20,20,0,0,0,29,26.83c-4.07,1.94-5.4,4-5.4,4s5.5-2,9.17-1.94a33.83,33.83,0,0,1,6.92,1L40.5,4.61Z" fill="#fff"/><path d="M19.25,8.66v22.2a21.53,21.53,0,0,0-6.51-5.2,23.87,23.87,0,0,0-8.25-2.29L4.33,0A22.45,22.45,0,0,1,14.72,3.87,13,13,0,0,1,19.25,8.66Z" fill="#fff"/><path d="M2.6,5.24V25.15a20.1,20.1,0,0,1,8.61,1.68c4.07,1.94,5.4,4,5.4,4s-5.5-2-9.17-1.94a20.43,20.43,0,0,0-7.44,2L.57,5.75Z" fill="#fff"/></g></g></svg>