<?xml version="1.0" standalone="no"?><!-- Generator: Gravit.io --><svg xmlns="http://www.w3.org/2000/svg" xmlns:xlink="http://www.w3.org/1999/xlink" style="isolation:isolate" viewBox="0 0 18 17" width="18" height="17"><g><path d=" M 2.962 6.491 L 2.962 10.509 L 5.64 10.509 L 8.988 13.857 L 8.988 3.143 L 5.64 6.491 L 2.962 6.491 Z  M 12.001 8.5 C 11.993 7.363 11.346 6.327 10.327 5.822 L 10.327 11.178 C 11.349 10.677 11.998 9.638 12.001 8.5 Z  M 10.327 2.628 L 10.327 4.007 C 12.316 4.598 13.679 6.426 13.679 8.5 C 13.679 10.574 12.316 12.402 10.327 12.993 L 10.327 14.372 C 13.062 13.742 15 11.307 15 8.5 C 15 5.693 13.062 3.258 10.327 2.628 Z " fill="rgb(255,255,255)"/></g></svg>