<svg xmlns="http://www.w3.org/2000/svg" width="37.3" height="37.3" viewBox="0 0 37.3 37.3"><title>Hintergrund ändern</title><g id="Ebene_2" data-name="Ebene 2"><g id="Ebene_2-2" data-name="Ebene 2"><circle cx="18.65" cy="18.65" r="18.65" fill="#9ebae2"/><path d="M13,24.58a7.77,7.77,0,0,1,.16-10.76,7.57,7.57,0,0,1,4.27-2.17l-.09-2.6a10.18,10.18,0,0,0-6,2.94,10.37,10.37,0,0,0-.16,14.41L9.06,28.6l6.88.37V21.68ZM21.35,9.63l0,7.3L24.25,14a7.78,7.78,0,0,1-.16,10.77A7.6,7.6,0,0,1,19.82,27l.09,2.59a10.1,10.1,0,0,0,6-2.93,10.38,10.38,0,0,0,.15-14.42L28.24,10Z" fill="#fff"/></g></g></svg>