<svg xmlns="http://www.w3.org/2000/svg" width="34.68" height="28.03" viewBox="0 0 34.68 28.03"><g id="Ebene_2" data-name="Ebene 2"><g id="Ebene_2-2" data-name="Ebene 2"><path d="M30.3,16.8c.09-.45.16-.91.21-1.37A13.18,13.18,0,0,0,30.58,14c0-.43,0-.85-.06-1.27l0-.28c0-.38-.1-.75-.17-1.12l-.09-.41c-.06-.26-.12-.52-.2-.77s-.14-.49-.23-.73l-.18-.51A14,14,0,0,0,19.36.28h0C18.89.19,18.44.12,18,.07A13.18,13.18,0,0,0,16.57,0h0a14,14,0,0,0,0,28h0q.63,0,1.26-.06l.28,0c.38,0,.75-.1,1.12-.17.14,0,.27-.06.41-.09s.52-.12.77-.19.49-.15.73-.24l.51-.18A14,14,0,0,0,30.3,16.81h0Z" fill="#9ebae2"/><path d="M18.7,19.79a10.49,10.49,0,0,1,.37,1.64.41.41,0,0,1-.16.37,3.24,3.24,0,0,1-1,.58l-1.17.16a2.47,2.47,0,0,1-1.08-.36.85.85,0,0,1-.45-.66,5.38,5.38,0,0,1,0-1.65l.47-.2a4.68,4.68,0,0,1,1.4-.18,5.24,5.24,0,0,1,1.35.19l.27.11" fill="#5b84bf"/><path d="M32.28,14.84l.45.19-2,1.26L28.58,17.4c-.72.33-1.45.63-2.2.9a18.85,18.85,0,0,1-2.31.64l-2.44.42-.32-.19.18-.27,2.32-.44c.76-.17,1.51-.37,2.25-.61s1.48-.52,2.2-.83,1.38-.64,2-1,1.33-.76,2-1.17m-1.93,4.62-2.12.5-2.2.36-2.26.24-2.27.12-.25,0-.14-.26.2-.14,2.83-.19,2.72-.33,2.71-.56,2.57-.78c.83-.31,1.66-.63,2.48-1l.06.07-.6.47-.89.55-.71.31-2.13.64m1.17,2.11L34,20.85l.2.2-1.91.76-2.05.55-2.13.28-2.25.1-2.19-.09-.85-.13-1.1-.28L20.86,22l.14-.32,2.53.5,2.7.17,2.71-.21,2.58-.52M3.27,15.73l-.82-.67.12-.32L4.37,16a20.36,20.36,0,0,0,1.87,1.06c.63.3,1.28.57,1.94.82l2.06.65,2.13.54.13.19v.2l-1.16-.07-1-.25L8.43,18.5l-1.8-.74a18.34,18.34,0,0,1-1.75-.94L3.27,15.73m7.11,4.83,2.06.05.26,0-.07.26-.18.13H9.8L7.23,20.7A22,22,0,0,1,4.7,20a19.22,19.22,0,0,1-2.39-1L.07,17.78,0,17.53l.39-.07c.6.36,1.22.71,1.85,1a15.66,15.66,0,0,0,1.88.81,17.39,17.39,0,0,0,2,.61l2.15.44,2.13.2M5.42,23a16.85,16.85,0,0,1-2.52-.62c-.8-.24-1.58-.51-2.35-.81l-.14-.27.13-.19,1.64.64a12.65,12.65,0,0,0,1.67.48l1.76.31,1.8.18,1.88.1,1.09-.23,1.28-.43a9.66,9.66,0,0,0,1-.46l.27.13v.33a20.82,20.82,0,0,1-2.44.75,11.43,11.43,0,0,1-2.47.3L5.42,23" fill="#5b84bf"/><path d="M8.86,6.25A25.21,25.21,0,0,0,7.38,11a.52.52,0,0,0,0,.55c.14.11.25.06.39,0s.2.5.31.79a4.47,4.47,0,0,0,3.13,2.93,4,4,0,0,0,1.54,0,4.08,4.08,0,0,0,2.82-2.58A5.5,5.5,0,0,0,15.77,10c.15-.2.45.14.56-.17a.44.44,0,0,0,0-.46,31.26,31.26,0,0,0-2-3.95,2.13,2.13,0,0,0-1.78-.61C11,5,9.71,5.07,8.86,6.25" fill="#5b84bf"/><path d="M9.31,6.78a4,4,0,0,0-.42,1.16c-.17.55-.71,2.29-.71,2.55.17.08.4-.18.59-.23A9.45,9.45,0,0,1,13.55,9.2a12.38,12.38,0,0,1,1.94.07,12.57,12.57,0,0,0-1-2.14c-.33-.59-.61-1.34-1.29-1.58a6.66,6.66,0,0,0-3.51.69,1.22,1.22,0,0,0-.38.54" fill="#9ebae2"/><path d="M23.91,7.61V5.93a11.59,11.59,0,0,0-1.48-.36,6.79,6.79,0,0,0-.86-.06l-.42.11A12.45,12.45,0,0,0,20,7.05a17.93,17.93,0,0,1-1,1.5,4.38,4.38,0,0,1-.34.64,10.85,10.85,0,0,1,4.85.41c.66.29,1.9.9,2.52,1.24a21.71,21.71,0,0,0-.5-3.23Z" fill="#9ebae2"/><path d="M13.41,9.88a2.07,2.07,0,0,1-.61,2.86,2.19,2.19,0,0,1-1.72.1,2.19,2.19,0,0,1-1.14-1.6c0-.26-.06-.52.09-.75a6.44,6.44,0,0,0-1.48.64,3.87,3.87,0,0,0,1.33,2.72,2.91,2.91,0,0,0,1.74.64,3.19,3.19,0,0,0,3.1-1.68,4.44,4.44,0,0,0,.46-2.44c-.07-.22,0-.49-.33-.46a9.14,9.14,0,0,0-1.44,0" fill="#ebebeb"/><path d="M25.69,6.6C24.63,5.32,22.32,4.88,20.57,5c-2.09,1.33-3.22,4.61-3.22,4.61.16.6.69.16,1,.21l-.13.54a4.56,4.56,0,0,0,1.19,4.05,4,4,0,0,0,4.07.58A4.07,4.07,0,0,0,26,11.42c.84.22,1,.21,1,.05A28.24,28.24,0,0,0,25.69,6.6Z" fill="#5b84bf"/><path d="M18,9.22a20.09,20.09,0,0,1,2.79-3.75c3.38.15,4.43,1.31,4.43,1.31a14.11,14.11,0,0,1,1.05,4C23.72,9.71,21.08,8.72,18,9.22Z" fill="#9ebae2"/><path d="M21.91,14.54a3.21,3.21,0,0,1-2.21-.81,4.08,4.08,0,0,1-.73-4h.73a5.15,5.15,0,0,1,1,.08,1.78,1.78,0,0,0-.45,1.61A1.86,1.86,0,0,0,21.44,13a1.7,1.7,0,0,0,.61.1,1.51,1.51,0,0,0,1-.36,2.64,2.64,0,0,0,.57-1.37,3.15,3.15,0,0,0-.13-1,11.46,11.46,0,0,1,1.89.79,3.54,3.54,0,0,1-2,3.14A4.26,4.26,0,0,1,21.91,14.54Z" fill="#ebebeb"/></g></g></svg>